solid CATIA STL
  facet normal  0.000000e+000  -0.000000e+000  1.000000e+000
    outer loop
      vertex  6.232233e+000  9.767767e+000  6.000000e+000
      vertex  8.000000e+000  1.050000e+001  6.000000e+000
      vertex  8.000000e+000  1.950000e+001  6.000000e+000
    endloop
  endfacet
  facet normal  0.000000e+000  0.000000e+000  1.000000e+000
    outer loop
      vertex  1.050000e+001  8.000000e+000  6.000000e+000
      vertex  8.000000e+000  1.950000e+001  6.000000e+000
      vertex  9.767767e+000  9.767767e+000  6.000000e+000
    endloop
  endfacet
  facet normal  0.000000e+000  0.000000e+000  1.000000e+000
    outer loop
      vertex  9.767767e+000  9.767767e+000  6.000000e+000
      vertex  8.000000e+000  1.950000e+001  6.000000e+000
      vertex  8.000000e+000  1.050000e+001  6.000000e+000
    endloop
  endfacet
  facet normal  0.000000e+000  0.000000e+000  1.000000e+000
    outer loop
      vertex  1.250000e+001  0.000000e+000  6.000000e+000
      vertex  1.050000e+001  2.200000e+001  6.000000e+000
      vertex  9.767767e+000  2.023223e+001  6.000000e+000
    endloop
  endfacet
  facet normal  0.000000e+000  0.000000e+000  1.000000e+000
    outer loop
      vertex  1.250000e+001  0.000000e+000  6.000000e+000
      vertex  9.767767e+000  2.023223e+001  6.000000e+000
      vertex  8.000000e+000  1.950000e+001  6.000000e+000
    endloop
  endfacet
  facet normal  0.000000e+000  0.000000e+000  1.000000e+000
    outer loop
      vertex  1.250000e+001  0.000000e+000  6.000000e+000
      vertex  8.000000e+000  1.950000e+001  6.000000e+000
      vertex  1.050000e+001  8.000000e+000  6.000000e+000
    endloop
  endfacet
  facet normal  0.000000e+000  0.000000e+000  1.000000e+000
    outer loop
      vertex  1.250000e+001  0.000000e+000  6.000000e+000
      vertex  1.050000e+001  8.000000e+000  6.000000e+000
      vertex  9.767767e+000  6.232233e+000  6.000000e+000
    endloop
  endfacet
  facet normal  0.000000e+000  0.000000e+000  1.000000e+000
    outer loop
      vertex  1.250000e+001  0.000000e+000  6.000000e+000
      vertex  9.767767e+000  6.232233e+000  6.000000e+000
      vertex  8.000000e+000  5.500000e+000  6.000000e+000
    endloop
  endfacet
  facet normal  0.000000e+000  0.000000e+000  1.000000e+000
    outer loop
      vertex  1.250000e+001  0.000000e+000  6.000000e+000
      vertex  8.000000e+000  5.500000e+000  6.000000e+000
      vertex  0.000000e+000  0.000000e+000  6.000000e+000
    endloop
  endfacet
  facet normal  0.000000e+000  0.000000e+000  9.999999e-001
    outer loop
      vertex  0.000000e+000  3.000000e+001  6.000000e+000
      vertex  0.000000e+000  0.000000e+000  6.000000e+000
      vertex  5.500000e+000  2.200000e+001  6.000000e+000
    endloop
  endfacet
  facet normal  0.000000e+000  -0.000000e+000  1.000000e+000
    outer loop
      vertex  0.000000e+000  3.000000e+001  6.000000e+000
      vertex  5.500000e+000  2.200000e+001  6.000000e+000
      vertex  6.232233e+000  2.376777e+001  6.000000e+000
    endloop
  endfacet
  facet normal  0.000000e+000  -0.000000e+000  1.000000e+000
    outer loop
      vertex  0.000000e+000  3.000000e+001  6.000000e+000
      vertex  6.232233e+000  2.376777e+001  6.000000e+000
      vertex  8.000000e+000  2.450000e+001  6.000000e+000
    endloop
  endfacet
  facet normal  0.000000e+000  -0.000000e+000  1.000000e+000
    outer loop
      vertex  0.000000e+000  3.000000e+001  6.000000e+000
      vertex  8.000000e+000  2.450000e+001  6.000000e+000
      vertex  1.250000e+001  3.000000e+001  6.000000e+000
    endloop
  endfacet
  facet normal  0.000000e+000  0.000000e+000  1.000000e+000
    outer loop
      vertex  0.000000e+000  0.000000e+000  6.000000e+000
      vertex  8.000000e+000  5.500000e+000  6.000000e+000
      vertex  6.232233e+000  6.232233e+000  6.000000e+000
    endloop
  endfacet
  facet normal  0.000000e+000  0.000000e+000  1.000000e+000
    outer loop
      vertex  0.000000e+000  0.000000e+000  6.000000e+000
      vertex  6.232233e+000  6.232233e+000  6.000000e+000
      vertex  5.500000e+000  8.000000e+000  6.000000e+000
    endloop
  endfacet
  facet normal  0.000000e+000  -0.000000e+000  1.000000e+000
    outer loop
      vertex  0.000000e+000  0.000000e+000  6.000000e+000
      vertex  5.500000e+000  8.000000e+000  6.000000e+000
      vertex  6.232233e+000  9.767767e+000  6.000000e+000
    endloop
  endfacet
  facet normal  0.000000e+000  -0.000000e+000  1.000000e+000
    outer loop
      vertex  0.000000e+000  0.000000e+000  6.000000e+000
      vertex  6.232233e+000  9.767767e+000  6.000000e+000
      vertex  8.000000e+000  1.950000e+001  6.000000e+000
    endloop
  endfacet
  facet normal  0.000000e+000  0.000000e+000  1.000000e+000
    outer loop
      vertex  0.000000e+000  0.000000e+000  6.000000e+000
      vertex  8.000000e+000  1.950000e+001  6.000000e+000
      vertex  6.232233e+000  2.023223e+001  6.000000e+000
    endloop
  endfacet
  facet normal  0.000000e+000  0.000000e+000  1.000000e+000
    outer loop
      vertex  0.000000e+000  0.000000e+000  6.000000e+000
      vertex  6.232233e+000  2.023223e+001  6.000000e+000
      vertex  5.500000e+000  2.200000e+001  6.000000e+000
    endloop
  endfacet
  facet normal  -0.000000e+000  0.000000e+000  1.000000e+000
    outer loop
      vertex  1.250000e+001  3.000000e+001  6.000000e+000
      vertex  8.000000e+000  2.450000e+001  6.000000e+000
      vertex  9.767767e+000  2.376777e+001  6.000000e+000
    endloop
  endfacet
  facet normal  -0.000000e+000  0.000000e+000  1.000000e+000
    outer loop
      vertex  1.250000e+001  3.000000e+001  6.000000e+000
      vertex  9.767767e+000  2.376777e+001  6.000000e+000
      vertex  1.050000e+001  2.200000e+001  6.000000e+000
    endloop
  endfacet
  facet normal  -0.000000e+000  0.000000e+000  1.000000e+000
    outer loop
      vertex  1.250000e+001  3.000000e+001  6.000000e+000
      vertex  1.050000e+001  2.200000e+001  6.000000e+000
      vertex  1.250000e+001  0.000000e+000  6.000000e+000
    endloop
  endfacet
  facet normal -1.000000e+000  0.000000e+000  0.000000e+000
    outer loop
      vertex  1.450000e+001  3.000000e+001  1.100000e+001
      vertex  1.450000e+001  3.000000e+001  8.000000e+000
      vertex  1.450000e+001 -7.105427e-015  1.100000e+001
    endloop
  endfacet
  facet normal -1.000000e+000  0.000000e+000  0.000000e+000
    outer loop
      vertex  1.450000e+001 -7.105427e-015  1.100000e+001
      vertex  1.450000e+001  3.000000e+001  8.000000e+000
      vertex  1.450000e+001 -7.105427e-015  8.000000e+000
    endloop
  endfacet
  facet normal  0.000000e+000  1.000000e+000  0.000000e+000
    outer loop
      vertex  1.450000e+001  3.000000e+001  1.100000e+001
      vertex  2.550000e+001  3.000000e+001  8.000000e+000
      vertex  2.608579e+001  3.000000e+001  6.585786e+000
    endloop
  endfacet
  facet normal  0.000000e+000  1.000000e+000  0.000000e+000
    outer loop
      vertex  1.450000e+001  3.000000e+001  1.100000e+001
      vertex  2.550000e+001  3.000000e+001  1.100000e+001
      vertex  2.550000e+001  3.000000e+001  8.000000e+000
    endloop
  endfacet
  facet normal  -0.000000e+000  1.000000e+000  0.000000e+000
    outer loop
      vertex  0.000000e+000  3.000000e+001  0.000000e+000
      vertex  0.000000e+000  3.000000e+001  6.000000e+000
      vertex  1.250000e+001  3.000000e+001  6.000000e+000
    endloop
  endfacet
  facet normal  -0.000000e+000  1.000000e+000  0.000000e+000
    outer loop
      vertex  0.000000e+000  3.000000e+001  0.000000e+000
      vertex  1.250000e+001  3.000000e+001  6.000000e+000
      vertex  2.750000e+001  3.000000e+001  6.000000e+000
    endloop
  endfacet
  facet normal  -0.000000e+000  1.000000e+000  0.000000e+000
    outer loop
      vertex  0.000000e+000  3.000000e+001  0.000000e+000
      vertex  2.750000e+001  3.000000e+001  6.000000e+000
      vertex  4.000000e+001  3.000000e+001  6.000000e+000
    endloop
  endfacet
  facet normal  0.000000e+000  1.000000e+000  0.000000e+000
    outer loop
      vertex  0.000000e+000  3.000000e+001  0.000000e+000
      vertex  4.000000e+001  3.000000e+001  6.000000e+000
      vertex  4.000000e+001  3.000000e+001  0.000000e+000
    endloop
  endfacet
  facet normal  0.000000e+000  1.000000e+000  0.000000e+000
    outer loop
      vertex  2.750000e+001  3.000000e+001  6.000000e+000
      vertex  1.250000e+001  3.000000e+001  6.000000e+000
      vertex  1.391421e+001  3.000000e+001  6.585786e+000
    endloop
  endfacet
  facet normal  -0.000000e+000  1.000000e+000  0.000000e+000
    outer loop
      vertex  2.750000e+001  3.000000e+001  6.000000e+000
      vertex  1.391421e+001  3.000000e+001  6.585786e+000
      vertex  1.450000e+001  3.000000e+001  8.000000e+000
    endloop
  endfacet
  facet normal  -0.000000e+000  1.000000e+000  0.000000e+000
    outer loop
      vertex  2.750000e+001  3.000000e+001  6.000000e+000
      vertex  1.450000e+001  3.000000e+001  8.000000e+000
      vertex  1.450000e+001  3.000000e+001  1.100000e+001
    endloop
  endfacet
  facet normal  0.000000e+000  1.000000e+000  0.000000e+000
    outer loop
      vertex  2.750000e+001  3.000000e+001  6.000000e+000
      vertex  1.450000e+001  3.000000e+001  1.100000e+001
      vertex  2.608579e+001  3.000000e+001  6.585786e+000
    endloop
  endfacet
  facet normal  1.931634e-015 -1.000000e+000 -5.824405e-015
    outer loop
      vertex  2.550000e+001 -3.330669e-015  1.100000e+001
      vertex  1.450000e+001 -7.105427e-015  8.000000e+000
      vertex  1.391421e+001  0.000000e+000  6.585786e+000
    endloop
  endfacet
  facet normal  3.431599e-016 -1.000000e+000  0.000000e+000
    outer loop
      vertex  2.550000e+001 -3.330669e-015  1.100000e+001
      vertex  1.450000e+001 -7.105427e-015  1.100000e+001
      vertex  1.450000e+001 -7.105427e-015  8.000000e+000
    endloop
  endfacet
  facet normal  -0.000000e+000 -1.000000e+000  -0.000000e+000
    outer loop
      vertex  4.000000e+001  0.000000e+000  0.000000e+000
      vertex  4.000000e+001  0.000000e+000  6.000000e+000
      vertex  2.750000e+001  0.000000e+000  6.000000e+000
    endloop
  endfacet
  facet normal  -0.000000e+000 -1.000000e+000  -0.000000e+000
    outer loop
      vertex  4.000000e+001  0.000000e+000  0.000000e+000
      vertex  2.750000e+001  0.000000e+000  6.000000e+000
      vertex  1.250000e+001  0.000000e+000  6.000000e+000
    endloop
  endfacet
  facet normal  -0.000000e+000 -1.000000e+000  -0.000000e+000
    outer loop
      vertex  4.000000e+001  0.000000e+000  0.000000e+000
      vertex  1.250000e+001  0.000000e+000  6.000000e+000
      vertex  0.000000e+000  0.000000e+000  6.000000e+000
    endloop
  endfacet
  facet normal  0.000000e+000 -1.000000e+000  0.000000e+000
    outer loop
      vertex  4.000000e+001  0.000000e+000  0.000000e+000
      vertex  0.000000e+000  0.000000e+000  6.000000e+000
      vertex  0.000000e+000  0.000000e+000  0.000000e+000
    endloop
  endfacet
  facet normal  0.000000e+000 -1.000000e+000  0.000000e+000
    outer loop
      vertex  1.250000e+001  0.000000e+000  6.000000e+000
      vertex  2.750000e+001  0.000000e+000  6.000000e+000
      vertex  2.608579e+001  0.000000e+000  6.585786e+000
    endloop
  endfacet
  facet normal  -0.000000e+000 -1.000000e+000  0.000000e+000
    outer loop
      vertex  1.250000e+001  0.000000e+000  6.000000e+000
      vertex  2.608579e+001  0.000000e+000  6.585786e+000
      vertex  2.550000e+001  0.000000e+000  8.000000e+000
    endloop
  endfacet
  facet normal  1.708035e-016 -1.000000e+000 -1.110223e-015
    outer loop
      vertex  1.250000e+001  0.000000e+000  6.000000e+000
      vertex  2.550000e+001  0.000000e+000  8.000000e+000
      vertex  2.550000e+001 -3.330669e-015  1.100000e+001
    endloop
  endfacet
  facet normal -3.585476e-015 -1.000000e+000  8.656105e-015
    outer loop
      vertex  1.250000e+001  0.000000e+000  6.000000e+000
      vertex  2.550000e+001 -3.330669e-015  1.100000e+001
      vertex  1.391421e+001  0.000000e+000  6.585786e+000
    endloop
  endfacet
  facet normal -9.238794e-001  0.000000e+000  3.826836e-001
    outer loop
      vertex  1.450000e+001  3.000000e+001  8.000000e+000
      vertex  1.391421e+001  3.000000e+001  6.585786e+000
      vertex  1.450000e+001 -7.105427e-015  8.000000e+000
    endloop
  endfacet
  facet normal -9.238794e-001  0.000000e+000  3.826836e-001
    outer loop
      vertex  1.450000e+001 -7.105427e-015  8.000000e+000
      vertex  1.391421e+001  3.000000e+001  6.585786e+000
      vertex  1.391421e+001  0.000000e+000  6.585786e+000
    endloop
  endfacet
  facet normal -3.826834e-001  0.000000e+000  9.238795e-001
    outer loop
      vertex  1.391421e+001  3.000000e+001  6.585786e+000
      vertex  1.250000e+001  3.000000e+001  6.000000e+000
      vertex  1.391421e+001  0.000000e+000  6.585786e+000
    endloop
  endfacet
  facet normal -3.826834e-001  0.000000e+000  9.238795e-001
    outer loop
      vertex  1.391421e+001  0.000000e+000  6.585786e+000
      vertex  1.250000e+001  3.000000e+001  6.000000e+000
      vertex  1.250000e+001  0.000000e+000  6.000000e+000
    endloop
  endfacet
  facet normal  0.000000e+000  -0.000000e+000  1.000000e+000
    outer loop
      vertex  2.950000e+001  8.000000e+000  6.000000e+000
      vertex  3.023223e+001  9.767767e+000  6.000000e+000
      vertex  3.200000e+001  1.950000e+001  6.000000e+000
    endloop
  endfacet
  facet normal  0.000000e+000  -0.000000e+000  1.000000e+000
    outer loop
      vertex  3.023223e+001  9.767767e+000  6.000000e+000
      vertex  3.200000e+001  1.050000e+001  6.000000e+000
      vertex  3.200000e+001  1.950000e+001  6.000000e+000
    endloop
  endfacet
  facet normal  0.000000e+000  0.000000e+000  9.999999e-001
    outer loop
      vertex  3.376777e+001  9.767767e+000  6.000000e+000
      vertex  3.200000e+001  1.950000e+001  6.000000e+000
      vertex  3.200000e+001  1.050000e+001  6.000000e+000
    endloop
  endfacet
  facet normal  0.000000e+000  0.000000e+000  1.000000e+000
    outer loop
      vertex  2.750000e+001  0.000000e+000  6.000000e+000
      vertex  4.000000e+001  0.000000e+000  6.000000e+000
      vertex  3.200000e+001  5.500000e+000  6.000000e+000
    endloop
  endfacet
  facet normal  0.000000e+000  0.000000e+000  1.000000e+000
    outer loop
      vertex  2.750000e+001  0.000000e+000  6.000000e+000
      vertex  3.200000e+001  5.500000e+000  6.000000e+000
      vertex  3.023223e+001  6.232233e+000  6.000000e+000
    endloop
  endfacet
  facet normal  0.000000e+000  0.000000e+000  1.000000e+000
    outer loop
      vertex  2.750000e+001  0.000000e+000  6.000000e+000
      vertex  3.023223e+001  6.232233e+000  6.000000e+000
      vertex  2.950000e+001  8.000000e+000  6.000000e+000
    endloop
  endfacet
  facet normal  0.000000e+000  -0.000000e+000  1.000000e+000
    outer loop
      vertex  2.750000e+001  0.000000e+000  6.000000e+000
      vertex  2.950000e+001  8.000000e+000  6.000000e+000
      vertex  3.200000e+001  1.950000e+001  6.000000e+000
    endloop
  endfacet
  facet normal  0.000000e+000  0.000000e+000  1.000000e+000
    outer loop
      vertex  2.750000e+001  0.000000e+000  6.000000e+000
      vertex  3.200000e+001  1.950000e+001  6.000000e+000
      vertex  3.023223e+001  2.023223e+001  6.000000e+000
    endloop
  endfacet
  facet normal  0.000000e+000  0.000000e+000  1.000000e+000
    outer loop
      vertex  2.750000e+001  0.000000e+000  6.000000e+000
      vertex  3.023223e+001  2.023223e+001  6.000000e+000
      vertex  2.950000e+001  2.200000e+001  6.000000e+000
    endloop
  endfacet
  facet normal  0.000000e+000  0.000000e+000  1.000000e+000
    outer loop
      vertex  2.750000e+001  0.000000e+000  6.000000e+000
      vertex  2.950000e+001  2.200000e+001  6.000000e+000
      vertex  2.750000e+001  3.000000e+001  6.000000e+000
    endloop
  endfacet
  facet normal  0.000000e+000  -0.000000e+000  1.000000e+000
    outer loop
      vertex  2.750000e+001  3.000000e+001  6.000000e+000
      vertex  2.950000e+001  2.200000e+001  6.000000e+000
      vertex  3.023223e+001  2.376777e+001  6.000000e+000
    endloop
  endfacet
  facet normal  0.000000e+000  -0.000000e+000  1.000000e+000
    outer loop
      vertex  2.750000e+001  3.000000e+001  6.000000e+000
      vertex  3.023223e+001  2.376777e+001  6.000000e+000
      vertex  3.200000e+001  2.450000e+001  6.000000e+000
    endloop
  endfacet
  facet normal  0.000000e+000  -0.000000e+000  1.000000e+000
    outer loop
      vertex  2.750000e+001  3.000000e+001  6.000000e+000
      vertex  3.200000e+001  2.450000e+001  6.000000e+000
      vertex  4.000000e+001  3.000000e+001  6.000000e+000
    endloop
  endfacet
  facet normal  0.000000e+000  0.000000e+000  1.000000e+000
    outer loop
      vertex  4.000000e+001  0.000000e+000  6.000000e+000
      vertex  3.450000e+001  2.200000e+001  6.000000e+000
      vertex  3.376777e+001  2.023223e+001  6.000000e+000
    endloop
  endfacet
  facet normal  0.000000e+000  0.000000e+000  9.999999e-001
    outer loop
      vertex  4.000000e+001  0.000000e+000  6.000000e+000
      vertex  3.376777e+001  2.023223e+001  6.000000e+000
      vertex  3.200000e+001  1.950000e+001  6.000000e+000
    endloop
  endfacet
  facet normal  0.000000e+000  0.000000e+000  1.000000e+000
    outer loop
      vertex  4.000000e+001  0.000000e+000  6.000000e+000
      vertex  3.200000e+001  1.950000e+001  6.000000e+000
      vertex  3.376777e+001  9.767767e+000  6.000000e+000
    endloop
  endfacet
  facet normal  0.000000e+000  0.000000e+000  9.999999e-001
    outer loop
      vertex  4.000000e+001  0.000000e+000  6.000000e+000
      vertex  3.376777e+001  9.767767e+000  6.000000e+000
      vertex  3.450000e+001  8.000000e+000  6.000000e+000
    endloop
  endfacet
  facet normal  0.000000e+000  0.000000e+000  9.999999e-001
    outer loop
      vertex  4.000000e+001  0.000000e+000  6.000000e+000
      vertex  3.450000e+001  8.000000e+000  6.000000e+000
      vertex  3.376777e+001  6.232233e+000  6.000000e+000
    endloop
  endfacet
  facet normal  0.000000e+000  0.000000e+000  1.000000e+000
    outer loop
      vertex  4.000000e+001  0.000000e+000  6.000000e+000
      vertex  3.376777e+001  6.232233e+000  6.000000e+000
      vertex  3.200000e+001  5.500000e+000  6.000000e+000
    endloop
  endfacet
  facet normal  -0.000000e+000  0.000000e+000  1.000000e+000
    outer loop
      vertex  4.000000e+001  3.000000e+001  6.000000e+000
      vertex  3.200000e+001  2.450000e+001  6.000000e+000
      vertex  3.376777e+001  2.376777e+001  6.000000e+000
    endloop
  endfacet
  facet normal  -0.000000e+000  0.000000e+000  9.999999e-001
    outer loop
      vertex  4.000000e+001  3.000000e+001  6.000000e+000
      vertex  3.376777e+001  2.376777e+001  6.000000e+000
      vertex  3.450000e+001  2.200000e+001  6.000000e+000
    endloop
  endfacet
  facet normal  -0.000000e+000  0.000000e+000  9.999999e-001
    outer loop
      vertex  4.000000e+001  3.000000e+001  6.000000e+000
      vertex  3.450000e+001  2.200000e+001  6.000000e+000
      vertex  4.000000e+001  0.000000e+000  6.000000e+000
    endloop
  endfacet
  facet normal  1.000000e+000  0.000000e+000  -0.000000e+000
    outer loop
      vertex  2.550000e+001 -3.330669e-015  1.100000e+001
      vertex  2.550000e+001  0.000000e+000  8.000000e+000
      vertex  2.550000e+001  3.000000e+001  1.100000e+001
    endloop
  endfacet
  facet normal  1.000000e+000  0.000000e+000  0.000000e+000
    outer loop
      vertex  2.550000e+001  3.000000e+001  1.100000e+001
      vertex  2.550000e+001  0.000000e+000  8.000000e+000
      vertex  2.550000e+001  3.000000e+001  8.000000e+000
    endloop
  endfacet
  facet normal  9.238794e-001  0.000000e+000  3.826836e-001
    outer loop
      vertex  2.550000e+001  0.000000e+000  8.000000e+000
      vertex  2.608579e+001  0.000000e+000  6.585786e+000
      vertex  2.550000e+001  3.000000e+001  8.000000e+000
    endloop
  endfacet
  facet normal  9.238794e-001  0.000000e+000  3.826836e-001
    outer loop
      vertex  2.550000e+001  3.000000e+001  8.000000e+000
      vertex  2.608579e+001  0.000000e+000  6.585786e+000
      vertex  2.608579e+001  3.000000e+001  6.585786e+000
    endloop
  endfacet
  facet normal  3.826834e-001  0.000000e+000  9.238795e-001
    outer loop
      vertex  2.608579e+001  0.000000e+000  6.585786e+000
      vertex  2.750000e+001  0.000000e+000  6.000000e+000
      vertex  2.608579e+001  3.000000e+001  6.585786e+000
    endloop
  endfacet
  facet normal  3.826834e-001  0.000000e+000  9.238795e-001
    outer loop
      vertex  2.608579e+001  3.000000e+001  6.585786e+000
      vertex  2.750000e+001  0.000000e+000  6.000000e+000
      vertex  2.750000e+001  3.000000e+001  6.000000e+000
    endloop
  endfacet
  facet normal  0.000000e+000  0.000000e+000  9.999999e-001
    outer loop
      vertex  1.450000e+001 -7.105427e-015  1.100000e+001
      vertex  2.550000e+001 -3.330669e-015  1.100000e+001
      vertex  1.450000e+001  3.000000e+001  1.100000e+001
    endloop
  endfacet
  facet normal  -0.000000e+000  0.000000e+000  9.999999e-001
    outer loop
      vertex  1.450000e+001  3.000000e+001  1.100000e+001
      vertex  2.550000e+001 -3.330669e-015  1.100000e+001
      vertex  2.550000e+001  3.000000e+001  1.100000e+001
    endloop
  endfacet
  facet normal  -0.000000e+000  0.000000e+000 -1.000000e+000
    outer loop
      vertex  8.000000e+000  1.950000e+001  0.000000e+000
      vertex  8.000000e+000  1.050000e+001  0.000000e+000
      vertex  6.232233e+000  9.767767e+000  0.000000e+000
    endloop
  endfacet
  facet normal  0.000000e+000  0.000000e+000 -9.999999e-001
    outer loop
      vertex  3.200000e+001  1.050000e+001  0.000000e+000
      vertex  3.200000e+001  1.950000e+001  0.000000e+000
      vertex  3.376777e+001  9.767767e+000  0.000000e+000
    endloop
  endfacet
  facet normal  -0.000000e+000  0.000000e+000 -9.999999e-001
    outer loop
      vertex  0.000000e+000  3.000000e+001  0.000000e+000
      vertex  4.000000e+001  3.000000e+001  0.000000e+000
      vertex  3.200000e+001  2.450000e+001  0.000000e+000
    endloop
  endfacet
  facet normal  0.000000e+000  0.000000e+000 -1.000000e+000
    outer loop
      vertex  0.000000e+000  3.000000e+001  0.000000e+000
      vertex  3.200000e+001  2.450000e+001  0.000000e+000
      vertex  8.000000e+000  2.450000e+001  0.000000e+000
    endloop
  endfacet
  facet normal  -0.000000e+000  0.000000e+000 -1.000000e+000
    outer loop
      vertex  0.000000e+000  3.000000e+001  0.000000e+000
      vertex  8.000000e+000  2.450000e+001  0.000000e+000
      vertex  6.232233e+000  2.376777e+001  0.000000e+000
    endloop
  endfacet
  facet normal  -0.000000e+000  0.000000e+000 -1.000000e+000
    outer loop
      vertex  0.000000e+000  3.000000e+001  0.000000e+000
      vertex  6.232233e+000  2.376777e+001  0.000000e+000
      vertex  5.500000e+000  2.200000e+001  0.000000e+000
    endloop
  endfacet
  facet normal  -0.000000e+000  0.000000e+000 -9.999999e-001
    outer loop
      vertex  0.000000e+000  3.000000e+001  0.000000e+000
      vertex  5.500000e+000  2.200000e+001  0.000000e+000
      vertex  0.000000e+000  0.000000e+000  0.000000e+000
    endloop
  endfacet
  facet normal  0.000000e+000  -0.000000e+000 -1.000000e+000
    outer loop
      vertex  0.000000e+000  0.000000e+000  0.000000e+000
      vertex  5.500000e+000  2.200000e+001  0.000000e+000
      vertex  6.232233e+000  2.023223e+001  0.000000e+000
    endloop
  endfacet
  facet normal  0.000000e+000  -0.000000e+000 -1.000000e+000
    outer loop
      vertex  0.000000e+000  0.000000e+000  0.000000e+000
      vertex  6.232233e+000  2.023223e+001  0.000000e+000
      vertex  8.000000e+000  1.950000e+001  0.000000e+000
    endloop
  endfacet
  facet normal  0.000000e+000  0.000000e+000 -1.000000e+000
    outer loop
      vertex  0.000000e+000  0.000000e+000  0.000000e+000
      vertex  8.000000e+000  1.950000e+001  0.000000e+000
      vertex  6.232233e+000  9.767767e+000  0.000000e+000
    endloop
  endfacet
  facet normal  0.000000e+000  0.000000e+000 -1.000000e+000
    outer loop
      vertex  0.000000e+000  0.000000e+000  0.000000e+000
      vertex  6.232233e+000  9.767767e+000  0.000000e+000
      vertex  5.500000e+000  8.000000e+000  0.000000e+000
    endloop
  endfacet
  facet normal  0.000000e+000  -0.000000e+000 -1.000000e+000
    outer loop
      vertex  0.000000e+000  0.000000e+000  0.000000e+000
      vertex  5.500000e+000  8.000000e+000  0.000000e+000
      vertex  6.232233e+000  6.232233e+000  0.000000e+000
    endloop
  endfacet
  facet normal  0.000000e+000  -0.000000e+000 -1.000000e+000
    outer loop
      vertex  0.000000e+000  0.000000e+000  0.000000e+000
      vertex  6.232233e+000  6.232233e+000  0.000000e+000
      vertex  8.000000e+000  5.500000e+000  0.000000e+000
    endloop
  endfacet
  facet normal  0.000000e+000  -0.000000e+000 -1.000000e+000
    outer loop
      vertex  0.000000e+000  0.000000e+000  0.000000e+000
      vertex  8.000000e+000  5.500000e+000  0.000000e+000
      vertex  3.200000e+001  5.500000e+000  0.000000e+000
    endloop
  endfacet
  facet normal  0.000000e+000  -0.000000e+000 -9.999999e-001
    outer loop
      vertex  0.000000e+000  0.000000e+000  0.000000e+000
      vertex  3.200000e+001  5.500000e+000  0.000000e+000
      vertex  4.000000e+001  0.000000e+000  0.000000e+000
    endloop
  endfacet
  facet normal  0.000000e+000  0.000000e+000 -1.000000e+000
    outer loop
      vertex  4.000000e+001  0.000000e+000  0.000000e+000
      vertex  3.200000e+001  5.500000e+000  0.000000e+000
      vertex  3.376777e+001  6.232233e+000  0.000000e+000
    endloop
  endfacet
  facet normal  0.000000e+000  0.000000e+000 -9.999999e-001
    outer loop
      vertex  4.000000e+001  0.000000e+000  0.000000e+000
      vertex  3.376777e+001  6.232233e+000  0.000000e+000
      vertex  3.450000e+001  8.000000e+000  0.000000e+000
    endloop
  endfacet
  facet normal  0.000000e+000  0.000000e+000 -9.999999e-001
    outer loop
      vertex  4.000000e+001  0.000000e+000  0.000000e+000
      vertex  3.450000e+001  8.000000e+000  0.000000e+000
      vertex  3.376777e+001  9.767767e+000  0.000000e+000
    endloop
  endfacet
  facet normal  0.000000e+000  0.000000e+000 -1.000000e+000
    outer loop
      vertex  4.000000e+001  0.000000e+000  0.000000e+000
      vertex  3.376777e+001  9.767767e+000  0.000000e+000
      vertex  3.200000e+001  1.950000e+001  0.000000e+000
    endloop
  endfacet
  facet normal  0.000000e+000  0.000000e+000 -9.999999e-001
    outer loop
      vertex  4.000000e+001  0.000000e+000  0.000000e+000
      vertex  3.200000e+001  1.950000e+001  0.000000e+000
      vertex  3.376777e+001  2.023223e+001  0.000000e+000
    endloop
  endfacet
  facet normal  0.000000e+000  0.000000e+000 -1.000000e+000
    outer loop
      vertex  4.000000e+001  0.000000e+000  0.000000e+000
      vertex  3.376777e+001  2.023223e+001  0.000000e+000
      vertex  3.450000e+001  2.200000e+001  0.000000e+000
    endloop
  endfacet
  facet normal  0.000000e+000  0.000000e+000 -9.999999e-001
    outer loop
      vertex  4.000000e+001  3.000000e+001  0.000000e+000
      vertex  4.000000e+001  0.000000e+000  0.000000e+000
      vertex  3.450000e+001  2.200000e+001  0.000000e+000
    endloop
  endfacet
  facet normal  0.000000e+000  0.000000e+000 -9.999999e-001
    outer loop
      vertex  4.000000e+001  3.000000e+001  0.000000e+000
      vertex  3.450000e+001  2.200000e+001  0.000000e+000
      vertex  3.376777e+001  2.376777e+001  0.000000e+000
    endloop
  endfacet
  facet normal  0.000000e+000  0.000000e+000 -1.000000e+000
    outer loop
      vertex  4.000000e+001  3.000000e+001  0.000000e+000
      vertex  3.376777e+001  2.376777e+001  0.000000e+000
      vertex  3.200000e+001  2.450000e+001  0.000000e+000
    endloop
  endfacet
  facet normal  0.000000e+000  0.000000e+000 -1.000000e+000
    outer loop
      vertex  3.200000e+001  1.950000e+001  0.000000e+000
      vertex  9.767767e+000  2.023223e+001  0.000000e+000
      vertex  3.023223e+001  2.023223e+001  0.000000e+000
    endloop
  endfacet
  facet normal  0.000000e+000  0.000000e+000 -1.000000e+000
    outer loop
      vertex  3.023223e+001  2.023223e+001  0.000000e+000
      vertex  9.767767e+000  2.023223e+001  0.000000e+000
      vertex  1.050000e+001  2.200000e+001  0.000000e+000
    endloop
  endfacet
  facet normal  0.000000e+000  0.000000e+000 -1.000000e+000
    outer loop
      vertex  3.023223e+001  2.023223e+001  0.000000e+000
      vertex  1.050000e+001  2.200000e+001  0.000000e+000
      vertex  2.950000e+001  2.200000e+001  0.000000e+000
    endloop
  endfacet
  facet normal  0.000000e+000  0.000000e+000 -1.000000e+000
    outer loop
      vertex  2.950000e+001  2.200000e+001  0.000000e+000
      vertex  1.050000e+001  2.200000e+001  0.000000e+000
      vertex  9.767767e+000  2.376777e+001  0.000000e+000
    endloop
  endfacet
  facet normal  0.000000e+000  0.000000e+000 -1.000000e+000
    outer loop
      vertex  2.950000e+001  2.200000e+001  0.000000e+000
      vertex  9.767767e+000  2.376777e+001  0.000000e+000
      vertex  3.023223e+001  2.376777e+001  0.000000e+000
    endloop
  endfacet
  facet normal  0.000000e+000  0.000000e+000 -1.000000e+000
    outer loop
      vertex  3.023223e+001  2.376777e+001  0.000000e+000
      vertex  9.767767e+000  2.376777e+001  0.000000e+000
      vertex  8.000000e+000  2.450000e+001  0.000000e+000
    endloop
  endfacet
  facet normal  0.000000e+000  0.000000e+000 -1.000000e+000
    outer loop
      vertex  3.023223e+001  2.376777e+001  0.000000e+000
      vertex  8.000000e+000  2.450000e+001  0.000000e+000
      vertex  3.200000e+001  2.450000e+001  0.000000e+000
    endloop
  endfacet
  facet normal  0.000000e+000  0.000000e+000 -1.000000e+000
    outer loop
      vertex  9.767767e+000  2.023223e+001  0.000000e+000
      vertex  3.200000e+001  1.950000e+001  0.000000e+000
      vertex  8.000000e+000  1.950000e+001  0.000000e+000
    endloop
  endfacet
  facet normal  0.000000e+000  0.000000e+000 -1.000000e+000
    outer loop
      vertex  8.000000e+000  1.950000e+001  0.000000e+000
      vertex  3.200000e+001  1.950000e+001  0.000000e+000
      vertex  3.200000e+001  1.050000e+001  0.000000e+000
    endloop
  endfacet
  facet normal  0.000000e+000  0.000000e+000 -1.000000e+000
    outer loop
      vertex  8.000000e+000  1.950000e+001  0.000000e+000
      vertex  3.200000e+001  1.050000e+001  0.000000e+000
      vertex  8.000000e+000  1.050000e+001  0.000000e+000
    endloop
  endfacet
  facet normal  0.000000e+000  0.000000e+000 -1.000000e+000
    outer loop
      vertex  8.000000e+000  1.050000e+001  0.000000e+000
      vertex  3.200000e+001  1.050000e+001  0.000000e+000
      vertex  3.023223e+001  9.767767e+000  0.000000e+000
    endloop
  endfacet
  facet normal  0.000000e+000  0.000000e+000 -1.000000e+000
    outer loop
      vertex  8.000000e+000  1.050000e+001  0.000000e+000
      vertex  3.023223e+001  9.767767e+000  0.000000e+000
      vertex  9.767767e+000  9.767767e+000  0.000000e+000
    endloop
  endfacet
  facet normal  0.000000e+000  0.000000e+000 -1.000000e+000
    outer loop
      vertex  9.767767e+000  9.767767e+000  0.000000e+000
      vertex  3.023223e+001  9.767767e+000  0.000000e+000
      vertex  2.950000e+001  8.000000e+000  0.000000e+000
    endloop
  endfacet
  facet normal  0.000000e+000  0.000000e+000 -1.000000e+000
    outer loop
      vertex  9.767767e+000  9.767767e+000  0.000000e+000
      vertex  2.950000e+001  8.000000e+000  0.000000e+000
      vertex  1.050000e+001  8.000000e+000  0.000000e+000
    endloop
  endfacet
  facet normal  0.000000e+000  0.000000e+000 -1.000000e+000
    outer loop
      vertex  1.050000e+001  8.000000e+000  0.000000e+000
      vertex  2.950000e+001  8.000000e+000  0.000000e+000
      vertex  3.023223e+001  6.232233e+000  0.000000e+000
    endloop
  endfacet
  facet normal  0.000000e+000  0.000000e+000 -1.000000e+000
    outer loop
      vertex  1.050000e+001  8.000000e+000  0.000000e+000
      vertex  3.023223e+001  6.232233e+000  0.000000e+000
      vertex  9.767767e+000  6.232233e+000  0.000000e+000
    endloop
  endfacet
  facet normal  0.000000e+000  0.000000e+000 -1.000000e+000
    outer loop
      vertex  9.767767e+000  6.232233e+000  0.000000e+000
      vertex  3.023223e+001  6.232233e+000  0.000000e+000
      vertex  3.200000e+001  5.500000e+000  0.000000e+000
    endloop
  endfacet
  facet normal  0.000000e+000  0.000000e+000 -1.000000e+000
    outer loop
      vertex  9.767767e+000  6.232233e+000  0.000000e+000
      vertex  3.200000e+001  5.500000e+000  0.000000e+000
      vertex  8.000000e+000  5.500000e+000  0.000000e+000
    endloop
  endfacet
  facet normal -3.826831e-001  9.238797e-001  0.000000e+000
    outer loop
      vertex  3.200000e+001  5.500000e+000  0.000000e+000
      vertex  3.376777e+001  6.232233e+000  6.000000e+000
      vertex  3.376777e+001  6.232233e+000  0.000000e+000
    endloop
  endfacet
  facet normal -9.238799e-001  3.826826e-001  0.000000e+000
    outer loop
      vertex  3.376777e+001  6.232233e+000  0.000000e+000
      vertex  3.376777e+001  6.232233e+000  6.000000e+000
      vertex  3.450000e+001  8.000000e+000  6.000000e+000
    endloop
  endfacet
  facet normal -9.238799e-001  3.826826e-001  0.000000e+000
    outer loop
      vertex  3.376777e+001  6.232233e+000  0.000000e+000
      vertex  3.450000e+001  8.000000e+000  6.000000e+000
      vertex  3.450000e+001  8.000000e+000  0.000000e+000
    endloop
  endfacet
  facet normal -3.826831e-001  9.238797e-001  0.000000e+000
    outer loop
      vertex  3.376777e+001  6.232233e+000  6.000000e+000
      vertex  3.200000e+001  5.500000e+000  0.000000e+000
      vertex  3.200000e+001  5.500000e+000  6.000000e+000
    endloop
  endfacet
  facet normal  3.826834e-001  9.238795e-001  0.000000e+000
    outer loop
      vertex  3.200000e+001  5.500000e+000  6.000000e+000
      vertex  3.200000e+001  5.500000e+000  0.000000e+000
      vertex  3.023223e+001  6.232233e+000  0.000000e+000
    endloop
  endfacet
  facet normal  3.826834e-001  9.238795e-001  -0.000000e+000
    outer loop
      vertex  3.200000e+001  5.500000e+000  6.000000e+000
      vertex  3.023223e+001  6.232233e+000  0.000000e+000
      vertex  3.023223e+001  6.232233e+000  6.000000e+000
    endloop
  endfacet
  facet normal  9.238795e-001  3.826834e-001  0.000000e+000
    outer loop
      vertex  3.023223e+001  6.232233e+000  6.000000e+000
      vertex  3.023223e+001  6.232233e+000  0.000000e+000
      vertex  2.950000e+001  8.000000e+000  0.000000e+000
    endloop
  endfacet
  facet normal  9.238795e-001  3.826834e-001  -0.000000e+000
    outer loop
      vertex  3.023223e+001  6.232233e+000  6.000000e+000
      vertex  2.950000e+001  8.000000e+000  0.000000e+000
      vertex  2.950000e+001  8.000000e+000  6.000000e+000
    endloop
  endfacet
  facet normal  3.826834e-001 -9.238795e-001  0.000000e+000
    outer loop
      vertex  3.200000e+001  1.050000e+001  0.000000e+000
      vertex  3.023223e+001  9.767767e+000  6.000000e+000
      vertex  3.023223e+001  9.767767e+000  0.000000e+000
    endloop
  endfacet
  facet normal  9.238795e-001 -3.826834e-001  0.000000e+000
    outer loop
      vertex  3.023223e+001  9.767767e+000  0.000000e+000
      vertex  3.023223e+001  9.767767e+000  6.000000e+000
      vertex  2.950000e+001  8.000000e+000  6.000000e+000
    endloop
  endfacet
  facet normal  9.238795e-001 -3.826834e-001  0.000000e+000
    outer loop
      vertex  3.023223e+001  9.767767e+000  0.000000e+000
      vertex  2.950000e+001  8.000000e+000  6.000000e+000
      vertex  2.950000e+001  8.000000e+000  0.000000e+000
    endloop
  endfacet
  facet normal  3.826834e-001 -9.238795e-001  0.000000e+000
    outer loop
      vertex  3.023223e+001  9.767767e+000  6.000000e+000
      vertex  3.200000e+001  1.050000e+001  0.000000e+000
      vertex  3.200000e+001  1.050000e+001  6.000000e+000
    endloop
  endfacet
  facet normal -3.826831e-001 -9.238797e-001  -0.000000e+000
    outer loop
      vertex  3.200000e+001  1.050000e+001  6.000000e+000
      vertex  3.200000e+001  1.050000e+001  0.000000e+000
      vertex  3.376777e+001  9.767767e+000  0.000000e+000
    endloop
  endfacet
  facet normal -3.826831e-001 -9.238797e-001  0.000000e+000
    outer loop
      vertex  3.200000e+001  1.050000e+001  6.000000e+000
      vertex  3.376777e+001  9.767767e+000  0.000000e+000
      vertex  3.376777e+001  9.767767e+000  6.000000e+000
    endloop
  endfacet
  facet normal -9.238799e-001 -3.826826e-001  -0.000000e+000
    outer loop
      vertex  3.376777e+001  9.767767e+000  6.000000e+000
      vertex  3.376777e+001  9.767767e+000  0.000000e+000
      vertex  3.450000e+001  8.000000e+000  0.000000e+000
    endloop
  endfacet
  facet normal -9.238799e-001 -3.826826e-001  0.000000e+000
    outer loop
      vertex  3.376777e+001  9.767767e+000  6.000000e+000
      vertex  3.450000e+001  8.000000e+000  0.000000e+000
      vertex  3.450000e+001  8.000000e+000  6.000000e+000
    endloop
  endfacet
  facet normal -3.826831e-001  9.238797e-001  0.000000e+000
    outer loop
      vertex  3.200000e+001  1.950000e+001  0.000000e+000
      vertex  3.376777e+001  2.023223e+001  6.000000e+000
      vertex  3.376777e+001  2.023223e+001  0.000000e+000
    endloop
  endfacet
  facet normal -9.238799e-001  3.826826e-001  0.000000e+000
    outer loop
      vertex  3.376777e+001  2.023223e+001  0.000000e+000
      vertex  3.376777e+001  2.023223e+001  6.000000e+000
      vertex  3.450000e+001  2.200000e+001  6.000000e+000
    endloop
  endfacet
  facet normal -9.238799e-001  3.826826e-001  0.000000e+000
    outer loop
      vertex  3.376777e+001  2.023223e+001  0.000000e+000
      vertex  3.450000e+001  2.200000e+001  6.000000e+000
      vertex  3.450000e+001  2.200000e+001  0.000000e+000
    endloop
  endfacet
  facet normal -3.826831e-001  9.238797e-001  0.000000e+000
    outer loop
      vertex  3.376777e+001  2.023223e+001  6.000000e+000
      vertex  3.200000e+001  1.950000e+001  0.000000e+000
      vertex  3.200000e+001  1.950000e+001  6.000000e+000
    endloop
  endfacet
  facet normal  3.826834e-001  9.238795e-001  0.000000e+000
    outer loop
      vertex  3.200000e+001  1.950000e+001  6.000000e+000
      vertex  3.200000e+001  1.950000e+001  0.000000e+000
      vertex  3.023223e+001  2.023223e+001  0.000000e+000
    endloop
  endfacet
  facet normal  3.826834e-001  9.238795e-001  -0.000000e+000
    outer loop
      vertex  3.200000e+001  1.950000e+001  6.000000e+000
      vertex  3.023223e+001  2.023223e+001  0.000000e+000
      vertex  3.023223e+001  2.023223e+001  6.000000e+000
    endloop
  endfacet
  facet normal  9.238795e-001  3.826834e-001  0.000000e+000
    outer loop
      vertex  3.023223e+001  2.023223e+001  6.000000e+000
      vertex  3.023223e+001  2.023223e+001  0.000000e+000
      vertex  2.950000e+001  2.200000e+001  0.000000e+000
    endloop
  endfacet
  facet normal  9.238795e-001  3.826834e-001  -0.000000e+000
    outer loop
      vertex  3.023223e+001  2.023223e+001  6.000000e+000
      vertex  2.950000e+001  2.200000e+001  0.000000e+000
      vertex  2.950000e+001  2.200000e+001  6.000000e+000
    endloop
  endfacet
  facet normal  3.826834e-001 -9.238795e-001  0.000000e+000
    outer loop
      vertex  3.200000e+001  2.450000e+001  0.000000e+000
      vertex  3.023223e+001  2.376777e+001  6.000000e+000
      vertex  3.023223e+001  2.376777e+001  0.000000e+000
    endloop
  endfacet
  facet normal  9.238795e-001 -3.826834e-001  0.000000e+000
    outer loop
      vertex  3.023223e+001  2.376777e+001  0.000000e+000
      vertex  3.023223e+001  2.376777e+001  6.000000e+000
      vertex  2.950000e+001  2.200000e+001  6.000000e+000
    endloop
  endfacet
  facet normal  9.238795e-001 -3.826834e-001  0.000000e+000
    outer loop
      vertex  3.023223e+001  2.376777e+001  0.000000e+000
      vertex  2.950000e+001  2.200000e+001  6.000000e+000
      vertex  2.950000e+001  2.200000e+001  0.000000e+000
    endloop
  endfacet
  facet normal  3.826834e-001 -9.238795e-001  0.000000e+000
    outer loop
      vertex  3.023223e+001  2.376777e+001  6.000000e+000
      vertex  3.200000e+001  2.450000e+001  0.000000e+000
      vertex  3.200000e+001  2.450000e+001  6.000000e+000
    endloop
  endfacet
  facet normal -3.826831e-001 -9.238797e-001  -0.000000e+000
    outer loop
      vertex  3.200000e+001  2.450000e+001  6.000000e+000
      vertex  3.200000e+001  2.450000e+001  0.000000e+000
      vertex  3.376777e+001  2.376777e+001  0.000000e+000
    endloop
  endfacet
  facet normal -3.826831e-001 -9.238797e-001  0.000000e+000
    outer loop
      vertex  3.200000e+001  2.450000e+001  6.000000e+000
      vertex  3.376777e+001  2.376777e+001  0.000000e+000
      vertex  3.376777e+001  2.376777e+001  6.000000e+000
    endloop
  endfacet
  facet normal -9.238799e-001 -3.826826e-001  -0.000000e+000
    outer loop
      vertex  3.376777e+001  2.376777e+001  6.000000e+000
      vertex  3.376777e+001  2.376777e+001  0.000000e+000
      vertex  3.450000e+001  2.200000e+001  0.000000e+000
    endloop
  endfacet
  facet normal -9.238799e-001 -3.826826e-001  0.000000e+000
    outer loop
      vertex  3.376777e+001  2.376777e+001  6.000000e+000
      vertex  3.450000e+001  2.200000e+001  0.000000e+000
      vertex  3.450000e+001  2.200000e+001  6.000000e+000
    endloop
  endfacet
  facet normal  3.826834e-001 -9.238795e-001  0.000000e+000
    outer loop
      vertex  8.000000e+000  1.050000e+001  0.000000e+000
      vertex  6.232233e+000  9.767767e+000  6.000000e+000
      vertex  6.232233e+000  9.767767e+000  0.000000e+000
    endloop
  endfacet
  facet normal  9.238795e-001 -3.826834e-001  0.000000e+000
    outer loop
      vertex  6.232233e+000  9.767767e+000  0.000000e+000
      vertex  6.232233e+000  9.767767e+000  6.000000e+000
      vertex  5.500000e+000  8.000000e+000  6.000000e+000
    endloop
  endfacet
  facet normal  9.238795e-001 -3.826834e-001  0.000000e+000
    outer loop
      vertex  6.232233e+000  9.767767e+000  0.000000e+000
      vertex  5.500000e+000  8.000000e+000  6.000000e+000
      vertex  5.500000e+000  8.000000e+000  0.000000e+000
    endloop
  endfacet
  facet normal  3.826834e-001 -9.238795e-001  0.000000e+000
    outer loop
      vertex  6.232233e+000  9.767767e+000  6.000000e+000
      vertex  8.000000e+000  1.050000e+001  0.000000e+000
      vertex  8.000000e+000  1.050000e+001  6.000000e+000
    endloop
  endfacet
  facet normal -3.826834e-001 -9.238795e-001  -0.000000e+000
    outer loop
      vertex  8.000000e+000  1.050000e+001  6.000000e+000
      vertex  8.000000e+000  1.050000e+001  0.000000e+000
      vertex  9.767767e+000  9.767767e+000  0.000000e+000
    endloop
  endfacet
  facet normal -3.826834e-001 -9.238795e-001  0.000000e+000
    outer loop
      vertex  8.000000e+000  1.050000e+001  6.000000e+000
      vertex  9.767767e+000  9.767767e+000  0.000000e+000
      vertex  9.767767e+000  9.767767e+000  6.000000e+000
    endloop
  endfacet
  facet normal -9.238795e-001 -3.826834e-001  -0.000000e+000
    outer loop
      vertex  9.767767e+000  9.767767e+000  6.000000e+000
      vertex  9.767767e+000  9.767767e+000  0.000000e+000
      vertex  1.050000e+001  8.000000e+000  0.000000e+000
    endloop
  endfacet
  facet normal -9.238795e-001 -3.826834e-001  0.000000e+000
    outer loop
      vertex  9.767767e+000  9.767767e+000  6.000000e+000
      vertex  1.050000e+001  8.000000e+000  0.000000e+000
      vertex  1.050000e+001  8.000000e+000  6.000000e+000
    endloop
  endfacet
  facet normal -3.826834e-001  9.238795e-001  0.000000e+000
    outer loop
      vertex  8.000000e+000  5.500000e+000  0.000000e+000
      vertex  9.767767e+000  6.232233e+000  6.000000e+000
      vertex  9.767767e+000  6.232233e+000  0.000000e+000
    endloop
  endfacet
  facet normal -9.238795e-001  3.826834e-001  0.000000e+000
    outer loop
      vertex  9.767767e+000  6.232233e+000  0.000000e+000
      vertex  9.767767e+000  6.232233e+000  6.000000e+000
      vertex  1.050000e+001  8.000000e+000  6.000000e+000
    endloop
  endfacet
  facet normal -9.238795e-001  3.826834e-001  0.000000e+000
    outer loop
      vertex  9.767767e+000  6.232233e+000  0.000000e+000
      vertex  1.050000e+001  8.000000e+000  6.000000e+000
      vertex  1.050000e+001  8.000000e+000  0.000000e+000
    endloop
  endfacet
  facet normal -3.826834e-001  9.238795e-001  0.000000e+000
    outer loop
      vertex  9.767767e+000  6.232233e+000  6.000000e+000
      vertex  8.000000e+000  5.500000e+000  0.000000e+000
      vertex  8.000000e+000  5.500000e+000  6.000000e+000
    endloop
  endfacet
  facet normal  3.826834e-001  9.238795e-001  0.000000e+000
    outer loop
      vertex  8.000000e+000  5.500000e+000  6.000000e+000
      vertex  8.000000e+000  5.500000e+000  0.000000e+000
      vertex  6.232233e+000  6.232233e+000  0.000000e+000
    endloop
  endfacet
  facet normal  3.826834e-001  9.238795e-001  -0.000000e+000
    outer loop
      vertex  8.000000e+000  5.500000e+000  6.000000e+000
      vertex  6.232233e+000  6.232233e+000  0.000000e+000
      vertex  6.232233e+000  6.232233e+000  6.000000e+000
    endloop
  endfacet
  facet normal  9.238795e-001  3.826834e-001  0.000000e+000
    outer loop
      vertex  6.232233e+000  6.232233e+000  6.000000e+000
      vertex  6.232233e+000  6.232233e+000  0.000000e+000
      vertex  5.500000e+000  8.000000e+000  0.000000e+000
    endloop
  endfacet
  facet normal  9.238795e-001  3.826834e-001  -0.000000e+000
    outer loop
      vertex  6.232233e+000  6.232233e+000  6.000000e+000
      vertex  5.500000e+000  8.000000e+000  0.000000e+000
      vertex  5.500000e+000  8.000000e+000  6.000000e+000
    endloop
  endfacet
  facet normal  3.826834e-001 -9.238795e-001  0.000000e+000
    outer loop
      vertex  8.000000e+000  2.450000e+001  0.000000e+000
      vertex  6.232233e+000  2.376777e+001  6.000000e+000
      vertex  6.232233e+000  2.376777e+001  0.000000e+000
    endloop
  endfacet
  facet normal  9.238795e-001 -3.826834e-001  0.000000e+000
    outer loop
      vertex  6.232233e+000  2.376777e+001  0.000000e+000
      vertex  6.232233e+000  2.376777e+001  6.000000e+000
      vertex  5.500000e+000  2.200000e+001  6.000000e+000
    endloop
  endfacet
  facet normal  9.238795e-001 -3.826834e-001  0.000000e+000
    outer loop
      vertex  6.232233e+000  2.376777e+001  0.000000e+000
      vertex  5.500000e+000  2.200000e+001  6.000000e+000
      vertex  5.500000e+000  2.200000e+001  0.000000e+000
    endloop
  endfacet
  facet normal  3.826834e-001 -9.238795e-001  0.000000e+000
    outer loop
      vertex  6.232233e+000  2.376777e+001  6.000000e+000
      vertex  8.000000e+000  2.450000e+001  0.000000e+000
      vertex  8.000000e+000  2.450000e+001  6.000000e+000
    endloop
  endfacet
  facet normal -3.826834e-001 -9.238795e-001  -0.000000e+000
    outer loop
      vertex  8.000000e+000  2.450000e+001  6.000000e+000
      vertex  8.000000e+000  2.450000e+001  0.000000e+000
      vertex  9.767767e+000  2.376777e+001  0.000000e+000
    endloop
  endfacet
  facet normal -3.826834e-001 -9.238795e-001  0.000000e+000
    outer loop
      vertex  8.000000e+000  2.450000e+001  6.000000e+000
      vertex  9.767767e+000  2.376777e+001  0.000000e+000
      vertex  9.767767e+000  2.376777e+001  6.000000e+000
    endloop
  endfacet
  facet normal -9.238795e-001 -3.826834e-001  -0.000000e+000
    outer loop
      vertex  9.767767e+000  2.376777e+001  6.000000e+000
      vertex  9.767767e+000  2.376777e+001  0.000000e+000
      vertex  1.050000e+001  2.200000e+001  0.000000e+000
    endloop
  endfacet
  facet normal -9.238795e-001 -3.826834e-001  0.000000e+000
    outer loop
      vertex  9.767767e+000  2.376777e+001  6.000000e+000
      vertex  1.050000e+001  2.200000e+001  0.000000e+000
      vertex  1.050000e+001  2.200000e+001  6.000000e+000
    endloop
  endfacet
  facet normal -3.826834e-001  9.238795e-001  0.000000e+000
    outer loop
      vertex  8.000000e+000  1.950000e+001  0.000000e+000
      vertex  9.767767e+000  2.023223e+001  6.000000e+000
      vertex  9.767767e+000  2.023223e+001  0.000000e+000
    endloop
  endfacet
  facet normal -9.238795e-001  3.826834e-001  0.000000e+000
    outer loop
      vertex  9.767767e+000  2.023223e+001  0.000000e+000
      vertex  9.767767e+000  2.023223e+001  6.000000e+000
      vertex  1.050000e+001  2.200000e+001  6.000000e+000
    endloop
  endfacet
  facet normal -9.238795e-001  3.826834e-001  0.000000e+000
    outer loop
      vertex  9.767767e+000  2.023223e+001  0.000000e+000
      vertex  1.050000e+001  2.200000e+001  6.000000e+000
      vertex  1.050000e+001  2.200000e+001  0.000000e+000
    endloop
  endfacet
  facet normal -3.826834e-001  9.238795e-001  0.000000e+000
    outer loop
      vertex  9.767767e+000  2.023223e+001  6.000000e+000
      vertex  8.000000e+000  1.950000e+001  0.000000e+000
      vertex  8.000000e+000  1.950000e+001  6.000000e+000
    endloop
  endfacet
  facet normal  3.826834e-001  9.238795e-001  0.000000e+000
    outer loop
      vertex  8.000000e+000  1.950000e+001  6.000000e+000
      vertex  8.000000e+000  1.950000e+001  0.000000e+000
      vertex  6.232233e+000  2.023223e+001  0.000000e+000
    endloop
  endfacet
  facet normal  3.826834e-001  9.238795e-001  -0.000000e+000
    outer loop
      vertex  8.000000e+000  1.950000e+001  6.000000e+000
      vertex  6.232233e+000  2.023223e+001  0.000000e+000
      vertex  6.232233e+000  2.023223e+001  6.000000e+000
    endloop
  endfacet
  facet normal  9.238795e-001  3.826834e-001  0.000000e+000
    outer loop
      vertex  6.232233e+000  2.023223e+001  6.000000e+000
      vertex  6.232233e+000  2.023223e+001  0.000000e+000
      vertex  5.500000e+000  2.200000e+001  0.000000e+000
    endloop
  endfacet
  facet normal  9.238795e-001  3.826834e-001  -0.000000e+000
    outer loop
      vertex  6.232233e+000  2.023223e+001  6.000000e+000
      vertex  5.500000e+000  2.200000e+001  0.000000e+000
      vertex  5.500000e+000  2.200000e+001  6.000000e+000
    endloop
  endfacet
  facet normal -1.000000e+000  0.000000e+000  0.000000e+000
    outer loop
      vertex  0.000000e+000  3.000000e+001  6.000000e+000
      vertex  0.000000e+000  3.000000e+001  0.000000e+000
      vertex  0.000000e+000  0.000000e+000  6.000000e+000
    endloop
  endfacet
  facet normal -1.000000e+000  0.000000e+000  0.000000e+000
    outer loop
      vertex  0.000000e+000  0.000000e+000  6.000000e+000
      vertex  0.000000e+000  3.000000e+001  0.000000e+000
      vertex  0.000000e+000  0.000000e+000  0.000000e+000
    endloop
  endfacet
  facet normal  1.000000e+000  0.000000e+000  0.000000e+000
    outer loop
      vertex  4.000000e+001  0.000000e+000  6.000000e+000
      vertex  4.000000e+001  0.000000e+000  0.000000e+000
      vertex  4.000000e+001  3.000000e+001  6.000000e+000
    endloop
  endfacet
  facet normal  1.000000e+000  0.000000e+000  0.000000e+000
    outer loop
      vertex  4.000000e+001  3.000000e+001  6.000000e+000
      vertex  4.000000e+001  0.000000e+000  0.000000e+000
      vertex  4.000000e+001  3.000000e+001  0.000000e+000
    endloop
  endfacet
endsolid CATIA STL
