solid CATIA STL
  facet normal  0.000000e+000  -0.000000e+000  1.000000e+000
    outer loop
      vertex  3.585786e+000  1.141421e+001  2.000000e+000
      vertex  5.000000e+000  1.110000e+001  2.000000e+000
      vertex  5.000000e+000  1.200000e+001  2.000000e+000
    endloop
  endfacet
  facet normal  0.000000e+000  0.000000e+000  1.000000e+000
    outer loop
      vertex  6.414214e+000  8.585787e+000  2.000000e+000
      vertex  5.000000e+000  8.900000e+000  2.000000e+000
      vertex  5.000000e+000  8.000000e+000  2.000000e+000
    endloop
  endfacet
  facet normal  0.000000e+000  -0.000000e+000  1.000000e+000
    outer loop
      vertex  3.585786e+000  8.585787e+000  2.000000e+000
      vertex  5.000000e+000  8.000000e+000  2.000000e+000
      vertex  5.000000e+000  8.900000e+000  2.000000e+000
    endloop
  endfacet
  facet normal  0.000000e+000  0.000000e+000  1.000000e+000
    outer loop
      vertex  3.585786e+000  8.585787e+000  2.000000e+000
      vertex  5.000000e+000  8.900000e+000  2.000000e+000
      vertex  4.222183e+000  9.222182e+000  2.000000e+000
    endloop
  endfacet
  facet normal  0.000000e+000  0.000000e+000  1.000000e+000
    outer loop
      vertex  3.585786e+000  8.585787e+000  2.000000e+000
      vertex  4.222183e+000  9.222182e+000  2.000000e+000
      vertex  3.900000e+000  1.000000e+001  2.000000e+000
    endloop
  endfacet
  facet normal  0.000000e+000  0.000000e+000  1.000000e+000
    outer loop
      vertex  3.585786e+000  8.585787e+000  2.000000e+000
      vertex  3.900000e+000  1.000000e+001  2.000000e+000
      vertex  3.000000e+000  1.000000e+001  2.000000e+000
    endloop
  endfacet
  facet normal  0.000000e+000  0.000000e+000  1.000000e+000
    outer loop
      vertex  3.000000e+000  1.000000e+001  2.000000e+000
      vertex  3.900000e+000  1.000000e+001  2.000000e+000
      vertex  3.585786e+000  1.141421e+001  2.000000e+000
    endloop
  endfacet
  facet normal  0.000000e+000  0.000000e+000  1.000000e+000
    outer loop
      vertex  3.585786e+000  1.141421e+001  2.000000e+000
      vertex  3.900000e+000  1.000000e+001  2.000000e+000
      vertex  4.222183e+000  1.077782e+001  2.000000e+000
    endloop
  endfacet
  facet normal  0.000000e+000  -0.000000e+000  1.000000e+000
    outer loop
      vertex  3.585786e+000  1.141421e+001  2.000000e+000
      vertex  4.222183e+000  1.077782e+001  2.000000e+000
      vertex  5.000000e+000  1.110000e+001  2.000000e+000
    endloop
  endfacet
  facet normal  0.000000e+000  0.000000e+000  1.000000e+000
    outer loop
      vertex  5.000000e+000  1.200000e+001  2.000000e+000
      vertex  5.000000e+000  1.110000e+001  2.000000e+000
      vertex  6.414214e+000  1.141421e+001  2.000000e+000
    endloop
  endfacet
  facet normal  0.000000e+000  0.000000e+000  1.000000e+000
    outer loop
      vertex  6.414214e+000  1.141421e+001  2.000000e+000
      vertex  5.000000e+000  1.110000e+001  2.000000e+000
      vertex  5.777817e+000  1.077782e+001  2.000000e+000
    endloop
  endfacet
  facet normal  -0.000000e+000  0.000000e+000  1.000000e+000
    outer loop
      vertex  6.414214e+000  1.141421e+001  2.000000e+000
      vertex  5.777817e+000  1.077782e+001  2.000000e+000
      vertex  7.000000e+000  1.000000e+001  2.000000e+000
    endloop
  endfacet
  facet normal  0.000000e+000  0.000000e+000  1.000000e+000
    outer loop
      vertex  7.000000e+000  1.000000e+001  2.000000e+000
      vertex  5.777817e+000  1.077782e+001  2.000000e+000
      vertex  6.100000e+000  1.000000e+001  2.000000e+000
    endloop
  endfacet
  facet normal  -0.000000e+000  0.000000e+000  1.000000e+000
    outer loop
      vertex  7.000000e+000  1.000000e+001  2.000000e+000
      vertex  6.100000e+000  1.000000e+001  2.000000e+000
      vertex  6.414214e+000  8.585787e+000  2.000000e+000
    endloop
  endfacet
  facet normal  0.000000e+000  0.000000e+000  1.000000e+000
    outer loop
      vertex  6.414214e+000  8.585787e+000  2.000000e+000
      vertex  6.100000e+000  1.000000e+001  2.000000e+000
      vertex  5.777817e+000  9.222182e+000  2.000000e+000
    endloop
  endfacet
  facet normal  0.000000e+000  0.000000e+000  1.000000e+000
    outer loop
      vertex  6.414214e+000  8.585787e+000  2.000000e+000
      vertex  5.777817e+000  9.222182e+000  2.000000e+000
      vertex  5.000000e+000  8.900000e+000  2.000000e+000
    endloop
  endfacet
  facet normal  0.000000e+000  0.000000e+000 -1.000000e+000
    outer loop
      vertex  2.500000e+000  6.698730e-001  0.000000e+000
      vertex  6.698730e-001  2.500000e+000  0.000000e+000
      vertex  5.000000e+000  0.000000e+000  0.000000e+000
    endloop
  endfacet
  facet normal  0.000000e+000  -0.000000e+000 -1.000000e+000
    outer loop
      vertex  0.000000e+000  1.750000e+002  0.000000e+000
      vertex  6.698730e-001  1.775000e+002  0.000000e+000
      vertex  5.000000e+000  1.110000e+001  0.000000e+000
    endloop
  endfacet
  facet normal  -0.000000e+000  0.000000e+000 -1.000000e+000
    outer loop
      vertex  0.000000e+000  1.750000e+002  0.000000e+000
      vertex  5.000000e+000  1.110000e+001  0.000000e+000
      vertex  4.222183e+000  1.077782e+001  0.000000e+000
    endloop
  endfacet
  facet normal  -0.000000e+000  0.000000e+000 -1.000000e+000
    outer loop
      vertex  0.000000e+000  1.750000e+002  0.000000e+000
      vertex  4.222183e+000  1.077782e+001  0.000000e+000
      vertex  0.000000e+000  5.000000e+000  0.000000e+000
    endloop
  endfacet
  facet normal  0.000000e+000  0.000000e+000 -1.000000e+000
    outer loop
      vertex  0.000000e+000  5.000000e+000  0.000000e+000
      vertex  4.222183e+000  1.077782e+001  0.000000e+000
      vertex  3.900000e+000  1.000000e+001  0.000000e+000
    endloop
  endfacet
  facet normal  0.000000e+000  -0.000000e+000 -1.000000e+000
    outer loop
      vertex  0.000000e+000  5.000000e+000  0.000000e+000
      vertex  3.900000e+000  1.000000e+001  0.000000e+000
      vertex  4.222183e+000  9.222182e+000  0.000000e+000
    endloop
  endfacet
  facet normal  0.000000e+000  -0.000000e+000 -1.000000e+000
    outer loop
      vertex  0.000000e+000  5.000000e+000  0.000000e+000
      vertex  4.222183e+000  9.222182e+000  0.000000e+000
      vertex  5.000000e+000  8.900000e+000  0.000000e+000
    endloop
  endfacet
  facet normal  0.000000e+000  -0.000000e+000 -1.000000e+000
    outer loop
      vertex  0.000000e+000  5.000000e+000  0.000000e+000
      vertex  5.000000e+000  8.900000e+000  0.000000e+000
      vertex  5.000000e+000  0.000000e+000  0.000000e+000
    endloop
  endfacet
  facet normal  0.000000e+000  0.000000e+000 -1.000000e+000
    outer loop
      vertex  0.000000e+000  5.000000e+000  0.000000e+000
      vertex  5.000000e+000  0.000000e+000  0.000000e+000
      vertex  6.698730e-001  2.500000e+000  0.000000e+000
    endloop
  endfacet
  facet normal  0.000000e+000  0.000000e+000 -1.000000e+000
    outer loop
      vertex  1.000000e+001  5.000000e+000  0.000000e+000
      vertex  5.000000e+000  8.900000e+000  0.000000e+000
      vertex  5.777817e+000  9.222182e+000  0.000000e+000
    endloop
  endfacet
  facet normal  0.000000e+000  0.000000e+000 -1.000000e+000
    outer loop
      vertex  1.000000e+001  5.000000e+000  0.000000e+000
      vertex  5.777817e+000  9.222182e+000  0.000000e+000
      vertex  6.100000e+000  1.000000e+001  0.000000e+000
    endloop
  endfacet
  facet normal  0.000000e+000  0.000000e+000 -1.000000e+000
    outer loop
      vertex  1.000000e+001  5.000000e+000  0.000000e+000
      vertex  6.100000e+000  1.000000e+001  0.000000e+000
      vertex  5.777817e+000  1.077782e+001  0.000000e+000
    endloop
  endfacet
  facet normal  0.000000e+000  0.000000e+000 -1.000000e+000
    outer loop
      vertex  1.000000e+001  5.000000e+000  0.000000e+000
      vertex  5.777817e+000  1.077782e+001  0.000000e+000
      vertex  1.000000e+001  1.750000e+002  0.000000e+000
    endloop
  endfacet
  facet normal  0.000000e+000  0.000000e+000 -1.000000e+000
    outer loop
      vertex  5.000000e+000  1.110000e+001  0.000000e+000
      vertex  6.698730e-001  1.775000e+002  0.000000e+000
      vertex  2.500000e+000  1.793301e+002  0.000000e+000
    endloop
  endfacet
  facet normal  0.000000e+000  0.000000e+000 -1.000000e+000
    outer loop
      vertex  5.000000e+000  1.110000e+001  0.000000e+000
      vertex  2.500000e+000  1.793301e+002  0.000000e+000
      vertex  5.000000e+000  1.800000e+002  0.000000e+000
    endloop
  endfacet
  facet normal  0.000000e+000  0.000000e+000 -1.000000e+000
    outer loop
      vertex  5.000000e+000  1.110000e+001  0.000000e+000
      vertex  5.000000e+000  1.800000e+002  0.000000e+000
      vertex  7.500000e+000  1.793301e+002  0.000000e+000
    endloop
  endfacet
  facet normal  0.000000e+000  -0.000000e+000 -1.000000e+000
    outer loop
      vertex  5.000000e+000  1.110000e+001  0.000000e+000
      vertex  7.500000e+000  1.793301e+002  0.000000e+000
      vertex  9.330127e+000  1.775000e+002  0.000000e+000
    endloop
  endfacet
  facet normal  0.000000e+000  -0.000000e+000 -1.000000e+000
    outer loop
      vertex  5.000000e+000  1.110000e+001  0.000000e+000
      vertex  9.330127e+000  1.775000e+002  0.000000e+000
      vertex  1.000000e+001  1.750000e+002  0.000000e+000
    endloop
  endfacet
  facet normal  0.000000e+000  0.000000e+000 -1.000000e+000
    outer loop
      vertex  5.000000e+000  1.110000e+001  0.000000e+000
      vertex  1.000000e+001  1.750000e+002  0.000000e+000
      vertex  5.777817e+000  1.077782e+001  0.000000e+000
    endloop
  endfacet
  facet normal  0.000000e+000  0.000000e+000 -1.000000e+000
    outer loop
      vertex  5.000000e+000  0.000000e+000  0.000000e+000
      vertex  5.000000e+000  8.900000e+000  0.000000e+000
      vertex  1.000000e+001  5.000000e+000  0.000000e+000
    endloop
  endfacet
  facet normal  0.000000e+000  0.000000e+000 -1.000000e+000
    outer loop
      vertex  5.000000e+000  0.000000e+000  0.000000e+000
      vertex  1.000000e+001  5.000000e+000  0.000000e+000
      vertex  9.330127e+000  2.500000e+000  0.000000e+000
    endloop
  endfacet
  facet normal  0.000000e+000  0.000000e+000 -9.999999e-001
    outer loop
      vertex  5.000000e+000  0.000000e+000  0.000000e+000
      vertex  9.330127e+000  2.500000e+000  0.000000e+000
      vertex  7.500000e+000  6.698730e-001  0.000000e+000
    endloop
  endfacet
  facet normal  3.826837e-001 -9.238795e-001  0.000000e+000
    outer loop
      vertex  5.000000e+000  1.110000e+001  0.000000e+000
      vertex  4.222183e+000  1.077782e+001  2.000000e+000
      vertex  4.222183e+000  1.077782e+001  0.000000e+000
    endloop
  endfacet
  facet normal  9.238795e-001 -3.826834e-001  0.000000e+000
    outer loop
      vertex  4.222183e+000  1.077782e+001  0.000000e+000
      vertex  4.222183e+000  1.077782e+001  2.000000e+000
      vertex  3.900000e+000  1.000000e+001  2.000000e+000
    endloop
  endfacet
  facet normal  9.238795e-001 -3.826834e-001  0.000000e+000
    outer loop
      vertex  4.222183e+000  1.077782e+001  0.000000e+000
      vertex  3.900000e+000  1.000000e+001  2.000000e+000
      vertex  3.900000e+000  1.000000e+001  0.000000e+000
    endloop
  endfacet
  facet normal  3.826837e-001 -9.238795e-001  0.000000e+000
    outer loop
      vertex  4.222183e+000  1.077782e+001  2.000000e+000
      vertex  5.000000e+000  1.110000e+001  0.000000e+000
      vertex  5.000000e+000  1.110000e+001  2.000000e+000
    endloop
  endfacet
  facet normal -3.826837e-001 -9.238795e-001  -0.000000e+000
    outer loop
      vertex  5.000000e+000  1.110000e+001  2.000000e+000
      vertex  5.000000e+000  1.110000e+001  0.000000e+000
      vertex  5.777817e+000  1.077782e+001  0.000000e+000
    endloop
  endfacet
  facet normal -3.826837e-001 -9.238795e-001  0.000000e+000
    outer loop
      vertex  5.000000e+000  1.110000e+001  2.000000e+000
      vertex  5.777817e+000  1.077782e+001  0.000000e+000
      vertex  5.777817e+000  1.077782e+001  2.000000e+000
    endloop
  endfacet
  facet normal -9.238795e-001 -3.826834e-001  -0.000000e+000
    outer loop
      vertex  5.777817e+000  1.077782e+001  2.000000e+000
      vertex  5.777817e+000  1.077782e+001  0.000000e+000
      vertex  6.100000e+000  1.000000e+001  0.000000e+000
    endloop
  endfacet
  facet normal -9.238795e-001 -3.826834e-001  0.000000e+000
    outer loop
      vertex  5.777817e+000  1.077782e+001  2.000000e+000
      vertex  6.100000e+000  1.000000e+001  0.000000e+000
      vertex  6.100000e+000  1.000000e+001  2.000000e+000
    endloop
  endfacet
  facet normal -3.826837e-001  9.238795e-001  0.000000e+000
    outer loop
      vertex  5.000000e+000  8.900000e+000  0.000000e+000
      vertex  5.777817e+000  9.222182e+000  2.000000e+000
      vertex  5.777817e+000  9.222182e+000  0.000000e+000
    endloop
  endfacet
  facet normal -9.238795e-001  3.826834e-001  0.000000e+000
    outer loop
      vertex  5.777817e+000  9.222182e+000  0.000000e+000
      vertex  5.777817e+000  9.222182e+000  2.000000e+000
      vertex  6.100000e+000  1.000000e+001  2.000000e+000
    endloop
  endfacet
  facet normal -9.238795e-001  3.826834e-001  0.000000e+000
    outer loop
      vertex  5.777817e+000  9.222182e+000  0.000000e+000
      vertex  6.100000e+000  1.000000e+001  2.000000e+000
      vertex  6.100000e+000  1.000000e+001  0.000000e+000
    endloop
  endfacet
  facet normal -3.826837e-001  9.238795e-001  0.000000e+000
    outer loop
      vertex  5.777817e+000  9.222182e+000  2.000000e+000
      vertex  5.000000e+000  8.900000e+000  0.000000e+000
      vertex  5.000000e+000  8.900000e+000  2.000000e+000
    endloop
  endfacet
  facet normal  3.826837e-001  9.238795e-001  0.000000e+000
    outer loop
      vertex  5.000000e+000  8.900000e+000  2.000000e+000
      vertex  5.000000e+000  8.900000e+000  0.000000e+000
      vertex  4.222183e+000  9.222182e+000  0.000000e+000
    endloop
  endfacet
  facet normal  3.826837e-001  9.238795e-001  -0.000000e+000
    outer loop
      vertex  5.000000e+000  8.900000e+000  2.000000e+000
      vertex  4.222183e+000  9.222182e+000  0.000000e+000
      vertex  4.222183e+000  9.222182e+000  2.000000e+000
    endloop
  endfacet
  facet normal  9.238795e-001  3.826834e-001  0.000000e+000
    outer loop
      vertex  4.222183e+000  9.222182e+000  2.000000e+000
      vertex  4.222183e+000  9.222182e+000  0.000000e+000
      vertex  3.900000e+000  1.000000e+001  0.000000e+000
    endloop
  endfacet
  facet normal  9.238795e-001  3.826834e-001  -0.000000e+000
    outer loop
      vertex  4.222183e+000  9.222182e+000  2.000000e+000
      vertex  3.900000e+000  1.000000e+001  0.000000e+000
      vertex  3.900000e+000  1.000000e+001  2.000000e+000
    endloop
  endfacet
  facet normal  0.000000e+000  0.000000e+000  1.000000e+000
    outer loop
      vertex  5.000000e+000  0.000000e+000  4.000000e+000
      vertex  6.698730e-001  2.500000e+000  4.000000e+000
      vertex  2.500000e+000  6.698730e-001  4.000000e+000
    endloop
  endfacet
  facet normal  0.000000e+000  0.000000e+000  1.000000e+000
    outer loop
      vertex  0.000000e+000  1.750000e+002  4.000000e+000
      vertex  0.000000e+000  5.000000e+000  4.000000e+000
      vertex  3.585786e+000  1.141421e+001  4.000000e+000
    endloop
  endfacet
  facet normal  0.000000e+000  -0.000000e+000  1.000000e+000
    outer loop
      vertex  0.000000e+000  1.750000e+002  4.000000e+000
      vertex  3.585786e+000  1.141421e+001  4.000000e+000
      vertex  5.000000e+000  1.200000e+001  4.000000e+000
    endloop
  endfacet
  facet normal  0.000000e+000  0.000000e+000  1.000000e+000
    outer loop
      vertex  0.000000e+000  1.750000e+002  4.000000e+000
      vertex  5.000000e+000  1.200000e+001  4.000000e+000
      vertex  6.698730e-001  1.775000e+002  4.000000e+000
    endloop
  endfacet
  facet normal  -0.000000e+000  -0.000000e+000  1.000000e+000
    outer loop
      vertex  0.000000e+000  5.000000e+000  4.000000e+000
      vertex  6.698730e-001  2.500000e+000  4.000000e+000
      vertex  5.000000e+000  0.000000e+000  4.000000e+000
    endloop
  endfacet
  facet normal  0.000000e+000  -0.000000e+000  1.000000e+000
    outer loop
      vertex  0.000000e+000  5.000000e+000  4.000000e+000
      vertex  5.000000e+000  0.000000e+000  4.000000e+000
      vertex  5.000000e+000  8.000000e+000  4.000000e+000
    endloop
  endfacet
  facet normal  0.000000e+000  0.000000e+000  1.000000e+000
    outer loop
      vertex  0.000000e+000  5.000000e+000  4.000000e+000
      vertex  5.000000e+000  8.000000e+000  4.000000e+000
      vertex  3.585786e+000  8.585787e+000  4.000000e+000
    endloop
  endfacet
  facet normal  0.000000e+000  0.000000e+000  1.000000e+000
    outer loop
      vertex  0.000000e+000  5.000000e+000  4.000000e+000
      vertex  3.585786e+000  8.585787e+000  4.000000e+000
      vertex  3.000000e+000  1.000000e+001  4.000000e+000
    endloop
  endfacet
  facet normal  0.000000e+000  -0.000000e+000  1.000000e+000
    outer loop
      vertex  0.000000e+000  5.000000e+000  4.000000e+000
      vertex  3.000000e+000  1.000000e+001  4.000000e+000
      vertex  3.585786e+000  1.141421e+001  4.000000e+000
    endloop
  endfacet
  facet normal  0.000000e+000  0.000000e+000  1.000000e+000
    outer loop
      vertex  1.000000e+001  5.000000e+000  4.000000e+000
      vertex  1.000000e+001  1.750000e+002  4.000000e+000
      vertex  6.414214e+000  1.141421e+001  4.000000e+000
    endloop
  endfacet
  facet normal  0.000000e+000  0.000000e+000  1.000000e+000
    outer loop
      vertex  1.000000e+001  5.000000e+000  4.000000e+000
      vertex  6.414214e+000  1.141421e+001  4.000000e+000
      vertex  7.000000e+000  1.000000e+001  4.000000e+000
    endloop
  endfacet
  facet normal  0.000000e+000  0.000000e+000  1.000000e+000
    outer loop
      vertex  1.000000e+001  5.000000e+000  4.000000e+000
      vertex  7.000000e+000  1.000000e+001  4.000000e+000
      vertex  6.414214e+000  8.585787e+000  4.000000e+000
    endloop
  endfacet
  facet normal  0.000000e+000  0.000000e+000  1.000000e+000
    outer loop
      vertex  1.000000e+001  5.000000e+000  4.000000e+000
      vertex  6.414214e+000  8.585787e+000  4.000000e+000
      vertex  5.000000e+000  8.000000e+000  4.000000e+000
    endloop
  endfacet
  facet normal  0.000000e+000  -0.000000e+000  1.000000e+000
    outer loop
      vertex  5.000000e+000  1.200000e+001  4.000000e+000
      vertex  6.414214e+000  1.141421e+001  4.000000e+000
      vertex  1.000000e+001  1.750000e+002  4.000000e+000
    endloop
  endfacet
  facet normal  0.000000e+000  0.000000e+000  1.000000e+000
    outer loop
      vertex  5.000000e+000  1.200000e+001  4.000000e+000
      vertex  1.000000e+001  1.750000e+002  4.000000e+000
      vertex  9.330127e+000  1.775000e+002  4.000000e+000
    endloop
  endfacet
  facet normal  0.000000e+000  0.000000e+000  1.000000e+000
    outer loop
      vertex  5.000000e+000  1.200000e+001  4.000000e+000
      vertex  9.330127e+000  1.775000e+002  4.000000e+000
      vertex  7.500000e+000  1.793301e+002  4.000000e+000
    endloop
  endfacet
  facet normal  0.000000e+000  0.000000e+000  1.000000e+000
    outer loop
      vertex  5.000000e+000  1.200000e+001  4.000000e+000
      vertex  7.500000e+000  1.793301e+002  4.000000e+000
      vertex  5.000000e+000  1.800000e+002  4.000000e+000
    endloop
  endfacet
  facet normal  0.000000e+000  0.000000e+000  1.000000e+000
    outer loop
      vertex  5.000000e+000  1.200000e+001  4.000000e+000
      vertex  5.000000e+000  1.800000e+002  4.000000e+000
      vertex  2.500000e+000  1.793301e+002  4.000000e+000
    endloop
  endfacet
  facet normal  0.000000e+000  0.000000e+000  1.000000e+000
    outer loop
      vertex  5.000000e+000  1.200000e+001  4.000000e+000
      vertex  2.500000e+000  1.793301e+002  4.000000e+000
      vertex  6.698730e-001  1.775000e+002  4.000000e+000
    endloop
  endfacet
  facet normal  0.000000e+000  -0.000000e+000  9.999999e-001
    outer loop
      vertex  5.000000e+000  0.000000e+000  4.000000e+000
      vertex  7.500000e+000  6.698730e-001  4.000000e+000
      vertex  9.330127e+000  2.500000e+000  4.000000e+000
    endloop
  endfacet
  facet normal  0.000000e+000  -0.000000e+000  1.000000e+000
    outer loop
      vertex  5.000000e+000  0.000000e+000  4.000000e+000
      vertex  9.330127e+000  2.500000e+000  4.000000e+000
      vertex  1.000000e+001  5.000000e+000  4.000000e+000
    endloop
  endfacet
  facet normal  0.000000e+000  0.000000e+000  1.000000e+000
    outer loop
      vertex  5.000000e+000  0.000000e+000  4.000000e+000
      vertex  1.000000e+001  5.000000e+000  4.000000e+000
      vertex  5.000000e+000  8.000000e+000  4.000000e+000
    endloop
  endfacet
  facet normal -1.000000e+000  0.000000e+000  0.000000e+000
    outer loop
      vertex  0.000000e+000  1.750000e+002  4.000000e+000
      vertex  0.000000e+000  1.750000e+002  0.000000e+000
      vertex  0.000000e+000  5.000000e+000  4.000000e+000
    endloop
  endfacet
  facet normal -1.000000e+000  0.000000e+000  0.000000e+000
    outer loop
      vertex  0.000000e+000  5.000000e+000  4.000000e+000
      vertex  0.000000e+000  1.750000e+002  0.000000e+000
      vertex  0.000000e+000  5.000000e+000  0.000000e+000
    endloop
  endfacet
  facet normal -2.588190e-001 -9.659258e-001  -0.000000e+000
    outer loop
      vertex  5.000000e+000  0.000000e+000  0.000000e+000
      vertex  5.000000e+000  0.000000e+000  4.000000e+000
      vertex  2.500000e+000  6.698730e-001  0.000000e+000
    endloop
  endfacet
  facet normal -2.588190e-001 -9.659258e-001  0.000000e+000
    outer loop
      vertex  2.500000e+000  6.698730e-001  0.000000e+000
      vertex  5.000000e+000  0.000000e+000  4.000000e+000
      vertex  2.500000e+000  6.698730e-001  4.000000e+000
    endloop
  endfacet
  facet normal -7.071068e-001 -7.071068e-001  -0.000000e+000
    outer loop
      vertex  2.500000e+000  6.698730e-001  0.000000e+000
      vertex  2.500000e+000  6.698730e-001  4.000000e+000
      vertex  6.698730e-001  2.500000e+000  0.000000e+000
    endloop
  endfacet
  facet normal -7.071068e-001 -7.071068e-001  0.000000e+000
    outer loop
      vertex  6.698730e-001  2.500000e+000  0.000000e+000
      vertex  2.500000e+000  6.698730e-001  4.000000e+000
      vertex  6.698730e-001  2.500000e+000  4.000000e+000
    endloop
  endfacet
  facet normal -9.659258e-001 -2.588190e-001  -0.000000e+000
    outer loop
      vertex  6.698730e-001  2.500000e+000  0.000000e+000
      vertex  6.698730e-001  2.500000e+000  4.000000e+000
      vertex  0.000000e+000  5.000000e+000  0.000000e+000
    endloop
  endfacet
  facet normal -9.659258e-001 -2.588190e-001  0.000000e+000
    outer loop
      vertex  0.000000e+000  5.000000e+000  0.000000e+000
      vertex  6.698730e-001  2.500000e+000  4.000000e+000
      vertex  0.000000e+000  5.000000e+000  4.000000e+000
    endloop
  endfacet
  facet normal  1.000000e+000  0.000000e+000  0.000000e+000
    outer loop
      vertex  1.000000e+001  5.000000e+000  4.000000e+000
      vertex  1.000000e+001  5.000000e+000  0.000000e+000
      vertex  1.000000e+001  1.750000e+002  4.000000e+000
    endloop
  endfacet
  facet normal  1.000000e+000  0.000000e+000  0.000000e+000
    outer loop
      vertex  1.000000e+001  1.750000e+002  4.000000e+000
      vertex  1.000000e+001  5.000000e+000  0.000000e+000
      vertex  1.000000e+001  1.750000e+002  0.000000e+000
    endloop
  endfacet
  facet normal  9.659258e-001 -2.588191e-001  0.000000e+000
    outer loop
      vertex  1.000000e+001  5.000000e+000  0.000000e+000
      vertex  1.000000e+001  5.000000e+000  4.000000e+000
      vertex  9.330127e+000  2.500000e+000  0.000000e+000
    endloop
  endfacet
  facet normal  9.659258e-001 -2.588191e-001  0.000000e+000
    outer loop
      vertex  9.330127e+000  2.500000e+000  0.000000e+000
      vertex  1.000000e+001  5.000000e+000  4.000000e+000
      vertex  9.330127e+000  2.500000e+000  4.000000e+000
    endloop
  endfacet
  facet normal  7.071068e-001 -7.071067e-001  0.000000e+000
    outer loop
      vertex  9.330127e+000  2.500000e+000  0.000000e+000
      vertex  9.330127e+000  2.500000e+000  4.000000e+000
      vertex  7.500000e+000  6.698730e-001  0.000000e+000
    endloop
  endfacet
  facet normal  7.071068e-001 -7.071067e-001  0.000000e+000
    outer loop
      vertex  7.500000e+000  6.698730e-001  0.000000e+000
      vertex  9.330127e+000  2.500000e+000  4.000000e+000
      vertex  7.500000e+000  6.698730e-001  4.000000e+000
    endloop
  endfacet
  facet normal  2.588190e-001 -9.659258e-001  0.000000e+000
    outer loop
      vertex  7.500000e+000  6.698730e-001  0.000000e+000
      vertex  7.500000e+000  6.698730e-001  4.000000e+000
      vertex  5.000000e+000  0.000000e+000  0.000000e+000
    endloop
  endfacet
  facet normal  2.588190e-001 -9.659258e-001  0.000000e+000
    outer loop
      vertex  5.000000e+000  0.000000e+000  0.000000e+000
      vertex  7.500000e+000  6.698730e-001  4.000000e+000
      vertex  5.000000e+000  0.000000e+000  4.000000e+000
    endloop
  endfacet
  facet normal -9.659258e-001  2.588190e-001  0.000000e+000
    outer loop
      vertex  0.000000e+000  1.750000e+002  0.000000e+000
      vertex  0.000000e+000  1.750000e+002  4.000000e+000
      vertex  6.698730e-001  1.775000e+002  0.000000e+000
    endloop
  endfacet
  facet normal -9.659258e-001  2.588190e-001  0.000000e+000
    outer loop
      vertex  6.698730e-001  1.775000e+002  0.000000e+000
      vertex  0.000000e+000  1.750000e+002  4.000000e+000
      vertex  6.698730e-001  1.775000e+002  4.000000e+000
    endloop
  endfacet
  facet normal -7.071062e-001  7.071074e-001  0.000000e+000
    outer loop
      vertex  6.698730e-001  1.775000e+002  0.000000e+000
      vertex  6.698730e-001  1.775000e+002  4.000000e+000
      vertex  2.500000e+000  1.793301e+002  0.000000e+000
    endloop
  endfacet
  facet normal -7.071062e-001  7.071074e-001  0.000000e+000
    outer loop
      vertex  2.500000e+000  1.793301e+002  0.000000e+000
      vertex  6.698730e-001  1.775000e+002  4.000000e+000
      vertex  2.500000e+000  1.793301e+002  4.000000e+000
    endloop
  endfacet
  facet normal -2.588202e-001  9.659255e-001  0.000000e+000
    outer loop
      vertex  2.500000e+000  1.793301e+002  0.000000e+000
      vertex  2.500000e+000  1.793301e+002  4.000000e+000
      vertex  5.000000e+000  1.800000e+002  0.000000e+000
    endloop
  endfacet
  facet normal -2.588202e-001  9.659255e-001  0.000000e+000
    outer loop
      vertex  5.000000e+000  1.800000e+002  0.000000e+000
      vertex  2.500000e+000  1.793301e+002  4.000000e+000
      vertex  5.000000e+000  1.800000e+002  4.000000e+000
    endloop
  endfacet
  facet normal  2.588202e-001  9.659255e-001  0.000000e+000
    outer loop
      vertex  5.000000e+000  1.800000e+002  0.000000e+000
      vertex  5.000000e+000  1.800000e+002  4.000000e+000
      vertex  7.500000e+000  1.793301e+002  0.000000e+000
    endloop
  endfacet
  facet normal  2.588202e-001  9.659255e-001  -0.000000e+000
    outer loop
      vertex  7.500000e+000  1.793301e+002  0.000000e+000
      vertex  5.000000e+000  1.800000e+002  4.000000e+000
      vertex  7.500000e+000  1.793301e+002  4.000000e+000
    endloop
  endfacet
  facet normal  7.071062e-001  7.071073e-001  0.000000e+000
    outer loop
      vertex  7.500000e+000  1.793301e+002  0.000000e+000
      vertex  7.500000e+000  1.793301e+002  4.000000e+000
      vertex  9.330127e+000  1.775000e+002  0.000000e+000
    endloop
  endfacet
  facet normal  7.071062e-001  7.071073e-001  -0.000000e+000
    outer loop
      vertex  9.330127e+000  1.775000e+002  0.000000e+000
      vertex  7.500000e+000  1.793301e+002  4.000000e+000
      vertex  9.330127e+000  1.775000e+002  4.000000e+000
    endloop
  endfacet
  facet normal  9.659258e-001  2.588191e-001  0.000000e+000
    outer loop
      vertex  9.330127e+000  1.775000e+002  0.000000e+000
      vertex  9.330127e+000  1.775000e+002  4.000000e+000
      vertex  1.000000e+001  1.750000e+002  0.000000e+000
    endloop
  endfacet
  facet normal  9.659258e-001  2.588191e-001  -0.000000e+000
    outer loop
      vertex  1.000000e+001  1.750000e+002  0.000000e+000
      vertex  9.330127e+000  1.775000e+002  4.000000e+000
      vertex  1.000000e+001  1.750000e+002  4.000000e+000
    endloop
  endfacet
  facet normal -3.826836e-001  9.238794e-001  0.000000e+000
    outer loop
      vertex  5.000000e+000  8.000000e+000  2.000000e+000
      vertex  6.414214e+000  8.585787e+000  4.000000e+000
      vertex  6.414214e+000  8.585787e+000  2.000000e+000
    endloop
  endfacet
  facet normal -9.238795e-001  3.826835e-001  0.000000e+000
    outer loop
      vertex  6.414214e+000  8.585787e+000  2.000000e+000
      vertex  6.414214e+000  8.585787e+000  4.000000e+000
      vertex  7.000000e+000  1.000000e+001  4.000000e+000
    endloop
  endfacet
  facet normal -9.238795e-001  3.826835e-001  0.000000e+000
    outer loop
      vertex  6.414214e+000  8.585787e+000  2.000000e+000
      vertex  7.000000e+000  1.000000e+001  4.000000e+000
      vertex  7.000000e+000  1.000000e+001  2.000000e+000
    endloop
  endfacet
  facet normal -3.826836e-001  9.238794e-001  0.000000e+000
    outer loop
      vertex  6.414214e+000  8.585787e+000  4.000000e+000
      vertex  5.000000e+000  8.000000e+000  2.000000e+000
      vertex  5.000000e+000  8.000000e+000  4.000000e+000
    endloop
  endfacet
  facet normal  3.826836e-001  9.238794e-001  0.000000e+000
    outer loop
      vertex  5.000000e+000  8.000000e+000  4.000000e+000
      vertex  5.000000e+000  8.000000e+000  2.000000e+000
      vertex  3.585786e+000  8.585787e+000  2.000000e+000
    endloop
  endfacet
  facet normal  3.826836e-001  9.238794e-001  -0.000000e+000
    outer loop
      vertex  5.000000e+000  8.000000e+000  4.000000e+000
      vertex  3.585786e+000  8.585787e+000  2.000000e+000
      vertex  3.585786e+000  8.585787e+000  4.000000e+000
    endloop
  endfacet
  facet normal  9.238795e-001  3.826835e-001  0.000000e+000
    outer loop
      vertex  3.585786e+000  8.585787e+000  4.000000e+000
      vertex  3.585786e+000  8.585787e+000  2.000000e+000
      vertex  3.000000e+000  1.000000e+001  2.000000e+000
    endloop
  endfacet
  facet normal  9.238795e-001  3.826835e-001  -0.000000e+000
    outer loop
      vertex  3.585786e+000  8.585787e+000  4.000000e+000
      vertex  3.000000e+000  1.000000e+001  2.000000e+000
      vertex  3.000000e+000  1.000000e+001  4.000000e+000
    endloop
  endfacet
  facet normal  3.826836e-001 -9.238794e-001  0.000000e+000
    outer loop
      vertex  5.000000e+000  1.200000e+001  2.000000e+000
      vertex  3.585786e+000  1.141421e+001  4.000000e+000
      vertex  3.585786e+000  1.141421e+001  2.000000e+000
    endloop
  endfacet
  facet normal  9.238795e-001 -3.826835e-001  0.000000e+000
    outer loop
      vertex  3.585786e+000  1.141421e+001  2.000000e+000
      vertex  3.585786e+000  1.141421e+001  4.000000e+000
      vertex  3.000000e+000  1.000000e+001  4.000000e+000
    endloop
  endfacet
  facet normal  9.238795e-001 -3.826835e-001  0.000000e+000
    outer loop
      vertex  3.585786e+000  1.141421e+001  2.000000e+000
      vertex  3.000000e+000  1.000000e+001  4.000000e+000
      vertex  3.000000e+000  1.000000e+001  2.000000e+000
    endloop
  endfacet
  facet normal  3.826836e-001 -9.238794e-001  0.000000e+000
    outer loop
      vertex  3.585786e+000  1.141421e+001  4.000000e+000
      vertex  5.000000e+000  1.200000e+001  2.000000e+000
      vertex  5.000000e+000  1.200000e+001  4.000000e+000
    endloop
  endfacet
  facet normal -3.826836e-001 -9.238794e-001  -0.000000e+000
    outer loop
      vertex  5.000000e+000  1.200000e+001  4.000000e+000
      vertex  5.000000e+000  1.200000e+001  2.000000e+000
      vertex  6.414214e+000  1.141421e+001  2.000000e+000
    endloop
  endfacet
  facet normal -3.826836e-001 -9.238794e-001  0.000000e+000
    outer loop
      vertex  5.000000e+000  1.200000e+001  4.000000e+000
      vertex  6.414214e+000  1.141421e+001  2.000000e+000
      vertex  6.414214e+000  1.141421e+001  4.000000e+000
    endloop
  endfacet
  facet normal -9.238795e-001 -3.826835e-001  -0.000000e+000
    outer loop
      vertex  6.414214e+000  1.141421e+001  4.000000e+000
      vertex  6.414214e+000  1.141421e+001  2.000000e+000
      vertex  7.000000e+000  1.000000e+001  2.000000e+000
    endloop
  endfacet
  facet normal -9.238795e-001 -3.826835e-001  0.000000e+000
    outer loop
      vertex  6.414214e+000  1.141421e+001  4.000000e+000
      vertex  7.000000e+000  1.000000e+001  2.000000e+000
      vertex  7.000000e+000  1.000000e+001  4.000000e+000
    endloop
  endfacet
endsolid CATIA STL
