solid CATIA STL
  facet normal  0.000000e+000  9.999999e-001  -0.000000e+000
    outer loop
      vertex  0.000000e+000  2.000000e+000  2.489196e+000
      vertex  0.000000e+000  2.000000e+000  0.000000e+000
      vertex -8.436468e+001  2.000000e+000  6.500020e+001
    endloop
  endfacet
  facet normal  0.000000e+000  9.999999e-001  0.000000e+000
    outer loop
      vertex -8.436468e+001  2.000000e+000  6.500020e+001
      vertex  0.000000e+000  2.000000e+000  0.000000e+000
      vertex -8.436468e+001  2.000000e+000  6.251100e+001
    endloop
  endfacet
  facet normal  5.953422e-001  0.000000e+000  8.034722e-001
    outer loop
      vertex  0.000000e+000  2.000000e+000  0.000000e+000
      vertex  0.000000e+000  5.000000e+000  0.000000e+000
      vertex -8.436468e+001  2.000000e+000  6.251100e+001
    endloop
  endfacet
  facet normal  5.953422e-001  -0.000000e+000  8.034722e-001
    outer loop
      vertex -8.436468e+001  2.000000e+000  6.251100e+001
      vertex  0.000000e+000  5.000000e+000  0.000000e+000
      vertex -8.436468e+001  5.000000e+000  6.251100e+001
    endloop
  endfacet
  facet normal -1.000000e+000  0.000000e+000  0.000000e+000
    outer loop
      vertex -8.436468e+001  0.000000e+000  0.000000e+000
      vertex -8.436468e+001  0.000000e+000  7.122298e+001
      vertex -8.436468e+001  2.000000e+000  6.500020e+001
    endloop
  endfacet
  facet normal -1.000000e+000  0.000000e+000  -0.000000e+000
    outer loop
      vertex -8.436468e+001  0.000000e+000  0.000000e+000
      vertex -8.436468e+001  2.000000e+000  6.500020e+001
      vertex -8.436468e+001  2.000000e+000  6.251100e+001
    endloop
  endfacet
  facet normal -9.999999e-001  0.000000e+000  -0.000000e+000
    outer loop
      vertex -8.436468e+001  0.000000e+000  0.000000e+000
      vertex -8.436468e+001  2.000000e+000  6.251100e+001
      vertex -8.436468e+001  5.000000e+000  6.251100e+001
    endloop
  endfacet
  facet normal -1.000000e+000  0.000000e+000  -0.000000e+000
    outer loop
      vertex -8.436468e+001  0.000000e+000  0.000000e+000
      vertex -8.436468e+001  5.000000e+000  6.251100e+001
      vertex -8.436468e+001  5.000000e+000  0.000000e+000
    endloop
  endfacet
  facet normal -1.000000e+000  0.000000e+000  0.000000e+000
    outer loop
      vertex -8.436468e+001  5.000000e+000  6.500020e+001
      vertex -8.436468e+001  2.000000e+000  6.500020e+001
      vertex -8.436468e+001  5.000000e+000  7.122298e+001
    endloop
  endfacet
  facet normal -1.000000e+000  -0.000000e+000  0.000000e+000
    outer loop
      vertex -8.436468e+001  5.000000e+000  7.122298e+001
      vertex -8.436468e+001  2.000000e+000  6.500020e+001
      vertex -8.436468e+001  0.000000e+000  7.122298e+001
    endloop
  endfacet
  facet normal  1.000000e+000  0.000000e+000  0.000000e+000
    outer loop
      vertex  0.000000e+000  0.000000e+000  0.000000e+000
      vertex  0.000000e+000  2.000000e+000  0.000000e+000
      vertex  0.000000e+000  0.000000e+000  8.712177e+000
    endloop
  endfacet
  facet normal  1.000000e+000  0.000000e+000  0.000000e+000
    outer loop
      vertex  0.000000e+000  0.000000e+000  8.712177e+000
      vertex  0.000000e+000  2.000000e+000  0.000000e+000
      vertex  0.000000e+000  2.000000e+000  2.489196e+000
    endloop
  endfacet
  facet normal  1.000000e+000  0.000000e+000  -0.000000e+000
    outer loop
      vertex  0.000000e+000  0.000000e+000  8.712177e+000
      vertex  0.000000e+000  2.000000e+000  2.489196e+000
      vertex  0.000000e+000  5.000000e+000  8.712177e+000
    endloop
  endfacet
  facet normal  1.000000e+000  0.000000e+000  0.000000e+000
    outer loop
      vertex  0.000000e+000  5.000000e+000  8.712177e+000
      vertex  0.000000e+000  2.000000e+000  2.489196e+000
      vertex  0.000000e+000  5.000000e+000  2.489196e+000
    endloop
  endfacet
  facet normal  0.000000e+000  1.000000e+000  -0.000000e+000
    outer loop
      vertex  0.000000e+000  5.000000e+000  8.712177e+000
      vertex  0.000000e+000  5.000000e+000  2.489196e+000
      vertex -8.436468e+001  5.000000e+000  7.122298e+001
    endloop
  endfacet
  facet normal  0.000000e+000  1.000000e+000  0.000000e+000
    outer loop
      vertex -8.436468e+001  5.000000e+000  7.122298e+001
      vertex  0.000000e+000  5.000000e+000  2.489196e+000
      vertex -8.436468e+001  5.000000e+000  6.500020e+001
    endloop
  endfacet
  facet normal  0.000000e+000  1.000000e+000  0.000000e+000
    outer loop
      vertex  0.000000e+000  5.000000e+000  0.000000e+000
      vertex -8.436468e+001  5.000000e+000  0.000000e+000
      vertex -8.436468e+001  5.000000e+000  6.251100e+001
    endloop
  endfacet
  facet normal -5.953422e-001  0.000000e+000 -8.034722e-001
    outer loop
      vertex  0.000000e+000  2.000000e+000  2.489196e+000
      vertex -8.436468e+001  2.000000e+000  6.500020e+001
      vertex  0.000000e+000  5.000000e+000  2.489196e+000
    endloop
  endfacet
  facet normal -5.953422e-001  0.000000e+000 -8.034722e-001
    outer loop
      vertex  0.000000e+000  5.000000e+000  2.489196e+000
      vertex -8.436468e+001  2.000000e+000  6.500020e+001
      vertex -8.436468e+001  5.000000e+000  6.500020e+001
    endloop
  endfacet
  facet normal  -0.000000e+000  0.000000e+000 -1.000000e+000
    outer loop
      vertex -8.436468e+001  5.000000e+000  0.000000e+000
      vertex  0.000000e+000  5.000000e+000  0.000000e+000
      vertex -8.436468e+001  0.000000e+000  0.000000e+000
    endloop
  endfacet
  facet normal  0.000000e+000  0.000000e+000 -9.999999e-001
    outer loop
      vertex -8.436468e+001  0.000000e+000  0.000000e+000
      vertex  0.000000e+000  5.000000e+000  0.000000e+000
      vertex  0.000000e+000  2.000000e+000  0.000000e+000
    endloop
  endfacet
  facet normal  0.000000e+000  -0.000000e+000 -1.000000e+000
    outer loop
      vertex -8.436468e+001  0.000000e+000  0.000000e+000
      vertex  0.000000e+000  2.000000e+000  0.000000e+000
      vertex  0.000000e+000  0.000000e+000  0.000000e+000
    endloop
  endfacet
  facet normal  0.000000e+000 -1.000000e+000  -0.000000e+000
    outer loop
      vertex  0.000000e+000  0.000000e+000  0.000000e+000
      vertex  0.000000e+000  0.000000e+000  8.712177e+000
      vertex -8.436468e+001  0.000000e+000  0.000000e+000
    endloop
  endfacet
  facet normal  0.000000e+000 -1.000000e+000  0.000000e+000
    outer loop
      vertex -8.436468e+001  0.000000e+000  0.000000e+000
      vertex  0.000000e+000  0.000000e+000  8.712177e+000
      vertex -8.436468e+001  0.000000e+000  7.122298e+001
    endloop
  endfacet
  facet normal  5.953410e-001  -0.000000e+000  8.034731e-001
    outer loop
      vertex -8.436468e+001  5.000000e+000  7.122298e+001
      vertex -8.436468e+001  0.000000e+000  7.122298e+001
      vertex  0.000000e+000  5.000000e+000  8.712177e+000
    endloop
  endfacet
  facet normal  5.953410e-001  0.000000e+000  8.034731e-001
    outer loop
      vertex  0.000000e+000  5.000000e+000  8.712177e+000
      vertex -8.436468e+001  0.000000e+000  7.122298e+001
      vertex  0.000000e+000  0.000000e+000  8.712177e+000
    endloop
  endfacet
endsolid CATIA STL
