solid CATIA STL
  facet normal  -0.000000e+000  0.000000e+000  1.000000e+000
    outer loop
      vertex -1.776357e-015  1.500000e+001  5.000000e+000
      vertex -6.650203e+000  1.261541e+001  5.000000e+000
      vertex -5.275203e+000  1.161641e+001  5.000000e+000
    endloop
  endfacet
  facet normal  0.000000e+000  -0.000000e+000  1.000000e+000
    outer loop
      vertex -1.500000e+001  1.500000e+001  5.000000e+000
      vertex -1.025000e+001  1.000000e+001  5.000000e+000
      vertex -9.724796e+000  1.161641e+001  5.000000e+000
    endloop
  endfacet
  facet normal  0.000000e+000  -0.000000e+000  1.000000e+000
    outer loop
      vertex -1.500000e+001  1.500000e+001  5.000000e+000
      vertex -9.724796e+000  1.161641e+001  5.000000e+000
      vertex -8.349796e+000  1.261541e+001  5.000000e+000
    endloop
  endfacet
  facet normal  0.000000e+000  -0.000000e+000  1.000000e+000
    outer loop
      vertex -1.500000e+001  1.500000e+001  5.000000e+000
      vertex -8.349796e+000  1.261541e+001  5.000000e+000
      vertex -6.650203e+000  1.261541e+001  5.000000e+000
    endloop
  endfacet
  facet normal  0.000000e+000  -0.000000e+000  1.000000e+000
    outer loop
      vertex -1.500000e+001  1.500000e+001  5.000000e+000
      vertex -6.650203e+000  1.261541e+001  5.000000e+000
      vertex -1.776357e-015  1.500000e+001  5.000000e+000
    endloop
  endfacet
  facet normal  0.000000e+000  0.000000e+000  9.999999e-001
    outer loop
      vertex  0.000000e+000  5.000000e+000  5.000000e+000
      vertex -1.776357e-015  1.500000e+001  5.000000e+000
      vertex -5.275203e+000  1.161641e+001  5.000000e+000
    endloop
  endfacet
  facet normal  0.000000e+000  0.000000e+000  1.000000e+000
    outer loop
      vertex  0.000000e+000  5.000000e+000  5.000000e+000
      vertex -5.275203e+000  1.161641e+001  5.000000e+000
      vertex -4.750000e+000  1.000000e+001  5.000000e+000
    endloop
  endfacet
  facet normal  0.000000e+000  0.000000e+000  1.000000e+000
    outer loop
      vertex  0.000000e+000  5.000000e+000  5.000000e+000
      vertex -4.750000e+000  1.000000e+001  5.000000e+000
      vertex -5.275203e+000  8.383591e+000  5.000000e+000
    endloop
  endfacet
  facet normal  0.000000e+000  0.000000e+000  1.000000e+000
    outer loop
      vertex  0.000000e+000  5.000000e+000  5.000000e+000
      vertex -5.275203e+000  8.383591e+000  5.000000e+000
      vertex -6.650203e+000  7.384594e+000  5.000000e+000
    endloop
  endfacet
  facet normal  0.000000e+000  0.000000e+000  1.000000e+000
    outer loop
      vertex  0.000000e+000  5.000000e+000  5.000000e+000
      vertex -6.650203e+000  7.384594e+000  5.000000e+000
      vertex -8.349796e+000  7.384594e+000  5.000000e+000
    endloop
  endfacet
  facet normal  0.000000e+000  0.000000e+000  1.000000e+000
    outer loop
      vertex  0.000000e+000  5.000000e+000  5.000000e+000
      vertex -8.349796e+000  7.384594e+000  5.000000e+000
      vertex -1.500000e+001  5.000000e+000  5.000000e+000
    endloop
  endfacet
  facet normal  0.000000e+000  0.000000e+000  1.000000e+000
    outer loop
      vertex -1.500000e+001  5.000000e+000  5.000000e+000
      vertex -8.349796e+000  7.384594e+000  5.000000e+000
      vertex -9.724796e+000  8.383591e+000  5.000000e+000
    endloop
  endfacet
  facet normal  0.000000e+000  0.000000e+000  1.000000e+000
    outer loop
      vertex -1.500000e+001  5.000000e+000  5.000000e+000
      vertex -9.724796e+000  8.383591e+000  5.000000e+000
      vertex -1.025000e+001  1.000000e+001  5.000000e+000
    endloop
  endfacet
  facet normal  0.000000e+000  0.000000e+000  1.000000e+000
    outer loop
      vertex -1.500000e+001  5.000000e+000  5.000000e+000
      vertex -1.025000e+001  1.000000e+001  5.000000e+000
      vertex -1.500000e+001  1.500000e+001  5.000000e+000
    endloop
  endfacet
  facet normal  -0.000000e+000  0.000000e+000 -1.000000e+000
    outer loop
      vertex -1.500000e+001  1.500000e+001  0.000000e+000
      vertex -8.349796e+000  1.261541e+001  0.000000e+000
      vertex -9.724796e+000  1.161641e+001  0.000000e+000
    endloop
  endfacet
  facet normal  0.000000e+000  0.000000e+000 -9.999999e-001
    outer loop
      vertex  0.000000e+000  1.500000e+001  0.000000e+000
      vertex  0.000000e+000  0.000000e+000  0.000000e+000
      vertex -5.275203e+000  1.161641e+001  0.000000e+000
    endloop
  endfacet
  facet normal  0.000000e+000  0.000000e+000 -1.000000e+000
    outer loop
      vertex  0.000000e+000  1.500000e+001  0.000000e+000
      vertex -5.275203e+000  1.161641e+001  0.000000e+000
      vertex -6.650203e+000  1.261541e+001  0.000000e+000
    endloop
  endfacet
  facet normal  0.000000e+000  0.000000e+000 -1.000000e+000
    outer loop
      vertex  0.000000e+000  1.500000e+001  0.000000e+000
      vertex -6.650203e+000  1.261541e+001  0.000000e+000
      vertex -8.349796e+000  1.261541e+001  0.000000e+000
    endloop
  endfacet
  facet normal  0.000000e+000  0.000000e+000 -1.000000e+000
    outer loop
      vertex  0.000000e+000  1.500000e+001  0.000000e+000
      vertex -8.349796e+000  1.261541e+001  0.000000e+000
      vertex -1.500000e+001  1.500000e+001  0.000000e+000
    endloop
  endfacet
  facet normal  0.000000e+000  0.000000e+000 -9.999999e-001
    outer loop
      vertex  0.000000e+000  0.000000e+000  0.000000e+000
      vertex -1.500000e+001  0.000000e+000  0.000000e+000
      vertex -8.349796e+000  7.384594e+000  0.000000e+000
    endloop
  endfacet
  facet normal  0.000000e+000  0.000000e+000 -1.000000e+000
    outer loop
      vertex  0.000000e+000  0.000000e+000  0.000000e+000
      vertex -8.349796e+000  7.384594e+000  0.000000e+000
      vertex -6.650203e+000  7.384594e+000  0.000000e+000
    endloop
  endfacet
  facet normal  0.000000e+000  0.000000e+000 -1.000000e+000
    outer loop
      vertex  0.000000e+000  0.000000e+000  0.000000e+000
      vertex -6.650203e+000  7.384594e+000  0.000000e+000
      vertex -5.275203e+000  8.383591e+000  0.000000e+000
    endloop
  endfacet
  facet normal  0.000000e+000  0.000000e+000 -1.000000e+000
    outer loop
      vertex  0.000000e+000  0.000000e+000  0.000000e+000
      vertex -5.275203e+000  8.383591e+000  0.000000e+000
      vertex -4.750000e+000  1.000000e+001  0.000000e+000
    endloop
  endfacet
  facet normal  0.000000e+000  0.000000e+000 -1.000000e+000
    outer loop
      vertex  0.000000e+000  0.000000e+000  0.000000e+000
      vertex -4.750000e+000  1.000000e+001  0.000000e+000
      vertex -5.275203e+000  1.161641e+001  0.000000e+000
    endloop
  endfacet
  facet normal  0.000000e+000  0.000000e+000 -9.999999e-001
    outer loop
      vertex -1.500000e+001  0.000000e+000  0.000000e+000
      vertex -1.500000e+001  1.500000e+001  0.000000e+000
      vertex -9.724796e+000  1.161641e+001  0.000000e+000
    endloop
  endfacet
  facet normal  0.000000e+000  0.000000e+000 -1.000000e+000
    outer loop
      vertex -1.500000e+001  0.000000e+000  0.000000e+000
      vertex -9.724796e+000  1.161641e+001  0.000000e+000
      vertex -1.025000e+001  1.000000e+001  0.000000e+000
    endloop
  endfacet
  facet normal  0.000000e+000  -0.000000e+000 -1.000000e+000
    outer loop
      vertex -1.500000e+001  0.000000e+000  0.000000e+000
      vertex -1.025000e+001  1.000000e+001  0.000000e+000
      vertex -9.724796e+000  8.383591e+000  0.000000e+000
    endloop
  endfacet
  facet normal  0.000000e+000  -0.000000e+000 -1.000000e+000
    outer loop
      vertex -1.500000e+001  0.000000e+000  0.000000e+000
      vertex -9.724796e+000  8.383591e+000  0.000000e+000
      vertex -8.349796e+000  7.384594e+000  0.000000e+000
    endloop
  endfacet
  facet normal  5.877852e-001 -8.090171e-001  0.000000e+000
    outer loop
      vertex -8.349796e+000  1.261541e+001  0.000000e+000
      vertex -9.724796e+000  1.161641e+001  5.000000e+000
      vertex -9.724796e+000  1.161641e+001  0.000000e+000
    endloop
  endfacet
  facet normal  9.510565e-001 -3.090173e-001  0.000000e+000
    outer loop
      vertex -9.724796e+000  1.161641e+001  0.000000e+000
      vertex -9.724796e+000  1.161641e+001  5.000000e+000
      vertex -1.025000e+001  1.000000e+001  5.000000e+000
    endloop
  endfacet
  facet normal  9.510565e-001 -3.090173e-001  0.000000e+000
    outer loop
      vertex -9.724796e+000  1.161641e+001  0.000000e+000
      vertex -1.025000e+001  1.000000e+001  5.000000e+000
      vertex -1.025000e+001  1.000000e+001  0.000000e+000
    endloop
  endfacet
  facet normal  5.877852e-001 -8.090171e-001  0.000000e+000
    outer loop
      vertex -9.724796e+000  1.161641e+001  5.000000e+000
      vertex -8.349796e+000  1.261541e+001  0.000000e+000
      vertex -8.349796e+000  1.261541e+001  5.000000e+000
    endloop
  endfacet
  facet normal  0.000000e+000 -9.999999e-001  0.000000e+000
    outer loop
      vertex -8.349796e+000  1.261541e+001  5.000000e+000
      vertex -8.349796e+000  1.261541e+001  0.000000e+000
      vertex -6.650203e+000  1.261541e+001  0.000000e+000
    endloop
  endfacet
  facet normal  0.000000e+000 -9.999999e-001  0.000000e+000
    outer loop
      vertex -8.349796e+000  1.261541e+001  5.000000e+000
      vertex -6.650203e+000  1.261541e+001  0.000000e+000
      vertex -6.650203e+000  1.261541e+001  5.000000e+000
    endloop
  endfacet
  facet normal -5.877852e-001 -8.090171e-001  -0.000000e+000
    outer loop
      vertex -6.650203e+000  1.261541e+001  5.000000e+000
      vertex -6.650203e+000  1.261541e+001  0.000000e+000
      vertex -5.275203e+000  1.161641e+001  0.000000e+000
    endloop
  endfacet
  facet normal -5.877852e-001 -8.090171e-001  0.000000e+000
    outer loop
      vertex -6.650203e+000  1.261541e+001  5.000000e+000
      vertex -5.275203e+000  1.161641e+001  0.000000e+000
      vertex -5.275203e+000  1.161641e+001  5.000000e+000
    endloop
  endfacet
  facet normal -9.510565e-001 -3.090170e-001  -0.000000e+000
    outer loop
      vertex -5.275203e+000  1.161641e+001  5.000000e+000
      vertex -5.275203e+000  1.161641e+001  0.000000e+000
      vertex -4.750000e+000  1.000000e+001  0.000000e+000
    endloop
  endfacet
  facet normal -9.510565e-001 -3.090170e-001  0.000000e+000
    outer loop
      vertex -5.275203e+000  1.161641e+001  5.000000e+000
      vertex -4.750000e+000  1.000000e+001  0.000000e+000
      vertex -4.750000e+000  1.000000e+001  5.000000e+000
    endloop
  endfacet
  facet normal -5.877854e-001  8.090169e-001  0.000000e+000
    outer loop
      vertex -6.650203e+000  7.384594e+000  0.000000e+000
      vertex -5.275203e+000  8.383591e+000  5.000000e+000
      vertex -5.275203e+000  8.383591e+000  0.000000e+000
    endloop
  endfacet
  facet normal -9.510565e-001  3.090170e-001  0.000000e+000
    outer loop
      vertex -5.275203e+000  8.383591e+000  0.000000e+000
      vertex -5.275203e+000  8.383591e+000  5.000000e+000
      vertex -4.750000e+000  1.000000e+001  5.000000e+000
    endloop
  endfacet
  facet normal -9.510565e-001  3.090170e-001  0.000000e+000
    outer loop
      vertex -5.275203e+000  8.383591e+000  0.000000e+000
      vertex -4.750000e+000  1.000000e+001  5.000000e+000
      vertex -4.750000e+000  1.000000e+001  0.000000e+000
    endloop
  endfacet
  facet normal -5.877854e-001  8.090169e-001  0.000000e+000
    outer loop
      vertex -5.275203e+000  8.383591e+000  5.000000e+000
      vertex -6.650203e+000  7.384594e+000  0.000000e+000
      vertex -6.650203e+000  7.384594e+000  5.000000e+000
    endloop
  endfacet
  facet normal  0.000000e+000  9.999999e-001  0.000000e+000
    outer loop
      vertex -6.650203e+000  7.384594e+000  5.000000e+000
      vertex -6.650203e+000  7.384594e+000  0.000000e+000
      vertex -8.349796e+000  7.384594e+000  0.000000e+000
    endloop
  endfacet
  facet normal  0.000000e+000  9.999999e-001  0.000000e+000
    outer loop
      vertex -6.650203e+000  7.384594e+000  5.000000e+000
      vertex -8.349796e+000  7.384594e+000  0.000000e+000
      vertex -8.349796e+000  7.384594e+000  5.000000e+000
    endloop
  endfacet
  facet normal  5.877854e-001  8.090169e-001  0.000000e+000
    outer loop
      vertex -8.349796e+000  7.384594e+000  5.000000e+000
      vertex -8.349796e+000  7.384594e+000  0.000000e+000
      vertex -9.724796e+000  8.383591e+000  0.000000e+000
    endloop
  endfacet
  facet normal  5.877854e-001  8.090169e-001  -0.000000e+000
    outer loop
      vertex -8.349796e+000  7.384594e+000  5.000000e+000
      vertex -9.724796e+000  8.383591e+000  0.000000e+000
      vertex -9.724796e+000  8.383591e+000  5.000000e+000
    endloop
  endfacet
  facet normal  9.510565e-001  3.090173e-001  0.000000e+000
    outer loop
      vertex -9.724796e+000  8.383591e+000  5.000000e+000
      vertex -9.724796e+000  8.383591e+000  0.000000e+000
      vertex -1.025000e+001  1.000000e+001  0.000000e+000
    endloop
  endfacet
  facet normal  9.510565e-001  3.090173e-001  -0.000000e+000
    outer loop
      vertex -9.724796e+000  8.383591e+000  5.000000e+000
      vertex -1.025000e+001  1.000000e+001  0.000000e+000
      vertex -1.025000e+001  1.000000e+001  5.000000e+000
    endloop
  endfacet
  facet normal  0.000000e+000 -1.000000e+000  0.000000e+000
    outer loop
      vertex -1.065814e-014  0.000000e+000  4.500000e+001
      vertex -1.500000e+001  0.000000e+000  4.500000e+001
      vertex -7.500000e+000  0.000000e+000  3.940000e+001
    endloop
  endfacet
  facet normal  0.000000e+000 -1.000000e+000  0.000000e+000
    outer loop
      vertex -1.065814e-014  0.000000e+000  4.500000e+001
      vertex -7.500000e+000  0.000000e+000  3.940000e+001
      vertex -5.300000e+000  0.000000e+000  3.881051e+001
    endloop
  endfacet
  facet normal  0.000000e+000 -1.000000e+000  0.000000e+000
    outer loop
      vertex -1.065814e-014  0.000000e+000  4.500000e+001
      vertex -5.300000e+000  0.000000e+000  3.881051e+001
      vertex -3.689488e+000  0.000000e+000  3.720000e+001
    endloop
  endfacet
  facet normal  0.000000e+000 -1.000000e+000  0.000000e+000
    outer loop
      vertex -1.065814e-014  0.000000e+000  4.500000e+001
      vertex -3.689488e+000  0.000000e+000  3.720000e+001
      vertex -3.100000e+000  0.000000e+000  3.500000e+001
    endloop
  endfacet
  facet normal  0.000000e+000 -1.000000e+000  0.000000e+000
    outer loop
      vertex -1.065814e-014  0.000000e+000  4.500000e+001
      vertex -3.100000e+000  0.000000e+000  3.500000e+001
      vertex  0.000000e+000  0.000000e+000  0.000000e+000
    endloop
  endfacet
  facet normal  0.000000e+000 -9.999999e-001  -0.000000e+000
    outer loop
      vertex  0.000000e+000  0.000000e+000  0.000000e+000
      vertex -3.100000e+000  0.000000e+000  3.500000e+001
      vertex -3.689488e+000  0.000000e+000  3.280000e+001
    endloop
  endfacet
  facet normal  0.000000e+000 -9.999999e-001  -0.000000e+000
    outer loop
      vertex  0.000000e+000  0.000000e+000  0.000000e+000
      vertex -3.689488e+000  0.000000e+000  3.280000e+001
      vertex -5.300000e+000  0.000000e+000  3.118949e+001
    endloop
  endfacet
  facet normal  0.000000e+000 -1.000000e+000  -0.000000e+000
    outer loop
      vertex  0.000000e+000  0.000000e+000  0.000000e+000
      vertex -5.300000e+000  0.000000e+000  3.118949e+001
      vertex -7.500000e+000  0.000000e+000  3.060000e+001
    endloop
  endfacet
  facet normal  0.000000e+000 -1.000000e+000  -0.000000e+000
    outer loop
      vertex  0.000000e+000  0.000000e+000  0.000000e+000
      vertex -7.500000e+000  0.000000e+000  3.060000e+001
      vertex -1.500000e+001  0.000000e+000  0.000000e+000
    endloop
  endfacet
  facet normal  -0.000000e+000 -1.000000e+000  0.000000e+000
    outer loop
      vertex -1.500000e+001  0.000000e+000  0.000000e+000
      vertex -7.500000e+000  0.000000e+000  3.060000e+001
      vertex -9.700000e+000  0.000000e+000  3.118949e+001
    endloop
  endfacet
  facet normal  -0.000000e+000 -1.000000e+000  0.000000e+000
    outer loop
      vertex -1.500000e+001  0.000000e+000  0.000000e+000
      vertex -9.700000e+000  0.000000e+000  3.118949e+001
      vertex -1.131051e+001  0.000000e+000  3.280000e+001
    endloop
  endfacet
  facet normal  -0.000000e+000 -1.000000e+000  0.000000e+000
    outer loop
      vertex -1.500000e+001  0.000000e+000  0.000000e+000
      vertex -1.131051e+001  0.000000e+000  3.280000e+001
      vertex -1.190000e+001  0.000000e+000  3.500000e+001
    endloop
  endfacet
  facet normal  0.000000e+000 -1.000000e+000  0.000000e+000
    outer loop
      vertex -1.500000e+001  0.000000e+000  4.500000e+001
      vertex -1.500000e+001  0.000000e+000  0.000000e+000
      vertex -1.190000e+001  0.000000e+000  3.500000e+001
    endloop
  endfacet
  facet normal  0.000000e+000 -1.000000e+000  0.000000e+000
    outer loop
      vertex -1.500000e+001  0.000000e+000  4.500000e+001
      vertex -1.190000e+001  0.000000e+000  3.500000e+001
      vertex -1.131051e+001  0.000000e+000  3.720000e+001
    endloop
  endfacet
  facet normal  0.000000e+000 -1.000000e+000  0.000000e+000
    outer loop
      vertex -1.500000e+001  0.000000e+000  4.500000e+001
      vertex -1.131051e+001  0.000000e+000  3.720000e+001
      vertex -9.700000e+000  0.000000e+000  3.881051e+001
    endloop
  endfacet
  facet normal  0.000000e+000 -1.000000e+000  0.000000e+000
    outer loop
      vertex -1.500000e+001  0.000000e+000  4.500000e+001
      vertex -9.700000e+000  0.000000e+000  3.881051e+001
      vertex -7.500000e+000  0.000000e+000  3.940000e+001
    endloop
  endfacet
  facet normal  0.000000e+000  1.000000e+000  0.000000e+000
    outer loop
      vertex  0.000000e+000  1.500000e+001  0.000000e+000
      vertex -1.500000e+001  1.500000e+001  0.000000e+000
      vertex -1.776357e-015  1.500000e+001  5.000000e+000
    endloop
  endfacet
  facet normal  0.000000e+000  1.000000e+000  0.000000e+000
    outer loop
      vertex -1.776357e-015  1.500000e+001  5.000000e+000
      vertex -1.500000e+001  1.500000e+001  0.000000e+000
      vertex -1.500000e+001  1.500000e+001  5.000000e+000
    endloop
  endfacet
  facet normal  1.000000e+000  0.000000e+000  3.552714e-016
    outer loop
      vertex  0.000000e+000  1.500000e+001  0.000000e+000
      vertex -1.776357e-015  1.500000e+001  5.000000e+000
      vertex  0.000000e+000  0.000000e+000  0.000000e+000
    endloop
  endfacet
  facet normal  1.000000e+000  1.776357e-016 -1.776357e-016
    outer loop
      vertex  0.000000e+000  0.000000e+000  0.000000e+000
      vertex -1.776357e-015  1.500000e+001  5.000000e+000
      vertex  0.000000e+000  5.000000e+000  5.000000e+000
    endloop
  endfacet
  facet normal  1.000000e+000 -2.368476e-016  2.368476e-016
    outer loop
      vertex  0.000000e+000  0.000000e+000  0.000000e+000
      vertex  0.000000e+000  5.000000e+000  5.000000e+000
      vertex -1.065814e-014  0.000000e+000  4.500000e+001
    endloop
  endfacet
  facet normal  1.000000e+000  -0.000000e+000  2.664535e-016
    outer loop
      vertex -1.065814e-014  0.000000e+000  4.500000e+001
      vertex  0.000000e+000  5.000000e+000  5.000000e+000
      vertex -1.065814e-014  5.000000e+000  4.500000e+001
    endloop
  endfacet
  facet normal -1.000000e+000  -0.000000e+000  0.000000e+000
    outer loop
      vertex -1.500000e+001  0.000000e+000  4.500000e+001
      vertex -1.500000e+001  5.000000e+000  4.500000e+001
      vertex -1.500000e+001  0.000000e+000  0.000000e+000
    endloop
  endfacet
  facet normal -1.000000e+000  0.000000e+000  0.000000e+000
    outer loop
      vertex -1.500000e+001  0.000000e+000  0.000000e+000
      vertex -1.500000e+001  5.000000e+000  4.500000e+001
      vertex -1.500000e+001  5.000000e+000  5.000000e+000
    endloop
  endfacet
  facet normal -1.000000e+000  0.000000e+000  -0.000000e+000
    outer loop
      vertex -1.500000e+001  0.000000e+000  0.000000e+000
      vertex -1.500000e+001  5.000000e+000  5.000000e+000
      vertex -1.500000e+001  1.500000e+001  0.000000e+000
    endloop
  endfacet
  facet normal -1.000000e+000  0.000000e+000  0.000000e+000
    outer loop
      vertex -1.500000e+001  1.500000e+001  0.000000e+000
      vertex -1.500000e+001  5.000000e+000  5.000000e+000
      vertex -1.500000e+001  1.500000e+001  5.000000e+000
    endloop
  endfacet
  facet normal  0.000000e+000  1.000000e+000  0.000000e+000
    outer loop
      vertex -1.065814e-014  5.000000e+000  4.500000e+001
      vertex  0.000000e+000  5.000000e+000  5.000000e+000
      vertex -3.100000e+000  5.000000e+000  3.500000e+001
    endloop
  endfacet
  facet normal  0.000000e+000  1.000000e+000  -0.000000e+000
    outer loop
      vertex -1.065814e-014  5.000000e+000  4.500000e+001
      vertex -3.100000e+000  5.000000e+000  3.500000e+001
      vertex -3.689488e+000  5.000000e+000  3.720000e+001
    endloop
  endfacet
  facet normal  0.000000e+000  1.000000e+000  -0.000000e+000
    outer loop
      vertex -1.065814e-014  5.000000e+000  4.500000e+001
      vertex -3.689488e+000  5.000000e+000  3.720000e+001
      vertex -5.300000e+000  5.000000e+000  3.881051e+001
    endloop
  endfacet
  facet normal  0.000000e+000  1.000000e+000  -0.000000e+000
    outer loop
      vertex -1.065814e-014  5.000000e+000  4.500000e+001
      vertex -5.300000e+000  5.000000e+000  3.881051e+001
      vertex -7.500000e+000  5.000000e+000  3.940000e+001
    endloop
  endfacet
  facet normal  0.000000e+000  1.000000e+000  -0.000000e+000
    outer loop
      vertex -1.065814e-014  5.000000e+000  4.500000e+001
      vertex -7.500000e+000  5.000000e+000  3.940000e+001
      vertex -1.500000e+001  5.000000e+000  4.500000e+001
    endloop
  endfacet
  facet normal  0.000000e+000  1.000000e+000  0.000000e+000
    outer loop
      vertex  0.000000e+000  5.000000e+000  5.000000e+000
      vertex -1.500000e+001  5.000000e+000  5.000000e+000
      vertex -7.500000e+000  5.000000e+000  3.060000e+001
    endloop
  endfacet
  facet normal  -0.000000e+000  1.000000e+000  0.000000e+000
    outer loop
      vertex  0.000000e+000  5.000000e+000  5.000000e+000
      vertex -7.500000e+000  5.000000e+000  3.060000e+001
      vertex -5.300000e+000  5.000000e+000  3.118949e+001
    endloop
  endfacet
  facet normal  -0.000000e+000  1.000000e+000  0.000000e+000
    outer loop
      vertex  0.000000e+000  5.000000e+000  5.000000e+000
      vertex -5.300000e+000  5.000000e+000  3.118949e+001
      vertex -3.689488e+000  5.000000e+000  3.280000e+001
    endloop
  endfacet
  facet normal  -0.000000e+000  1.000000e+000  0.000000e+000
    outer loop
      vertex  0.000000e+000  5.000000e+000  5.000000e+000
      vertex -3.689488e+000  5.000000e+000  3.280000e+001
      vertex -3.100000e+000  5.000000e+000  3.500000e+001
    endloop
  endfacet
  facet normal  0.000000e+000  1.000000e+000  0.000000e+000
    outer loop
      vertex -1.500000e+001  5.000000e+000  5.000000e+000
      vertex -1.190000e+001  5.000000e+000  3.500000e+001
      vertex -1.131051e+001  5.000000e+000  3.280000e+001
    endloop
  endfacet
  facet normal  0.000000e+000  1.000000e+000  0.000000e+000
    outer loop
      vertex -1.500000e+001  5.000000e+000  5.000000e+000
      vertex -1.131051e+001  5.000000e+000  3.280000e+001
      vertex -9.700000e+000  5.000000e+000  3.118949e+001
    endloop
  endfacet
  facet normal  0.000000e+000  1.000000e+000  0.000000e+000
    outer loop
      vertex -1.500000e+001  5.000000e+000  5.000000e+000
      vertex -9.700000e+000  5.000000e+000  3.118949e+001
      vertex -7.500000e+000  5.000000e+000  3.060000e+001
    endloop
  endfacet
  facet normal  0.000000e+000  1.000000e+000  0.000000e+000
    outer loop
      vertex -1.500000e+001  5.000000e+000  4.500000e+001
      vertex -7.500000e+000  5.000000e+000  3.940000e+001
      vertex -9.700000e+000  5.000000e+000  3.881051e+001
    endloop
  endfacet
  facet normal  0.000000e+000  1.000000e+000  0.000000e+000
    outer loop
      vertex -1.500000e+001  5.000000e+000  4.500000e+001
      vertex -9.700000e+000  5.000000e+000  3.881051e+001
      vertex -1.131051e+001  5.000000e+000  3.720000e+001
    endloop
  endfacet
  facet normal  0.000000e+000  1.000000e+000  0.000000e+000
    outer loop
      vertex -1.500000e+001  5.000000e+000  4.500000e+001
      vertex -1.131051e+001  5.000000e+000  3.720000e+001
      vertex -1.190000e+001  5.000000e+000  3.500000e+001
    endloop
  endfacet
  facet normal  0.000000e+000  1.000000e+000  0.000000e+000
    outer loop
      vertex -1.500000e+001  5.000000e+000  4.500000e+001
      vertex -1.190000e+001  5.000000e+000  3.500000e+001
      vertex -1.500000e+001  5.000000e+000  5.000000e+000
    endloop
  endfacet
  facet normal -2.588194e-001  -0.000000e+000 -9.659258e-001
    outer loop
      vertex -7.500000e+000  0.000000e+000  3.940000e+001
      vertex -5.300000e+000  5.000000e+000  3.881051e+001
      vertex -5.300000e+000  0.000000e+000  3.881051e+001
    endloop
  endfacet
  facet normal -7.071067e-001  0.000000e+000 -7.071068e-001
    outer loop
      vertex -5.300000e+000  0.000000e+000  3.881051e+001
      vertex -5.300000e+000  5.000000e+000  3.881051e+001
      vertex -3.689488e+000  5.000000e+000  3.720000e+001
    endloop
  endfacet
  facet normal -7.071067e-001  -0.000000e+000 -7.071068e-001
    outer loop
      vertex -5.300000e+000  0.000000e+000  3.881051e+001
      vertex -3.689488e+000  5.000000e+000  3.720000e+001
      vertex -3.689488e+000  0.000000e+000  3.720000e+001
    endloop
  endfacet
  facet normal -9.659258e-001  0.000000e+000 -2.588190e-001
    outer loop
      vertex -3.689488e+000  0.000000e+000  3.720000e+001
      vertex -3.689488e+000  5.000000e+000  3.720000e+001
      vertex -3.100000e+000  5.000000e+000  3.500000e+001
    endloop
  endfacet
  facet normal -9.659258e-001  -0.000000e+000 -2.588190e-001
    outer loop
      vertex -3.689488e+000  0.000000e+000  3.720000e+001
      vertex -3.100000e+000  5.000000e+000  3.500000e+001
      vertex -3.100000e+000  0.000000e+000  3.500000e+001
    endloop
  endfacet
  facet normal -2.588194e-001  0.000000e+000 -9.659258e-001
    outer loop
      vertex -5.300000e+000  5.000000e+000  3.881051e+001
      vertex -7.500000e+000  0.000000e+000  3.940000e+001
      vertex -7.500000e+000  5.000000e+000  3.940000e+001
    endloop
  endfacet
  facet normal  2.588194e-001  0.000000e+000 -9.659258e-001
    outer loop
      vertex -7.500000e+000  5.000000e+000  3.940000e+001
      vertex -7.500000e+000  0.000000e+000  3.940000e+001
      vertex -9.700000e+000  0.000000e+000  3.881051e+001
    endloop
  endfacet
  facet normal  2.588194e-001  0.000000e+000 -9.659258e-001
    outer loop
      vertex -7.500000e+000  5.000000e+000  3.940000e+001
      vertex -9.700000e+000  0.000000e+000  3.881051e+001
      vertex -9.700000e+000  5.000000e+000  3.881051e+001
    endloop
  endfacet
  facet normal  7.071068e-001  0.000000e+000 -7.071068e-001
    outer loop
      vertex -9.700000e+000  5.000000e+000  3.881051e+001
      vertex -9.700000e+000  0.000000e+000  3.881051e+001
      vertex -1.131051e+001  0.000000e+000  3.720000e+001
    endloop
  endfacet
  facet normal  7.071068e-001  0.000000e+000 -7.071068e-001
    outer loop
      vertex -9.700000e+000  5.000000e+000  3.881051e+001
      vertex -1.131051e+001  0.000000e+000  3.720000e+001
      vertex -1.131051e+001  5.000000e+000  3.720000e+001
    endloop
  endfacet
  facet normal  9.659259e-001  0.000000e+000 -2.588189e-001
    outer loop
      vertex -1.131051e+001  5.000000e+000  3.720000e+001
      vertex -1.131051e+001  0.000000e+000  3.720000e+001
      vertex -1.190000e+001  0.000000e+000  3.500000e+001
    endloop
  endfacet
  facet normal  9.659259e-001  0.000000e+000 -2.588189e-001
    outer loop
      vertex -1.131051e+001  5.000000e+000  3.720000e+001
      vertex -1.190000e+001  0.000000e+000  3.500000e+001
      vertex -1.190000e+001  5.000000e+000  3.500000e+001
    endloop
  endfacet
  facet normal  2.588186e-001  0.000000e+000  9.659260e-001
    outer loop
      vertex -7.500000e+000  0.000000e+000  3.060000e+001
      vertex -9.700000e+000  5.000000e+000  3.118949e+001
      vertex -9.700000e+000  0.000000e+000  3.118949e+001
    endloop
  endfacet
  facet normal  7.071068e-001  -0.000000e+000  7.071068e-001
    outer loop
      vertex -9.700000e+000  0.000000e+000  3.118949e+001
      vertex -9.700000e+000  5.000000e+000  3.118949e+001
      vertex -1.131051e+001  5.000000e+000  3.280000e+001
    endloop
  endfacet
  facet normal  7.071068e-001  0.000000e+000  7.071068e-001
    outer loop
      vertex -9.700000e+000  0.000000e+000  3.118949e+001
      vertex -1.131051e+001  5.000000e+000  3.280000e+001
      vertex -1.131051e+001  0.000000e+000  3.280000e+001
    endloop
  endfacet
  facet normal  9.659259e-001  -0.000000e+000  2.588189e-001
    outer loop
      vertex -1.131051e+001  0.000000e+000  3.280000e+001
      vertex -1.131051e+001  5.000000e+000  3.280000e+001
      vertex -1.190000e+001  5.000000e+000  3.500000e+001
    endloop
  endfacet
  facet normal  9.659259e-001  0.000000e+000  2.588189e-001
    outer loop
      vertex -1.131051e+001  0.000000e+000  3.280000e+001
      vertex -1.190000e+001  5.000000e+000  3.500000e+001
      vertex -1.190000e+001  0.000000e+000  3.500000e+001
    endloop
  endfacet
  facet normal  2.588186e-001  -0.000000e+000  9.659260e-001
    outer loop
      vertex -9.700000e+000  5.000000e+000  3.118949e+001
      vertex -7.500000e+000  0.000000e+000  3.060000e+001
      vertex -7.500000e+000  5.000000e+000  3.060000e+001
    endloop
  endfacet
  facet normal -2.588186e-001  0.000000e+000  9.659260e-001
    outer loop
      vertex -7.500000e+000  5.000000e+000  3.060000e+001
      vertex -7.500000e+000  0.000000e+000  3.060000e+001
      vertex -5.300000e+000  0.000000e+000  3.118949e+001
    endloop
  endfacet
  facet normal -2.588186e-001  0.000000e+000  9.659260e-001
    outer loop
      vertex -7.500000e+000  5.000000e+000  3.060000e+001
      vertex -5.300000e+000  0.000000e+000  3.118949e+001
      vertex -5.300000e+000  5.000000e+000  3.118949e+001
    endloop
  endfacet
  facet normal -7.071067e-001  0.000000e+000  7.071068e-001
    outer loop
      vertex -5.300000e+000  5.000000e+000  3.118949e+001
      vertex -5.300000e+000  0.000000e+000  3.118949e+001
      vertex -3.689488e+000  0.000000e+000  3.280000e+001
    endloop
  endfacet
  facet normal -7.071067e-001  0.000000e+000  7.071068e-001
    outer loop
      vertex -5.300000e+000  5.000000e+000  3.118949e+001
      vertex -3.689488e+000  0.000000e+000  3.280000e+001
      vertex -3.689488e+000  5.000000e+000  3.280000e+001
    endloop
  endfacet
  facet normal -9.659258e-001  0.000000e+000  2.588190e-001
    outer loop
      vertex -3.689488e+000  5.000000e+000  3.280000e+001
      vertex -3.689488e+000  0.000000e+000  3.280000e+001
      vertex -3.100000e+000  0.000000e+000  3.500000e+001
    endloop
  endfacet
  facet normal -9.659258e-001  0.000000e+000  2.588190e-001
    outer loop
      vertex -3.689488e+000  5.000000e+000  3.280000e+001
      vertex -3.100000e+000  0.000000e+000  3.500000e+001
      vertex -3.100000e+000  5.000000e+000  3.500000e+001
    endloop
  endfacet
  facet normal  0.000000e+000  0.000000e+000  1.000000e+000
    outer loop
      vertex -1.500000e+001  5.000000e+000  4.500000e+001
      vertex -1.500000e+001  0.000000e+000  4.500000e+001
      vertex -1.065814e-014  5.000000e+000  4.500000e+001
    endloop
  endfacet
  facet normal  0.000000e+000  0.000000e+000  1.000000e+000
    outer loop
      vertex -1.065814e-014  5.000000e+000  4.500000e+001
      vertex -1.500000e+001  0.000000e+000  4.500000e+001
      vertex -1.065814e-014  0.000000e+000  4.500000e+001
    endloop
  endfacet
endsolid CATIA STL
