solid CATIA STL
  facet normal -9.999999e-001  0.000000e+000  0.000000e+000
    outer loop
      vertex -1.500000e+001  8.500000e+000  3.000000e+001
      vertex -1.500000e+001  8.500000e+000  4.500000e+000
      vertex -1.500000e+001  0.000000e+000  3.000000e+001
    endloop
  endfacet
  facet normal -1.000000e+000  0.000000e+000  0.000000e+000
    outer loop
      vertex -1.500000e+001  0.000000e+000  3.000000e+001
      vertex -1.500000e+001  8.500000e+000  4.500000e+000
      vertex -1.500000e+001  3.500000e+000  4.500000e+000
    endloop
  endfacet
  facet normal -1.000000e+000  -0.000000e+000  0.000000e+000
    outer loop
      vertex -1.500000e+001  0.000000e+000  3.000000e+001
      vertex -1.500000e+001  3.500000e+000  4.500000e+000
      vertex -1.500000e+001  0.000000e+000  0.000000e+000
    endloop
  endfacet
  facet normal -1.000000e+000  0.000000e+000  0.000000e+000
    outer loop
      vertex -1.500000e+001  0.000000e+000  0.000000e+000
      vertex -1.500000e+001  3.500000e+000  4.500000e+000
      vertex -1.500000e+001  3.500000e+000  2.250000e+000
    endloop
  endfacet
  facet normal -1.000000e+000  0.000000e+000  -0.000000e+000
    outer loop
      vertex -1.500000e+001  0.000000e+000  0.000000e+000
      vertex -1.500000e+001  3.500000e+000  2.250000e+000
      vertex -1.500000e+001  8.500000e+000  0.000000e+000
    endloop
  endfacet
  facet normal -1.000000e+000  0.000000e+000  0.000000e+000
    outer loop
      vertex -1.500000e+001  8.500000e+000  0.000000e+000
      vertex -1.500000e+001  3.500000e+000  2.250000e+000
      vertex -1.500000e+001  8.500000e+000  2.250000e+000
    endloop
  endfacet
  facet normal  1.000000e+000 -3.806479e-016  5.921190e-016
    outer loop
      vertex -1.776357e-014  0.000000e+000  3.000000e+001
      vertex  0.000000e+000  0.000000e+000  0.000000e+000
      vertex  0.000000e+000  3.500000e+000  2.250000e+000
    endloop
  endfacet
  facet normal  1.000000e+000 -5.075305e-015  0.000000e+000
    outer loop
      vertex -1.776357e-014  0.000000e+000  3.000000e+001
      vertex  0.000000e+000  3.500000e+000  2.250000e+000
      vertex  0.000000e+000  3.500000e+000  4.500000e+000
    endloop
  endfacet
  facet normal  1.000000e+000  -0.000000e+000  6.966106e-016
    outer loop
      vertex -1.776357e-014  0.000000e+000  3.000000e+001
      vertex  0.000000e+000  3.500000e+000  4.500000e+000
      vertex  0.000000e+000  8.500000e+000  4.500000e+000
    endloop
  endfacet
  facet normal  9.999999e-001  0.000000e+000  6.966105e-016
    outer loop
      vertex -1.776357e-014  0.000000e+000  3.000000e+001
      vertex  0.000000e+000  8.500000e+000  4.500000e+000
      vertex -1.776357e-014  8.500000e+000  3.000000e+001
    endloop
  endfacet
  facet normal  1.000000e+000  -0.000000e+000  0.000000e+000
    outer loop
      vertex  0.000000e+000  8.500000e+000  2.250000e+000
      vertex  0.000000e+000  3.500000e+000  2.250000e+000
      vertex  0.000000e+000  8.500000e+000  0.000000e+000
    endloop
  endfacet
  facet normal  1.000000e+000  0.000000e+000  0.000000e+000
    outer loop
      vertex  0.000000e+000  8.500000e+000  0.000000e+000
      vertex  0.000000e+000  3.500000e+000  2.250000e+000
      vertex  0.000000e+000  0.000000e+000  0.000000e+000
    endloop
  endfacet
  facet normal  0.000000e+000  1.000000e+000  0.000000e+000
    outer loop
      vertex  0.000000e+000  8.500000e+000  0.000000e+000
      vertex -1.500000e+001  8.500000e+000  0.000000e+000
      vertex  0.000000e+000  8.500000e+000  2.250000e+000
    endloop
  endfacet
  facet normal  0.000000e+000  1.000000e+000  0.000000e+000
    outer loop
      vertex  0.000000e+000  8.500000e+000  2.250000e+000
      vertex -1.500000e+001  8.500000e+000  0.000000e+000
      vertex -1.500000e+001  8.500000e+000  2.250000e+000
    endloop
  endfacet
  facet normal  -0.000000e+000  1.000000e+000  0.000000e+000
    outer loop
      vertex  0.000000e+000  8.500000e+000  4.500000e+000
      vertex -5.396556e+000  8.500000e+000  2.097176e+001
      vertex -4.900000e+000  8.500000e+000  2.250000e+001
    endloop
  endfacet
  facet normal  -0.000000e+000  1.000000e+000  0.000000e+000
    outer loop
      vertex  0.000000e+000  8.500000e+000  4.500000e+000
      vertex -6.696556e+000  8.500000e+000  2.002725e+001
      vertex -5.396556e+000  8.500000e+000  2.097176e+001
    endloop
  endfacet
  facet normal  0.000000e+000  1.000000e+000  0.000000e+000
    outer loop
      vertex -1.500000e+001  8.500000e+000  4.500000e+000
      vertex -1.010000e+001  8.500000e+000  2.250000e+001
      vertex -9.603444e+000  8.500000e+000  2.097176e+001
    endloop
  endfacet
  facet normal  0.000000e+000  1.000000e+000  0.000000e+000
    outer loop
      vertex -1.500000e+001  8.500000e+000  4.500000e+000
      vertex -9.603444e+000  8.500000e+000  2.097176e+001
      vertex -8.303444e+000  8.500000e+000  2.002725e+001
    endloop
  endfacet
  facet normal  -0.000000e+000  1.000000e+000  0.000000e+000
    outer loop
      vertex -1.500000e+001  8.500000e+000  4.500000e+000
      vertex -8.303444e+000  8.500000e+000  2.002725e+001
      vertex -6.696556e+000  8.500000e+000  2.002725e+001
    endloop
  endfacet
  facet normal  0.000000e+000  1.000000e+000  0.000000e+000
    outer loop
      vertex -1.500000e+001  8.500000e+000  4.500000e+000
      vertex -6.696556e+000  8.500000e+000  2.002725e+001
      vertex  0.000000e+000  8.500000e+000  4.500000e+000
    endloop
  endfacet
  facet normal  0.000000e+000  1.000000e+000  0.000000e+000
    outer loop
      vertex -1.776357e-014  8.500000e+000  3.000000e+001
      vertex  0.000000e+000  8.500000e+000  4.500000e+000
      vertex -4.900000e+000  8.500000e+000  2.250000e+001
    endloop
  endfacet
  facet normal  0.000000e+000  1.000000e+000  -0.000000e+000
    outer loop
      vertex -1.776357e-014  8.500000e+000  3.000000e+001
      vertex -4.900000e+000  8.500000e+000  2.250000e+001
      vertex -5.396556e+000  8.500000e+000  2.402824e+001
    endloop
  endfacet
  facet normal  0.000000e+000  1.000000e+000  -0.000000e+000
    outer loop
      vertex -1.776357e-014  8.500000e+000  3.000000e+001
      vertex -5.396556e+000  8.500000e+000  2.402824e+001
      vertex -6.696556e+000  8.500000e+000  2.497275e+001
    endloop
  endfacet
  facet normal  0.000000e+000  1.000000e+000  -0.000000e+000
    outer loop
      vertex -1.776357e-014  8.500000e+000  3.000000e+001
      vertex -6.696556e+000  8.500000e+000  2.497275e+001
      vertex -8.303444e+000  8.500000e+000  2.497275e+001
    endloop
  endfacet
  facet normal  0.000000e+000  1.000000e+000  -0.000000e+000
    outer loop
      vertex -1.776357e-014  8.500000e+000  3.000000e+001
      vertex -8.303444e+000  8.500000e+000  2.497275e+001
      vertex -1.500000e+001  8.500000e+000  3.000000e+001
    endloop
  endfacet
  facet normal  0.000000e+000  1.000000e+000  0.000000e+000
    outer loop
      vertex -1.500000e+001  8.500000e+000  3.000000e+001
      vertex -8.303444e+000  8.500000e+000  2.497275e+001
      vertex -9.603444e+000  8.500000e+000  2.402824e+001
    endloop
  endfacet
  facet normal  0.000000e+000  1.000000e+000  0.000000e+000
    outer loop
      vertex -1.500000e+001  8.500000e+000  3.000000e+001
      vertex -9.603444e+000  8.500000e+000  2.402824e+001
      vertex -1.010000e+001  8.500000e+000  2.250000e+001
    endloop
  endfacet
  facet normal  0.000000e+000  1.000000e+000  0.000000e+000
    outer loop
      vertex -1.500000e+001  8.500000e+000  3.000000e+001
      vertex -1.010000e+001  8.500000e+000  2.250000e+001
      vertex -1.500000e+001  8.500000e+000  4.500000e+000
    endloop
  endfacet
  facet normal  0.000000e+000  1.000000e+000  0.000000e+000
    outer loop
      vertex  0.000000e+000  3.500000e+000  2.250000e+000
      vertex -1.500000e+001  3.500000e+000  2.250000e+000
      vertex  0.000000e+000  3.500000e+000  4.500000e+000
    endloop
  endfacet
  facet normal  0.000000e+000  1.000000e+000  0.000000e+000
    outer loop
      vertex  0.000000e+000  3.500000e+000  4.500000e+000
      vertex -1.500000e+001  3.500000e+000  2.250000e+000
      vertex -1.500000e+001  3.500000e+000  4.500000e+000
    endloop
  endfacet
  facet normal  0.000000e+000  0.000000e+000 -1.000000e+000
    outer loop
      vertex  0.000000e+000  3.500000e+000  4.500000e+000
      vertex -1.500000e+001  3.500000e+000  4.500000e+000
      vertex  0.000000e+000  8.500000e+000  4.500000e+000
    endloop
  endfacet
  facet normal  -0.000000e+000  0.000000e+000 -1.000000e+000
    outer loop
      vertex  0.000000e+000  8.500000e+000  4.500000e+000
      vertex -1.500000e+001  3.500000e+000  4.500000e+000
      vertex -1.500000e+001  8.500000e+000  4.500000e+000
    endloop
  endfacet
  facet normal  0.000000e+000  0.000000e+000  1.000000e+000
    outer loop
      vertex -1.500000e+001  3.500000e+000  2.250000e+000
      vertex  0.000000e+000  3.500000e+000  2.250000e+000
      vertex -1.500000e+001  8.500000e+000  2.250000e+000
    endloop
  endfacet
  facet normal  -0.000000e+000  0.000000e+000  1.000000e+000
    outer loop
      vertex -1.500000e+001  8.500000e+000  2.250000e+000
      vertex  0.000000e+000  3.500000e+000  2.250000e+000
      vertex  0.000000e+000  8.500000e+000  2.250000e+000
    endloop
  endfacet
  facet normal  0.000000e+000 -1.000000e+000  -0.000000e+000
    outer loop
      vertex -8.303444e+000  0.000000e+000  2.002725e+001
      vertex -9.603444e+000  0.000000e+000  2.097176e+001
      vertex -1.500000e+001  0.000000e+000  0.000000e+000
    endloop
  endfacet
  facet normal  0.000000e+000 -1.000000e+000  -0.000000e+000
    outer loop
      vertex -9.603444e+000  0.000000e+000  2.097176e+001
      vertex -1.010000e+001  0.000000e+000  2.250000e+001
      vertex -1.500000e+001  0.000000e+000  0.000000e+000
    endloop
  endfacet
  facet normal  0.000000e+000 -1.000000e+000  -0.000000e+000
    outer loop
      vertex  0.000000e+000  0.000000e+000  0.000000e+000
      vertex -4.900000e+000  0.000000e+000  2.250000e+001
      vertex -5.396556e+000  0.000000e+000  2.097176e+001
    endloop
  endfacet
  facet normal  0.000000e+000 -1.000000e+000  -0.000000e+000
    outer loop
      vertex  0.000000e+000  0.000000e+000  0.000000e+000
      vertex -5.396556e+000  0.000000e+000  2.097176e+001
      vertex -6.696556e+000  0.000000e+000  2.002725e+001
    endloop
  endfacet
  facet normal  -0.000000e+000 -1.000000e+000  -0.000000e+000
    outer loop
      vertex  0.000000e+000  0.000000e+000  0.000000e+000
      vertex -6.696556e+000  0.000000e+000  2.002725e+001
      vertex -8.303444e+000  0.000000e+000  2.002725e+001
    endloop
  endfacet
  facet normal  0.000000e+000 -1.000000e+000  -0.000000e+000
    outer loop
      vertex  0.000000e+000  0.000000e+000  0.000000e+000
      vertex -8.303444e+000  0.000000e+000  2.002725e+001
      vertex -1.500000e+001  0.000000e+000  0.000000e+000
    endloop
  endfacet
  facet normal  0.000000e+000 -1.000000e+000  0.000000e+000
    outer loop
      vertex -1.776357e-014  0.000000e+000  3.000000e+001
      vertex -1.500000e+001  0.000000e+000  3.000000e+001
      vertex -8.303444e+000  0.000000e+000  2.497275e+001
    endloop
  endfacet
  facet normal  0.000000e+000 -1.000000e+000  0.000000e+000
    outer loop
      vertex -1.776357e-014  0.000000e+000  3.000000e+001
      vertex -8.303444e+000  0.000000e+000  2.497275e+001
      vertex -6.696556e+000  0.000000e+000  2.497275e+001
    endloop
  endfacet
  facet normal  0.000000e+000 -1.000000e+000  0.000000e+000
    outer loop
      vertex -1.776357e-014  0.000000e+000  3.000000e+001
      vertex -6.696556e+000  0.000000e+000  2.497275e+001
      vertex -5.396556e+000  0.000000e+000  2.402824e+001
    endloop
  endfacet
  facet normal  0.000000e+000 -1.000000e+000  0.000000e+000
    outer loop
      vertex -1.776357e-014  0.000000e+000  3.000000e+001
      vertex -5.396556e+000  0.000000e+000  2.402824e+001
      vertex -4.900000e+000  0.000000e+000  2.250000e+001
    endloop
  endfacet
  facet normal  0.000000e+000 -1.000000e+000  0.000000e+000
    outer loop
      vertex -1.776357e-014  0.000000e+000  3.000000e+001
      vertex -4.900000e+000  0.000000e+000  2.250000e+001
      vertex  0.000000e+000  0.000000e+000  0.000000e+000
    endloop
  endfacet
  facet normal  0.000000e+000 -1.000000e+000  0.000000e+000
    outer loop
      vertex -1.500000e+001  0.000000e+000  3.000000e+001
      vertex -1.500000e+001  0.000000e+000  0.000000e+000
      vertex -1.010000e+001  0.000000e+000  2.250000e+001
    endloop
  endfacet
  facet normal  0.000000e+000 -1.000000e+000  0.000000e+000
    outer loop
      vertex -1.500000e+001  0.000000e+000  3.000000e+001
      vertex -1.010000e+001  0.000000e+000  2.250000e+001
      vertex -9.603444e+000  0.000000e+000  2.402824e+001
    endloop
  endfacet
  facet normal  0.000000e+000 -1.000000e+000  0.000000e+000
    outer loop
      vertex -1.500000e+001  0.000000e+000  3.000000e+001
      vertex -9.603444e+000  0.000000e+000  2.402824e+001
      vertex -8.303444e+000  0.000000e+000  2.497275e+001
    endloop
  endfacet
  facet normal -5.877855e-001  -0.000000e+000 -8.090168e-001
    outer loop
      vertex -6.696556e+000  0.000000e+000  2.497275e+001
      vertex -5.396556e+000  8.500000e+000  2.402824e+001
      vertex -5.396556e+000  0.000000e+000  2.402824e+001
    endloop
  endfacet
  facet normal -9.510565e-001  0.000000e+000 -3.090169e-001
    outer loop
      vertex -5.396556e+000  0.000000e+000  2.402824e+001
      vertex -5.396556e+000  8.500000e+000  2.402824e+001
      vertex -4.900000e+000  8.500000e+000  2.250000e+001
    endloop
  endfacet
  facet normal -9.510565e-001  -0.000000e+000 -3.090169e-001
    outer loop
      vertex -5.396556e+000  0.000000e+000  2.402824e+001
      vertex -4.900000e+000  8.500000e+000  2.250000e+001
      vertex -4.900000e+000  0.000000e+000  2.250000e+001
    endloop
  endfacet
  facet normal -5.877855e-001  0.000000e+000 -8.090168e-001
    outer loop
      vertex -5.396556e+000  8.500000e+000  2.402824e+001
      vertex -6.696556e+000  0.000000e+000  2.497275e+001
      vertex -6.696556e+000  8.500000e+000  2.497275e+001
    endloop
  endfacet
  facet normal  0.000000e+000  -0.000000e+000 -1.000000e+000
    outer loop
      vertex -6.696556e+000  8.500000e+000  2.497275e+001
      vertex -6.696556e+000  0.000000e+000  2.497275e+001
      vertex -8.303444e+000  0.000000e+000  2.497275e+001
    endloop
  endfacet
  facet normal  0.000000e+000  0.000000e+000 -1.000000e+000
    outer loop
      vertex -6.696556e+000  8.500000e+000  2.497275e+001
      vertex -8.303444e+000  0.000000e+000  2.497275e+001
      vertex -8.303444e+000  8.500000e+000  2.497275e+001
    endloop
  endfacet
  facet normal  5.877854e-001  0.000000e+000 -8.090169e-001
    outer loop
      vertex -8.303444e+000  8.500000e+000  2.497275e+001
      vertex -8.303444e+000  0.000000e+000  2.497275e+001
      vertex -9.603444e+000  0.000000e+000  2.402824e+001
    endloop
  endfacet
  facet normal  5.877854e-001  0.000000e+000 -8.090169e-001
    outer loop
      vertex -8.303444e+000  8.500000e+000  2.497275e+001
      vertex -9.603444e+000  0.000000e+000  2.402824e+001
      vertex -9.603444e+000  8.500000e+000  2.402824e+001
    endloop
  endfacet
  facet normal  9.510564e-001  0.000000e+000 -3.090172e-001
    outer loop
      vertex -9.603444e+000  8.500000e+000  2.402824e+001
      vertex -9.603444e+000  0.000000e+000  2.402824e+001
      vertex -1.010000e+001  0.000000e+000  2.250000e+001
    endloop
  endfacet
  facet normal  9.510564e-001  0.000000e+000 -3.090172e-001
    outer loop
      vertex -9.603444e+000  8.500000e+000  2.402824e+001
      vertex -1.010000e+001  0.000000e+000  2.250000e+001
      vertex -1.010000e+001  8.500000e+000  2.250000e+001
    endloop
  endfacet
  facet normal  5.877854e-001  0.000000e+000  8.090169e-001
    outer loop
      vertex -8.303444e+000  0.000000e+000  2.002725e+001
      vertex -9.603444e+000  8.500000e+000  2.097176e+001
      vertex -9.603444e+000  0.000000e+000  2.097176e+001
    endloop
  endfacet
  facet normal  9.510564e-001  -0.000000e+000  3.090172e-001
    outer loop
      vertex -9.603444e+000  0.000000e+000  2.097176e+001
      vertex -9.603444e+000  8.500000e+000  2.097176e+001
      vertex -1.010000e+001  8.500000e+000  2.250000e+001
    endloop
  endfacet
  facet normal  9.510564e-001  0.000000e+000  3.090172e-001
    outer loop
      vertex -9.603444e+000  0.000000e+000  2.097176e+001
      vertex -1.010000e+001  8.500000e+000  2.250000e+001
      vertex -1.010000e+001  0.000000e+000  2.250000e+001
    endloop
  endfacet
  facet normal  5.877854e-001  -0.000000e+000  8.090169e-001
    outer loop
      vertex -9.603444e+000  8.500000e+000  2.097176e+001
      vertex -8.303444e+000  0.000000e+000  2.002725e+001
      vertex -8.303444e+000  8.500000e+000  2.002725e+001
    endloop
  endfacet
  facet normal  0.000000e+000  0.000000e+000  1.000000e+000
    outer loop
      vertex -8.303444e+000  8.500000e+000  2.002725e+001
      vertex -8.303444e+000  0.000000e+000  2.002725e+001
      vertex -6.696556e+000  0.000000e+000  2.002725e+001
    endloop
  endfacet
  facet normal  0.000000e+000  -0.000000e+000  1.000000e+000
    outer loop
      vertex -8.303444e+000  8.500000e+000  2.002725e+001
      vertex -6.696556e+000  0.000000e+000  2.002725e+001
      vertex -6.696556e+000  8.500000e+000  2.002725e+001
    endloop
  endfacet
  facet normal -5.877855e-001  0.000000e+000  8.090168e-001
    outer loop
      vertex -6.696556e+000  8.500000e+000  2.002725e+001
      vertex -6.696556e+000  0.000000e+000  2.002725e+001
      vertex -5.396556e+000  0.000000e+000  2.097176e+001
    endloop
  endfacet
  facet normal -5.877855e-001  0.000000e+000  8.090168e-001
    outer loop
      vertex -6.696556e+000  8.500000e+000  2.002725e+001
      vertex -5.396556e+000  0.000000e+000  2.097176e+001
      vertex -5.396556e+000  8.500000e+000  2.097176e+001
    endloop
  endfacet
  facet normal -9.510565e-001  0.000000e+000  3.090169e-001
    outer loop
      vertex -5.396556e+000  8.500000e+000  2.097176e+001
      vertex -5.396556e+000  0.000000e+000  2.097176e+001
      vertex -4.900000e+000  0.000000e+000  2.250000e+001
    endloop
  endfacet
  facet normal -9.510565e-001  0.000000e+000  3.090169e-001
    outer loop
      vertex -5.396556e+000  8.500000e+000  2.097176e+001
      vertex -4.900000e+000  0.000000e+000  2.250000e+001
      vertex -4.900000e+000  8.500000e+000  2.250000e+001
    endloop
  endfacet
  facet normal  0.000000e+000  0.000000e+000  1.000000e+000
    outer loop
      vertex -1.500000e+001  8.500000e+000  3.000000e+001
      vertex -1.500000e+001  0.000000e+000  3.000000e+001
      vertex -1.776357e-014  8.500000e+000  3.000000e+001
    endloop
  endfacet
  facet normal  0.000000e+000  0.000000e+000  1.000000e+000
    outer loop
      vertex -1.776357e-014  8.500000e+000  3.000000e+001
      vertex -1.500000e+001  0.000000e+000  3.000000e+001
      vertex -1.776357e-014  0.000000e+000  3.000000e+001
    endloop
  endfacet
  facet normal  0.000000e+000  0.000000e+000 -1.000000e+000
    outer loop
      vertex  0.000000e+000  8.500000e+000  0.000000e+000
      vertex  0.000000e+000  0.000000e+000  0.000000e+000
      vertex -1.500000e+001  8.500000e+000  0.000000e+000
    endloop
  endfacet
  facet normal  0.000000e+000  0.000000e+000 -1.000000e+000
    outer loop
      vertex -1.500000e+001  8.500000e+000  0.000000e+000
      vertex  0.000000e+000  0.000000e+000  0.000000e+000
      vertex -1.500000e+001  0.000000e+000  0.000000e+000
    endloop
  endfacet
endsolid CATIA STL
