solid CATIA STL
  facet normal  -0.000000e+000  0.000000e+000  1.000000e+000
    outer loop
      vertex -1.776357e-015  1.500000e+001  5.000000e+000
      vertex -6.650203e+000  1.261541e+001  5.000000e+000
      vertex -5.275203e+000  1.161641e+001  5.000000e+000
    endloop
  endfacet
  facet normal  0.000000e+000  -0.000000e+000  1.000000e+000
    outer loop
      vertex -1.500000e+001  1.500000e+001  5.000000e+000
      vertex -1.025000e+001  1.000000e+001  5.000000e+000
      vertex -9.724796e+000  1.161641e+001  5.000000e+000
    endloop
  endfacet
  facet normal  0.000000e+000  -0.000000e+000  1.000000e+000
    outer loop
      vertex -1.500000e+001  1.500000e+001  5.000000e+000
      vertex -9.724796e+000  1.161641e+001  5.000000e+000
      vertex -8.349796e+000  1.261541e+001  5.000000e+000
    endloop
  endfacet
  facet normal  0.000000e+000  -0.000000e+000  1.000000e+000
    outer loop
      vertex -1.500000e+001  1.500000e+001  5.000000e+000
      vertex -8.349796e+000  1.261541e+001  5.000000e+000
      vertex -6.650203e+000  1.261541e+001  5.000000e+000
    endloop
  endfacet
  facet normal  0.000000e+000  -0.000000e+000  1.000000e+000
    outer loop
      vertex -1.500000e+001  1.500000e+001  5.000000e+000
      vertex -6.650203e+000  1.261541e+001  5.000000e+000
      vertex -1.776357e-015  1.500000e+001  5.000000e+000
    endloop
  endfacet
  facet normal  0.000000e+000  0.000000e+000  9.999999e-001
    outer loop
      vertex  0.000000e+000  5.000000e+000  5.000000e+000
      vertex -1.776357e-015  1.500000e+001  5.000000e+000
      vertex -5.275203e+000  1.161641e+001  5.000000e+000
    endloop
  endfacet
  facet normal  0.000000e+000  0.000000e+000  1.000000e+000
    outer loop
      vertex  0.000000e+000  5.000000e+000  5.000000e+000
      vertex -5.275203e+000  1.161641e+001  5.000000e+000
      vertex -4.750000e+000  1.000000e+001  5.000000e+000
    endloop
  endfacet
  facet normal  0.000000e+000  0.000000e+000  1.000000e+000
    outer loop
      vertex  0.000000e+000  5.000000e+000  5.000000e+000
      vertex -4.750000e+000  1.000000e+001  5.000000e+000
      vertex -5.275203e+000  8.383591e+000  5.000000e+000
    endloop
  endfacet
  facet normal  0.000000e+000  0.000000e+000  1.000000e+000
    outer loop
      vertex  0.000000e+000  5.000000e+000  5.000000e+000
      vertex -5.275203e+000  8.383591e+000  5.000000e+000
      vertex -6.650203e+000  7.384594e+000  5.000000e+000
    endloop
  endfacet
  facet normal  0.000000e+000  0.000000e+000  1.000000e+000
    outer loop
      vertex  0.000000e+000  5.000000e+000  5.000000e+000
      vertex -6.650203e+000  7.384594e+000  5.000000e+000
      vertex -8.349796e+000  7.384594e+000  5.000000e+000
    endloop
  endfacet
  facet normal  0.000000e+000  0.000000e+000  1.000000e+000
    outer loop
      vertex  0.000000e+000  5.000000e+000  5.000000e+000
      vertex -8.349796e+000  7.384594e+000  5.000000e+000
      vertex -1.500000e+001  5.000000e+000  5.000000e+000
    endloop
  endfacet
  facet normal  0.000000e+000  0.000000e+000  1.000000e+000
    outer loop
      vertex -1.500000e+001  5.000000e+000  5.000000e+000
      vertex -8.349796e+000  7.384594e+000  5.000000e+000
      vertex -9.724796e+000  8.383591e+000  5.000000e+000
    endloop
  endfacet
  facet normal  0.000000e+000  0.000000e+000  1.000000e+000
    outer loop
      vertex -1.500000e+001  5.000000e+000  5.000000e+000
      vertex -9.724796e+000  8.383591e+000  5.000000e+000
      vertex -1.025000e+001  1.000000e+001  5.000000e+000
    endloop
  endfacet
  facet normal  0.000000e+000  0.000000e+000  1.000000e+000
    outer loop
      vertex -1.500000e+001  5.000000e+000  5.000000e+000
      vertex -1.025000e+001  1.000000e+001  5.000000e+000
      vertex -1.500000e+001  1.500000e+001  5.000000e+000
    endloop
  endfacet
  facet normal -1.788462e-016  2.461607e-016 -1.000000e+000
    outer loop
      vertex -1.500000e+001  1.500000e+001  0.000000e+000
      vertex -8.349796e+000  1.261541e+001 -1.776357e-015
      vertex -9.724796e+000  1.161641e+001 -1.776357e-015
    endloop
  endfacet
  facet normal  3.367371e-016  0.000000e+000 -9.999999e-001
    outer loop
      vertex  0.000000e+000  1.500000e+001  0.000000e+000
      vertex  0.000000e+000  0.000000e+000  0.000000e+000
      vertex -5.275203e+000  1.161641e+001 -1.776357e-015
    endloop
  endfacet
  facet normal  1.788462e-016  2.461607e-016 -1.000000e+000
    outer loop
      vertex  0.000000e+000  1.500000e+001  0.000000e+000
      vertex -5.275203e+000  1.161641e+001 -1.776357e-015
      vertex -6.650203e+000  1.261541e+001 -1.776357e-015
    endloop
  endfacet
  facet normal  0.000000e+000  7.449302e-016 -1.000000e+000
    outer loop
      vertex  0.000000e+000  1.500000e+001  0.000000e+000
      vertex -6.650203e+000  1.261541e+001 -1.776357e-015
      vertex -8.349796e+000  1.261541e+001 -1.776357e-015
    endloop
  endfacet
  facet normal  0.000000e+000  7.449302e-016 -1.000000e+000
    outer loop
      vertex  0.000000e+000  1.500000e+001  0.000000e+000
      vertex -8.349796e+000  1.261541e+001 -1.776357e-015
      vertex -1.500000e+001  1.500000e+001  0.000000e+000
    endloop
  endfacet
  facet normal  0.000000e+000 -2.405490e-016 -9.999999e-001
    outer loop
      vertex  0.000000e+000  0.000000e+000  0.000000e+000
      vertex -1.500000e+001  0.000000e+000  0.000000e+000
      vertex -8.349796e+000  7.384594e+000 -1.776357e-015
    endloop
  endfacet
  facet normal  0.000000e+000 -2.405490e-016 -1.000000e+000
    outer loop
      vertex  0.000000e+000  0.000000e+000  0.000000e+000
      vertex -8.349796e+000  7.384594e+000 -1.776357e-015
      vertex -6.650203e+000  7.384594e+000 -1.776357e-015
    endloop
  endfacet
  facet normal  1.056461e-016 -1.454093e-016 -1.000000e+000
    outer loop
      vertex  0.000000e+000  0.000000e+000  0.000000e+000
      vertex -6.650203e+000  7.384594e+000 -1.776357e-015
      vertex -5.275203e+000  8.383591e+000 -1.776357e-015
    endloop
  endfacet
  facet normal  2.220669e-016 -7.215391e-017 -1.000000e+000
    outer loop
      vertex  0.000000e+000  0.000000e+000  0.000000e+000
      vertex -5.275203e+000  8.383591e+000 -1.776357e-015
      vertex -4.750000e+000  1.000000e+001 -1.776357e-015
    endloop
  endfacet
  facet normal  1.183604e-015  3.845764e-016 -1.000000e+000
    outer loop
      vertex  0.000000e+000  0.000000e+000  0.000000e+000
      vertex -4.750000e+000  1.000000e+001 -1.776357e-015
      vertex -5.275203e+000  1.161641e+001 -1.776357e-015
    endloop
  endfacet
  facet normal -3.367371e-016  -0.000000e+000 -9.999999e-001
    outer loop
      vertex -1.500000e+001  0.000000e+000  0.000000e+000
      vertex -1.500000e+001  1.500000e+001  0.000000e+000
      vertex -9.724796e+000  1.161641e+001 -1.776357e-015
    endloop
  endfacet
  facet normal -1.183607e-015  3.845774e-016 -1.000000e+000
    outer loop
      vertex -1.500000e+001  0.000000e+000  0.000000e+000
      vertex -9.724796e+000  1.161641e+001 -1.776357e-015
      vertex -1.025000e+001  1.000000e+001 -1.776357e-015
    endloop
  endfacet
  facet normal -2.220668e-016 -7.215395e-017 -1.000000e+000
    outer loop
      vertex -1.500000e+001  0.000000e+000  0.000000e+000
      vertex -1.025000e+001  1.000000e+001 -1.776357e-015
      vertex -9.724796e+000  8.383591e+000 -1.776357e-015
    endloop
  endfacet
  facet normal -1.056461e-016 -1.454093e-016 -1.000000e+000
    outer loop
      vertex -1.500000e+001  0.000000e+000  0.000000e+000
      vertex -9.724796e+000  8.383591e+000 -1.776357e-015
      vertex -8.349796e+000  7.384594e+000 -1.776357e-015
    endloop
  endfacet
  facet normal -5.877854e-001  8.090169e-001  0.000000e+000
    outer loop
      vertex -6.650203e+000  7.384594e+000 -1.776357e-015
      vertex -5.275203e+000  8.383591e+000  5.000000e+000
      vertex -5.275203e+000  8.383591e+000 -1.776357e-015
    endloop
  endfacet
  facet normal -9.510565e-001  3.090170e-001  0.000000e+000
    outer loop
      vertex -5.275203e+000  8.383591e+000 -1.776357e-015
      vertex -5.275203e+000  8.383591e+000  5.000000e+000
      vertex -4.750000e+000  1.000000e+001  5.000000e+000
    endloop
  endfacet
  facet normal -9.510565e-001  3.090170e-001  0.000000e+000
    outer loop
      vertex -5.275203e+000  8.383591e+000 -1.776357e-015
      vertex -4.750000e+000  1.000000e+001  5.000000e+000
      vertex -4.750000e+000  1.000000e+001 -1.776357e-015
    endloop
  endfacet
  facet normal -5.877854e-001  8.090169e-001  0.000000e+000
    outer loop
      vertex -5.275203e+000  8.383591e+000  5.000000e+000
      vertex -6.650203e+000  7.384594e+000 -1.776357e-015
      vertex -6.650203e+000  7.384594e+000  5.000000e+000
    endloop
  endfacet
  facet normal  0.000000e+000  9.999999e-001  0.000000e+000
    outer loop
      vertex -6.650203e+000  7.384594e+000  5.000000e+000
      vertex -6.650203e+000  7.384594e+000 -1.776357e-015
      vertex -8.349796e+000  7.384594e+000 -1.776357e-015
    endloop
  endfacet
  facet normal  0.000000e+000  9.999999e-001  0.000000e+000
    outer loop
      vertex -6.650203e+000  7.384594e+000  5.000000e+000
      vertex -8.349796e+000  7.384594e+000 -1.776357e-015
      vertex -8.349796e+000  7.384594e+000  5.000000e+000
    endloop
  endfacet
  facet normal  5.877854e-001  8.090169e-001  0.000000e+000
    outer loop
      vertex -8.349796e+000  7.384594e+000  5.000000e+000
      vertex -8.349796e+000  7.384594e+000 -1.776357e-015
      vertex -9.724796e+000  8.383591e+000 -1.776357e-015
    endloop
  endfacet
  facet normal  5.877854e-001  8.090169e-001  -0.000000e+000
    outer loop
      vertex -8.349796e+000  7.384594e+000  5.000000e+000
      vertex -9.724796e+000  8.383591e+000 -1.776357e-015
      vertex -9.724796e+000  8.383591e+000  5.000000e+000
    endloop
  endfacet
  facet normal  9.510565e-001  3.090173e-001  0.000000e+000
    outer loop
      vertex -9.724796e+000  8.383591e+000  5.000000e+000
      vertex -9.724796e+000  8.383591e+000 -1.776357e-015
      vertex -1.025000e+001  1.000000e+001 -1.776357e-015
    endloop
  endfacet
  facet normal  9.510565e-001  3.090173e-001  -0.000000e+000
    outer loop
      vertex -9.724796e+000  8.383591e+000  5.000000e+000
      vertex -1.025000e+001  1.000000e+001 -1.776357e-015
      vertex -1.025000e+001  1.000000e+001  5.000000e+000
    endloop
  endfacet
  facet normal  5.877852e-001 -8.090171e-001  0.000000e+000
    outer loop
      vertex -8.349796e+000  1.261541e+001 -1.776357e-015
      vertex -9.724796e+000  1.161641e+001  5.000000e+000
      vertex -9.724796e+000  1.161641e+001 -1.776357e-015
    endloop
  endfacet
  facet normal  9.510565e-001 -3.090173e-001  0.000000e+000
    outer loop
      vertex -9.724796e+000  1.161641e+001 -1.776357e-015
      vertex -9.724796e+000  1.161641e+001  5.000000e+000
      vertex -1.025000e+001  1.000000e+001  5.000000e+000
    endloop
  endfacet
  facet normal  9.510565e-001 -3.090173e-001  0.000000e+000
    outer loop
      vertex -9.724796e+000  1.161641e+001 -1.776357e-015
      vertex -1.025000e+001  1.000000e+001  5.000000e+000
      vertex -1.025000e+001  1.000000e+001 -1.776357e-015
    endloop
  endfacet
  facet normal  5.877852e-001 -8.090171e-001  0.000000e+000
    outer loop
      vertex -9.724796e+000  1.161641e+001  5.000000e+000
      vertex -8.349796e+000  1.261541e+001 -1.776357e-015
      vertex -8.349796e+000  1.261541e+001  5.000000e+000
    endloop
  endfacet
  facet normal  0.000000e+000 -9.999999e-001  0.000000e+000
    outer loop
      vertex -8.349796e+000  1.261541e+001  5.000000e+000
      vertex -8.349796e+000  1.261541e+001 -1.776357e-015
      vertex -6.650203e+000  1.261541e+001 -1.776357e-015
    endloop
  endfacet
  facet normal  0.000000e+000 -9.999999e-001  0.000000e+000
    outer loop
      vertex -8.349796e+000  1.261541e+001  5.000000e+000
      vertex -6.650203e+000  1.261541e+001 -1.776357e-015
      vertex -6.650203e+000  1.261541e+001  5.000000e+000
    endloop
  endfacet
  facet normal -5.877852e-001 -8.090171e-001  -0.000000e+000
    outer loop
      vertex -6.650203e+000  1.261541e+001  5.000000e+000
      vertex -6.650203e+000  1.261541e+001 -1.776357e-015
      vertex -5.275203e+000  1.161641e+001 -1.776357e-015
    endloop
  endfacet
  facet normal -5.877852e-001 -8.090171e-001  0.000000e+000
    outer loop
      vertex -6.650203e+000  1.261541e+001  5.000000e+000
      vertex -5.275203e+000  1.161641e+001 -1.776357e-015
      vertex -5.275203e+000  1.161641e+001  5.000000e+000
    endloop
  endfacet
  facet normal -9.510565e-001 -3.090170e-001  -0.000000e+000
    outer loop
      vertex -5.275203e+000  1.161641e+001  5.000000e+000
      vertex -5.275203e+000  1.161641e+001 -1.776357e-015
      vertex -4.750000e+000  1.000000e+001 -1.776357e-015
    endloop
  endfacet
  facet normal -9.510565e-001 -3.090170e-001  0.000000e+000
    outer loop
      vertex -5.275203e+000  1.161641e+001  5.000000e+000
      vertex -4.750000e+000  1.000000e+001 -1.776357e-015
      vertex -4.750000e+000  1.000000e+001  5.000000e+000
    endloop
  endfacet
  facet normal  0.000000e+000 -1.000000e+000  -0.000000e+000
    outer loop
      vertex -8.303444e+000  0.000000e+000  3.252725e+001
      vertex -9.603444e+000  0.000000e+000  3.347176e+001
      vertex -1.500000e+001  0.000000e+000  0.000000e+000
    endloop
  endfacet
  facet normal  0.000000e+000 -1.000000e+000  -0.000000e+000
    outer loop
      vertex -9.603444e+000  0.000000e+000  3.347176e+001
      vertex -1.010000e+001  0.000000e+000  3.500000e+001
      vertex -1.500000e+001  0.000000e+000  0.000000e+000
    endloop
  endfacet
  facet normal  0.000000e+000 -9.999999e-001  -0.000000e+000
    outer loop
      vertex  0.000000e+000  0.000000e+000  0.000000e+000
      vertex -4.900000e+000  0.000000e+000  3.500000e+001
      vertex -5.396556e+000  0.000000e+000  3.347176e+001
    endloop
  endfacet
  facet normal  0.000000e+000 -1.000000e+000  -0.000000e+000
    outer loop
      vertex  0.000000e+000  0.000000e+000  0.000000e+000
      vertex -5.396556e+000  0.000000e+000  3.347176e+001
      vertex -6.696556e+000  0.000000e+000  3.252725e+001
    endloop
  endfacet
  facet normal  -0.000000e+000 -1.000000e+000  -0.000000e+000
    outer loop
      vertex  0.000000e+000  0.000000e+000  0.000000e+000
      vertex -6.696556e+000  0.000000e+000  3.252725e+001
      vertex -8.303444e+000  0.000000e+000  3.252725e+001
    endloop
  endfacet
  facet normal  0.000000e+000 -1.000000e+000  -0.000000e+000
    outer loop
      vertex  0.000000e+000  0.000000e+000  0.000000e+000
      vertex -8.303444e+000  0.000000e+000  3.252725e+001
      vertex -1.500000e+001  0.000000e+000  0.000000e+000
    endloop
  endfacet
  facet normal  0.000000e+000 -1.000000e+000  0.000000e+000
    outer loop
      vertex -2.131628e-014  0.000000e+000  4.500000e+001
      vertex -1.500000e+001  0.000000e+000  4.500000e+001
      vertex -8.303444e+000  0.000000e+000  3.747275e+001
    endloop
  endfacet
  facet normal  0.000000e+000 -1.000000e+000  0.000000e+000
    outer loop
      vertex -2.131628e-014  0.000000e+000  4.500000e+001
      vertex -8.303444e+000  0.000000e+000  3.747275e+001
      vertex -6.696556e+000  0.000000e+000  3.747275e+001
    endloop
  endfacet
  facet normal  0.000000e+000 -1.000000e+000  0.000000e+000
    outer loop
      vertex -2.131628e-014  0.000000e+000  4.500000e+001
      vertex -6.696556e+000  0.000000e+000  3.747275e+001
      vertex -5.396556e+000  0.000000e+000  3.652824e+001
    endloop
  endfacet
  facet normal  0.000000e+000 -1.000000e+000  0.000000e+000
    outer loop
      vertex -2.131628e-014  0.000000e+000  4.500000e+001
      vertex -5.396556e+000  0.000000e+000  3.652824e+001
      vertex -4.900000e+000  0.000000e+000  3.500000e+001
    endloop
  endfacet
  facet normal  0.000000e+000 -1.000000e+000  0.000000e+000
    outer loop
      vertex -2.131628e-014  0.000000e+000  4.500000e+001
      vertex -4.900000e+000  0.000000e+000  3.500000e+001
      vertex  0.000000e+000  0.000000e+000  0.000000e+000
    endloop
  endfacet
  facet normal  0.000000e+000 -1.000000e+000  0.000000e+000
    outer loop
      vertex -1.500000e+001  0.000000e+000  4.500000e+001
      vertex -1.500000e+001  0.000000e+000  0.000000e+000
      vertex -1.010000e+001  0.000000e+000  3.500000e+001
    endloop
  endfacet
  facet normal  0.000000e+000 -1.000000e+000  0.000000e+000
    outer loop
      vertex -1.500000e+001  0.000000e+000  4.500000e+001
      vertex -1.010000e+001  0.000000e+000  3.500000e+001
      vertex -9.603444e+000  0.000000e+000  3.652824e+001
    endloop
  endfacet
  facet normal  0.000000e+000 -1.000000e+000  0.000000e+000
    outer loop
      vertex -1.500000e+001  0.000000e+000  4.500000e+001
      vertex -9.603444e+000  0.000000e+000  3.652824e+001
      vertex -8.303444e+000  0.000000e+000  3.747275e+001
    endloop
  endfacet
  facet normal  0.000000e+000  1.000000e+000  0.000000e+000
    outer loop
      vertex  0.000000e+000  1.500000e+001  0.000000e+000
      vertex -1.500000e+001  1.500000e+001  0.000000e+000
      vertex -1.776357e-015  1.500000e+001  5.000000e+000
    endloop
  endfacet
  facet normal  0.000000e+000  1.000000e+000  0.000000e+000
    outer loop
      vertex -1.776357e-015  1.500000e+001  5.000000e+000
      vertex -1.500000e+001  1.500000e+001  0.000000e+000
      vertex -1.500000e+001  1.500000e+001  5.000000e+000
    endloop
  endfacet
  facet normal  1.000000e+000  0.000000e+000  3.552714e-016
    outer loop
      vertex  0.000000e+000  1.500000e+001  0.000000e+000
      vertex -1.776357e-015  1.500000e+001  5.000000e+000
      vertex  0.000000e+000  0.000000e+000  0.000000e+000
    endloop
  endfacet
  facet normal  1.000000e+000  1.776357e-016 -1.776357e-016
    outer loop
      vertex  0.000000e+000  0.000000e+000  0.000000e+000
      vertex -1.776357e-015  1.500000e+001  5.000000e+000
      vertex  0.000000e+000  5.000000e+000  5.000000e+000
    endloop
  endfacet
  facet normal  1.000000e+000 -4.736952e-016  4.736952e-016
    outer loop
      vertex  0.000000e+000  0.000000e+000  0.000000e+000
      vertex  0.000000e+000  5.000000e+000  5.000000e+000
      vertex -2.131628e-014  0.000000e+000  4.500000e+001
    endloop
  endfacet
  facet normal  1.000000e+000  -0.000000e+000  5.329070e-016
    outer loop
      vertex -2.131628e-014  0.000000e+000  4.500000e+001
      vertex  0.000000e+000  5.000000e+000  5.000000e+000
      vertex -2.131628e-014  5.000000e+000  4.500000e+001
    endloop
  endfacet
  facet normal -1.000000e+000  -0.000000e+000  0.000000e+000
    outer loop
      vertex -1.500000e+001  0.000000e+000  4.500000e+001
      vertex -1.500000e+001  5.000000e+000  4.500000e+001
      vertex -1.500000e+001  0.000000e+000  0.000000e+000
    endloop
  endfacet
  facet normal -1.000000e+000  0.000000e+000  0.000000e+000
    outer loop
      vertex -1.500000e+001  0.000000e+000  0.000000e+000
      vertex -1.500000e+001  5.000000e+000  4.500000e+001
      vertex -1.500000e+001  5.000000e+000  5.000000e+000
    endloop
  endfacet
  facet normal -1.000000e+000  0.000000e+000  -0.000000e+000
    outer loop
      vertex -1.500000e+001  0.000000e+000  0.000000e+000
      vertex -1.500000e+001  5.000000e+000  5.000000e+000
      vertex -1.500000e+001  1.500000e+001  0.000000e+000
    endloop
  endfacet
  facet normal -1.000000e+000  0.000000e+000  0.000000e+000
    outer loop
      vertex -1.500000e+001  1.500000e+001  0.000000e+000
      vertex -1.500000e+001  5.000000e+000  5.000000e+000
      vertex -1.500000e+001  1.500000e+001  5.000000e+000
    endloop
  endfacet
  facet normal  -0.000000e+000  1.000000e+000  0.000000e+000
    outer loop
      vertex  0.000000e+000  5.000000e+000  5.000000e+000
      vertex -5.396556e+000  5.000000e+000  3.347176e+001
      vertex -4.900000e+000  5.000000e+000  3.500000e+001
    endloop
  endfacet
  facet normal  -0.000000e+000  1.000000e+000  0.000000e+000
    outer loop
      vertex  0.000000e+000  5.000000e+000  5.000000e+000
      vertex -6.696556e+000  5.000000e+000  3.252725e+001
      vertex -5.396556e+000  5.000000e+000  3.347176e+001
    endloop
  endfacet
  facet normal  0.000000e+000  1.000000e+000  0.000000e+000
    outer loop
      vertex -1.500000e+001  5.000000e+000  5.000000e+000
      vertex -1.010000e+001  5.000000e+000  3.500000e+001
      vertex -9.603444e+000  5.000000e+000  3.347176e+001
    endloop
  endfacet
  facet normal  0.000000e+000  1.000000e+000  0.000000e+000
    outer loop
      vertex -1.500000e+001  5.000000e+000  5.000000e+000
      vertex -9.603444e+000  5.000000e+000  3.347176e+001
      vertex -8.303444e+000  5.000000e+000  3.252725e+001
    endloop
  endfacet
  facet normal  -0.000000e+000  1.000000e+000  0.000000e+000
    outer loop
      vertex -1.500000e+001  5.000000e+000  5.000000e+000
      vertex -8.303444e+000  5.000000e+000  3.252725e+001
      vertex -6.696556e+000  5.000000e+000  3.252725e+001
    endloop
  endfacet
  facet normal  0.000000e+000  1.000000e+000  0.000000e+000
    outer loop
      vertex -1.500000e+001  5.000000e+000  5.000000e+000
      vertex -6.696556e+000  5.000000e+000  3.252725e+001
      vertex  0.000000e+000  5.000000e+000  5.000000e+000
    endloop
  endfacet
  facet normal  0.000000e+000  1.000000e+000  0.000000e+000
    outer loop
      vertex -2.131628e-014  5.000000e+000  4.500000e+001
      vertex  0.000000e+000  5.000000e+000  5.000000e+000
      vertex -4.900000e+000  5.000000e+000  3.500000e+001
    endloop
  endfacet
  facet normal  0.000000e+000  1.000000e+000  -0.000000e+000
    outer loop
      vertex -2.131628e-014  5.000000e+000  4.500000e+001
      vertex -4.900000e+000  5.000000e+000  3.500000e+001
      vertex -5.396556e+000  5.000000e+000  3.652824e+001
    endloop
  endfacet
  facet normal  0.000000e+000  1.000000e+000  -0.000000e+000
    outer loop
      vertex -2.131628e-014  5.000000e+000  4.500000e+001
      vertex -5.396556e+000  5.000000e+000  3.652824e+001
      vertex -6.696556e+000  5.000000e+000  3.747275e+001
    endloop
  endfacet
  facet normal  0.000000e+000  1.000000e+000  -0.000000e+000
    outer loop
      vertex -2.131628e-014  5.000000e+000  4.500000e+001
      vertex -6.696556e+000  5.000000e+000  3.747275e+001
      vertex -8.303444e+000  5.000000e+000  3.747275e+001
    endloop
  endfacet
  facet normal  0.000000e+000  1.000000e+000  -0.000000e+000
    outer loop
      vertex -2.131628e-014  5.000000e+000  4.500000e+001
      vertex -8.303444e+000  5.000000e+000  3.747275e+001
      vertex -1.500000e+001  5.000000e+000  4.500000e+001
    endloop
  endfacet
  facet normal  0.000000e+000  1.000000e+000  0.000000e+000
    outer loop
      vertex -1.500000e+001  5.000000e+000  4.500000e+001
      vertex -8.303444e+000  5.000000e+000  3.747275e+001
      vertex -9.603444e+000  5.000000e+000  3.652824e+001
    endloop
  endfacet
  facet normal  0.000000e+000  1.000000e+000  0.000000e+000
    outer loop
      vertex -1.500000e+001  5.000000e+000  4.500000e+001
      vertex -9.603444e+000  5.000000e+000  3.652824e+001
      vertex -1.010000e+001  5.000000e+000  3.500000e+001
    endloop
  endfacet
  facet normal  0.000000e+000  1.000000e+000  0.000000e+000
    outer loop
      vertex -1.500000e+001  5.000000e+000  4.500000e+001
      vertex -1.010000e+001  5.000000e+000  3.500000e+001
      vertex -1.500000e+001  5.000000e+000  5.000000e+000
    endloop
  endfacet
  facet normal -5.877863e-001  -0.000000e+000 -8.090162e-001
    outer loop
      vertex -6.696556e+000  0.000000e+000  3.747275e+001
      vertex -5.396556e+000  5.000000e+000  3.652824e+001
      vertex -5.396556e+000  0.000000e+000  3.652824e+001
    endloop
  endfacet
  facet normal -9.510564e-001  0.000000e+000 -3.090172e-001
    outer loop
      vertex -5.396556e+000  0.000000e+000  3.652824e+001
      vertex -5.396556e+000  5.000000e+000  3.652824e+001
      vertex -4.900000e+000  5.000000e+000  3.500000e+001
    endloop
  endfacet
  facet normal -9.510564e-001  -0.000000e+000 -3.090172e-001
    outer loop
      vertex -5.396556e+000  0.000000e+000  3.652824e+001
      vertex -4.900000e+000  5.000000e+000  3.500000e+001
      vertex -4.900000e+000  0.000000e+000  3.500000e+001
    endloop
  endfacet
  facet normal -5.877863e-001  0.000000e+000 -8.090162e-001
    outer loop
      vertex -5.396556e+000  5.000000e+000  3.652824e+001
      vertex -6.696556e+000  0.000000e+000  3.747275e+001
      vertex -6.696556e+000  5.000000e+000  3.747275e+001
    endloop
  endfacet
  facet normal  0.000000e+000  -0.000000e+000 -1.000000e+000
    outer loop
      vertex -6.696556e+000  5.000000e+000  3.747275e+001
      vertex -6.696556e+000  0.000000e+000  3.747275e+001
      vertex -8.303444e+000  0.000000e+000  3.747275e+001
    endloop
  endfacet
  facet normal  0.000000e+000  0.000000e+000 -1.000000e+000
    outer loop
      vertex -6.696556e+000  5.000000e+000  3.747275e+001
      vertex -8.303444e+000  0.000000e+000  3.747275e+001
      vertex -8.303444e+000  5.000000e+000  3.747275e+001
    endloop
  endfacet
  facet normal  5.877861e-001  0.000000e+000 -8.090163e-001
    outer loop
      vertex -8.303444e+000  5.000000e+000  3.747275e+001
      vertex -8.303444e+000  0.000000e+000  3.747275e+001
      vertex -9.603444e+000  0.000000e+000  3.652824e+001
    endloop
  endfacet
  facet normal  5.877861e-001  0.000000e+000 -8.090163e-001
    outer loop
      vertex -8.303444e+000  5.000000e+000  3.747275e+001
      vertex -9.603444e+000  0.000000e+000  3.652824e+001
      vertex -9.603444e+000  5.000000e+000  3.652824e+001
    endloop
  endfacet
  facet normal  9.510564e-001  0.000000e+000 -3.090175e-001
    outer loop
      vertex -9.603444e+000  5.000000e+000  3.652824e+001
      vertex -9.603444e+000  0.000000e+000  3.652824e+001
      vertex -1.010000e+001  0.000000e+000  3.500000e+001
    endloop
  endfacet
  facet normal  9.510564e-001  0.000000e+000 -3.090175e-001
    outer loop
      vertex -9.603444e+000  5.000000e+000  3.652824e+001
      vertex -1.010000e+001  0.000000e+000  3.500000e+001
      vertex -1.010000e+001  5.000000e+000  3.500000e+001
    endloop
  endfacet
  facet normal  5.877861e-001  0.000000e+000  8.090163e-001
    outer loop
      vertex -8.303444e+000  0.000000e+000  3.252725e+001
      vertex -9.603444e+000  5.000000e+000  3.347176e+001
      vertex -9.603444e+000  0.000000e+000  3.347176e+001
    endloop
  endfacet
  facet normal  9.510564e-001  -0.000000e+000  3.090175e-001
    outer loop
      vertex -9.603444e+000  0.000000e+000  3.347176e+001
      vertex -9.603444e+000  5.000000e+000  3.347176e+001
      vertex -1.010000e+001  5.000000e+000  3.500000e+001
    endloop
  endfacet
  facet normal  9.510564e-001  0.000000e+000  3.090175e-001
    outer loop
      vertex -9.603444e+000  0.000000e+000  3.347176e+001
      vertex -1.010000e+001  5.000000e+000  3.500000e+001
      vertex -1.010000e+001  0.000000e+000  3.500000e+001
    endloop
  endfacet
  facet normal  5.877861e-001  -0.000000e+000  8.090163e-001
    outer loop
      vertex -9.603444e+000  5.000000e+000  3.347176e+001
      vertex -8.303444e+000  0.000000e+000  3.252725e+001
      vertex -8.303444e+000  5.000000e+000  3.252725e+001
    endloop
  endfacet
  facet normal  0.000000e+000  0.000000e+000  1.000000e+000
    outer loop
      vertex -8.303444e+000  5.000000e+000  3.252725e+001
      vertex -8.303444e+000  0.000000e+000  3.252725e+001
      vertex -6.696556e+000  0.000000e+000  3.252725e+001
    endloop
  endfacet
  facet normal  0.000000e+000  -0.000000e+000  1.000000e+000
    outer loop
      vertex -8.303444e+000  5.000000e+000  3.252725e+001
      vertex -6.696556e+000  0.000000e+000  3.252725e+001
      vertex -6.696556e+000  5.000000e+000  3.252725e+001
    endloop
  endfacet
  facet normal -5.877863e-001  0.000000e+000  8.090162e-001
    outer loop
      vertex -6.696556e+000  5.000000e+000  3.252725e+001
      vertex -6.696556e+000  0.000000e+000  3.252725e+001
      vertex -5.396556e+000  0.000000e+000  3.347176e+001
    endloop
  endfacet
  facet normal -5.877863e-001  0.000000e+000  8.090162e-001
    outer loop
      vertex -6.696556e+000  5.000000e+000  3.252725e+001
      vertex -5.396556e+000  0.000000e+000  3.347176e+001
      vertex -5.396556e+000  5.000000e+000  3.347176e+001
    endloop
  endfacet
  facet normal -9.510564e-001  0.000000e+000  3.090172e-001
    outer loop
      vertex -5.396556e+000  5.000000e+000  3.347176e+001
      vertex -5.396556e+000  0.000000e+000  3.347176e+001
      vertex -4.900000e+000  0.000000e+000  3.500000e+001
    endloop
  endfacet
  facet normal -9.510564e-001  0.000000e+000  3.090172e-001
    outer loop
      vertex -5.396556e+000  5.000000e+000  3.347176e+001
      vertex -4.900000e+000  0.000000e+000  3.500000e+001
      vertex -4.900000e+000  5.000000e+000  3.500000e+001
    endloop
  endfacet
  facet normal  0.000000e+000  0.000000e+000  1.000000e+000
    outer loop
      vertex -1.500000e+001  5.000000e+000  4.500000e+001
      vertex -1.500000e+001  0.000000e+000  4.500000e+001
      vertex -2.131628e-014  5.000000e+000  4.500000e+001
    endloop
  endfacet
  facet normal  0.000000e+000  0.000000e+000  1.000000e+000
    outer loop
      vertex -2.131628e-014  5.000000e+000  4.500000e+001
      vertex -1.500000e+001  0.000000e+000  4.500000e+001
      vertex -2.131628e-014  0.000000e+000  4.500000e+001
    endloop
  endfacet
endsolid CATIA STL
