solid CATIA STL
  facet normal  0.000000e+000  0.000000e+000  9.999999e-001
    outer loop
      vertex -1.738459e+001  1.665020e+001  8.000000e+000
      vertex -1.838359e+001  1.527520e+001  8.000000e+000
      vertex -1.261541e+001  1.665020e+001  8.000000e+000
    endloop
  endfacet
  facet normal  0.000000e+000  0.000000e+000  1.000000e+000
    outer loop
      vertex -3.000000e+001  1.100000e+001  8.000000e+000
      vertex  0.000000e+000  1.100000e+001  8.000000e+000
      vertex -2.000000e+001  1.475000e+001  8.000000e+000
    endloop
  endfacet
  facet normal  0.000000e+000  0.000000e+000  1.000000e+000
    outer loop
      vertex -3.000000e+001  1.100000e+001  8.000000e+000
      vertex -2.000000e+001  1.475000e+001  8.000000e+000
      vertex -2.525000e+001  1.475000e+001  8.000000e+000
    endloop
  endfacet
  facet normal  0.000000e+000  0.000000e+000  1.000000e+000
    outer loop
      vertex -3.000000e+001  1.100000e+001  8.000000e+000
      vertex -2.525000e+001  1.475000e+001  8.000000e+000
      vertex -2.686641e+001  1.527520e+001  8.000000e+000
    endloop
  endfacet
  facet normal  0.000000e+000  0.000000e+000  1.000000e+000
    outer loop
      vertex -3.000000e+001  1.100000e+001  8.000000e+000
      vertex -2.686641e+001  1.527520e+001  8.000000e+000
      vertex -2.786541e+001  1.665020e+001  8.000000e+000
    endloop
  endfacet
  facet normal  0.000000e+000  -0.000000e+000  1.000000e+000
    outer loop
      vertex -2.800000e+001  2.500000e+001  8.000000e+000
      vertex -2.786541e+001  1.834980e+001  8.000000e+000
      vertex -2.686641e+001  1.972480e+001  8.000000e+000
    endloop
  endfacet
  facet normal  0.000000e+000  -0.000000e+000  1.000000e+000
    outer loop
      vertex -2.800000e+001  2.500000e+001  8.000000e+000
      vertex -2.686641e+001  1.972480e+001  8.000000e+000
      vertex -2.525000e+001  2.025000e+001  8.000000e+000
    endloop
  endfacet
  facet normal  0.000000e+000  -0.000000e+000  1.000000e+000
    outer loop
      vertex -2.800000e+001  2.500000e+001  8.000000e+000
      vertex -2.525000e+001  2.025000e+001  8.000000e+000
      vertex -2.000000e+001  2.025000e+001  8.000000e+000
    endloop
  endfacet
  facet normal  -0.000000e+000  -0.000000e+000  9.999999e-001
    outer loop
      vertex -2.800000e+001  2.500000e+001  8.000000e+000
      vertex -2.000000e+001  2.025000e+001  8.000000e+000
      vertex -1.838359e+001  1.972480e+001  8.000000e+000
    endloop
  endfacet
  facet normal  -0.000000e+000  -0.000000e+000  1.000000e+000
    outer loop
      vertex -2.800000e+001  2.500000e+001  8.000000e+000
      vertex -1.838359e+001  1.972480e+001  8.000000e+000
      vertex -1.261541e+001  1.834980e+001  8.000000e+000
    endloop
  endfacet
  facet normal  0.000000e+000  -0.000000e+000  1.000000e+000
    outer loop
      vertex -2.800000e+001  2.500000e+001  8.000000e+000
      vertex -1.261541e+001  1.834980e+001  8.000000e+000
      vertex -1.161641e+001  1.972480e+001  8.000000e+000
    endloop
  endfacet
  facet normal  0.000000e+000  -0.000000e+000  1.000000e+000
    outer loop
      vertex -2.800000e+001  2.500000e+001  8.000000e+000
      vertex -1.161641e+001  1.972480e+001  8.000000e+000
      vertex -1.000000e+001  2.025000e+001  8.000000e+000
    endloop
  endfacet
  facet normal  0.000000e+000  -0.000000e+000  1.000000e+000
    outer loop
      vertex -2.800000e+001  2.500000e+001  8.000000e+000
      vertex -1.000000e+001  2.025000e+001  8.000000e+000
      vertex -4.750000e+000  2.025000e+001  8.000000e+000
    endloop
  endfacet
  facet normal  0.000000e+000  0.000000e+000  1.000000e+000
    outer loop
      vertex -2.000000e+001  1.475000e+001  8.000000e+000
      vertex -1.000000e+001  1.475000e+001  8.000000e+000
      vertex -1.161641e+001  1.527520e+001  8.000000e+000
    endloop
  endfacet
  facet normal  0.000000e+000  0.000000e+000  9.999999e-001
    outer loop
      vertex -2.000000e+001  1.475000e+001  8.000000e+000
      vertex -1.161641e+001  1.527520e+001  8.000000e+000
      vertex -1.261541e+001  1.665020e+001  8.000000e+000
    endloop
  endfacet
  facet normal  0.000000e+000  0.000000e+000  1.000000e+000
    outer loop
      vertex -2.000000e+001  1.475000e+001  8.000000e+000
      vertex -1.261541e+001  1.665020e+001  8.000000e+000
      vertex -1.838359e+001  1.527520e+001  8.000000e+000
    endloop
  endfacet
  facet normal  0.000000e+000  0.000000e+000  1.000000e+000
    outer loop
      vertex  0.000000e+000  1.100000e+001  8.000000e+000
      vertex  0.000000e+000  2.300000e+001  8.000000e+000
      vertex -5.857865e-001  2.441421e+001  8.000000e+000
    endloop
  endfacet
  facet normal  0.000000e+000  0.000000e+000  1.000000e+000
    outer loop
      vertex  0.000000e+000  1.100000e+001  8.000000e+000
      vertex -5.857865e-001  2.441421e+001  8.000000e+000
      vertex -2.134595e+000  1.834980e+001  8.000000e+000
    endloop
  endfacet
  facet normal  0.000000e+000  0.000000e+000  9.999999e-001
    outer loop
      vertex  0.000000e+000  1.100000e+001  8.000000e+000
      vertex -2.134595e+000  1.834980e+001  8.000000e+000
      vertex -2.134595e+000  1.665020e+001  8.000000e+000
    endloop
  endfacet
  facet normal  0.000000e+000  0.000000e+000  1.000000e+000
    outer loop
      vertex  0.000000e+000  1.100000e+001  8.000000e+000
      vertex -2.134595e+000  1.665020e+001  8.000000e+000
      vertex -3.133590e+000  1.527520e+001  8.000000e+000
    endloop
  endfacet
  facet normal  0.000000e+000  0.000000e+000  1.000000e+000
    outer loop
      vertex  0.000000e+000  1.100000e+001  8.000000e+000
      vertex -3.133590e+000  1.527520e+001  8.000000e+000
      vertex -4.750000e+000  1.475000e+001  8.000000e+000
    endloop
  endfacet
  facet normal  0.000000e+000  0.000000e+000  1.000000e+000
    outer loop
      vertex  0.000000e+000  1.100000e+001  8.000000e+000
      vertex -4.750000e+000  1.475000e+001  8.000000e+000
      vertex -1.000000e+001  1.475000e+001  8.000000e+000
    endloop
  endfacet
  facet normal  0.000000e+000  0.000000e+000  1.000000e+000
    outer loop
      vertex  0.000000e+000  1.100000e+001  8.000000e+000
      vertex -1.000000e+001  1.475000e+001  8.000000e+000
      vertex -2.000000e+001  1.475000e+001  8.000000e+000
    endloop
  endfacet
  facet normal  -0.000000e+000  0.000000e+000  1.000000e+000
    outer loop
      vertex -2.000000e+000  2.500000e+001  8.000000e+000
      vertex -2.800000e+001  2.500000e+001  8.000000e+000
      vertex -4.750000e+000  2.025000e+001  8.000000e+000
    endloop
  endfacet
  facet normal  -0.000000e+000  0.000000e+000  1.000000e+000
    outer loop
      vertex -2.000000e+000  2.500000e+001  8.000000e+000
      vertex -4.750000e+000  2.025000e+001  8.000000e+000
      vertex -3.133590e+000  1.972480e+001  8.000000e+000
    endloop
  endfacet
  facet normal  -0.000000e+000  0.000000e+000  9.999999e-001
    outer loop
      vertex -2.000000e+000  2.500000e+001  8.000000e+000
      vertex -3.133590e+000  1.972480e+001  8.000000e+000
      vertex -2.134595e+000  1.834980e+001  8.000000e+000
    endloop
  endfacet
  facet normal  0.000000e+000  0.000000e+000  1.000000e+000
    outer loop
      vertex -2.000000e+000  2.500000e+001  8.000000e+000
      vertex -2.134595e+000  1.834980e+001  8.000000e+000
      vertex -5.857865e-001  2.441421e+001  8.000000e+000
    endloop
  endfacet
  facet normal  0.000000e+000  0.000000e+000  1.000000e+000
    outer loop
      vertex -1.738459e+001  1.665020e+001  8.000000e+000
      vertex -1.261541e+001  1.665020e+001  8.000000e+000
      vertex -1.738459e+001  1.834980e+001  8.000000e+000
    endloop
  endfacet
  facet normal  -0.000000e+000  0.000000e+000  1.000000e+000
    outer loop
      vertex -1.738459e+001  1.834980e+001  8.000000e+000
      vertex -1.261541e+001  1.665020e+001  8.000000e+000
      vertex -1.261541e+001  1.834980e+001  8.000000e+000
    endloop
  endfacet
  facet normal  0.000000e+000  0.000000e+000  9.999999e-001
    outer loop
      vertex -1.738459e+001  1.834980e+001  8.000000e+000
      vertex -1.261541e+001  1.834980e+001  8.000000e+000
      vertex -1.838359e+001  1.972480e+001  8.000000e+000
    endloop
  endfacet
  facet normal  -0.000000e+000  0.000000e+000  1.000000e+000
    outer loop
      vertex -2.800000e+001  2.500000e+001  8.000000e+000
      vertex -2.941421e+001  2.441421e+001  8.000000e+000
      vertex -2.786541e+001  1.834980e+001  8.000000e+000
    endloop
  endfacet
  facet normal  0.000000e+000  0.000000e+000  1.000000e+000
    outer loop
      vertex -2.786541e+001  1.834980e+001  8.000000e+000
      vertex -2.941421e+001  2.441421e+001  8.000000e+000
      vertex -3.000000e+001  2.300000e+001  8.000000e+000
    endloop
  endfacet
  facet normal  0.000000e+000  0.000000e+000  9.999999e-001
    outer loop
      vertex -2.786541e+001  1.834980e+001  8.000000e+000
      vertex -3.000000e+001  2.300000e+001  8.000000e+000
      vertex -2.786541e+001  1.665020e+001  8.000000e+000
    endloop
  endfacet
  facet normal  0.000000e+000  0.000000e+000  9.999999e-001
    outer loop
      vertex -2.786541e+001  1.665020e+001  8.000000e+000
      vertex -3.000000e+001  2.300000e+001  8.000000e+000
      vertex -3.000000e+001  1.100000e+001  8.000000e+000
    endloop
  endfacet
  facet normal  0.000000e+000  0.000000e+000 -9.999999e-001
    outer loop
      vertex -1.261541e+001  1.665020e+001  0.000000e+000
      vertex -1.161641e+001  1.527520e+001  0.000000e+000
      vertex -1.738459e+001  1.665020e+001  0.000000e+000
    endloop
  endfacet
  facet normal  0.000000e+000  0.000000e+000 -1.000000e+000
    outer loop
      vertex  0.000000e+000  0.000000e+000  0.000000e+000
      vertex -3.000000e+001  0.000000e+000  0.000000e+000
      vertex -1.000000e+001  1.475000e+001  0.000000e+000
    endloop
  endfacet
  facet normal -1.691769e-016 -1.146962e-016 -1.000000e+000
    outer loop
      vertex  0.000000e+000  0.000000e+000  0.000000e+000
      vertex -1.000000e+001  1.475000e+001  0.000000e+000
      vertex -4.750000e+000  1.475000e+001 -8.881784e-016
    endloop
  endfacet
  facet normal  5.151394e-016  1.056769e-016 -1.000000e+000
    outer loop
      vertex  0.000000e+000  0.000000e+000  0.000000e+000
      vertex -4.750000e+000  1.475000e+001 -8.881784e-016
      vertex -3.133590e+000  1.527520e+001  0.000000e+000
    endloop
  endfacet
  facet normal  0.000000e+000  0.000000e+000 -1.000000e+000
    outer loop
      vertex  0.000000e+000  0.000000e+000  0.000000e+000
      vertex -3.133590e+000  1.527520e+001  0.000000e+000
      vertex -2.134595e+000  1.665020e+001  0.000000e+000
    endloop
  endfacet
  facet normal  0.000000e+000  0.000000e+000 -9.999999e-001
    outer loop
      vertex -2.000000e+000  2.500000e+001  0.000000e+000
      vertex -2.134595e+000  1.834980e+001  0.000000e+000
      vertex -3.133590e+000  1.972480e+001  0.000000e+000
    endloop
  endfacet
  facet normal  5.136143e-016 -1.103708e-016 -1.000000e+000
    outer loop
      vertex -2.000000e+000  2.500000e+001  0.000000e+000
      vertex -3.133590e+000  1.972480e+001  0.000000e+000
      vertex -4.750000e+000  2.025000e+001 -8.881784e-016
    endloop
  endfacet
  facet normal  0.000000e+000  1.869849e-016 -1.000000e+000
    outer loop
      vertex -2.000000e+000  2.500000e+001  0.000000e+000
      vertex -4.750000e+000  2.025000e+001 -8.881784e-016
      vertex -1.000000e+001  2.025000e+001 -8.881784e-016
    endloop
  endfacet
  facet normal -1.347784e-015  2.456937e-015 -9.999999e-001
    outer loop
      vertex -2.000000e+000  2.500000e+001  0.000000e+000
      vertex -1.000000e+001  2.025000e+001 -8.881784e-016
      vertex -1.161641e+001  1.972480e+001  0.000000e+000
    endloop
  endfacet
  facet normal  -0.000000e+000  0.000000e+000 -1.000000e+000
    outer loop
      vertex -2.000000e+000  2.500000e+001  0.000000e+000
      vertex -1.161641e+001  1.972480e+001  0.000000e+000
      vertex -1.738459e+001  1.834980e+001  0.000000e+000
    endloop
  endfacet
  facet normal  0.000000e+000  0.000000e+000 -1.000000e+000
    outer loop
      vertex -2.000000e+000  2.500000e+001  0.000000e+000
      vertex -1.738459e+001  1.834980e+001  0.000000e+000
      vertex -1.838359e+001  1.972480e+001  0.000000e+000
    endloop
  endfacet
  facet normal  0.000000e+000  0.000000e+000 -1.000000e+000
    outer loop
      vertex -2.000000e+000  2.500000e+001  0.000000e+000
      vertex -1.838359e+001  1.972480e+001  0.000000e+000
      vertex -2.000000e+001  2.025000e+001  0.000000e+000
    endloop
  endfacet
  facet normal  0.000000e+000  0.000000e+000 -1.000000e+000
    outer loop
      vertex -2.000000e+000  2.500000e+001  0.000000e+000
      vertex -2.000000e+001  2.025000e+001  0.000000e+000
      vertex -2.525000e+001  2.025000e+001  0.000000e+000
    endloop
  endfacet
  facet normal  8.881784e-017  1.417759e-015 -1.000000e+000
    outer loop
      vertex -1.000000e+001  1.475000e+001  0.000000e+000
      vertex -2.000000e+001  1.475000e+001 -8.881784e-016
      vertex -1.838359e+001  1.527520e+001  0.000000e+000
    endloop
  endfacet
  facet normal  0.000000e+000  0.000000e+000 -9.999999e-001
    outer loop
      vertex -1.000000e+001  1.475000e+001  0.000000e+000
      vertex -1.838359e+001  1.527520e+001  0.000000e+000
      vertex -1.738459e+001  1.665020e+001  0.000000e+000
    endloop
  endfacet
  facet normal  0.000000e+000  0.000000e+000 -1.000000e+000
    outer loop
      vertex -1.000000e+001  1.475000e+001  0.000000e+000
      vertex -1.738459e+001  1.665020e+001  0.000000e+000
      vertex -1.161641e+001  1.527520e+001  0.000000e+000
    endloop
  endfacet
  facet normal  0.000000e+000  0.000000e+000 -1.000000e+000
    outer loop
      vertex -3.000000e+001  0.000000e+000  0.000000e+000
      vertex -3.000000e+001  2.300000e+001  0.000000e+000
      vertex -2.941421e+001  2.441421e+001  0.000000e+000
    endloop
  endfacet
  facet normal  0.000000e+000  -0.000000e+000 -1.000000e+000
    outer loop
      vertex -3.000000e+001  0.000000e+000  0.000000e+000
      vertex -2.941421e+001  2.441421e+001  0.000000e+000
      vertex -2.786541e+001  1.834980e+001  0.000000e+000
    endloop
  endfacet
  facet normal  0.000000e+000  -0.000000e+000 -9.999999e-001
    outer loop
      vertex -3.000000e+001  0.000000e+000  0.000000e+000
      vertex -2.786541e+001  1.834980e+001  0.000000e+000
      vertex -2.786541e+001  1.665020e+001  0.000000e+000
    endloop
  endfacet
  facet normal  0.000000e+000  -0.000000e+000 -1.000000e+000
    outer loop
      vertex -3.000000e+001  0.000000e+000  0.000000e+000
      vertex -2.786541e+001  1.665020e+001  0.000000e+000
      vertex -2.686641e+001  1.527520e+001  0.000000e+000
    endloop
  endfacet
  facet normal  0.000000e+000  -0.000000e+000 -1.000000e+000
    outer loop
      vertex -3.000000e+001  0.000000e+000  0.000000e+000
      vertex -2.686641e+001  1.527520e+001  0.000000e+000
      vertex -2.525000e+001  1.475000e+001  0.000000e+000
    endloop
  endfacet
  facet normal -1.691768e-016  5.448068e-017 -1.000000e+000
    outer loop
      vertex -3.000000e+001  0.000000e+000  0.000000e+000
      vertex -2.525000e+001  1.475000e+001  0.000000e+000
      vertex -2.000000e+001  1.475000e+001 -8.881784e-016
    endloop
  endfacet
  facet normal  8.881784e-017 -1.204310e-016 -1.000000e+000
    outer loop
      vertex -3.000000e+001  0.000000e+000  0.000000e+000
      vertex -2.000000e+001  1.475000e+001 -8.881784e-016
      vertex -1.000000e+001  1.475000e+001  0.000000e+000
    endloop
  endfacet
  facet normal  -0.000000e+000  0.000000e+000 -1.000000e+000
    outer loop
      vertex -2.800000e+001  2.500000e+001  0.000000e+000
      vertex -2.000000e+000  2.500000e+001  0.000000e+000
      vertex -2.525000e+001  2.025000e+001  0.000000e+000
    endloop
  endfacet
  facet normal  -0.000000e+000  0.000000e+000 -1.000000e+000
    outer loop
      vertex -2.800000e+001  2.500000e+001  0.000000e+000
      vertex -2.525000e+001  2.025000e+001  0.000000e+000
      vertex -2.686641e+001  1.972480e+001  0.000000e+000
    endloop
  endfacet
  facet normal  -0.000000e+000  0.000000e+000 -1.000000e+000
    outer loop
      vertex -2.800000e+001  2.500000e+001  0.000000e+000
      vertex -2.686641e+001  1.972480e+001  0.000000e+000
      vertex -2.786541e+001  1.834980e+001  0.000000e+000
    endloop
  endfacet
  facet normal  0.000000e+000  0.000000e+000 -1.000000e+000
    outer loop
      vertex -2.800000e+001  2.500000e+001  0.000000e+000
      vertex -2.786541e+001  1.834980e+001  0.000000e+000
      vertex -2.941421e+001  2.441421e+001  0.000000e+000
    endloop
  endfacet
  facet normal  0.000000e+000  0.000000e+000 -1.000000e+000
    outer loop
      vertex -1.261541e+001  1.665020e+001  0.000000e+000
      vertex -1.738459e+001  1.665020e+001  0.000000e+000
      vertex -1.261541e+001  1.834980e+001  0.000000e+000
    endloop
  endfacet
  facet normal  -0.000000e+000  0.000000e+000 -1.000000e+000
    outer loop
      vertex -1.261541e+001  1.834980e+001  0.000000e+000
      vertex -1.738459e+001  1.665020e+001  0.000000e+000
      vertex -1.738459e+001  1.834980e+001  0.000000e+000
    endloop
  endfacet
  facet normal  0.000000e+000  0.000000e+000 -9.999999e-001
    outer loop
      vertex -1.261541e+001  1.834980e+001  0.000000e+000
      vertex -1.738459e+001  1.834980e+001  0.000000e+000
      vertex -1.161641e+001  1.972480e+001  0.000000e+000
    endloop
  endfacet
  facet normal  -0.000000e+000  0.000000e+000 -1.000000e+000
    outer loop
      vertex -2.000000e+000  2.500000e+001  0.000000e+000
      vertex -5.857865e-001  2.441421e+001  0.000000e+000
      vertex -2.134595e+000  1.834980e+001  0.000000e+000
    endloop
  endfacet
  facet normal  0.000000e+000  0.000000e+000 -1.000000e+000
    outer loop
      vertex -2.134595e+000  1.834980e+001  0.000000e+000
      vertex -5.857865e-001  2.441421e+001  0.000000e+000
      vertex  0.000000e+000  2.300000e+001  0.000000e+000
    endloop
  endfacet
  facet normal  0.000000e+000  0.000000e+000 -9.999999e-001
    outer loop
      vertex -2.134595e+000  1.834980e+001  0.000000e+000
      vertex  0.000000e+000  2.300000e+001  0.000000e+000
      vertex -2.134595e+000  1.665020e+001  0.000000e+000
    endloop
  endfacet
  facet normal  0.000000e+000  0.000000e+000 -9.999999e-001
    outer loop
      vertex -2.134595e+000  1.665020e+001  0.000000e+000
      vertex  0.000000e+000  2.300000e+001  0.000000e+000
      vertex  0.000000e+000  0.000000e+000  0.000000e+000
    endloop
  endfacet
  facet normal  0.000000e+000  1.000000e+000  0.000000e+000
    outer loop
      vertex -2.000000e+000  2.500000e+001  0.000000e+000
      vertex -2.800000e+001  2.500000e+001  0.000000e+000
      vertex -2.000000e+000  2.500000e+001  8.000000e+000
    endloop
  endfacet
  facet normal  0.000000e+000  1.000000e+000  0.000000e+000
    outer loop
      vertex -2.000000e+000  2.500000e+001  8.000000e+000
      vertex -2.800000e+001  2.500000e+001  0.000000e+000
      vertex -2.800000e+001  2.500000e+001  8.000000e+000
    endloop
  endfacet
  facet normal -1.000000e+000  0.000000e+000  0.000000e+000
    outer loop
      vertex -3.000000e+001  0.000000e+000  0.000000e+000
      vertex -3.000000e+001  0.000000e+000  5.000000e+001
      vertex -3.000000e+001  1.000000e+001  5.000000e+001
    endloop
  endfacet
  facet normal -1.000000e+000  0.000000e+000  -0.000000e+000
    outer loop
      vertex -3.000000e+001  0.000000e+000  0.000000e+000
      vertex -3.000000e+001  1.000000e+001  5.000000e+001
      vertex -3.000000e+001  1.000000e+001  9.000000e+000
    endloop
  endfacet
  facet normal -1.000000e+000  0.000000e+000  -0.000000e+000
    outer loop
      vertex -3.000000e+001  0.000000e+000  0.000000e+000
      vertex -3.000000e+001  1.000000e+001  9.000000e+000
      vertex -3.000000e+001  1.029289e+001  8.292893e+000
    endloop
  endfacet
  facet normal -1.000000e+000  0.000000e+000  -0.000000e+000
    outer loop
      vertex -3.000000e+001  0.000000e+000  0.000000e+000
      vertex -3.000000e+001  1.029289e+001  8.292893e+000
      vertex -3.000000e+001  1.100000e+001  8.000000e+000
    endloop
  endfacet
  facet normal -1.000000e+000  0.000000e+000  -0.000000e+000
    outer loop
      vertex -3.000000e+001  0.000000e+000  0.000000e+000
      vertex -3.000000e+001  1.100000e+001  8.000000e+000
      vertex -3.000000e+001  2.300000e+001  8.000000e+000
    endloop
  endfacet
  facet normal -1.000000e+000  0.000000e+000  -0.000000e+000
    outer loop
      vertex -3.000000e+001  0.000000e+000  0.000000e+000
      vertex -3.000000e+001  2.300000e+001  8.000000e+000
      vertex -3.000000e+001  2.300000e+001  0.000000e+000
    endloop
  endfacet
  facet normal -9.238794e-001  3.826837e-001  0.000000e+000
    outer loop
      vertex -3.000000e+001  2.300000e+001  0.000000e+000
      vertex -3.000000e+001  2.300000e+001  8.000000e+000
      vertex -2.941421e+001  2.441421e+001  0.000000e+000
    endloop
  endfacet
  facet normal -9.238794e-001  3.826837e-001  0.000000e+000
    outer loop
      vertex -2.941421e+001  2.441421e+001  0.000000e+000
      vertex -3.000000e+001  2.300000e+001  8.000000e+000
      vertex -2.941421e+001  2.441421e+001  8.000000e+000
    endloop
  endfacet
  facet normal -3.826837e-001  9.238794e-001  0.000000e+000
    outer loop
      vertex -2.941421e+001  2.441421e+001  0.000000e+000
      vertex -2.941421e+001  2.441421e+001  8.000000e+000
      vertex -2.800000e+001  2.500000e+001  0.000000e+000
    endloop
  endfacet
  facet normal -3.826837e-001  9.238794e-001  0.000000e+000
    outer loop
      vertex -2.800000e+001  2.500000e+001  0.000000e+000
      vertex -2.941421e+001  2.441421e+001  8.000000e+000
      vertex -2.800000e+001  2.500000e+001  8.000000e+000
    endloop
  endfacet
  facet normal  1.000000e+000  0.000000e+000  -0.000000e+000
    outer loop
      vertex  0.000000e+000  0.000000e+000  0.000000e+000
      vertex  0.000000e+000  2.300000e+001  0.000000e+000
      vertex  0.000000e+000  2.300000e+001  8.000000e+000
    endloop
  endfacet
  facet normal  1.000000e+000  0.000000e+000  0.000000e+000
    outer loop
      vertex  0.000000e+000  0.000000e+000  0.000000e+000
      vertex  0.000000e+000  2.300000e+001  8.000000e+000
      vertex  0.000000e+000  1.100000e+001  8.000000e+000
    endloop
  endfacet
  facet normal  1.000000e+000  0.000000e+000  0.000000e+000
    outer loop
      vertex  0.000000e+000  0.000000e+000  0.000000e+000
      vertex  0.000000e+000  1.100000e+001  8.000000e+000
      vertex  0.000000e+000  1.029289e+001  8.292893e+000
    endloop
  endfacet
  facet normal  1.000000e+000  0.000000e+000  0.000000e+000
    outer loop
      vertex  0.000000e+000  0.000000e+000  0.000000e+000
      vertex  0.000000e+000  1.029289e+001  8.292893e+000
      vertex  0.000000e+000  1.000000e+001  9.000000e+000
    endloop
  endfacet
  facet normal  1.000000e+000  0.000000e+000  -0.000000e+000
    outer loop
      vertex  0.000000e+000  0.000000e+000  0.000000e+000
      vertex  0.000000e+000  1.000000e+001  9.000000e+000
      vertex  0.000000e+000  1.000000e+001  5.000000e+001
    endloop
  endfacet
  facet normal  1.000000e+000  0.000000e+000  0.000000e+000
    outer loop
      vertex  0.000000e+000  0.000000e+000  0.000000e+000
      vertex  0.000000e+000  1.000000e+001  5.000000e+001
      vertex  0.000000e+000  0.000000e+000  5.000000e+001
    endloop
  endfacet
  facet normal  9.238795e-001  3.826835e-001  -0.000000e+000
    outer loop
      vertex  0.000000e+000  2.300000e+001  8.000000e+000
      vertex  0.000000e+000  2.300000e+001  0.000000e+000
      vertex -5.857865e-001  2.441421e+001  8.000000e+000
    endloop
  endfacet
  facet normal  9.238795e-001  3.826835e-001  0.000000e+000
    outer loop
      vertex -5.857865e-001  2.441421e+001  8.000000e+000
      vertex  0.000000e+000  2.300000e+001  0.000000e+000
      vertex -5.857865e-001  2.441421e+001  0.000000e+000
    endloop
  endfacet
  facet normal  3.826837e-001  9.238794e-001  -0.000000e+000
    outer loop
      vertex -5.857865e-001  2.441421e+001  8.000000e+000
      vertex -5.857865e-001  2.441421e+001  0.000000e+000
      vertex -2.000000e+000  2.500000e+001  8.000000e+000
    endloop
  endfacet
  facet normal  3.826837e-001  9.238794e-001  0.000000e+000
    outer loop
      vertex -2.000000e+000  2.500000e+001  8.000000e+000
      vertex -5.857865e-001  2.441421e+001  0.000000e+000
      vertex -2.000000e+000  2.500000e+001  0.000000e+000
    endloop
  endfacet
  facet normal  0.000000e+000  1.000000e+000  0.000000e+000
    outer loop
      vertex -3.000000e+001  1.000000e+001  5.000000e+001
      vertex -1.500000e+001  1.000000e+001  4.710000e+001
      vertex -1.705000e+001  1.000000e+001  4.655070e+001
    endloop
  endfacet
  facet normal  0.000000e+000  1.000000e+000  0.000000e+000
    outer loop
      vertex -3.000000e+001  1.000000e+001  5.000000e+001
      vertex -1.705000e+001  1.000000e+001  4.655070e+001
      vertex -1.855070e+001  1.000000e+001  4.505000e+001
    endloop
  endfacet
  facet normal  0.000000e+000  1.000000e+000  0.000000e+000
    outer loop
      vertex -3.000000e+001  1.000000e+001  5.000000e+001
      vertex -1.855070e+001  1.000000e+001  4.505000e+001
      vertex -3.000000e+001  1.000000e+001  9.000000e+000
    endloop
  endfacet
  facet normal  0.000000e+000  1.000000e+000  0.000000e+000
    outer loop
      vertex  0.000000e+000  1.000000e+001  9.000000e+000
      vertex -3.000000e+001  1.000000e+001  9.000000e+000
      vertex -1.500000e+001  1.000000e+001  3.890000e+001
    endloop
  endfacet
  facet normal  -0.000000e+000  1.000000e+000  0.000000e+000
    outer loop
      vertex  0.000000e+000  1.000000e+001  9.000000e+000
      vertex -1.500000e+001  1.000000e+001  3.890000e+001
      vertex -1.295000e+001  1.000000e+001  3.944930e+001
    endloop
  endfacet
  facet normal  -0.000000e+000  1.000000e+000  0.000000e+000
    outer loop
      vertex  0.000000e+000  1.000000e+001  9.000000e+000
      vertex -1.295000e+001  1.000000e+001  3.944930e+001
      vertex -1.144930e+001  1.000000e+001  4.095000e+001
    endloop
  endfacet
  facet normal  -0.000000e+000  1.000000e+000  0.000000e+000
    outer loop
      vertex  0.000000e+000  1.000000e+001  9.000000e+000
      vertex -1.144930e+001  1.000000e+001  4.095000e+001
      vertex -1.090000e+001  1.000000e+001  4.300000e+001
    endloop
  endfacet
  facet normal  -0.000000e+000  1.000000e+000  -0.000000e+000
    outer loop
      vertex  0.000000e+000  1.000000e+001  9.000000e+000
      vertex -1.090000e+001  1.000000e+001  4.300000e+001
      vertex -1.144930e+001  1.000000e+001  4.505000e+001
    endloop
  endfacet
  facet normal  0.000000e+000  1.000000e+000  -0.000000e+000
    outer loop
      vertex  0.000000e+000  1.000000e+001  5.000000e+001
      vertex  0.000000e+000  1.000000e+001  9.000000e+000
      vertex -1.144930e+001  1.000000e+001  4.505000e+001
    endloop
  endfacet
  facet normal  0.000000e+000  9.999999e-001  -0.000000e+000
    outer loop
      vertex  0.000000e+000  1.000000e+001  5.000000e+001
      vertex -1.144930e+001  1.000000e+001  4.505000e+001
      vertex -1.295000e+001  1.000000e+001  4.655070e+001
    endloop
  endfacet
  facet normal  0.000000e+000  1.000000e+000  -0.000000e+000
    outer loop
      vertex  0.000000e+000  1.000000e+001  5.000000e+001
      vertex -1.295000e+001  1.000000e+001  4.655070e+001
      vertex -1.500000e+001  1.000000e+001  4.710000e+001
    endloop
  endfacet
  facet normal  0.000000e+000  1.000000e+000  0.000000e+000
    outer loop
      vertex  0.000000e+000  1.000000e+001  5.000000e+001
      vertex -1.500000e+001  1.000000e+001  4.710000e+001
      vertex -2.500000e+000  1.000000e+001  5.433013e+001
    endloop
  endfacet
  facet normal  0.000000e+000  9.999999e-001  0.000000e+000
    outer loop
      vertex  0.000000e+000  1.000000e+001  5.000000e+001
      vertex -2.500000e+000  1.000000e+001  5.433013e+001
      vertex -6.698730e-001  1.000000e+001  5.250000e+001
    endloop
  endfacet
  facet normal  -0.000000e+000  1.000000e+000  0.000000e+000
    outer loop
      vertex -1.500000e+001  1.000000e+001  4.710000e+001
      vertex -3.000000e+001  1.000000e+001  5.000000e+001
      vertex -2.933013e+001  1.000000e+001  5.250000e+001
    endloop
  endfacet
  facet normal  -0.000000e+000  1.000000e+000  0.000000e+000
    outer loop
      vertex -1.500000e+001  1.000000e+001  4.710000e+001
      vertex -2.933013e+001  1.000000e+001  5.250000e+001
      vertex -2.750000e+001  1.000000e+001  5.433013e+001
    endloop
  endfacet
  facet normal  -0.000000e+000  1.000000e+000  0.000000e+000
    outer loop
      vertex -1.500000e+001  1.000000e+001  4.710000e+001
      vertex -2.750000e+001  1.000000e+001  5.433013e+001
      vertex -2.500000e+001  1.000000e+001  5.500000e+001
    endloop
  endfacet
  facet normal  -0.000000e+000  1.000000e+000  0.000000e+000
    outer loop
      vertex -1.500000e+001  1.000000e+001  4.710000e+001
      vertex -2.500000e+001  1.000000e+001  5.500000e+001
      vertex -5.000000e+000  1.000000e+001  5.500000e+001
    endloop
  endfacet
  facet normal  0.000000e+000  1.000000e+000  0.000000e+000
    outer loop
      vertex -1.500000e+001  1.000000e+001  4.710000e+001
      vertex -5.000000e+000  1.000000e+001  5.500000e+001
      vertex -2.500000e+000  1.000000e+001  5.433013e+001
    endloop
  endfacet
  facet normal  0.000000e+000  9.999999e-001  0.000000e+000
    outer loop
      vertex -3.000000e+001  1.000000e+001  9.000000e+000
      vertex -1.855070e+001  1.000000e+001  4.505000e+001
      vertex -1.910000e+001  1.000000e+001  4.300000e+001
    endloop
  endfacet
  facet normal  0.000000e+000  1.000000e+000  0.000000e+000
    outer loop
      vertex -3.000000e+001  1.000000e+001  9.000000e+000
      vertex -1.910000e+001  1.000000e+001  4.300000e+001
      vertex -1.855070e+001  1.000000e+001  4.095000e+001
    endloop
  endfacet
  facet normal  0.000000e+000  1.000000e+000  0.000000e+000
    outer loop
      vertex -3.000000e+001  1.000000e+001  9.000000e+000
      vertex -1.855070e+001  1.000000e+001  4.095000e+001
      vertex -1.705000e+001  1.000000e+001  3.944930e+001
    endloop
  endfacet
  facet normal  0.000000e+000  1.000000e+000  0.000000e+000
    outer loop
      vertex -3.000000e+001  1.000000e+001  9.000000e+000
      vertex -1.705000e+001  1.000000e+001  3.944930e+001
      vertex -1.500000e+001  1.000000e+001  3.890000e+001
    endloop
  endfacet
  facet normal  0.000000e+000  3.826837e-001  9.238794e-001
    outer loop
      vertex -3.000000e+001  1.100000e+001  8.000000e+000
      vertex -3.000000e+001  1.029289e+001  8.292893e+000
      vertex  0.000000e+000  1.100000e+001  8.000000e+000
    endloop
  endfacet
  facet normal  0.000000e+000  3.826837e-001  9.238794e-001
    outer loop
      vertex  0.000000e+000  1.100000e+001  8.000000e+000
      vertex -3.000000e+001  1.029289e+001  8.292893e+000
      vertex  0.000000e+000  1.029289e+001  8.292893e+000
    endloop
  endfacet
  facet normal  0.000000e+000  9.238794e-001  3.826837e-001
    outer loop
      vertex -3.000000e+001  1.029289e+001  8.292893e+000
      vertex -3.000000e+001  1.000000e+001  9.000000e+000
      vertex  0.000000e+000  1.029289e+001  8.292893e+000
    endloop
  endfacet
  facet normal  0.000000e+000  9.238794e-001  3.826837e-001
    outer loop
      vertex  0.000000e+000  1.029289e+001  8.292893e+000
      vertex -3.000000e+001  1.000000e+001  9.000000e+000
      vertex  0.000000e+000  1.000000e+001  9.000000e+000
    endloop
  endfacet
  facet normal  0.000000e+000 -1.000000e+000  0.000000e+000
    outer loop
      vertex -1.000000e+001  2.025000e+001 -8.881784e-016
      vertex -4.750000e+000  2.025000e+001 -8.881784e-016
      vertex -1.000000e+001  2.025000e+001  8.000000e+000
    endloop
  endfacet
  facet normal  0.000000e+000 -1.000000e+000  0.000000e+000
    outer loop
      vertex -1.000000e+001  2.025000e+001  8.000000e+000
      vertex -4.750000e+000  2.025000e+001 -8.881784e-016
      vertex -4.750000e+000  2.025000e+001  8.000000e+000
    endloop
  endfacet
  facet normal  8.090171e-001  5.877852e-001  0.000000e+000
    outer loop
      vertex -1.261541e+001  1.665020e+001  0.000000e+000
      vertex -1.161641e+001  1.527520e+001  8.000000e+000
      vertex -1.161641e+001  1.527520e+001  0.000000e+000
    endloop
  endfacet
  facet normal  3.090172e-001  9.510564e-001  -0.000000e+000
    outer loop
      vertex -1.161641e+001  1.527520e+001  0.000000e+000
      vertex -1.161641e+001  1.527520e+001  8.000000e+000
      vertex -1.000000e+001  1.475000e+001  8.000000e+000
    endloop
  endfacet
  facet normal  3.090172e-001  9.510564e-001  0.000000e+000
    outer loop
      vertex -1.161641e+001  1.527520e+001  0.000000e+000
      vertex -1.000000e+001  1.475000e+001  8.000000e+000
      vertex -1.000000e+001  1.475000e+001  0.000000e+000
    endloop
  endfacet
  facet normal  8.090171e-001  5.877852e-001  -0.000000e+000
    outer loop
      vertex -1.161641e+001  1.527520e+001  8.000000e+000
      vertex -1.261541e+001  1.665020e+001  0.000000e+000
      vertex -1.261541e+001  1.665020e+001  8.000000e+000
    endloop
  endfacet
  facet normal  1.000000e+000  0.000000e+000  0.000000e+000
    outer loop
      vertex -1.261541e+001  1.665020e+001  8.000000e+000
      vertex -1.261541e+001  1.665020e+001  0.000000e+000
      vertex -1.261541e+001  1.834980e+001  0.000000e+000
    endloop
  endfacet
  facet normal  1.000000e+000  0.000000e+000  -0.000000e+000
    outer loop
      vertex -1.261541e+001  1.665020e+001  8.000000e+000
      vertex -1.261541e+001  1.834980e+001  0.000000e+000
      vertex -1.261541e+001  1.834980e+001  8.000000e+000
    endloop
  endfacet
  facet normal  8.090171e-001 -5.877852e-001  0.000000e+000
    outer loop
      vertex -1.261541e+001  1.834980e+001  8.000000e+000
      vertex -1.261541e+001  1.834980e+001  0.000000e+000
      vertex -1.161641e+001  1.972480e+001  0.000000e+000
    endloop
  endfacet
  facet normal  8.090171e-001 -5.877852e-001  0.000000e+000
    outer loop
      vertex -1.261541e+001  1.834980e+001  8.000000e+000
      vertex -1.161641e+001  1.972480e+001  0.000000e+000
      vertex -1.161641e+001  1.972480e+001  8.000000e+000
    endloop
  endfacet
  facet normal  3.090172e-001 -9.510564e-001  0.000000e+000
    outer loop
      vertex -1.161641e+001  1.972480e+001  8.000000e+000
      vertex -1.161641e+001  1.972480e+001  0.000000e+000
      vertex -1.000000e+001  2.025000e+001 -8.881784e-016
    endloop
  endfacet
  facet normal  3.090172e-001 -9.510564e-001  0.000000e+000
    outer loop
      vertex -1.161641e+001  1.972480e+001  8.000000e+000
      vertex -1.000000e+001  2.025000e+001 -8.881784e-016
      vertex -1.000000e+001  2.025000e+001  8.000000e+000
    endloop
  endfacet
  facet normal  0.000000e+000  1.000000e+000  0.000000e+000
    outer loop
      vertex -1.000000e+001  1.475000e+001  0.000000e+000
      vertex -1.000000e+001  1.475000e+001  8.000000e+000
      vertex -4.750000e+000  1.475000e+001 -8.881784e-016
    endloop
  endfacet
  facet normal  0.000000e+000  1.000000e+000  -0.000000e+000
    outer loop
      vertex -4.750000e+000  1.475000e+001 -8.881784e-016
      vertex -1.000000e+001  1.475000e+001  8.000000e+000
      vertex -4.750000e+000  1.475000e+001  8.000000e+000
    endloop
  endfacet
  facet normal -8.090171e-001 -5.877852e-001  -0.000000e+000
    outer loop
      vertex -2.134595e+000  1.834980e+001  0.000000e+000
      vertex -3.133590e+000  1.972480e+001  8.000000e+000
      vertex -3.133590e+000  1.972480e+001  0.000000e+000
    endloop
  endfacet
  facet normal -3.090171e-001 -9.510565e-001  0.000000e+000
    outer loop
      vertex -3.133590e+000  1.972480e+001  0.000000e+000
      vertex -3.133590e+000  1.972480e+001  8.000000e+000
      vertex -4.750000e+000  2.025000e+001  8.000000e+000
    endloop
  endfacet
  facet normal -3.090171e-001 -9.510565e-001  -0.000000e+000
    outer loop
      vertex -3.133590e+000  1.972480e+001  0.000000e+000
      vertex -4.750000e+000  2.025000e+001  8.000000e+000
      vertex -4.750000e+000  2.025000e+001 -8.881784e-016
    endloop
  endfacet
  facet normal -8.090171e-001 -5.877852e-001  0.000000e+000
    outer loop
      vertex -3.133590e+000  1.972480e+001  8.000000e+000
      vertex -2.134595e+000  1.834980e+001  0.000000e+000
      vertex -2.134595e+000  1.834980e+001  8.000000e+000
    endloop
  endfacet
  facet normal -1.000000e+000  0.000000e+000  -0.000000e+000
    outer loop
      vertex -2.134595e+000  1.834980e+001  8.000000e+000
      vertex -2.134595e+000  1.834980e+001  0.000000e+000
      vertex -2.134595e+000  1.665020e+001  0.000000e+000
    endloop
  endfacet
  facet normal -1.000000e+000  0.000000e+000  0.000000e+000
    outer loop
      vertex -2.134595e+000  1.834980e+001  8.000000e+000
      vertex -2.134595e+000  1.665020e+001  0.000000e+000
      vertex -2.134595e+000  1.665020e+001  8.000000e+000
    endloop
  endfacet
  facet normal -8.090171e-001  5.877852e-001  0.000000e+000
    outer loop
      vertex -2.134595e+000  1.665020e+001  8.000000e+000
      vertex -2.134595e+000  1.665020e+001  0.000000e+000
      vertex -3.133590e+000  1.527520e+001  0.000000e+000
    endloop
  endfacet
  facet normal -8.090171e-001  5.877852e-001  0.000000e+000
    outer loop
      vertex -2.134595e+000  1.665020e+001  8.000000e+000
      vertex -3.133590e+000  1.527520e+001  0.000000e+000
      vertex -3.133590e+000  1.527520e+001  8.000000e+000
    endloop
  endfacet
  facet normal -3.090171e-001  9.510565e-001  0.000000e+000
    outer loop
      vertex -3.133590e+000  1.527520e+001  8.000000e+000
      vertex -3.133590e+000  1.527520e+001  0.000000e+000
      vertex -4.750000e+000  1.475000e+001 -8.881784e-016
    endloop
  endfacet
  facet normal -3.090172e-001  9.510565e-001  1.841886e-008
    outer loop
      vertex -3.133590e+000  1.527520e+001  8.000000e+000
      vertex -4.750000e+000  1.475000e+001 -8.881784e-016
      vertex -4.750000e+000  1.475000e+001  8.000000e+000
    endloop
  endfacet
  facet normal  8.090168e-001  5.877855e-001  0.000000e+000
    outer loop
      vertex -2.786541e+001  1.665020e+001  0.000000e+000
      vertex -2.686641e+001  1.527520e+001  8.000000e+000
      vertex -2.686641e+001  1.527520e+001  0.000000e+000
    endloop
  endfacet
  facet normal  3.090172e-001  9.510564e-001  -0.000000e+000
    outer loop
      vertex -2.686641e+001  1.527520e+001  0.000000e+000
      vertex -2.686641e+001  1.527520e+001  8.000000e+000
      vertex -2.525000e+001  1.475000e+001  8.000000e+000
    endloop
  endfacet
  facet normal  3.090172e-001  9.510564e-001  0.000000e+000
    outer loop
      vertex -2.686641e+001  1.527520e+001  0.000000e+000
      vertex -2.525000e+001  1.475000e+001  8.000000e+000
      vertex -2.525000e+001  1.475000e+001  0.000000e+000
    endloop
  endfacet
  facet normal  8.090168e-001  5.877855e-001  -0.000000e+000
    outer loop
      vertex -2.686641e+001  1.527520e+001  8.000000e+000
      vertex -2.786541e+001  1.665020e+001  0.000000e+000
      vertex -2.786541e+001  1.665020e+001  8.000000e+000
    endloop
  endfacet
  facet normal  1.000000e+000  0.000000e+000  0.000000e+000
    outer loop
      vertex -2.786541e+001  1.665020e+001  8.000000e+000
      vertex -2.786541e+001  1.665020e+001  0.000000e+000
      vertex -2.786541e+001  1.834980e+001  0.000000e+000
    endloop
  endfacet
  facet normal  1.000000e+000  0.000000e+000  -0.000000e+000
    outer loop
      vertex -2.786541e+001  1.665020e+001  8.000000e+000
      vertex -2.786541e+001  1.834980e+001  0.000000e+000
      vertex -2.786541e+001  1.834980e+001  8.000000e+000
    endloop
  endfacet
  facet normal  8.090168e-001 -5.877855e-001  0.000000e+000
    outer loop
      vertex -2.786541e+001  1.834980e+001  8.000000e+000
      vertex -2.786541e+001  1.834980e+001  0.000000e+000
      vertex -2.686641e+001  1.972480e+001  0.000000e+000
    endloop
  endfacet
  facet normal  8.090168e-001 -5.877855e-001  0.000000e+000
    outer loop
      vertex -2.786541e+001  1.834980e+001  8.000000e+000
      vertex -2.686641e+001  1.972480e+001  0.000000e+000
      vertex -2.686641e+001  1.972480e+001  8.000000e+000
    endloop
  endfacet
  facet normal  3.090172e-001 -9.510564e-001  0.000000e+000
    outer loop
      vertex -2.686641e+001  1.972480e+001  8.000000e+000
      vertex -2.686641e+001  1.972480e+001  0.000000e+000
      vertex -2.525000e+001  2.025000e+001  0.000000e+000
    endloop
  endfacet
  facet normal  3.090172e-001 -9.510564e-001  0.000000e+000
    outer loop
      vertex -2.686641e+001  1.972480e+001  8.000000e+000
      vertex -2.525000e+001  2.025000e+001  0.000000e+000
      vertex -2.525000e+001  2.025000e+001  8.000000e+000
    endloop
  endfacet
  facet normal  0.000000e+000  1.000000e+000  0.000000e+000
    outer loop
      vertex -2.525000e+001  1.475000e+001  0.000000e+000
      vertex -2.525000e+001  1.475000e+001  8.000000e+000
      vertex -2.000000e+001  1.475000e+001 -8.881784e-016
    endloop
  endfacet
  facet normal  0.000000e+000  1.000000e+000  -0.000000e+000
    outer loop
      vertex -2.000000e+001  1.475000e+001 -8.881784e-016
      vertex -2.525000e+001  1.475000e+001  8.000000e+000
      vertex -2.000000e+001  1.475000e+001  8.000000e+000
    endloop
  endfacet
  facet normal -8.090168e-001 -5.877855e-001  -0.000000e+000
    outer loop
      vertex -1.738459e+001  1.834980e+001  0.000000e+000
      vertex -1.838359e+001  1.972480e+001  8.000000e+000
      vertex -1.838359e+001  1.972480e+001  0.000000e+000
    endloop
  endfacet
  facet normal -3.090172e-001 -9.510564e-001  0.000000e+000
    outer loop
      vertex -1.838359e+001  1.972480e+001  0.000000e+000
      vertex -1.838359e+001  1.972480e+001  8.000000e+000
      vertex -2.000000e+001  2.025000e+001  8.000000e+000
    endloop
  endfacet
  facet normal -3.090172e-001 -9.510564e-001  -0.000000e+000
    outer loop
      vertex -1.838359e+001  1.972480e+001  0.000000e+000
      vertex -2.000000e+001  2.025000e+001  8.000000e+000
      vertex -2.000000e+001  2.025000e+001  0.000000e+000
    endloop
  endfacet
  facet normal -8.090168e-001 -5.877855e-001  0.000000e+000
    outer loop
      vertex -1.838359e+001  1.972480e+001  8.000000e+000
      vertex -1.738459e+001  1.834980e+001  0.000000e+000
      vertex -1.738459e+001  1.834980e+001  8.000000e+000
    endloop
  endfacet
  facet normal -1.000000e+000  0.000000e+000  -0.000000e+000
    outer loop
      vertex -1.738459e+001  1.834980e+001  8.000000e+000
      vertex -1.738459e+001  1.834980e+001  0.000000e+000
      vertex -1.738459e+001  1.665020e+001  0.000000e+000
    endloop
  endfacet
  facet normal -1.000000e+000  0.000000e+000  0.000000e+000
    outer loop
      vertex -1.738459e+001  1.834980e+001  8.000000e+000
      vertex -1.738459e+001  1.665020e+001  0.000000e+000
      vertex -1.738459e+001  1.665020e+001  8.000000e+000
    endloop
  endfacet
  facet normal -8.090168e-001  5.877855e-001  0.000000e+000
    outer loop
      vertex -1.738459e+001  1.665020e+001  8.000000e+000
      vertex -1.738459e+001  1.665020e+001  0.000000e+000
      vertex -1.838359e+001  1.527520e+001  0.000000e+000
    endloop
  endfacet
  facet normal -8.090168e-001  5.877855e-001  0.000000e+000
    outer loop
      vertex -1.738459e+001  1.665020e+001  8.000000e+000
      vertex -1.838359e+001  1.527520e+001  0.000000e+000
      vertex -1.838359e+001  1.527520e+001  8.000000e+000
    endloop
  endfacet
  facet normal -3.090172e-001  9.510564e-001  0.000000e+000
    outer loop
      vertex -1.838359e+001  1.527520e+001  8.000000e+000
      vertex -1.838359e+001  1.527520e+001  0.000000e+000
      vertex -2.000000e+001  1.475000e+001 -8.881784e-016
    endloop
  endfacet
  facet normal -3.090172e-001  9.510564e-001  0.000000e+000
    outer loop
      vertex -1.838359e+001  1.527520e+001  8.000000e+000
      vertex -2.000000e+001  1.475000e+001 -8.881784e-016
      vertex -2.000000e+001  1.475000e+001  8.000000e+000
    endloop
  endfacet
  facet normal  0.000000e+000 -1.000000e+000  0.000000e+000
    outer loop
      vertex -2.525000e+001  2.025000e+001  0.000000e+000
      vertex -2.000000e+001  2.025000e+001  0.000000e+000
      vertex -2.525000e+001  2.025000e+001  8.000000e+000
    endloop
  endfacet
  facet normal  0.000000e+000 -1.000000e+000  0.000000e+000
    outer loop
      vertex -2.525000e+001  2.025000e+001  8.000000e+000
      vertex -2.000000e+001  2.025000e+001  0.000000e+000
      vertex -2.000000e+001  2.025000e+001  8.000000e+000
    endloop
  endfacet
  facet normal  0.000000e+000 -1.000000e+000  -0.000000e+000
    outer loop
      vertex  0.000000e+000  0.000000e+000  0.000000e+000
      vertex -1.090000e+001  0.000000e+000  4.300000e+001
      vertex -1.144930e+001  0.000000e+000  4.095000e+001
    endloop
  endfacet
  facet normal  0.000000e+000 -1.000000e+000  -0.000000e+000
    outer loop
      vertex  0.000000e+000  0.000000e+000  0.000000e+000
      vertex -1.144930e+001  0.000000e+000  4.095000e+001
      vertex -1.295000e+001  0.000000e+000  3.944930e+001
    endloop
  endfacet
  facet normal  0.000000e+000 -1.000000e+000  -0.000000e+000
    outer loop
      vertex  0.000000e+000  0.000000e+000  0.000000e+000
      vertex -1.295000e+001  0.000000e+000  3.944930e+001
      vertex -1.500000e+001  0.000000e+000  3.890000e+001
    endloop
  endfacet
  facet normal  0.000000e+000 -1.000000e+000  -0.000000e+000
    outer loop
      vertex  0.000000e+000  0.000000e+000  0.000000e+000
      vertex -1.500000e+001  0.000000e+000  3.890000e+001
      vertex -3.000000e+001  0.000000e+000  0.000000e+000
    endloop
  endfacet
  facet normal  -0.000000e+000 -9.999999e-001  -0.000000e+000
    outer loop
      vertex  0.000000e+000  0.000000e+000  5.000000e+001
      vertex -6.698730e-001  0.000000e+000  5.250000e+001
      vertex -2.500000e+000  0.000000e+000  5.433013e+001
    endloop
  endfacet
  facet normal  0.000000e+000 -1.000000e+000  -0.000000e+000
    outer loop
      vertex  0.000000e+000  0.000000e+000  5.000000e+001
      vertex -2.500000e+000  0.000000e+000  5.433013e+001
      vertex -1.500000e+001  0.000000e+000  4.710000e+001
    endloop
  endfacet
  facet normal  0.000000e+000 -1.000000e+000  0.000000e+000
    outer loop
      vertex  0.000000e+000  0.000000e+000  5.000000e+001
      vertex -1.500000e+001  0.000000e+000  4.710000e+001
      vertex -1.295000e+001  0.000000e+000  4.655070e+001
    endloop
  endfacet
  facet normal  0.000000e+000 -9.999999e-001  0.000000e+000
    outer loop
      vertex  0.000000e+000  0.000000e+000  5.000000e+001
      vertex -1.295000e+001  0.000000e+000  4.655070e+001
      vertex -1.144930e+001  0.000000e+000  4.505000e+001
    endloop
  endfacet
  facet normal  0.000000e+000 -1.000000e+000  0.000000e+000
    outer loop
      vertex  0.000000e+000  0.000000e+000  5.000000e+001
      vertex -1.144930e+001  0.000000e+000  4.505000e+001
      vertex -1.090000e+001  0.000000e+000  4.300000e+001
    endloop
  endfacet
  facet normal  0.000000e+000 -1.000000e+000  0.000000e+000
    outer loop
      vertex  0.000000e+000  0.000000e+000  5.000000e+001
      vertex -1.090000e+001  0.000000e+000  4.300000e+001
      vertex  0.000000e+000  0.000000e+000  0.000000e+000
    endloop
  endfacet
  facet normal  -0.000000e+000 -1.000000e+000  0.000000e+000
    outer loop
      vertex -1.500000e+001  0.000000e+000  4.710000e+001
      vertex -2.500000e+000  0.000000e+000  5.433013e+001
      vertex -5.000000e+000  0.000000e+000  5.500000e+001
    endloop
  endfacet
  facet normal  -0.000000e+000 -1.000000e+000  0.000000e+000
    outer loop
      vertex -1.500000e+001  0.000000e+000  4.710000e+001
      vertex -5.000000e+000  0.000000e+000  5.500000e+001
      vertex -2.500000e+001  0.000000e+000  5.500000e+001
    endloop
  endfacet
  facet normal  0.000000e+000 -1.000000e+000  -0.000000e+000
    outer loop
      vertex -1.500000e+001  0.000000e+000  4.710000e+001
      vertex -2.500000e+001  0.000000e+000  5.500000e+001
      vertex -2.750000e+001  0.000000e+000  5.433013e+001
    endloop
  endfacet
  facet normal  0.000000e+000 -1.000000e+000  -0.000000e+000
    outer loop
      vertex -1.500000e+001  0.000000e+000  4.710000e+001
      vertex -2.750000e+001  0.000000e+000  5.433013e+001
      vertex -2.933013e+001  0.000000e+000  5.250000e+001
    endloop
  endfacet
  facet normal  0.000000e+000 -1.000000e+000  -0.000000e+000
    outer loop
      vertex -1.500000e+001  0.000000e+000  4.710000e+001
      vertex -2.933013e+001  0.000000e+000  5.250000e+001
      vertex -3.000000e+001  0.000000e+000  5.000000e+001
    endloop
  endfacet
  facet normal  0.000000e+000 -1.000000e+000  0.000000e+000
    outer loop
      vertex -1.500000e+001  0.000000e+000  4.710000e+001
      vertex -3.000000e+001  0.000000e+000  5.000000e+001
      vertex -1.705000e+001  0.000000e+000  4.655070e+001
    endloop
  endfacet
  facet normal  -0.000000e+000 -1.000000e+000  0.000000e+000
    outer loop
      vertex -3.000000e+001  0.000000e+000  0.000000e+000
      vertex -1.500000e+001  0.000000e+000  3.890000e+001
      vertex -1.705000e+001  0.000000e+000  3.944930e+001
    endloop
  endfacet
  facet normal  -0.000000e+000 -9.999999e-001  0.000000e+000
    outer loop
      vertex -3.000000e+001  0.000000e+000  0.000000e+000
      vertex -1.705000e+001  0.000000e+000  3.944930e+001
      vertex -1.855070e+001  0.000000e+000  4.095000e+001
    endloop
  endfacet
  facet normal  -0.000000e+000 -1.000000e+000  0.000000e+000
    outer loop
      vertex -3.000000e+001  0.000000e+000  0.000000e+000
      vertex -1.855070e+001  0.000000e+000  4.095000e+001
      vertex -1.910000e+001  0.000000e+000  4.300000e+001
    endloop
  endfacet
  facet normal  0.000000e+000 -1.000000e+000  0.000000e+000
    outer loop
      vertex -3.000000e+001  0.000000e+000  5.000000e+001
      vertex -3.000000e+001  0.000000e+000  0.000000e+000
      vertex -1.910000e+001  0.000000e+000  4.300000e+001
    endloop
  endfacet
  facet normal  0.000000e+000 -1.000000e+000  0.000000e+000
    outer loop
      vertex -3.000000e+001  0.000000e+000  5.000000e+001
      vertex -1.910000e+001  0.000000e+000  4.300000e+001
      vertex -1.855070e+001  0.000000e+000  4.505000e+001
    endloop
  endfacet
  facet normal  0.000000e+000 -1.000000e+000  0.000000e+000
    outer loop
      vertex -3.000000e+001  0.000000e+000  5.000000e+001
      vertex -1.855070e+001  0.000000e+000  4.505000e+001
      vertex -1.705000e+001  0.000000e+000  4.655070e+001
    endloop
  endfacet
  facet normal  0.000000e+000  0.000000e+000  1.000000e+000
    outer loop
      vertex -2.500000e+001  1.000000e+001  5.500000e+001
      vertex -2.500000e+001  0.000000e+000  5.500000e+001
      vertex -5.000000e+000  1.000000e+001  5.500000e+001
    endloop
  endfacet
  facet normal  0.000000e+000  0.000000e+000  1.000000e+000
    outer loop
      vertex -5.000000e+000  1.000000e+001  5.500000e+001
      vertex -2.500000e+001  0.000000e+000  5.500000e+001
      vertex -5.000000e+000  0.000000e+000  5.500000e+001
    endloop
  endfacet
  facet normal -2.588188e-001  0.000000e+000  9.659259e-001
    outer loop
      vertex -2.500000e+001  0.000000e+000  5.500000e+001
      vertex -2.500000e+001  1.000000e+001  5.500000e+001
      vertex -2.750000e+001  0.000000e+000  5.433013e+001
    endloop
  endfacet
  facet normal -2.588188e-001  0.000000e+000  9.659259e-001
    outer loop
      vertex -2.750000e+001  0.000000e+000  5.433013e+001
      vertex -2.500000e+001  1.000000e+001  5.500000e+001
      vertex -2.750000e+001  1.000000e+001  5.433013e+001
    endloop
  endfacet
  facet normal -7.071068e-001  0.000000e+000  7.071068e-001
    outer loop
      vertex -2.750000e+001  0.000000e+000  5.433013e+001
      vertex -2.750000e+001  1.000000e+001  5.433013e+001
      vertex -2.933013e+001  0.000000e+000  5.250000e+001
    endloop
  endfacet
  facet normal -7.071068e-001  0.000000e+000  7.071068e-001
    outer loop
      vertex -2.933013e+001  0.000000e+000  5.250000e+001
      vertex -2.750000e+001  1.000000e+001  5.433013e+001
      vertex -2.933013e+001  1.000000e+001  5.250000e+001
    endloop
  endfacet
  facet normal -9.659259e-001  0.000000e+000  2.588188e-001
    outer loop
      vertex -2.933013e+001  0.000000e+000  5.250000e+001
      vertex -2.933013e+001  1.000000e+001  5.250000e+001
      vertex -3.000000e+001  0.000000e+000  5.000000e+001
    endloop
  endfacet
  facet normal -9.659259e-001  0.000000e+000  2.588188e-001
    outer loop
      vertex -3.000000e+001  0.000000e+000  5.000000e+001
      vertex -2.933013e+001  1.000000e+001  5.250000e+001
      vertex -3.000000e+001  1.000000e+001  5.000000e+001
    endloop
  endfacet
  facet normal  9.659259e-001  0.000000e+000  2.588191e-001
    outer loop
      vertex  0.000000e+000  0.000000e+000  5.000000e+001
      vertex  0.000000e+000  1.000000e+001  5.000000e+001
      vertex -6.698730e-001  0.000000e+000  5.250000e+001
    endloop
  endfacet
  facet normal  9.659259e-001  -0.000000e+000  2.588191e-001
    outer loop
      vertex -6.698730e-001  0.000000e+000  5.250000e+001
      vertex  0.000000e+000  1.000000e+001  5.000000e+001
      vertex -6.698730e-001  1.000000e+001  5.250000e+001
    endloop
  endfacet
  facet normal  7.071069e-001  0.000000e+000  7.071066e-001
    outer loop
      vertex -6.698730e-001  0.000000e+000  5.250000e+001
      vertex -6.698730e-001  1.000000e+001  5.250000e+001
      vertex -2.500000e+000  0.000000e+000  5.433013e+001
    endloop
  endfacet
  facet normal  7.071069e-001  -0.000000e+000  7.071066e-001
    outer loop
      vertex -2.500000e+000  0.000000e+000  5.433013e+001
      vertex -6.698730e-001  1.000000e+001  5.250000e+001
      vertex -2.500000e+000  1.000000e+001  5.433013e+001
    endloop
  endfacet
  facet normal  2.588188e-001  0.000000e+000  9.659259e-001
    outer loop
      vertex -2.500000e+000  0.000000e+000  5.433013e+001
      vertex -2.500000e+000  1.000000e+001  5.433013e+001
      vertex -5.000000e+000  0.000000e+000  5.500000e+001
    endloop
  endfacet
  facet normal  2.588188e-001  -0.000000e+000  9.659259e-001
    outer loop
      vertex -5.000000e+000  0.000000e+000  5.500000e+001
      vertex -2.500000e+000  1.000000e+001  5.433013e+001
      vertex -5.000000e+000  1.000000e+001  5.500000e+001
    endloop
  endfacet
  facet normal  2.588181e-001  0.000000e+000  9.659261e-001
    outer loop
      vertex -1.500000e+001  0.000000e+000  3.890000e+001
      vertex -1.705000e+001  1.000000e+001  3.944930e+001
      vertex -1.705000e+001  0.000000e+000  3.944930e+001
    endloop
  endfacet
  facet normal  7.071068e-001  -0.000000e+000  7.071068e-001
    outer loop
      vertex -1.705000e+001  0.000000e+000  3.944930e+001
      vertex -1.705000e+001  1.000000e+001  3.944930e+001
      vertex -1.855070e+001  1.000000e+001  4.095000e+001
    endloop
  endfacet
  facet normal  7.071068e-001  0.000000e+000  7.071068e-001
    outer loop
      vertex -1.705000e+001  0.000000e+000  3.944930e+001
      vertex -1.855070e+001  1.000000e+001  4.095000e+001
      vertex -1.855070e+001  0.000000e+000  4.095000e+001
    endloop
  endfacet
  facet normal  9.659258e-001  -0.000000e+000  2.588190e-001
    outer loop
      vertex -1.855070e+001  0.000000e+000  4.095000e+001
      vertex -1.855070e+001  1.000000e+001  4.095000e+001
      vertex -1.910000e+001  1.000000e+001  4.300000e+001
    endloop
  endfacet
  facet normal  9.659258e-001  0.000000e+000  2.588190e-001
    outer loop
      vertex -1.855070e+001  0.000000e+000  4.095000e+001
      vertex -1.910000e+001  1.000000e+001  4.300000e+001
      vertex -1.910000e+001  0.000000e+000  4.300000e+001
    endloop
  endfacet
  facet normal  2.588181e-001  -0.000000e+000  9.659261e-001
    outer loop
      vertex -1.705000e+001  1.000000e+001  3.944930e+001
      vertex -1.500000e+001  0.000000e+000  3.890000e+001
      vertex -1.500000e+001  1.000000e+001  3.890000e+001
    endloop
  endfacet
  facet normal -2.588180e-001  0.000000e+000  9.659261e-001
    outer loop
      vertex -1.500000e+001  1.000000e+001  3.890000e+001
      vertex -1.500000e+001  0.000000e+000  3.890000e+001
      vertex -1.295000e+001  0.000000e+000  3.944930e+001
    endloop
  endfacet
  facet normal -2.588180e-001  0.000000e+000  9.659261e-001
    outer loop
      vertex -1.500000e+001  1.000000e+001  3.890000e+001
      vertex -1.295000e+001  0.000000e+000  3.944930e+001
      vertex -1.295000e+001  1.000000e+001  3.944930e+001
    endloop
  endfacet
  facet normal -7.071072e-001  0.000000e+000  7.071064e-001
    outer loop
      vertex -1.295000e+001  1.000000e+001  3.944930e+001
      vertex -1.295000e+001  0.000000e+000  3.944930e+001
      vertex -1.144930e+001  0.000000e+000  4.095000e+001
    endloop
  endfacet
  facet normal -7.071072e-001  0.000000e+000  7.071064e-001
    outer loop
      vertex -1.295000e+001  1.000000e+001  3.944930e+001
      vertex -1.144930e+001  0.000000e+000  4.095000e+001
      vertex -1.144930e+001  1.000000e+001  4.095000e+001
    endloop
  endfacet
  facet normal -9.659258e-001  0.000000e+000  2.588194e-001
    outer loop
      vertex -1.144930e+001  1.000000e+001  4.095000e+001
      vertex -1.144930e+001  0.000000e+000  4.095000e+001
      vertex -1.090000e+001  0.000000e+000  4.300000e+001
    endloop
  endfacet
  facet normal -9.659258e-001  0.000000e+000  2.588194e-001
    outer loop
      vertex -1.144930e+001  1.000000e+001  4.095000e+001
      vertex -1.090000e+001  0.000000e+000  4.300000e+001
      vertex -1.090000e+001  1.000000e+001  4.300000e+001
    endloop
  endfacet
  facet normal -2.588180e-001  -0.000000e+000 -9.659261e-001
    outer loop
      vertex -1.500000e+001  0.000000e+000  4.710000e+001
      vertex -1.295000e+001  1.000000e+001  4.655070e+001
      vertex -1.295000e+001  0.000000e+000  4.655070e+001
    endloop
  endfacet
  facet normal -7.071072e-001  0.000000e+000 -7.071064e-001
    outer loop
      vertex -1.295000e+001  0.000000e+000  4.655070e+001
      vertex -1.295000e+001  1.000000e+001  4.655070e+001
      vertex -1.144930e+001  1.000000e+001  4.505000e+001
    endloop
  endfacet
  facet normal -7.071072e-001  -0.000000e+000 -7.071064e-001
    outer loop
      vertex -1.295000e+001  0.000000e+000  4.655070e+001
      vertex -1.144930e+001  1.000000e+001  4.505000e+001
      vertex -1.144930e+001  0.000000e+000  4.505000e+001
    endloop
  endfacet
  facet normal -9.659258e-001  0.000000e+000 -2.588194e-001
    outer loop
      vertex -1.144930e+001  0.000000e+000  4.505000e+001
      vertex -1.144930e+001  1.000000e+001  4.505000e+001
      vertex -1.090000e+001  1.000000e+001  4.300000e+001
    endloop
  endfacet
  facet normal -9.659258e-001  -0.000000e+000 -2.588194e-001
    outer loop
      vertex -1.144930e+001  0.000000e+000  4.505000e+001
      vertex -1.090000e+001  1.000000e+001  4.300000e+001
      vertex -1.090000e+001  0.000000e+000  4.300000e+001
    endloop
  endfacet
  facet normal -2.588180e-001  0.000000e+000 -9.659261e-001
    outer loop
      vertex -1.295000e+001  1.000000e+001  4.655070e+001
      vertex -1.500000e+001  0.000000e+000  4.710000e+001
      vertex -1.500000e+001  1.000000e+001  4.710000e+001
    endloop
  endfacet
  facet normal  2.588181e-001  0.000000e+000 -9.659261e-001
    outer loop
      vertex -1.500000e+001  1.000000e+001  4.710000e+001
      vertex -1.500000e+001  0.000000e+000  4.710000e+001
      vertex -1.705000e+001  0.000000e+000  4.655070e+001
    endloop
  endfacet
  facet normal  2.588181e-001  0.000000e+000 -9.659261e-001
    outer loop
      vertex -1.500000e+001  1.000000e+001  4.710000e+001
      vertex -1.705000e+001  0.000000e+000  4.655070e+001
      vertex -1.705000e+001  1.000000e+001  4.655070e+001
    endloop
  endfacet
  facet normal  7.071068e-001  0.000000e+000 -7.071068e-001
    outer loop
      vertex -1.705000e+001  1.000000e+001  4.655070e+001
      vertex -1.705000e+001  0.000000e+000  4.655070e+001
      vertex -1.855070e+001  0.000000e+000  4.505000e+001
    endloop
  endfacet
  facet normal  7.071068e-001  0.000000e+000 -7.071068e-001
    outer loop
      vertex -1.705000e+001  1.000000e+001  4.655070e+001
      vertex -1.855070e+001  0.000000e+000  4.505000e+001
      vertex -1.855070e+001  1.000000e+001  4.505000e+001
    endloop
  endfacet
  facet normal  9.659258e-001  0.000000e+000 -2.588190e-001
    outer loop
      vertex -1.855070e+001  1.000000e+001  4.505000e+001
      vertex -1.855070e+001  0.000000e+000  4.505000e+001
      vertex -1.910000e+001  0.000000e+000  4.300000e+001
    endloop
  endfacet
  facet normal  9.659258e-001  0.000000e+000 -2.588190e-001
    outer loop
      vertex -1.855070e+001  1.000000e+001  4.505000e+001
      vertex -1.910000e+001  0.000000e+000  4.300000e+001
      vertex -1.910000e+001  1.000000e+001  4.300000e+001
    endloop
  endfacet
endsolid CATIA STL
