solid CATIA STL
  facet normal  0.000000e+000  0.000000e+000 -1.000000e+000
    outer loop
      vertex  1.500000e+001  1.450000e+002  0.000000e+000
      vertex  0.000000e+000  1.450000e+002  0.000000e+000
      vertex  1.500000e+001  1.500000e+002  0.000000e+000
    endloop
  endfacet
  facet normal  -0.000000e+000  0.000000e+000 -1.000000e+000
    outer loop
      vertex  1.500000e+001  1.500000e+002  0.000000e+000
      vertex  0.000000e+000  1.450000e+002  0.000000e+000
      vertex  0.000000e+000  1.500000e+002  0.000000e+000
    endloop
  endfacet
  facet normal  0.000000e+000  0.000000e+000 -1.000000e+000
    outer loop
      vertex  1.500000e+001  0.000000e+000  0.000000e+000
      vertex  0.000000e+000  0.000000e+000  0.000000e+000
      vertex  1.500000e+001  5.000000e+000  0.000000e+000
    endloop
  endfacet
  facet normal  -0.000000e+000  0.000000e+000 -1.000000e+000
    outer loop
      vertex  1.500000e+001  5.000000e+000  0.000000e+000
      vertex  0.000000e+000  0.000000e+000  0.000000e+000
      vertex  0.000000e+000  5.000000e+000  0.000000e+000
    endloop
  endfacet
  facet normal  1.000000e+000  0.000000e+000  0.000000e+000
    outer loop
      vertex  1.500000e+001  1.450000e+002  0.000000e+000
      vertex  1.500000e+001  1.500000e+002  0.000000e+000
      vertex  1.500000e+001  1.450000e+002  1.570021e+002
    endloop
  endfacet
  facet normal  1.000000e+000  -0.000000e+000  0.000000e+000
    outer loop
      vertex  1.500000e+001  1.450000e+002  1.570021e+002
      vertex  1.500000e+001  1.500000e+002  0.000000e+000
      vertex  1.500000e+001  1.500000e+002  1.600000e+002
    endloop
  endfacet
  facet normal  1.000000e+000  0.000000e+000  0.000000e+000
    outer loop
      vertex  1.500000e+001  1.450000e+002  1.570021e+002
      vertex  1.500000e+001  1.500000e+002  1.600000e+002
      vertex  1.500000e+001  5.000000e+000  1.570021e+002
    endloop
  endfacet
  facet normal  9.999999e-001  0.000000e+000  -0.000000e+000
    outer loop
      vertex  1.500000e+001  5.000000e+000  1.570021e+002
      vertex  1.500000e+001  1.500000e+002  1.600000e+002
      vertex  1.500000e+001  2.842171e-014  1.600000e+002
    endloop
  endfacet
  facet normal  1.000000e+000  0.000000e+000  0.000000e+000
    outer loop
      vertex  1.500000e+001  5.000000e+000  1.570021e+002
      vertex  1.500000e+001  2.842171e-014  1.600000e+002
      vertex  1.500000e+001  5.000000e+000  0.000000e+000
    endloop
  endfacet
  facet normal  1.000000e+000  0.000000e+000  0.000000e+000
    outer loop
      vertex  1.500000e+001  5.000000e+000  0.000000e+000
      vertex  1.500000e+001  2.842171e-014  1.600000e+002
      vertex  1.500000e+001  0.000000e+000  0.000000e+000
    endloop
  endfacet
  facet normal  0.000000e+000  0.000000e+000 -1.000000e+000
    outer loop
      vertex  5.000000e+000  1.450000e+002  1.500000e+002
      vertex  5.000000e+000  5.000000e+000  1.500000e+002
      vertex  0.000000e+000  1.450000e+002  1.500000e+002
    endloop
  endfacet
  facet normal  0.000000e+000  0.000000e+000 -1.000000e+000
    outer loop
      vertex  0.000000e+000  1.450000e+002  1.500000e+002
      vertex  5.000000e+000  5.000000e+000  1.500000e+002
      vertex  0.000000e+000  5.000000e+000  1.500000e+002
    endloop
  endfacet
  facet normal  0.000000e+000 -1.000000e+000  0.000000e+000
    outer loop
      vertex  1.500000e+001  1.450000e+002  1.570021e+002
      vertex  5.000000e+000  1.450000e+002  1.500000e+002
      vertex  1.500000e+001  1.450000e+002  0.000000e+000
    endloop
  endfacet
  facet normal  0.000000e+000 -1.000000e+000  0.000000e+000
    outer loop
      vertex  1.500000e+001  1.450000e+002  0.000000e+000
      vertex  5.000000e+000  1.450000e+002  1.500000e+002
      vertex  0.000000e+000  1.450000e+002  1.500000e+002
    endloop
  endfacet
  facet normal  0.000000e+000 -1.000000e+000  0.000000e+000
    outer loop
      vertex  1.500000e+001  1.450000e+002  0.000000e+000
      vertex  0.000000e+000  1.450000e+002  1.500000e+002
      vertex  0.000000e+000  1.450000e+002  0.000000e+000
    endloop
  endfacet
  facet normal  0.000000e+000  1.000000e+000  0.000000e+000
    outer loop
      vertex  0.000000e+000  5.000000e+000  1.500000e+002
      vertex  5.000000e+000  5.000000e+000  1.500000e+002
      vertex  0.000000e+000  5.000000e+000  0.000000e+000
    endloop
  endfacet
  facet normal  0.000000e+000  1.000000e+000  0.000000e+000
    outer loop
      vertex  0.000000e+000  5.000000e+000  0.000000e+000
      vertex  5.000000e+000  5.000000e+000  1.500000e+002
      vertex  1.500000e+001  5.000000e+000  1.570021e+002
    endloop
  endfacet
  facet normal  0.000000e+000  1.000000e+000  0.000000e+000
    outer loop
      vertex  0.000000e+000  5.000000e+000  0.000000e+000
      vertex  1.500000e+001  5.000000e+000  1.570021e+002
      vertex  1.500000e+001  5.000000e+000  0.000000e+000
    endloop
  endfacet
  facet normal  0.000000e+000 -1.000000e+000  1.776357e-016
    outer loop
      vertex  1.500000e+001  2.842171e-014  1.600000e+002
      vertex  0.000000e+000  2.842171e-014  1.600000e+002
      vertex  1.500000e+001  0.000000e+000  0.000000e+000
    endloop
  endfacet
  facet normal  0.000000e+000 -1.000000e+000  1.776357e-016
    outer loop
      vertex  1.500000e+001  0.000000e+000  0.000000e+000
      vertex  0.000000e+000  2.842171e-014  1.600000e+002
      vertex  0.000000e+000  0.000000e+000  0.000000e+000
    endloop
  endfacet
  facet normal  0.000000e+000  1.000000e+000  0.000000e+000
    outer loop
      vertex  1.500000e+001  1.500000e+002  0.000000e+000
      vertex  0.000000e+000  1.500000e+002  0.000000e+000
      vertex  1.500000e+001  1.500000e+002  1.600000e+002
    endloop
  endfacet
  facet normal  0.000000e+000  1.000000e+000  0.000000e+000
    outer loop
      vertex  1.500000e+001  1.500000e+002  1.600000e+002
      vertex  0.000000e+000  1.500000e+002  0.000000e+000
      vertex  0.000000e+000  1.500000e+002  1.600000e+002
    endloop
  endfacet
  facet normal  5.735765e-001  0.000000e+000 -8.191521e-001
    outer loop
      vertex  1.500000e+001  5.000000e+000  1.570021e+002
      vertex  5.000000e+000  5.000000e+000  1.500000e+002
      vertex  1.500000e+001  1.450000e+002  1.570021e+002
    endloop
  endfacet
  facet normal  5.735765e-001  0.000000e+000 -8.191521e-001
    outer loop
      vertex  1.500000e+001  1.450000e+002  1.570021e+002
      vertex  5.000000e+000  5.000000e+000  1.500000e+002
      vertex  5.000000e+000  1.450000e+002  1.500000e+002
    endloop
  endfacet
  facet normal -1.000000e+000  0.000000e+000  0.000000e+000
    outer loop
      vertex  0.000000e+000  2.842171e-014  1.600000e+002
      vertex  0.000000e+000  5.000000e+000  0.000000e+000
      vertex  0.000000e+000  0.000000e+000  0.000000e+000
    endloop
  endfacet
  facet normal -1.000000e+000  0.000000e+000  0.000000e+000
    outer loop
      vertex  0.000000e+000  5.000000e+000  0.000000e+000
      vertex  0.000000e+000  2.842171e-014  1.600000e+002
      vertex  0.000000e+000  5.000000e+000  1.500000e+002
    endloop
  endfacet
  facet normal -1.000000e+000  0.000000e+000  0.000000e+000
    outer loop
      vertex  0.000000e+000  5.000000e+000  1.500000e+002
      vertex  0.000000e+000  2.842171e-014  1.600000e+002
      vertex  0.000000e+000  1.500000e+002  1.600000e+002
    endloop
  endfacet
  facet normal -1.000000e+000  0.000000e+000  0.000000e+000
    outer loop
      vertex  0.000000e+000  5.000000e+000  1.500000e+002
      vertex  0.000000e+000  1.500000e+002  1.600000e+002
      vertex  0.000000e+000  1.450000e+002  1.500000e+002
    endloop
  endfacet
  facet normal -1.000000e+000  0.000000e+000  0.000000e+000
    outer loop
      vertex  0.000000e+000  1.450000e+002  1.500000e+002
      vertex  0.000000e+000  1.500000e+002  1.600000e+002
      vertex  0.000000e+000  1.500000e+002  0.000000e+000
    endloop
  endfacet
  facet normal -1.000000e+000  0.000000e+000  0.000000e+000
    outer loop
      vertex  0.000000e+000  1.450000e+002  1.500000e+002
      vertex  0.000000e+000  1.500000e+002  0.000000e+000
      vertex  0.000000e+000  1.450000e+002  0.000000e+000
    endloop
  endfacet
  facet normal  -0.000000e+000  0.000000e+000  1.000000e+000
    outer loop
      vertex  1.500000e+001  1.500000e+002  1.600000e+002
      vertex  0.000000e+000  1.500000e+002  1.600000e+002
      vertex  1.500000e+001  2.842171e-014  1.600000e+002
    endloop
  endfacet
  facet normal  0.000000e+000  0.000000e+000  1.000000e+000
    outer loop
      vertex  1.500000e+001  2.842171e-014  1.600000e+002
      vertex  0.000000e+000  1.500000e+002  1.600000e+002
      vertex  0.000000e+000  2.842171e-014  1.600000e+002
    endloop
  endfacet
endsolid CATIA STL
