solid CATIA STL
  facet normal  0.000000e+000 -1.000000e+000  0.000000e+000
    outer loop
      vertex  0.000000e+000  0.000000e+000  5.000000e+000
      vertex  0.000000e+000  0.000000e+000  0.000000e+000
      vertex  1.500000e+001  0.000000e+000  5.000000e+000
    endloop
  endfacet
  facet normal  0.000000e+000 -1.000000e+000  -0.000000e+000
    outer loop
      vertex  1.500000e+001  0.000000e+000  5.000000e+000
      vertex  0.000000e+000  0.000000e+000  0.000000e+000
      vertex  1.500000e+001  0.000000e+000  0.000000e+000
    endloop
  endfacet
  facet normal  1.000000e+000  0.000000e+000  0.000000e+000
    outer loop
      vertex  1.500000e+001  1.650000e+002  5.000000e+000
      vertex  1.500000e+001  1.650000e+002  1.000000e+001
      vertex  1.500000e+001  1.500000e+001  1.000000e+001
    endloop
  endfacet
  facet normal  1.000000e+000  0.000000e+000  0.000000e+000
    outer loop
      vertex  1.500000e+001  1.650000e+002  5.000000e+000
      vertex  1.500000e+001  1.500000e+001  1.000000e+001
      vertex  1.500000e+001  1.500000e+001  5.000000e+000
    endloop
  endfacet
  facet normal  1.000000e+000  -0.000000e+000  0.000000e+000
    outer loop
      vertex  1.500000e+001  1.650000e+002  5.000000e+000
      vertex  1.500000e+001  1.500000e+001  5.000000e+000
      vertex  1.500000e+001  1.800000e+002  0.000000e+000
    endloop
  endfacet
  facet normal  1.000000e+000  0.000000e+000  -0.000000e+000
    outer loop
      vertex  1.500000e+001  1.650000e+002  5.000000e+000
      vertex  1.500000e+001  1.800000e+002  0.000000e+000
      vertex  1.500000e+001  1.800000e+002  5.000000e+000
    endloop
  endfacet
  facet normal  1.000000e+000  -0.000000e+000  0.000000e+000
    outer loop
      vertex  1.500000e+001  1.500000e+001  5.000000e+000
      vertex  1.500000e+001  0.000000e+000  5.000000e+000
      vertex  1.500000e+001  1.800000e+002  0.000000e+000
    endloop
  endfacet
  facet normal  1.000000e+000  0.000000e+000  0.000000e+000
    outer loop
      vertex  1.500000e+001  1.800000e+002  0.000000e+000
      vertex  1.500000e+001  0.000000e+000  5.000000e+000
      vertex  1.500000e+001  0.000000e+000  0.000000e+000
    endloop
  endfacet
  facet normal  0.000000e+000  1.000000e+000  -0.000000e+000
    outer loop
      vertex  1.500000e+001  1.800000e+002  5.000000e+000
      vertex  1.500000e+001  1.800000e+002  0.000000e+000
      vertex  0.000000e+000  1.800000e+002  5.000000e+000
    endloop
  endfacet
  facet normal  0.000000e+000  1.000000e+000  0.000000e+000
    outer loop
      vertex  0.000000e+000  1.800000e+002  5.000000e+000
      vertex  1.500000e+001  1.800000e+002  0.000000e+000
      vertex  7.105427e-015  1.800000e+002  0.000000e+000
    endloop
  endfacet
  facet normal -1.000000e+000 -2.368476e-017  -0.000000e+000
    outer loop
      vertex  3.552714e-015  1.500000e+001  5.000000e+000
      vertex  3.552714e-015  1.500000e+001  1.000000e+001
      vertex  0.000000e+000  1.650000e+002  1.000000e+001
    endloop
  endfacet
  facet normal -1.000000e+000 -2.368476e-017  -0.000000e+000
    outer loop
      vertex  3.552714e-015  1.500000e+001  5.000000e+000
      vertex  0.000000e+000  1.650000e+002  1.000000e+001
      vertex  0.000000e+000  1.650000e+002  5.000000e+000
    endloop
  endfacet
  facet normal -1.000000e+000 -2.368476e-017  7.815970e-016
    outer loop
      vertex  3.552714e-015  1.500000e+001  5.000000e+000
      vertex  0.000000e+000  1.650000e+002  5.000000e+000
      vertex  0.000000e+000  0.000000e+000  0.000000e+000
    endloop
  endfacet
  facet normal -1.000000e+000  2.368476e-016  0.000000e+000
    outer loop
      vertex  3.552714e-015  1.500000e+001  5.000000e+000
      vertex  0.000000e+000  0.000000e+000  0.000000e+000
      vertex  0.000000e+000  0.000000e+000  5.000000e+000
    endloop
  endfacet
  facet normal -1.000000e+000  -0.000000e+000  0.000000e+000
    outer loop
      vertex  0.000000e+000  1.650000e+002  5.000000e+000
      vertex  0.000000e+000  1.800000e+002  5.000000e+000
      vertex  0.000000e+000  0.000000e+000  0.000000e+000
    endloop
  endfacet
  facet normal -1.000000e+000  3.947460e-017 -1.421085e-015
    outer loop
      vertex  0.000000e+000  0.000000e+000  0.000000e+000
      vertex  0.000000e+000  1.800000e+002  5.000000e+000
      vertex  7.105427e-015  1.800000e+002  0.000000e+000
    endloop
  endfacet
  facet normal  0.000000e+000  0.000000e+000  1.000000e+000
    outer loop
      vertex  3.552714e-015  1.500000e+001  1.000000e+001
      vertex  1.500000e+001  1.500000e+001  1.000000e+001
      vertex  0.000000e+000  1.650000e+002  1.000000e+001
    endloop
  endfacet
  facet normal  -0.000000e+000  0.000000e+000  1.000000e+000
    outer loop
      vertex  0.000000e+000  1.650000e+002  1.000000e+001
      vertex  1.500000e+001  1.500000e+001  1.000000e+001
      vertex  1.500000e+001  1.650000e+002  1.000000e+001
    endloop
  endfacet
  facet normal  0.000000e+000  0.000000e+000  1.000000e+000
    outer loop
      vertex  0.000000e+000  1.650000e+002  5.000000e+000
      vertex  1.500000e+001  1.650000e+002  5.000000e+000
      vertex  0.000000e+000  1.800000e+002  5.000000e+000
    endloop
  endfacet
  facet normal  -0.000000e+000  0.000000e+000  1.000000e+000
    outer loop
      vertex  0.000000e+000  1.800000e+002  5.000000e+000
      vertex  1.500000e+001  1.650000e+002  5.000000e+000
      vertex  1.500000e+001  1.800000e+002  5.000000e+000
    endloop
  endfacet
  facet normal  0.000000e+000  1.000000e+000  0.000000e+000
    outer loop
      vertex  1.500000e+001  1.650000e+002  5.000000e+000
      vertex  0.000000e+000  1.650000e+002  5.000000e+000
      vertex  1.500000e+001  1.650000e+002  1.000000e+001
    endloop
  endfacet
  facet normal  0.000000e+000  1.000000e+000  0.000000e+000
    outer loop
      vertex  1.500000e+001  1.650000e+002  1.000000e+001
      vertex  0.000000e+000  1.650000e+002  5.000000e+000
      vertex  0.000000e+000  1.650000e+002  1.000000e+001
    endloop
  endfacet
  facet normal  0.000000e+000  0.000000e+000  1.000000e+000
    outer loop
      vertex  0.000000e+000  0.000000e+000  5.000000e+000
      vertex  1.500000e+001  0.000000e+000  5.000000e+000
      vertex  3.552714e-015  1.500000e+001  5.000000e+000
    endloop
  endfacet
  facet normal  -0.000000e+000  0.000000e+000  1.000000e+000
    outer loop
      vertex  3.552714e-015  1.500000e+001  5.000000e+000
      vertex  1.500000e+001  0.000000e+000  5.000000e+000
      vertex  1.500000e+001  1.500000e+001  5.000000e+000
    endloop
  endfacet
  facet normal  0.000000e+000 -1.000000e+000  -0.000000e+000
    outer loop
      vertex  1.500000e+001  1.500000e+001  5.000000e+000
      vertex  1.500000e+001  1.500000e+001  1.000000e+001
      vertex  3.552714e-015  1.500000e+001  5.000000e+000
    endloop
  endfacet
  facet normal  0.000000e+000 -1.000000e+000  0.000000e+000
    outer loop
      vertex  3.552714e-015  1.500000e+001  5.000000e+000
      vertex  1.500000e+001  1.500000e+001  1.000000e+001
      vertex  3.552714e-015  1.500000e+001  1.000000e+001
    endloop
  endfacet
  facet normal  0.000000e+000  -0.000000e+000 -1.000000e+000
    outer loop
      vertex  0.000000e+000  0.000000e+000  0.000000e+000
      vertex  7.105427e-015  1.800000e+002  0.000000e+000
      vertex  1.500000e+001  0.000000e+000  0.000000e+000
    endloop
  endfacet
  facet normal  0.000000e+000  0.000000e+000 -1.000000e+000
    outer loop
      vertex  1.500000e+001  0.000000e+000  0.000000e+000
      vertex  7.105427e-015  1.800000e+002  0.000000e+000
      vertex  1.500000e+001  1.800000e+002  0.000000e+000
    endloop
  endfacet
endsolid CATIA STL
