solid CATIA STL
  facet normal -9.999999e-001  0.000000e+000  0.000000e+000
    outer loop
      vertex -1.500000e+001  8.500000e+000  3.000000e+001
      vertex -1.500000e+001  8.500000e+000  4.500000e+000
      vertex -1.500000e+001  0.000000e+000  3.000000e+001
    endloop
  endfacet
  facet normal -1.000000e+000  0.000000e+000  0.000000e+000
    outer loop
      vertex -1.500000e+001  0.000000e+000  3.000000e+001
      vertex -1.500000e+001  8.500000e+000  4.500000e+000
      vertex -1.500000e+001  3.500000e+000  4.500000e+000
    endloop
  endfacet
  facet normal -1.000000e+000  -0.000000e+000  0.000000e+000
    outer loop
      vertex -1.500000e+001  0.000000e+000  3.000000e+001
      vertex -1.500000e+001  3.500000e+000  4.500000e+000
      vertex -1.500000e+001  0.000000e+000  0.000000e+000
    endloop
  endfacet
  facet normal -1.000000e+000  0.000000e+000  0.000000e+000
    outer loop
      vertex -1.500000e+001  0.000000e+000  0.000000e+000
      vertex -1.500000e+001  3.500000e+000  4.500000e+000
      vertex -1.500000e+001  3.500000e+000  2.250000e+000
    endloop
  endfacet
  facet normal -1.000000e+000  0.000000e+000  -0.000000e+000
    outer loop
      vertex -1.500000e+001  0.000000e+000  0.000000e+000
      vertex -1.500000e+001  3.500000e+000  2.250000e+000
      vertex -1.500000e+001  8.500000e+000  0.000000e+000
    endloop
  endfacet
  facet normal -1.000000e+000  0.000000e+000  0.000000e+000
    outer loop
      vertex -1.500000e+001  8.500000e+000  0.000000e+000
      vertex -1.500000e+001  3.500000e+000  2.250000e+000
      vertex -1.500000e+001  8.500000e+000  2.250000e+000
    endloop
  endfacet
  facet normal  1.000000e+000 -3.045183e-016  4.736952e-016
    outer loop
      vertex -1.421085e-014  0.000000e+000  3.000000e+001
      vertex  0.000000e+000  0.000000e+000  0.000000e+000
      vertex  0.000000e+000  3.500000e+000  2.250000e+000
    endloop
  endfacet
  facet normal  1.000000e+000  2.199299e-015  7.894920e-016
    outer loop
      vertex -1.421085e-014  0.000000e+000  3.000000e+001
      vertex  0.000000e+000  3.500000e+000  2.250000e+000
      vertex -1.776357e-015  3.500000e+000  4.500000e+000
    endloop
  endfacet
  facet normal  1.000000e+000  -0.000000e+000  4.876274e-016
    outer loop
      vertex -1.421085e-014  0.000000e+000  3.000000e+001
      vertex -1.776357e-015  3.500000e+000  4.500000e+000
      vertex -1.776357e-015  8.500000e+000  4.500000e+000
    endloop
  endfacet
  facet normal  9.999999e-001  0.000000e+000  4.876273e-016
    outer loop
      vertex -1.421085e-014  0.000000e+000  3.000000e+001
      vertex -1.776357e-015  8.500000e+000  4.500000e+000
      vertex -1.421085e-014  8.500000e+000  3.000000e+001
    endloop
  endfacet
  facet normal  1.000000e+000  -0.000000e+000  0.000000e+000
    outer loop
      vertex  0.000000e+000  8.500000e+000  2.250000e+000
      vertex  0.000000e+000  3.500000e+000  2.250000e+000
      vertex  0.000000e+000  8.500000e+000  0.000000e+000
    endloop
  endfacet
  facet normal  1.000000e+000  0.000000e+000  0.000000e+000
    outer loop
      vertex  0.000000e+000  8.500000e+000  0.000000e+000
      vertex  0.000000e+000  3.500000e+000  2.250000e+000
      vertex  0.000000e+000  0.000000e+000  0.000000e+000
    endloop
  endfacet
  facet normal  0.000000e+000  1.000000e+000  0.000000e+000
    outer loop
      vertex  0.000000e+000  8.500000e+000  0.000000e+000
      vertex -1.500000e+001  8.500000e+000  0.000000e+000
      vertex  0.000000e+000  8.500000e+000  2.250000e+000
    endloop
  endfacet
  facet normal  0.000000e+000  1.000000e+000  0.000000e+000
    outer loop
      vertex  0.000000e+000  8.500000e+000  2.250000e+000
      vertex -1.500000e+001  8.500000e+000  0.000000e+000
      vertex -1.500000e+001  8.500000e+000  2.250000e+000
    endloop
  endfacet
  facet normal  0.000000e+000  1.000000e+000  0.000000e+000
    outer loop
      vertex -1.776357e-015  8.500000e+000  4.500000e+000
      vertex -1.500000e+001  8.500000e+000  4.500000e+000
      vertex -7.500000e+000  8.500000e+000  1.810000e+001
    endloop
  endfacet
  facet normal  -0.000000e+000  1.000000e+000  0.000000e+000
    outer loop
      vertex -1.776357e-015  8.500000e+000  4.500000e+000
      vertex -7.500000e+000  8.500000e+000  1.810000e+001
      vertex -5.300000e+000  8.500000e+000  1.868949e+001
    endloop
  endfacet
  facet normal  -0.000000e+000  1.000000e+000  0.000000e+000
    outer loop
      vertex -1.776357e-015  8.500000e+000  4.500000e+000
      vertex -5.300000e+000  8.500000e+000  1.868949e+001
      vertex -3.689488e+000  8.500000e+000  2.030000e+001
    endloop
  endfacet
  facet normal  -0.000000e+000  1.000000e+000  0.000000e+000
    outer loop
      vertex -1.776357e-015  8.500000e+000  4.500000e+000
      vertex -3.689488e+000  8.500000e+000  2.030000e+001
      vertex -3.100000e+000  8.500000e+000  2.250000e+001
    endloop
  endfacet
  facet normal  0.000000e+000  1.000000e+000  0.000000e+000
    outer loop
      vertex -1.421085e-014  8.500000e+000  3.000000e+001
      vertex -1.776357e-015  8.500000e+000  4.500000e+000
      vertex -3.100000e+000  8.500000e+000  2.250000e+001
    endloop
  endfacet
  facet normal  0.000000e+000  1.000000e+000  -0.000000e+000
    outer loop
      vertex -1.421085e-014  8.500000e+000  3.000000e+001
      vertex -3.100000e+000  8.500000e+000  2.250000e+001
      vertex -3.689488e+000  8.500000e+000  2.470000e+001
    endloop
  endfacet
  facet normal  0.000000e+000  1.000000e+000  -0.000000e+000
    outer loop
      vertex -1.421085e-014  8.500000e+000  3.000000e+001
      vertex -3.689488e+000  8.500000e+000  2.470000e+001
      vertex -5.300000e+000  8.500000e+000  2.631051e+001
    endloop
  endfacet
  facet normal  0.000000e+000  9.999999e-001  -0.000000e+000
    outer loop
      vertex -1.421085e-014  8.500000e+000  3.000000e+001
      vertex -5.300000e+000  8.500000e+000  2.631051e+001
      vertex -7.500000e+000  8.500000e+000  2.690000e+001
    endloop
  endfacet
  facet normal  0.000000e+000  1.000000e+000  -0.000000e+000
    outer loop
      vertex -1.421085e-014  8.500000e+000  3.000000e+001
      vertex -7.500000e+000  8.500000e+000  2.690000e+001
      vertex -1.500000e+001  8.500000e+000  3.000000e+001
    endloop
  endfacet
  facet normal  0.000000e+000  1.000000e+000  0.000000e+000
    outer loop
      vertex -1.500000e+001  8.500000e+000  4.500000e+000
      vertex -1.190000e+001  8.500000e+000  2.250000e+001
      vertex -1.131051e+001  8.500000e+000  2.030000e+001
    endloop
  endfacet
  facet normal  0.000000e+000  1.000000e+000  0.000000e+000
    outer loop
      vertex -1.500000e+001  8.500000e+000  4.500000e+000
      vertex -1.131051e+001  8.500000e+000  2.030000e+001
      vertex -9.700000e+000  8.500000e+000  1.868949e+001
    endloop
  endfacet
  facet normal  0.000000e+000  1.000000e+000  0.000000e+000
    outer loop
      vertex -1.500000e+001  8.500000e+000  4.500000e+000
      vertex -9.700000e+000  8.500000e+000  1.868949e+001
      vertex -7.500000e+000  8.500000e+000  1.810000e+001
    endloop
  endfacet
  facet normal  0.000000e+000  9.999999e-001  0.000000e+000
    outer loop
      vertex -1.500000e+001  8.500000e+000  3.000000e+001
      vertex -7.500000e+000  8.500000e+000  2.690000e+001
      vertex -9.700000e+000  8.500000e+000  2.631051e+001
    endloop
  endfacet
  facet normal  0.000000e+000  9.999999e-001  0.000000e+000
    outer loop
      vertex -1.500000e+001  8.500000e+000  3.000000e+001
      vertex -9.700000e+000  8.500000e+000  2.631051e+001
      vertex -1.131051e+001  8.500000e+000  2.470000e+001
    endloop
  endfacet
  facet normal  0.000000e+000  1.000000e+000  0.000000e+000
    outer loop
      vertex -1.500000e+001  8.500000e+000  3.000000e+001
      vertex -1.131051e+001  8.500000e+000  2.470000e+001
      vertex -1.190000e+001  8.500000e+000  2.250000e+001
    endloop
  endfacet
  facet normal  0.000000e+000  1.000000e+000  0.000000e+000
    outer loop
      vertex -1.500000e+001  8.500000e+000  3.000000e+001
      vertex -1.190000e+001  8.500000e+000  2.250000e+001
      vertex -1.500000e+001  8.500000e+000  4.500000e+000
    endloop
  endfacet
  facet normal  0.000000e+000  1.000000e+000  0.000000e+000
    outer loop
      vertex  0.000000e+000  3.500000e+000  2.250000e+000
      vertex -1.500000e+001  3.500000e+000  2.250000e+000
      vertex -1.776357e-015  3.500000e+000  4.500000e+000
    endloop
  endfacet
  facet normal  0.000000e+000  1.000000e+000  0.000000e+000
    outer loop
      vertex -1.776357e-015  3.500000e+000  4.500000e+000
      vertex -1.500000e+001  3.500000e+000  2.250000e+000
      vertex -1.500000e+001  3.500000e+000  4.500000e+000
    endloop
  endfacet
  facet normal  0.000000e+000  0.000000e+000 -1.000000e+000
    outer loop
      vertex -1.500000e+001  3.500000e+000  4.500000e+000
      vertex -1.500000e+001  8.500000e+000  4.500000e+000
      vertex -1.776357e-015  3.500000e+000  4.500000e+000
    endloop
  endfacet
  facet normal  0.000000e+000  0.000000e+000 -1.000000e+000
    outer loop
      vertex -1.776357e-015  3.500000e+000  4.500000e+000
      vertex -1.500000e+001  8.500000e+000  4.500000e+000
      vertex -1.776357e-015  8.500000e+000  4.500000e+000
    endloop
  endfacet
  facet normal  0.000000e+000  0.000000e+000  1.000000e+000
    outer loop
      vertex  0.000000e+000  3.500000e+000  2.250000e+000
      vertex  0.000000e+000  8.500000e+000  2.250000e+000
      vertex -1.500000e+001  3.500000e+000  2.250000e+000
    endloop
  endfacet
  facet normal  0.000000e+000  0.000000e+000  1.000000e+000
    outer loop
      vertex -1.500000e+001  3.500000e+000  2.250000e+000
      vertex  0.000000e+000  8.500000e+000  2.250000e+000
      vertex -1.500000e+001  8.500000e+000  2.250000e+000
    endloop
  endfacet
  facet normal  0.000000e+000 -1.000000e+000  -0.000000e+000
    outer loop
      vertex  0.000000e+000  0.000000e+000  0.000000e+000
      vertex -3.100000e+000  0.000000e+000  2.250000e+001
      vertex -3.689488e+000  0.000000e+000  2.030000e+001
    endloop
  endfacet
  facet normal  0.000000e+000 -1.000000e+000  -0.000000e+000
    outer loop
      vertex  0.000000e+000  0.000000e+000  0.000000e+000
      vertex -3.689488e+000  0.000000e+000  2.030000e+001
      vertex -5.300000e+000  0.000000e+000  1.868949e+001
    endloop
  endfacet
  facet normal  0.000000e+000 -1.000000e+000  -0.000000e+000
    outer loop
      vertex  0.000000e+000  0.000000e+000  0.000000e+000
      vertex -5.300000e+000  0.000000e+000  1.868949e+001
      vertex -7.500000e+000  0.000000e+000  1.810000e+001
    endloop
  endfacet
  facet normal  0.000000e+000 -1.000000e+000  -0.000000e+000
    outer loop
      vertex  0.000000e+000  0.000000e+000  0.000000e+000
      vertex -7.500000e+000  0.000000e+000  1.810000e+001
      vertex -1.500000e+001  0.000000e+000  0.000000e+000
    endloop
  endfacet
  facet normal  0.000000e+000 -1.000000e+000  0.000000e+000
    outer loop
      vertex -1.421085e-014  0.000000e+000  3.000000e+001
      vertex -1.500000e+001  0.000000e+000  3.000000e+001
      vertex -7.500000e+000  0.000000e+000  2.690000e+001
    endloop
  endfacet
  facet normal  0.000000e+000 -9.999999e-001  0.000000e+000
    outer loop
      vertex -1.421085e-014  0.000000e+000  3.000000e+001
      vertex -7.500000e+000  0.000000e+000  2.690000e+001
      vertex -5.300000e+000  0.000000e+000  2.631051e+001
    endloop
  endfacet
  facet normal  0.000000e+000 -1.000000e+000  0.000000e+000
    outer loop
      vertex -1.421085e-014  0.000000e+000  3.000000e+001
      vertex -5.300000e+000  0.000000e+000  2.631051e+001
      vertex -3.689488e+000  0.000000e+000  2.470000e+001
    endloop
  endfacet
  facet normal  0.000000e+000 -1.000000e+000  0.000000e+000
    outer loop
      vertex -1.421085e-014  0.000000e+000  3.000000e+001
      vertex -3.689488e+000  0.000000e+000  2.470000e+001
      vertex -3.100000e+000  0.000000e+000  2.250000e+001
    endloop
  endfacet
  facet normal  0.000000e+000 -1.000000e+000  0.000000e+000
    outer loop
      vertex -1.421085e-014  0.000000e+000  3.000000e+001
      vertex -3.100000e+000  0.000000e+000  2.250000e+001
      vertex  0.000000e+000  0.000000e+000  0.000000e+000
    endloop
  endfacet
  facet normal  -0.000000e+000 -1.000000e+000  0.000000e+000
    outer loop
      vertex -1.500000e+001  0.000000e+000  0.000000e+000
      vertex -7.500000e+000  0.000000e+000  1.810000e+001
      vertex -9.700000e+000  0.000000e+000  1.868949e+001
    endloop
  endfacet
  facet normal  -0.000000e+000 -1.000000e+000  0.000000e+000
    outer loop
      vertex -1.500000e+001  0.000000e+000  0.000000e+000
      vertex -9.700000e+000  0.000000e+000  1.868949e+001
      vertex -1.131051e+001  0.000000e+000  2.030000e+001
    endloop
  endfacet
  facet normal  -0.000000e+000 -1.000000e+000  0.000000e+000
    outer loop
      vertex -1.500000e+001  0.000000e+000  0.000000e+000
      vertex -1.131051e+001  0.000000e+000  2.030000e+001
      vertex -1.190000e+001  0.000000e+000  2.250000e+001
    endloop
  endfacet
  facet normal  0.000000e+000 -1.000000e+000  0.000000e+000
    outer loop
      vertex -1.500000e+001  0.000000e+000  3.000000e+001
      vertex -1.500000e+001  0.000000e+000  0.000000e+000
      vertex -1.190000e+001  0.000000e+000  2.250000e+001
    endloop
  endfacet
  facet normal  0.000000e+000 -1.000000e+000  0.000000e+000
    outer loop
      vertex -1.500000e+001  0.000000e+000  3.000000e+001
      vertex -1.190000e+001  0.000000e+000  2.250000e+001
      vertex -1.131051e+001  0.000000e+000  2.470000e+001
    endloop
  endfacet
  facet normal  0.000000e+000 -9.999999e-001  0.000000e+000
    outer loop
      vertex -1.500000e+001  0.000000e+000  3.000000e+001
      vertex -1.131051e+001  0.000000e+000  2.470000e+001
      vertex -9.700000e+000  0.000000e+000  2.631051e+001
    endloop
  endfacet
  facet normal  0.000000e+000 -9.999999e-001  0.000000e+000
    outer loop
      vertex -1.500000e+001  0.000000e+000  3.000000e+001
      vertex -9.700000e+000  0.000000e+000  2.631051e+001
      vertex -7.500000e+000  0.000000e+000  2.690000e+001
    endloop
  endfacet
  facet normal -2.588186e-001  -0.000000e+000 -9.659259e-001
    outer loop
      vertex -7.500000e+000  0.000000e+000  2.690000e+001
      vertex -5.300000e+000  8.500000e+000  2.631051e+001
      vertex -5.300000e+000  0.000000e+000  2.631051e+001
    endloop
  endfacet
  facet normal -7.071068e-001  0.000000e+000 -7.071069e-001
    outer loop
      vertex -5.300000e+000  0.000000e+000  2.631051e+001
      vertex -5.300000e+000  8.500000e+000  2.631051e+001
      vertex -3.689488e+000  8.500000e+000  2.470000e+001
    endloop
  endfacet
  facet normal -7.071068e-001  -0.000000e+000 -7.071069e-001
    outer loop
      vertex -5.300000e+000  0.000000e+000  2.631051e+001
      vertex -3.689488e+000  8.500000e+000  2.470000e+001
      vertex -3.689488e+000  0.000000e+000  2.470000e+001
    endloop
  endfacet
  facet normal -9.659259e-001  0.000000e+000 -2.588190e-001
    outer loop
      vertex -3.689488e+000  0.000000e+000  2.470000e+001
      vertex -3.689488e+000  8.500000e+000  2.470000e+001
      vertex -3.100000e+000  8.500000e+000  2.250000e+001
    endloop
  endfacet
  facet normal -9.659259e-001  -0.000000e+000 -2.588190e-001
    outer loop
      vertex -3.689488e+000  0.000000e+000  2.470000e+001
      vertex -3.100000e+000  8.500000e+000  2.250000e+001
      vertex -3.100000e+000  0.000000e+000  2.250000e+001
    endloop
  endfacet
  facet normal -2.588186e-001  0.000000e+000 -9.659259e-001
    outer loop
      vertex -5.300000e+000  8.500000e+000  2.631051e+001
      vertex -7.500000e+000  0.000000e+000  2.690000e+001
      vertex -7.500000e+000  8.500000e+000  2.690000e+001
    endloop
  endfacet
  facet normal  2.588186e-001  0.000000e+000 -9.659259e-001
    outer loop
      vertex -7.500000e+000  8.500000e+000  2.690000e+001
      vertex -7.500000e+000  0.000000e+000  2.690000e+001
      vertex -9.700000e+000  0.000000e+000  2.631051e+001
    endloop
  endfacet
  facet normal  2.588186e-001  0.000000e+000 -9.659259e-001
    outer loop
      vertex -7.500000e+000  8.500000e+000  2.690000e+001
      vertex -9.700000e+000  0.000000e+000  2.631051e+001
      vertex -9.700000e+000  8.500000e+000  2.631051e+001
    endloop
  endfacet
  facet normal  7.071068e-001  0.000000e+000 -7.071068e-001
    outer loop
      vertex -9.700000e+000  8.500000e+000  2.631051e+001
      vertex -9.700000e+000  0.000000e+000  2.631051e+001
      vertex -1.131051e+001  0.000000e+000  2.470000e+001
    endloop
  endfacet
  facet normal  7.071068e-001  0.000000e+000 -7.071068e-001
    outer loop
      vertex -9.700000e+000  8.500000e+000  2.631051e+001
      vertex -1.131051e+001  0.000000e+000  2.470000e+001
      vertex -1.131051e+001  8.500000e+000  2.470000e+001
    endloop
  endfacet
  facet normal  9.659259e-001  0.000000e+000 -2.588189e-001
    outer loop
      vertex -1.131051e+001  8.500000e+000  2.470000e+001
      vertex -1.131051e+001  0.000000e+000  2.470000e+001
      vertex -1.190000e+001  0.000000e+000  2.250000e+001
    endloop
  endfacet
  facet normal  9.659259e-001  0.000000e+000 -2.588189e-001
    outer loop
      vertex -1.131051e+001  8.500000e+000  2.470000e+001
      vertex -1.190000e+001  0.000000e+000  2.250000e+001
      vertex -1.190000e+001  8.500000e+000  2.250000e+001
    endloop
  endfacet
  facet normal  2.588186e-001  0.000000e+000  9.659259e-001
    outer loop
      vertex -7.500000e+000  0.000000e+000  1.810000e+001
      vertex -9.700000e+000  8.500000e+000  1.868949e+001
      vertex -9.700000e+000  0.000000e+000  1.868949e+001
    endloop
  endfacet
  facet normal  7.071068e-001  -0.000000e+000  7.071068e-001
    outer loop
      vertex -9.700000e+000  0.000000e+000  1.868949e+001
      vertex -9.700000e+000  8.500000e+000  1.868949e+001
      vertex -1.131051e+001  8.500000e+000  2.030000e+001
    endloop
  endfacet
  facet normal  7.071068e-001  0.000000e+000  7.071068e-001
    outer loop
      vertex -9.700000e+000  0.000000e+000  1.868949e+001
      vertex -1.131051e+001  8.500000e+000  2.030000e+001
      vertex -1.131051e+001  0.000000e+000  2.030000e+001
    endloop
  endfacet
  facet normal  9.659259e-001  -0.000000e+000  2.588189e-001
    outer loop
      vertex -1.131051e+001  0.000000e+000  2.030000e+001
      vertex -1.131051e+001  8.500000e+000  2.030000e+001
      vertex -1.190000e+001  8.500000e+000  2.250000e+001
    endloop
  endfacet
  facet normal  9.659259e-001  0.000000e+000  2.588189e-001
    outer loop
      vertex -1.131051e+001  0.000000e+000  2.030000e+001
      vertex -1.190000e+001  8.500000e+000  2.250000e+001
      vertex -1.190000e+001  0.000000e+000  2.250000e+001
    endloop
  endfacet
  facet normal  2.588186e-001  -0.000000e+000  9.659259e-001
    outer loop
      vertex -9.700000e+000  8.500000e+000  1.868949e+001
      vertex -7.500000e+000  0.000000e+000  1.810000e+001
      vertex -7.500000e+000  8.500000e+000  1.810000e+001
    endloop
  endfacet
  facet normal -2.588186e-001  0.000000e+000  9.659259e-001
    outer loop
      vertex -7.500000e+000  8.500000e+000  1.810000e+001
      vertex -7.500000e+000  0.000000e+000  1.810000e+001
      vertex -5.300000e+000  0.000000e+000  1.868949e+001
    endloop
  endfacet
  facet normal -2.588186e-001  0.000000e+000  9.659259e-001
    outer loop
      vertex -7.500000e+000  8.500000e+000  1.810000e+001
      vertex -5.300000e+000  0.000000e+000  1.868949e+001
      vertex -5.300000e+000  8.500000e+000  1.868949e+001
    endloop
  endfacet
  facet normal -7.071068e-001  0.000000e+000  7.071069e-001
    outer loop
      vertex -5.300000e+000  8.500000e+000  1.868949e+001
      vertex -5.300000e+000  0.000000e+000  1.868949e+001
      vertex -3.689488e+000  0.000000e+000  2.030000e+001
    endloop
  endfacet
  facet normal -7.071068e-001  0.000000e+000  7.071069e-001
    outer loop
      vertex -5.300000e+000  8.500000e+000  1.868949e+001
      vertex -3.689488e+000  0.000000e+000  2.030000e+001
      vertex -3.689488e+000  8.500000e+000  2.030000e+001
    endloop
  endfacet
  facet normal -9.659259e-001  0.000000e+000  2.588190e-001
    outer loop
      vertex -3.689488e+000  8.500000e+000  2.030000e+001
      vertex -3.689488e+000  0.000000e+000  2.030000e+001
      vertex -3.100000e+000  0.000000e+000  2.250000e+001
    endloop
  endfacet
  facet normal -9.659259e-001  0.000000e+000  2.588190e-001
    outer loop
      vertex -3.689488e+000  8.500000e+000  2.030000e+001
      vertex -3.100000e+000  0.000000e+000  2.250000e+001
      vertex -3.100000e+000  8.500000e+000  2.250000e+001
    endloop
  endfacet
  facet normal  0.000000e+000  0.000000e+000  1.000000e+000
    outer loop
      vertex -1.500000e+001  8.500000e+000  3.000000e+001
      vertex -1.500000e+001  0.000000e+000  3.000000e+001
      vertex -1.421085e-014  8.500000e+000  3.000000e+001
    endloop
  endfacet
  facet normal  0.000000e+000  0.000000e+000  1.000000e+000
    outer loop
      vertex -1.421085e-014  8.500000e+000  3.000000e+001
      vertex -1.500000e+001  0.000000e+000  3.000000e+001
      vertex -1.421085e-014  0.000000e+000  3.000000e+001
    endloop
  endfacet
  facet normal  0.000000e+000  0.000000e+000 -1.000000e+000
    outer loop
      vertex  0.000000e+000  8.500000e+000  0.000000e+000
      vertex  0.000000e+000  0.000000e+000  0.000000e+000
      vertex -1.500000e+001  8.500000e+000  0.000000e+000
    endloop
  endfacet
  facet normal  0.000000e+000  0.000000e+000 -1.000000e+000
    outer loop
      vertex -1.500000e+001  8.500000e+000  0.000000e+000
      vertex  0.000000e+000  0.000000e+000  0.000000e+000
      vertex -1.500000e+001  0.000000e+000  0.000000e+000
    endloop
  endfacet
endsolid CATIA STL
