solid CATIA STL
  facet normal  0.000000e+000  0.000000e+000 -1.000000e+000
    outer loop
      vertex -1.000000e+001  7.500000e+001  0.000000e+000
      vertex -1.996954e+000  1.132529e+001  0.000000e+000
      vertex -1.000000e+001  2.934280e+001  0.000000e+000
    endloop
  endfacet
  facet normal  0.000000e+000  0.000000e+000 -9.999999e-001
    outer loop
      vertex -2.180640e+001  2.203363e+001  0.000000e+000
      vertex -1.631772e+001  2.635777e+001  0.000000e+000
      vertex -2.618721e+001  1.659006e+001  0.000000e+000
    endloop
  endfacet
  facet normal  0.000000e+000  0.000000e+000 -1.000000e+000
    outer loop
      vertex -1.080647e+001 -3.933232e+000  0.000000e+000
      vertex -3.080250e+001 -3.493706e+000  0.000000e+000
      vertex -1.150000e+001  1.408297e-015  0.000000e+000
    endloop
  endfacet
  facet normal  0.000000e+000  0.000000e+000 -1.000000e+000
    outer loop
      vertex  1.996954e+000  1.132529e+001  0.000000e+000
      vertex -1.996954e+000  1.132529e+001  0.000000e+000
      vertex -1.000000e+001  7.500000e+001  0.000000e+000
    endloop
  endfacet
  facet normal  0.000000e+000  0.000000e+000 -1.000000e+000
    outer loop
      vertex  1.996954e+000  1.132529e+001  0.000000e+000
      vertex -1.000000e+001  7.500000e+001  0.000000e+000
      vertex  1.000000e+001  7.500000e+001  0.000000e+000
    endloop
  endfacet
  facet normal  0.000000e+000  -0.000000e+000 -1.000000e+000
    outer loop
      vertex  1.996954e+000  1.132529e+001  0.000000e+000
      vertex  1.000000e+001  7.500000e+001  0.000000e+000
      vertex  1.000000e+001  2.934280e+001  0.000000e+000
    endloop
  endfacet
  facet normal  0.000000e+000  -0.000000e+000 -1.000000e+000
    outer loop
      vertex  1.996954e+000  1.132529e+001  0.000000e+000
      vertex  1.000000e+001  2.934280e+001  0.000000e+000
      vertex  1.631772e+001  2.635777e+001  0.000000e+000
    endloop
  endfacet
  facet normal  0.000000e+000  -0.000000e+000 -1.000000e+000
    outer loop
      vertex  1.996954e+000  1.132529e+001  0.000000e+000
      vertex  1.631772e+001  2.635777e+001  0.000000e+000
      vertex  2.180640e+001  2.203363e+001  0.000000e+000
    endloop
  endfacet
  facet normal  0.000000e+000  -0.000000e+000 -1.000000e+000
    outer loop
      vertex  1.996954e+000  1.132529e+001  0.000000e+000
      vertex  2.180640e+001  2.203363e+001  0.000000e+000
      vertex  2.618721e+001  1.659006e+001  0.000000e+000
    endloop
  endfacet
  facet normal  0.000000e+000  -0.000000e+000 -1.000000e+000
    outer loop
      vertex  1.996954e+000  1.132529e+001  0.000000e+000
      vertex  2.618721e+001  1.659006e+001  0.000000e+000
      vertex  2.923757e+001  1.030362e+001  0.000000e+000
    endloop
  endfacet
  facet normal  -0.000000e+000  0.000000e+000 -1.000000e+000
    outer loop
      vertex  1.996954e+000  1.132529e+001  0.000000e+000
      vertex  2.923757e+001  1.030362e+001  0.000000e+000
      vertex  5.750000e+000  9.959292e+000  0.000000e+000
    endloop
  endfacet
  facet normal  0.000000e+000  -0.000000e+000 -1.000000e+000
    outer loop
      vertex -3.080250e+001  3.493706e+000  0.000000e+000
      vertex -2.923757e+001  1.030362e+001  0.000000e+000
      vertex -5.750000e+000  9.959292e+000  0.000000e+000
    endloop
  endfacet
  facet normal  0.000000e+000  0.000000e+000 -1.000000e+000
    outer loop
      vertex -3.080250e+001  3.493706e+000  0.000000e+000
      vertex -5.750000e+000  9.959292e+000  0.000000e+000
      vertex -8.809511e+000  7.392057e+000  0.000000e+000
    endloop
  endfacet
  facet normal  0.000000e+000  0.000000e+000 -1.000000e+000
    outer loop
      vertex -3.080250e+001  3.493706e+000  0.000000e+000
      vertex -8.809511e+000  7.392057e+000  0.000000e+000
      vertex -1.080647e+001  3.933232e+000  0.000000e+000
    endloop
  endfacet
  facet normal  0.000000e+000  0.000000e+000 -1.000000e+000
    outer loop
      vertex -3.080250e+001  3.493706e+000  0.000000e+000
      vertex -1.080647e+001  3.933232e+000  0.000000e+000
      vertex -1.150000e+001  1.408297e-015  0.000000e+000
    endloop
  endfacet
  facet normal  -0.000000e+000  0.000000e+000 -1.000000e+000
    outer loop
      vertex -3.080250e+001  3.493706e+000  0.000000e+000
      vertex -1.150000e+001  1.408297e-015  0.000000e+000
      vertex -3.080250e+001 -3.493706e+000  0.000000e+000
    endloop
  endfacet
  facet normal  0.000000e+000  0.000000e+000 -1.000000e+000
    outer loop
      vertex -2.923757e+001 -1.030362e+001  0.000000e+000
      vertex -3.080250e+001 -3.493706e+000  0.000000e+000
      vertex -1.080647e+001 -3.933232e+000  0.000000e+000
    endloop
  endfacet
  facet normal  0.000000e+000  -0.000000e+000 -9.999999e-001
    outer loop
      vertex -2.923757e+001 -1.030362e+001  0.000000e+000
      vertex -1.080647e+001 -3.933232e+000  0.000000e+000
      vertex -8.809511e+000 -7.392057e+000  0.000000e+000
    endloop
  endfacet
  facet normal  0.000000e+000  -0.000000e+000 -1.000000e+000
    outer loop
      vertex -2.923757e+001 -1.030362e+001  0.000000e+000
      vertex -8.809511e+000 -7.392057e+000  0.000000e+000
      vertex -5.750000e+000 -9.959292e+000  0.000000e+000
    endloop
  endfacet
  facet normal  0.000000e+000  -0.000000e+000 -1.000000e+000
    outer loop
      vertex -2.923757e+001 -1.030362e+001  0.000000e+000
      vertex -5.750000e+000 -9.959292e+000  0.000000e+000
      vertex -1.996954e+000 -1.132529e+001  0.000000e+000
    endloop
  endfacet
  facet normal  -0.000000e+000  0.000000e+000 -1.000000e+000
    outer loop
      vertex -2.923757e+001 -1.030362e+001  0.000000e+000
      vertex -1.996954e+000 -1.132529e+001  0.000000e+000
      vertex -2.618721e+001 -1.659006e+001  0.000000e+000
    endloop
  endfacet
  facet normal  0.000000e+000  0.000000e+000 -1.000000e+000
    outer loop
      vertex -2.618721e+001 -1.659006e+001  0.000000e+000
      vertex -1.996954e+000 -1.132529e+001  0.000000e+000
      vertex -1.000000e+001 -2.934280e+001  0.000000e+000
    endloop
  endfacet
  facet normal  0.000000e+000  0.000000e+000 -1.000000e+000
    outer loop
      vertex -1.000000e+001 -2.934280e+001  0.000000e+000
      vertex -1.996954e+000 -1.132529e+001  0.000000e+000
      vertex  1.996954e+000 -1.132529e+001  0.000000e+000
    endloop
  endfacet
  facet normal  0.000000e+000  0.000000e+000 -1.000000e+000
    outer loop
      vertex -1.000000e+001 -2.934280e+001  0.000000e+000
      vertex  1.996954e+000 -1.132529e+001  0.000000e+000
      vertex -1.000000e+001 -7.500000e+001  0.000000e+000
    endloop
  endfacet
  facet normal  0.000000e+000  0.000000e+000 -1.000000e+000
    outer loop
      vertex -1.000000e+001 -7.500000e+001  0.000000e+000
      vertex  1.996954e+000 -1.132529e+001  0.000000e+000
      vertex  1.000000e+001 -2.934280e+001  0.000000e+000
    endloop
  endfacet
  facet normal  0.000000e+000  -0.000000e+000 -1.000000e+000
    outer loop
      vertex -1.000000e+001 -7.500000e+001  0.000000e+000
      vertex  1.000000e+001 -2.934280e+001  0.000000e+000
      vertex  1.000000e+001 -7.500000e+001  0.000000e+000
    endloop
  endfacet
  facet normal  0.000000e+000  0.000000e+000 -1.000000e+000
    outer loop
      vertex -1.000000e+001  2.934280e+001  0.000000e+000
      vertex -1.996954e+000  1.132529e+001  0.000000e+000
      vertex -1.631772e+001  2.635777e+001  0.000000e+000
    endloop
  endfacet
  facet normal  0.000000e+000  -0.000000e+000 -9.999999e-001
    outer loop
      vertex -1.631772e+001  2.635777e+001  0.000000e+000
      vertex -1.996954e+000  1.132529e+001  0.000000e+000
      vertex -2.618721e+001  1.659006e+001  0.000000e+000
    endloop
  endfacet
  facet normal  0.000000e+000  0.000000e+000 -1.000000e+000
    outer loop
      vertex -1.996954e+000  1.132529e+001  0.000000e+000
      vertex -5.750000e+000  9.959292e+000  0.000000e+000
      vertex -2.618721e+001  1.659006e+001  0.000000e+000
    endloop
  endfacet
  facet normal  0.000000e+000  -0.000000e+000 -1.000000e+000
    outer loop
      vertex -2.618721e+001  1.659006e+001  0.000000e+000
      vertex -5.750000e+000  9.959292e+000  0.000000e+000
      vertex -2.923757e+001  1.030362e+001  0.000000e+000
    endloop
  endfacet
  facet normal  0.000000e+000  0.000000e+000 -9.999999e-001
    outer loop
      vertex -2.180640e+001 -2.203363e+001  0.000000e+000
      vertex -2.618721e+001 -1.659006e+001  0.000000e+000
      vertex -1.631772e+001 -2.635777e+001  0.000000e+000
    endloop
  endfacet
  facet normal  0.000000e+000  0.000000e+000 -1.000000e+000
    outer loop
      vertex -1.631772e+001 -2.635777e+001  0.000000e+000
      vertex -2.618721e+001 -1.659006e+001  0.000000e+000
      vertex -1.000000e+001 -2.934280e+001  0.000000e+000
    endloop
  endfacet
  facet normal  0.000000e+000  0.000000e+000 -1.000000e+000
    outer loop
      vertex  1.080647e+001  3.933232e+000  0.000000e+000
      vertex  8.809511e+000  7.392057e+000  0.000000e+000
      vertex  3.080250e+001  3.493706e+000  0.000000e+000
    endloop
  endfacet
  facet normal  0.000000e+000  0.000000e+000 -1.000000e+000
    outer loop
      vertex  3.080250e+001  3.493706e+000  0.000000e+000
      vertex  8.809511e+000  7.392057e+000  0.000000e+000
      vertex  5.750000e+000  9.959292e+000  0.000000e+000
    endloop
  endfacet
  facet normal  0.000000e+000  0.000000e+000 -1.000000e+000
    outer loop
      vertex  3.080250e+001  3.493706e+000  0.000000e+000
      vertex  5.750000e+000  9.959292e+000  0.000000e+000
      vertex  2.923757e+001  1.030362e+001  0.000000e+000
    endloop
  endfacet
  facet normal  0.000000e+000  -0.000000e+000 -1.000000e+000
    outer loop
      vertex  1.080647e+001 -3.933232e+000  0.000000e+000
      vertex  1.150000e+001  0.000000e+000  0.000000e+000
      vertex  3.080250e+001 -3.493706e+000  0.000000e+000
    endloop
  endfacet
  facet normal  0.000000e+000  0.000000e+000 -1.000000e+000
    outer loop
      vertex  3.080250e+001 -3.493706e+000  0.000000e+000
      vertex  1.150000e+001  0.000000e+000  0.000000e+000
      vertex  1.080647e+001  3.933232e+000  0.000000e+000
    endloop
  endfacet
  facet normal  0.000000e+000  0.000000e+000 -1.000000e+000
    outer loop
      vertex  3.080250e+001 -3.493706e+000  0.000000e+000
      vertex  1.080647e+001  3.933232e+000  0.000000e+000
      vertex  3.080250e+001  3.493706e+000  0.000000e+000
    endloop
  endfacet
  facet normal  0.000000e+000  -0.000000e+000 -1.000000e+000
    outer loop
      vertex  5.750000e+000 -9.959292e+000  0.000000e+000
      vertex  8.809511e+000 -7.392057e+000  0.000000e+000
      vertex  2.923757e+001 -1.030362e+001  0.000000e+000
    endloop
  endfacet
  facet normal  0.000000e+000  0.000000e+000 -1.000000e+000
    outer loop
      vertex  2.923757e+001 -1.030362e+001  0.000000e+000
      vertex  8.809511e+000 -7.392057e+000  0.000000e+000
      vertex  1.080647e+001 -3.933232e+000  0.000000e+000
    endloop
  endfacet
  facet normal  0.000000e+000  0.000000e+000 -1.000000e+000
    outer loop
      vertex  2.923757e+001 -1.030362e+001  0.000000e+000
      vertex  1.080647e+001 -3.933232e+000  0.000000e+000
      vertex  3.080250e+001 -3.493706e+000  0.000000e+000
    endloop
  endfacet
  facet normal  -0.000000e+000  0.000000e+000 -1.000000e+000
    outer loop
      vertex  1.996954e+000 -1.132529e+001  0.000000e+000
      vertex  2.618721e+001 -1.659006e+001  0.000000e+000
      vertex  1.000000e+001 -2.934280e+001  0.000000e+000
    endloop
  endfacet
  facet normal  0.000000e+000  0.000000e+000 -1.000000e+000
    outer loop
      vertex  1.000000e+001 -2.934280e+001  0.000000e+000
      vertex  2.618721e+001 -1.659006e+001  0.000000e+000
      vertex  2.180640e+001 -2.203363e+001  0.000000e+000
    endloop
  endfacet
  facet normal  0.000000e+000  0.000000e+000 -1.000000e+000
    outer loop
      vertex  1.000000e+001 -2.934280e+001  0.000000e+000
      vertex  2.180640e+001 -2.203363e+001  0.000000e+000
      vertex  1.631772e+001 -2.635777e+001  0.000000e+000
    endloop
  endfacet
  facet normal  0.000000e+000  -0.000000e+000 -1.000000e+000
    outer loop
      vertex  1.996954e+000 -1.132529e+001  0.000000e+000
      vertex  5.750000e+000 -9.959292e+000  0.000000e+000
      vertex  2.618721e+001 -1.659006e+001  0.000000e+000
    endloop
  endfacet
  facet normal  0.000000e+000  0.000000e+000 -1.000000e+000
    outer loop
      vertex  2.618721e+001 -1.659006e+001  0.000000e+000
      vertex  5.750000e+000 -9.959292e+000  0.000000e+000
      vertex  2.923757e+001 -1.030362e+001  0.000000e+000
    endloop
  endfacet
  facet normal  0.000000e+000  -0.000000e+000  1.000000e+000
    outer loop
      vertex  1.000000e+001 -2.722132e+001  1.000000e+001
      vertex  1.573820e+001 -2.435793e+001  1.000000e+001
      vertex  2.070679e+001 -2.030342e+001  1.000000e+001
    endloop
  endfacet
  facet normal  0.000000e+000  -0.000000e+000  1.000000e+000
    outer loop
      vertex  1.000000e+001 -2.722132e+001  1.000000e+001
      vertex  2.070679e+001 -2.030342e+001  1.000000e+001
      vertex  2.466279e+001 -1.525604e+001  1.000000e+001
    endloop
  endfacet
  facet normal  0.000000e+000  0.000000e+000  1.000000e+000
    outer loop
      vertex  1.000000e+001 -2.722132e+001  1.000000e+001
      vertex  2.466279e+001 -1.525604e+001  1.000000e+001
      vertex  1.996954e+000 -1.132529e+001  1.000000e+001
    endloop
  endfacet
  facet normal  0.000000e+000  0.000000e+000  1.000000e+000
    outer loop
      vertex  1.000000e+001 -2.722132e+001  1.000000e+001
      vertex  1.996954e+000 -1.132529e+001  1.000000e+001
      vertex  1.000000e+001 -2.934280e+001  1.000000e+001
    endloop
  endfacet
  facet normal  0.000000e+000  0.000000e+000  1.000000e+000
    outer loop
      vertex -1.000000e+001 -2.722132e+001  1.000000e+001
      vertex -1.000000e+001 -2.934280e+001  1.000000e+001
      vertex -1.996954e+000 -1.132529e+001  1.000000e+001
    endloop
  endfacet
  facet normal  0.000000e+000  0.000000e+000  1.000000e+000
    outer loop
      vertex -1.000000e+001 -2.722132e+001  1.000000e+001
      vertex -1.996954e+000 -1.132529e+001  1.000000e+001
      vertex -2.466279e+001 -1.525604e+001  1.000000e+001
    endloop
  endfacet
  facet normal  0.000000e+000  0.000000e+000  1.000000e+000
    outer loop
      vertex -1.000000e+001 -2.722132e+001  1.000000e+001
      vertex -2.466279e+001 -1.525604e+001  1.000000e+001
      vertex -2.070679e+001 -2.030342e+001  1.000000e+001
    endloop
  endfacet
  facet normal  0.000000e+000  0.000000e+000  1.000000e+000
    outer loop
      vertex -1.000000e+001 -2.722132e+001  1.000000e+001
      vertex -2.070679e+001 -2.030342e+001  1.000000e+001
      vertex -1.573820e+001 -2.435793e+001  1.000000e+001
    endloop
  endfacet
  facet normal  0.000000e+000  -0.000000e+000  1.000000e+000
    outer loop
      vertex -1.996954e+000  1.132529e+001  1.000000e+001
      vertex  1.996954e+000  1.132529e+001  1.000000e+001
      vertex  1.000000e+001  7.500000e+001  1.000000e+001
    endloop
  endfacet
  facet normal  0.000000e+000  0.000000e+000  1.000000e+000
    outer loop
      vertex -1.996954e+000  1.132529e+001  1.000000e+001
      vertex  1.000000e+001  7.500000e+001  1.000000e+001
      vertex -1.000000e+001  7.500000e+001  1.000000e+001
    endloop
  endfacet
  facet normal  0.000000e+000  0.000000e+000  1.000000e+000
    outer loop
      vertex -1.996954e+000  1.132529e+001  1.000000e+001
      vertex -1.000000e+001  7.500000e+001  1.000000e+001
      vertex -1.000000e+001  2.934280e+001  1.000000e+001
    endloop
  endfacet
  facet normal  0.000000e+000  0.000000e+000  1.000000e+000
    outer loop
      vertex -1.996954e+000  1.132529e+001  1.000000e+001
      vertex -1.000000e+001  2.934280e+001  1.000000e+001
      vertex -1.000000e+001  2.722132e+001  1.000000e+001
    endloop
  endfacet
  facet normal  0.000000e+000  0.000000e+000  1.000000e+000
    outer loop
      vertex -1.996954e+000  1.132529e+001  1.000000e+001
      vertex -1.000000e+001  2.722132e+001  1.000000e+001
      vertex -2.466279e+001  1.525604e+001  1.000000e+001
    endloop
  endfacet
  facet normal  0.000000e+000  0.000000e+000  1.000000e+000
    outer loop
      vertex -1.996954e+000  1.132529e+001  1.000000e+001
      vertex -2.466279e+001  1.525604e+001  1.000000e+001
      vertex -2.741275e+001  9.462626e+000  1.000000e+001
    endloop
  endfacet
  facet normal  0.000000e+000  0.000000e+000  1.000000e+000
    outer loop
      vertex -1.996954e+000  1.132529e+001  1.000000e+001
      vertex -2.741275e+001  9.462626e+000  1.000000e+001
      vertex -5.750000e+000  9.959292e+000  1.000000e+001
    endloop
  endfacet
  facet normal  -0.000000e+000  -0.000000e+000  1.000000e+000
    outer loop
      vertex  1.996954e+000  1.132529e+001  1.000000e+001
      vertex  5.750000e+000  9.959292e+000  1.000000e+001
      vertex  2.741275e+001  9.462626e+000  1.000000e+001
    endloop
  endfacet
  facet normal  0.000000e+000  0.000000e+000  1.000000e+000
    outer loop
      vertex  1.996954e+000  1.132529e+001  1.000000e+001
      vertex  2.741275e+001  9.462626e+000  1.000000e+001
      vertex  2.466279e+001  1.525604e+001  1.000000e+001
    endloop
  endfacet
  facet normal  0.000000e+000  0.000000e+000  1.000000e+000
    outer loop
      vertex  1.996954e+000  1.132529e+001  1.000000e+001
      vertex  2.466279e+001  1.525604e+001  1.000000e+001
      vertex  2.070679e+001  2.030342e+001  1.000000e+001
    endloop
  endfacet
  facet normal  0.000000e+000  0.000000e+000  1.000000e+000
    outer loop
      vertex  1.996954e+000  1.132529e+001  1.000000e+001
      vertex  2.070679e+001  2.030342e+001  1.000000e+001
      vertex  1.573820e+001  2.435793e+001  1.000000e+001
    endloop
  endfacet
  facet normal  0.000000e+000  0.000000e+000  9.999999e-001
    outer loop
      vertex  1.996954e+000  1.132529e+001  1.000000e+001
      vertex  1.573820e+001  2.435793e+001  1.000000e+001
      vertex  1.000000e+001  2.722132e+001  1.000000e+001
    endloop
  endfacet
  facet normal  0.000000e+000  -0.000000e+000  1.000000e+000
    outer loop
      vertex  1.996954e+000  1.132529e+001  1.000000e+001
      vertex  1.000000e+001  2.722132e+001  1.000000e+001
      vertex  1.000000e+001  2.934280e+001  1.000000e+001
    endloop
  endfacet
  facet normal  0.000000e+000  -0.000000e+000  1.000000e+000
    outer loop
      vertex  1.996954e+000  1.132529e+001  1.000000e+001
      vertex  1.000000e+001  2.934280e+001  1.000000e+001
      vertex  1.000000e+001  7.500000e+001  1.000000e+001
    endloop
  endfacet
  facet normal  0.000000e+000  0.000000e+000  1.000000e+000
    outer loop
      vertex -2.466279e+001 -1.525604e+001  1.000000e+001
      vertex -1.996954e+000 -1.132529e+001  1.000000e+001
      vertex -2.741275e+001 -9.462626e+000  1.000000e+001
    endloop
  endfacet
  facet normal  0.000000e+000  0.000000e+000  1.000000e+000
    outer loop
      vertex -2.741275e+001 -9.462626e+000  1.000000e+001
      vertex -1.996954e+000 -1.132529e+001  1.000000e+001
      vertex -5.750000e+000 -9.959292e+000  1.000000e+001
    endloop
  endfacet
  facet normal  0.000000e+000  0.000000e+000  1.000000e+000
    outer loop
      vertex -2.741275e+001 -9.462626e+000  1.000000e+001
      vertex -5.750000e+000 -9.959292e+000  1.000000e+001
      vertex -8.809511e+000 -7.392057e+000  1.000000e+001
    endloop
  endfacet
  facet normal  0.000000e+000  0.000000e+000  1.000000e+000
    outer loop
      vertex  1.000000e+001 -7.500000e+001  1.000000e+001
      vertex  1.000000e+001 -2.934280e+001  1.000000e+001
      vertex -1.000000e+001 -7.500000e+001  1.000000e+001
    endloop
  endfacet
  facet normal  0.000000e+000  0.000000e+000  1.000000e+000
    outer loop
      vertex -1.000000e+001 -7.500000e+001  1.000000e+001
      vertex  1.000000e+001 -2.934280e+001  1.000000e+001
      vertex  1.996954e+000 -1.132529e+001  1.000000e+001
    endloop
  endfacet
  facet normal  0.000000e+000  0.000000e+000  1.000000e+000
    outer loop
      vertex -1.000000e+001 -7.500000e+001  1.000000e+001
      vertex  1.996954e+000 -1.132529e+001  1.000000e+001
      vertex -1.000000e+001 -2.934280e+001  1.000000e+001
    endloop
  endfacet
  facet normal  0.000000e+000  0.000000e+000  1.000000e+000
    outer loop
      vertex -1.000000e+001 -2.934280e+001  1.000000e+001
      vertex  1.996954e+000 -1.132529e+001  1.000000e+001
      vertex -1.996954e+000 -1.132529e+001  1.000000e+001
    endloop
  endfacet
  facet normal  0.000000e+000  0.000000e+000  1.000000e+000
    outer loop
      vertex -1.573820e+001  2.435793e+001  1.000000e+001
      vertex -2.070679e+001  2.030342e+001  1.000000e+001
      vertex -1.000000e+001  2.722132e+001  1.000000e+001
    endloop
  endfacet
  facet normal  0.000000e+000  0.000000e+000  1.000000e+000
    outer loop
      vertex -1.000000e+001  2.722132e+001  1.000000e+001
      vertex -2.070679e+001  2.030342e+001  1.000000e+001
      vertex -2.466279e+001  1.525604e+001  1.000000e+001
    endloop
  endfacet
  facet normal  -0.000000e+000  0.000000e+000  1.000000e+000
    outer loop
      vertex -5.750000e+000  9.959292e+000  1.000000e+001
      vertex -2.741275e+001  9.462626e+000  1.000000e+001
      vertex -8.809511e+000  7.392057e+000  1.000000e+001
    endloop
  endfacet
  facet normal  0.000000e+000  0.000000e+000  1.000000e+000
    outer loop
      vertex -8.809511e+000  7.392057e+000  1.000000e+001
      vertex -2.741275e+001  9.462626e+000  1.000000e+001
      vertex -2.882219e+001  3.206475e+000  1.000000e+001
    endloop
  endfacet
  facet normal  0.000000e+000  0.000000e+000  1.000000e+000
    outer loop
      vertex -8.809511e+000  7.392057e+000  1.000000e+001
      vertex -2.882219e+001  3.206475e+000  1.000000e+001
      vertex -1.080647e+001  3.933232e+000  1.000000e+001
    endloop
  endfacet
  facet normal  -0.000000e+000  0.000000e+000  1.000000e+000
    outer loop
      vertex -1.080647e+001  3.933232e+000  1.000000e+001
      vertex -2.882219e+001  3.206475e+000  1.000000e+001
      vertex -1.150000e+001  1.408297e-015  1.000000e+001
    endloop
  endfacet
  facet normal  0.000000e+000  0.000000e+000  1.000000e+000
    outer loop
      vertex -1.150000e+001  1.408297e-015  1.000000e+001
      vertex -2.882219e+001  3.206475e+000  1.000000e+001
      vertex -2.882219e+001 -3.206475e+000  1.000000e+001
    endloop
  endfacet
  facet normal  -0.000000e+000  0.000000e+000  1.000000e+000
    outer loop
      vertex -1.150000e+001  1.408297e-015  1.000000e+001
      vertex -2.882219e+001 -3.206475e+000  1.000000e+001
      vertex -1.080647e+001 -3.933232e+000  1.000000e+001
    endloop
  endfacet
  facet normal  0.000000e+000  0.000000e+000  1.000000e+000
    outer loop
      vertex -2.741275e+001 -9.462626e+000  1.000000e+001
      vertex -8.809511e+000 -7.392057e+000  1.000000e+001
      vertex -2.882219e+001 -3.206475e+000  1.000000e+001
    endloop
  endfacet
  facet normal  0.000000e+000  0.000000e+000  1.000000e+000
    outer loop
      vertex -2.882219e+001 -3.206475e+000  1.000000e+001
      vertex -8.809511e+000 -7.392057e+000  1.000000e+001
      vertex -1.080647e+001 -3.933232e+000  1.000000e+001
    endloop
  endfacet
  facet normal  0.000000e+000  0.000000e+000  1.000000e+000
    outer loop
      vertex  2.741275e+001  9.462626e+000  1.000000e+001
      vertex  5.750000e+000  9.959292e+000  1.000000e+001
      vertex  2.882219e+001  3.206475e+000  1.000000e+001
    endloop
  endfacet
  facet normal  0.000000e+000  0.000000e+000  1.000000e+000
    outer loop
      vertex  2.882219e+001  3.206475e+000  1.000000e+001
      vertex  5.750000e+000  9.959292e+000  1.000000e+001
      vertex  8.809511e+000  7.392057e+000  1.000000e+001
    endloop
  endfacet
  facet normal  0.000000e+000  0.000000e+000  9.999999e-001
    outer loop
      vertex  2.882219e+001  3.206475e+000  1.000000e+001
      vertex  8.809511e+000  7.392057e+000  1.000000e+001
      vertex  1.080647e+001  3.933232e+000  1.000000e+001
    endloop
  endfacet
  facet normal  0.000000e+000  0.000000e+000  1.000000e+000
    outer loop
      vertex  2.882219e+001  3.206475e+000  1.000000e+001
      vertex  1.080647e+001  3.933232e+000  1.000000e+001
      vertex  2.882219e+001 -3.206475e+000  1.000000e+001
    endloop
  endfacet
  facet normal  0.000000e+000  0.000000e+000  1.000000e+000
    outer loop
      vertex  2.882219e+001 -3.206475e+000  1.000000e+001
      vertex  1.080647e+001  3.933232e+000  1.000000e+001
      vertex  1.150000e+001  0.000000e+000  1.000000e+001
    endloop
  endfacet
  facet normal  0.000000e+000  0.000000e+000  1.000000e+000
    outer loop
      vertex  2.882219e+001 -3.206475e+000  1.000000e+001
      vertex  1.150000e+001  0.000000e+000  1.000000e+001
      vertex  1.080647e+001 -3.933232e+000  1.000000e+001
    endloop
  endfacet
  facet normal  -0.000000e+000  0.000000e+000  1.000000e+000
    outer loop
      vertex  2.882219e+001 -3.206475e+000  1.000000e+001
      vertex  1.080647e+001 -3.933232e+000  1.000000e+001
      vertex  2.741275e+001 -9.462626e+000  1.000000e+001
    endloop
  endfacet
  facet normal  0.000000e+000  0.000000e+000  1.000000e+000
    outer loop
      vertex  2.741275e+001 -9.462626e+000  1.000000e+001
      vertex  1.080647e+001 -3.933232e+000  1.000000e+001
      vertex  8.809511e+000 -7.392057e+000  1.000000e+001
    endloop
  endfacet
  facet normal  0.000000e+000  0.000000e+000  1.000000e+000
    outer loop
      vertex  2.741275e+001 -9.462626e+000  1.000000e+001
      vertex  8.809511e+000 -7.392057e+000  1.000000e+001
      vertex  5.750000e+000 -9.959292e+000  1.000000e+001
    endloop
  endfacet
  facet normal  0.000000e+000  0.000000e+000  1.000000e+000
    outer loop
      vertex  5.750000e+000 -9.959292e+000  1.000000e+001
      vertex  1.996954e+000 -1.132529e+001  1.000000e+001
      vertex  2.741275e+001 -9.462626e+000  1.000000e+001
    endloop
  endfacet
  facet normal  0.000000e+000  0.000000e+000  1.000000e+000
    outer loop
      vertex  2.741275e+001 -9.462626e+000  1.000000e+001
      vertex  1.996954e+000 -1.132529e+001  1.000000e+001
      vertex  2.466279e+001 -1.525604e+001  1.000000e+001
    endloop
  endfacet
  facet normal -3.420200e-001  9.396927e-001  0.000000e+000
    outer loop
      vertex  1.996954e+000 -1.132529e+001  0.000000e+000
      vertex  5.750000e+000 -9.959292e+000  1.000000e+001
      vertex  5.750000e+000 -9.959292e+000  0.000000e+000
    endloop
  endfacet
  facet normal -6.427876e-001  7.660444e-001  0.000000e+000
    outer loop
      vertex  5.750000e+000 -9.959292e+000  0.000000e+000
      vertex  5.750000e+000 -9.959292e+000  1.000000e+001
      vertex  8.809511e+000 -7.392057e+000  1.000000e+001
    endloop
  endfacet
  facet normal -6.427876e-001  7.660444e-001  0.000000e+000
    outer loop
      vertex  5.750000e+000 -9.959292e+000  0.000000e+000
      vertex  8.809511e+000 -7.392057e+000  1.000000e+001
      vertex  8.809511e+000 -7.392057e+000  0.000000e+000
    endloop
  endfacet
  facet normal -8.660254e-001  5.000000e-001  0.000000e+000
    outer loop
      vertex  8.809511e+000 -7.392057e+000  0.000000e+000
      vertex  8.809511e+000 -7.392057e+000  1.000000e+001
      vertex  1.080647e+001 -3.933232e+000  1.000000e+001
    endloop
  endfacet
  facet normal -8.660254e-001  5.000000e-001  0.000000e+000
    outer loop
      vertex  8.809511e+000 -7.392057e+000  0.000000e+000
      vertex  1.080647e+001 -3.933232e+000  1.000000e+001
      vertex  1.080647e+001 -3.933232e+000  0.000000e+000
    endloop
  endfacet
  facet normal -9.848077e-001  1.736482e-001  0.000000e+000
    outer loop
      vertex  1.080647e+001 -3.933232e+000  0.000000e+000
      vertex  1.080647e+001 -3.933232e+000  1.000000e+001
      vertex  1.150000e+001  0.000000e+000  1.000000e+001
    endloop
  endfacet
  facet normal -9.848077e-001  1.736482e-001  0.000000e+000
    outer loop
      vertex  1.080647e+001 -3.933232e+000  0.000000e+000
      vertex  1.150000e+001  0.000000e+000  1.000000e+001
      vertex  1.150000e+001  0.000000e+000  0.000000e+000
    endloop
  endfacet
  facet normal -3.420200e-001  9.396927e-001  0.000000e+000
    outer loop
      vertex  5.750000e+000 -9.959292e+000  1.000000e+001
      vertex  1.996954e+000 -1.132529e+001  0.000000e+000
      vertex  1.996954e+000 -1.132529e+001  1.000000e+001
    endloop
  endfacet
  facet normal  0.000000e+000  1.000000e+000  0.000000e+000
    outer loop
      vertex  1.996954e+000 -1.132529e+001  1.000000e+001
      vertex  1.996954e+000 -1.132529e+001  0.000000e+000
      vertex -1.996954e+000 -1.132529e+001  0.000000e+000
    endloop
  endfacet
  facet normal  0.000000e+000  1.000000e+000  0.000000e+000
    outer loop
      vertex  1.996954e+000 -1.132529e+001  1.000000e+001
      vertex -1.996954e+000 -1.132529e+001  0.000000e+000
      vertex -1.996954e+000 -1.132529e+001  1.000000e+001
    endloop
  endfacet
  facet normal  3.420200e-001  9.396927e-001  0.000000e+000
    outer loop
      vertex -1.996954e+000 -1.132529e+001  1.000000e+001
      vertex -1.996954e+000 -1.132529e+001  0.000000e+000
      vertex -5.750000e+000 -9.959292e+000  0.000000e+000
    endloop
  endfacet
  facet normal  3.420200e-001  9.396927e-001  -0.000000e+000
    outer loop
      vertex -1.996954e+000 -1.132529e+001  1.000000e+001
      vertex -5.750000e+000 -9.959292e+000  0.000000e+000
      vertex -5.750000e+000 -9.959292e+000  1.000000e+001
    endloop
  endfacet
  facet normal  6.427876e-001  7.660444e-001  0.000000e+000
    outer loop
      vertex -5.750000e+000 -9.959292e+000  1.000000e+001
      vertex -5.750000e+000 -9.959292e+000  0.000000e+000
      vertex -8.809511e+000 -7.392057e+000  0.000000e+000
    endloop
  endfacet
  facet normal  6.427876e-001  7.660444e-001  -0.000000e+000
    outer loop
      vertex -5.750000e+000 -9.959292e+000  1.000000e+001
      vertex -8.809511e+000 -7.392057e+000  0.000000e+000
      vertex -8.809511e+000 -7.392057e+000  1.000000e+001
    endloop
  endfacet
  facet normal  8.660254e-001  5.000000e-001  0.000000e+000
    outer loop
      vertex -8.809511e+000 -7.392057e+000  1.000000e+001
      vertex -8.809511e+000 -7.392057e+000  0.000000e+000
      vertex -1.080647e+001 -3.933232e+000  0.000000e+000
    endloop
  endfacet
  facet normal  8.660254e-001  5.000000e-001  -0.000000e+000
    outer loop
      vertex -8.809511e+000 -7.392057e+000  1.000000e+001
      vertex -1.080647e+001 -3.933232e+000  0.000000e+000
      vertex -1.080647e+001 -3.933232e+000  1.000000e+001
    endloop
  endfacet
  facet normal  9.848077e-001  1.736482e-001  0.000000e+000
    outer loop
      vertex -1.080647e+001 -3.933232e+000  1.000000e+001
      vertex -1.080647e+001 -3.933232e+000  0.000000e+000
      vertex -1.150000e+001  1.408297e-015  0.000000e+000
    endloop
  endfacet
  facet normal  9.848077e-001  1.736482e-001  -0.000000e+000
    outer loop
      vertex -1.080647e+001 -3.933232e+000  1.000000e+001
      vertex -1.150000e+001  1.408297e-015  0.000000e+000
      vertex -1.150000e+001  1.408297e-015  1.000000e+001
    endloop
  endfacet
  facet normal  3.420200e-001 -9.396927e-001  0.000000e+000
    outer loop
      vertex -1.996954e+000  1.132529e+001  0.000000e+000
      vertex -5.750000e+000  9.959292e+000  1.000000e+001
      vertex -5.750000e+000  9.959292e+000  0.000000e+000
    endloop
  endfacet
  facet normal  6.427876e-001 -7.660444e-001  0.000000e+000
    outer loop
      vertex -5.750000e+000  9.959292e+000  0.000000e+000
      vertex -5.750000e+000  9.959292e+000  1.000000e+001
      vertex -8.809511e+000  7.392057e+000  1.000000e+001
    endloop
  endfacet
  facet normal  6.427876e-001 -7.660444e-001  0.000000e+000
    outer loop
      vertex -5.750000e+000  9.959292e+000  0.000000e+000
      vertex -8.809511e+000  7.392057e+000  1.000000e+001
      vertex -8.809511e+000  7.392057e+000  0.000000e+000
    endloop
  endfacet
  facet normal  8.660254e-001 -5.000000e-001  0.000000e+000
    outer loop
      vertex -8.809511e+000  7.392057e+000  0.000000e+000
      vertex -8.809511e+000  7.392057e+000  1.000000e+001
      vertex -1.080647e+001  3.933232e+000  1.000000e+001
    endloop
  endfacet
  facet normal  8.660254e-001 -5.000000e-001  0.000000e+000
    outer loop
      vertex -8.809511e+000  7.392057e+000  0.000000e+000
      vertex -1.080647e+001  3.933232e+000  1.000000e+001
      vertex -1.080647e+001  3.933232e+000  0.000000e+000
    endloop
  endfacet
  facet normal  9.848077e-001 -1.736482e-001  0.000000e+000
    outer loop
      vertex -1.080647e+001  3.933232e+000  0.000000e+000
      vertex -1.080647e+001  3.933232e+000  1.000000e+001
      vertex -1.150000e+001  1.408297e-015  1.000000e+001
    endloop
  endfacet
  facet normal  9.848077e-001 -1.736482e-001  0.000000e+000
    outer loop
      vertex -1.080647e+001  3.933232e+000  0.000000e+000
      vertex -1.150000e+001  1.408297e-015  1.000000e+001
      vertex -1.150000e+001  1.408297e-015  0.000000e+000
    endloop
  endfacet
  facet normal  3.420200e-001 -9.396927e-001  0.000000e+000
    outer loop
      vertex -5.750000e+000  9.959292e+000  1.000000e+001
      vertex -1.996954e+000  1.132529e+001  0.000000e+000
      vertex -1.996954e+000  1.132529e+001  1.000000e+001
    endloop
  endfacet
  facet normal  0.000000e+000 -1.000000e+000  0.000000e+000
    outer loop
      vertex -1.996954e+000  1.132529e+001  1.000000e+001
      vertex -1.996954e+000  1.132529e+001  0.000000e+000
      vertex  1.996954e+000  1.132529e+001  0.000000e+000
    endloop
  endfacet
  facet normal  0.000000e+000 -1.000000e+000  0.000000e+000
    outer loop
      vertex -1.996954e+000  1.132529e+001  1.000000e+001
      vertex  1.996954e+000  1.132529e+001  0.000000e+000
      vertex  1.996954e+000  1.132529e+001  1.000000e+001
    endloop
  endfacet
  facet normal -3.420200e-001 -9.396927e-001  -0.000000e+000
    outer loop
      vertex  1.996954e+000  1.132529e+001  1.000000e+001
      vertex  1.996954e+000  1.132529e+001  0.000000e+000
      vertex  5.750000e+000  9.959292e+000  0.000000e+000
    endloop
  endfacet
  facet normal -3.420200e-001 -9.396927e-001  0.000000e+000
    outer loop
      vertex  1.996954e+000  1.132529e+001  1.000000e+001
      vertex  5.750000e+000  9.959292e+000  0.000000e+000
      vertex  5.750000e+000  9.959292e+000  1.000000e+001
    endloop
  endfacet
  facet normal -6.427876e-001 -7.660444e-001  -0.000000e+000
    outer loop
      vertex  5.750000e+000  9.959292e+000  1.000000e+001
      vertex  5.750000e+000  9.959292e+000  0.000000e+000
      vertex  8.809511e+000  7.392057e+000  0.000000e+000
    endloop
  endfacet
  facet normal -6.427876e-001 -7.660444e-001  0.000000e+000
    outer loop
      vertex  5.750000e+000  9.959292e+000  1.000000e+001
      vertex  8.809511e+000  7.392057e+000  0.000000e+000
      vertex  8.809511e+000  7.392057e+000  1.000000e+001
    endloop
  endfacet
  facet normal -8.660254e-001 -5.000000e-001  -0.000000e+000
    outer loop
      vertex  8.809511e+000  7.392057e+000  1.000000e+001
      vertex  8.809511e+000  7.392057e+000  0.000000e+000
      vertex  1.080647e+001  3.933232e+000  0.000000e+000
    endloop
  endfacet
  facet normal -8.660254e-001 -5.000000e-001  0.000000e+000
    outer loop
      vertex  8.809511e+000  7.392057e+000  1.000000e+001
      vertex  1.080647e+001  3.933232e+000  0.000000e+000
      vertex  1.080647e+001  3.933232e+000  1.000000e+001
    endloop
  endfacet
  facet normal -9.848077e-001 -1.736482e-001  -0.000000e+000
    outer loop
      vertex  1.080647e+001  3.933232e+000  1.000000e+001
      vertex  1.080647e+001  3.933232e+000  0.000000e+000
      vertex  1.150000e+001  0.000000e+000  0.000000e+000
    endloop
  endfacet
  facet normal -9.848077e-001 -1.736482e-001  0.000000e+000
    outer loop
      vertex  1.080647e+001  3.933232e+000  1.000000e+001
      vertex  1.150000e+001  0.000000e+000  0.000000e+000
      vertex  1.150000e+001  0.000000e+000  1.000000e+001
    endloop
  endfacet
  facet normal -1.000000e+000  0.000000e+000  0.000000e+000
    outer loop
      vertex -1.000000e+001 -2.934280e+001  1.000000e+001
      vertex -1.000000e+001 -2.934280e+001  0.000000e+000
      vertex -1.000000e+001 -7.500000e+001  1.000000e+001
    endloop
  endfacet
  facet normal -1.000000e+000  0.000000e+000  0.000000e+000
    outer loop
      vertex -1.000000e+001 -7.500000e+001  1.000000e+001
      vertex -1.000000e+001 -2.934280e+001  0.000000e+000
      vertex -1.000000e+001 -7.500000e+001  0.000000e+000
    endloop
  endfacet
  facet normal  0.000000e+000 -1.000000e+000  -0.000000e+000
    outer loop
      vertex  1.000000e+001 -7.500000e+001  0.000000e+000
      vertex  1.000000e+001 -7.500000e+001  1.000000e+001
      vertex -1.000000e+001 -7.500000e+001  0.000000e+000
    endloop
  endfacet
  facet normal  0.000000e+000 -1.000000e+000  0.000000e+000
    outer loop
      vertex -1.000000e+001 -7.500000e+001  0.000000e+000
      vertex  1.000000e+001 -7.500000e+001  1.000000e+001
      vertex -1.000000e+001 -7.500000e+001  1.000000e+001
    endloop
  endfacet
  facet normal  1.000000e+000  0.000000e+000  0.000000e+000
    outer loop
      vertex  1.000000e+001 -7.500000e+001  1.000000e+001
      vertex  1.000000e+001 -7.500000e+001  0.000000e+000
      vertex  1.000000e+001 -2.934280e+001  1.000000e+001
    endloop
  endfacet
  facet normal  1.000000e+000  0.000000e+000  0.000000e+000
    outer loop
      vertex  1.000000e+001 -2.934280e+001  1.000000e+001
      vertex  1.000000e+001 -7.500000e+001  0.000000e+000
      vertex  1.000000e+001 -2.934280e+001  0.000000e+000
    endloop
  endfacet
  facet normal  1.000000e+000  0.000000e+000  0.000000e+000
    outer loop
      vertex  1.000000e+001  2.934280e+001  1.000000e+001
      vertex  1.000000e+001  2.934280e+001  0.000000e+000
      vertex  1.000000e+001  7.500000e+001  1.000000e+001
    endloop
  endfacet
  facet normal  1.000000e+000  0.000000e+000  0.000000e+000
    outer loop
      vertex  1.000000e+001  7.500000e+001  1.000000e+001
      vertex  1.000000e+001  2.934280e+001  0.000000e+000
      vertex  1.000000e+001  7.500000e+001  0.000000e+000
    endloop
  endfacet
  facet normal  0.000000e+000  1.000000e+000  0.000000e+000
    outer loop
      vertex -1.000000e+001  7.500000e+001  0.000000e+000
      vertex -1.000000e+001  7.500000e+001  1.000000e+001
      vertex  1.000000e+001  7.500000e+001  0.000000e+000
    endloop
  endfacet
  facet normal  0.000000e+000  1.000000e+000  -0.000000e+000
    outer loop
      vertex  1.000000e+001  7.500000e+001  0.000000e+000
      vertex -1.000000e+001  7.500000e+001  1.000000e+001
      vertex  1.000000e+001  7.500000e+001  1.000000e+001
    endloop
  endfacet
  facet normal -1.000000e+000  0.000000e+000  0.000000e+000
    outer loop
      vertex -1.000000e+001  7.500000e+001  1.000000e+001
      vertex -1.000000e+001  7.500000e+001  0.000000e+000
      vertex -1.000000e+001  2.934280e+001  1.000000e+001
    endloop
  endfacet
  facet normal -1.000000e+000  0.000000e+000  0.000000e+000
    outer loop
      vertex -1.000000e+001  2.934280e+001  1.000000e+001
      vertex -1.000000e+001  7.500000e+001  0.000000e+000
      vertex -1.000000e+001  2.934280e+001  0.000000e+000
    endloop
  endfacet
  facet normal  0.000000e+000  0.000000e+000  1.000000e+000
    outer loop
      vertex  1.000000e+001 -2.722132e+001  5.000000e+001
      vertex  1.000000e+001 -2.934280e+001  5.000000e+001
      vertex  1.573820e+001 -2.435793e+001  5.000000e+001
    endloop
  endfacet
  facet normal  0.000000e+000  0.000000e+000  1.000000e+000
    outer loop
      vertex  1.573820e+001 -2.435793e+001  5.000000e+001
      vertex  1.000000e+001 -2.934280e+001  5.000000e+001
      vertex  1.631772e+001 -2.635777e+001  5.000000e+001
    endloop
  endfacet
  facet normal  0.000000e+000  -0.000000e+000  1.000000e+000
    outer loop
      vertex  1.573820e+001 -2.435793e+001  5.000000e+001
      vertex  1.631772e+001 -2.635777e+001  5.000000e+001
      vertex  2.070679e+001 -2.030342e+001  5.000000e+001
    endloop
  endfacet
  facet normal  0.000000e+000  0.000000e+000  9.999999e-001
    outer loop
      vertex  2.070679e+001 -2.030342e+001  5.000000e+001
      vertex  1.631772e+001 -2.635777e+001  5.000000e+001
      vertex  2.180640e+001 -2.203363e+001  5.000000e+001
    endloop
  endfacet
  facet normal  0.000000e+000  -0.000000e+000  1.000000e+000
    outer loop
      vertex  2.070679e+001 -2.030342e+001  5.000000e+001
      vertex  2.180640e+001 -2.203363e+001  5.000000e+001
      vertex  2.466279e+001 -1.525604e+001  5.000000e+001
    endloop
  endfacet
  facet normal  0.000000e+000  0.000000e+000  9.999999e-001
    outer loop
      vertex  2.466279e+001 -1.525604e+001  5.000000e+001
      vertex  2.180640e+001 -2.203363e+001  5.000000e+001
      vertex  2.618721e+001 -1.659006e+001  5.000000e+001
    endloop
  endfacet
  facet normal  0.000000e+000  -0.000000e+000  1.000000e+000
    outer loop
      vertex  2.466279e+001 -1.525604e+001  5.000000e+001
      vertex  2.618721e+001 -1.659006e+001  5.000000e+001
      vertex  2.741275e+001 -9.462626e+000  5.000000e+001
    endloop
  endfacet
  facet normal  0.000000e+000  0.000000e+000  9.999999e-001
    outer loop
      vertex  2.741275e+001 -9.462626e+000  5.000000e+001
      vertex  2.618721e+001 -1.659006e+001  5.000000e+001
      vertex  2.923757e+001 -1.030362e+001  5.000000e+001
    endloop
  endfacet
  facet normal  0.000000e+000  0.000000e+000  1.000000e+000
    outer loop
      vertex  2.741275e+001 -9.462626e+000  5.000000e+001
      vertex  2.923757e+001 -1.030362e+001  5.000000e+001
      vertex  2.882219e+001 -3.206475e+000  5.000000e+001
    endloop
  endfacet
  facet normal  0.000000e+000  0.000000e+000  1.000000e+000
    outer loop
      vertex  2.882219e+001 -3.206475e+000  5.000000e+001
      vertex  2.923757e+001 -1.030362e+001  5.000000e+001
      vertex  3.080250e+001 -3.493706e+000  5.000000e+001
    endloop
  endfacet
  facet normal  0.000000e+000  0.000000e+000  1.000000e+000
    outer loop
      vertex  2.882219e+001 -3.206475e+000  5.000000e+001
      vertex  3.080250e+001 -3.493706e+000  5.000000e+001
      vertex  2.882219e+001  3.206475e+000  5.000000e+001
    endloop
  endfacet
  facet normal  -0.000000e+000  0.000000e+000  1.000000e+000
    outer loop
      vertex  2.882219e+001  3.206475e+000  5.000000e+001
      vertex  3.080250e+001 -3.493706e+000  5.000000e+001
      vertex  3.080250e+001  3.493706e+000  5.000000e+001
    endloop
  endfacet
  facet normal  0.000000e+000  0.000000e+000  1.000000e+000
    outer loop
      vertex  2.882219e+001  3.206475e+000  5.000000e+001
      vertex  3.080250e+001  3.493706e+000  5.000000e+001
      vertex  2.741275e+001  9.462626e+000  5.000000e+001
    endloop
  endfacet
  facet normal  -0.000000e+000  0.000000e+000  1.000000e+000
    outer loop
      vertex  2.741275e+001  9.462626e+000  5.000000e+001
      vertex  3.080250e+001  3.493706e+000  5.000000e+001
      vertex  2.923757e+001  1.030362e+001  5.000000e+001
    endloop
  endfacet
  facet normal  0.000000e+000  0.000000e+000  1.000000e+000
    outer loop
      vertex  2.741275e+001  9.462626e+000  5.000000e+001
      vertex  2.923757e+001  1.030362e+001  5.000000e+001
      vertex  2.466279e+001  1.525604e+001  5.000000e+001
    endloop
  endfacet
  facet normal  -0.000000e+000  0.000000e+000  1.000000e+000
    outer loop
      vertex  2.466279e+001  1.525604e+001  5.000000e+001
      vertex  2.923757e+001  1.030362e+001  5.000000e+001
      vertex  2.618721e+001  1.659006e+001  5.000000e+001
    endloop
  endfacet
  facet normal  0.000000e+000  0.000000e+000  1.000000e+000
    outer loop
      vertex  2.466279e+001  1.525604e+001  5.000000e+001
      vertex  2.618721e+001  1.659006e+001  5.000000e+001
      vertex  2.070679e+001  2.030342e+001  5.000000e+001
    endloop
  endfacet
  facet normal  -0.000000e+000  0.000000e+000  9.999999e-001
    outer loop
      vertex  2.070679e+001  2.030342e+001  5.000000e+001
      vertex  2.618721e+001  1.659006e+001  5.000000e+001
      vertex  2.180640e+001  2.203363e+001  5.000000e+001
    endloop
  endfacet
  facet normal  0.000000e+000  0.000000e+000  1.000000e+000
    outer loop
      vertex  2.070679e+001  2.030342e+001  5.000000e+001
      vertex  2.180640e+001  2.203363e+001  5.000000e+001
      vertex  1.573820e+001  2.435793e+001  5.000000e+001
    endloop
  endfacet
  facet normal  0.000000e+000  0.000000e+000  1.000000e+000
    outer loop
      vertex  1.573820e+001  2.435793e+001  5.000000e+001
      vertex  2.180640e+001  2.203363e+001  5.000000e+001
      vertex  1.000000e+001  2.722132e+001  5.000000e+001
    endloop
  endfacet
  facet normal  0.000000e+000  0.000000e+000  1.000000e+000
    outer loop
      vertex  1.000000e+001  2.722132e+001  5.000000e+001
      vertex  2.180640e+001  2.203363e+001  5.000000e+001
      vertex  1.631772e+001  2.635777e+001  5.000000e+001
    endloop
  endfacet
  facet normal  0.000000e+000  0.000000e+000  1.000000e+000
    outer loop
      vertex  1.000000e+001  2.722132e+001  5.000000e+001
      vertex  1.631772e+001  2.635777e+001  5.000000e+001
      vertex  1.000000e+001  2.934280e+001  5.000000e+001
    endloop
  endfacet
  facet normal  0.000000e+000  0.000000e+000  1.000000e+000
    outer loop
      vertex -1.000000e+001 -2.934280e+001  5.000000e+001
      vertex -1.000000e+001 -2.722132e+001  5.000000e+001
      vertex -1.631772e+001 -2.635777e+001  5.000000e+001
    endloop
  endfacet
  facet normal  -0.000000e+000  0.000000e+000  1.000000e+000
    outer loop
      vertex -1.631772e+001 -2.635777e+001  5.000000e+001
      vertex -1.000000e+001 -2.722132e+001  5.000000e+001
      vertex -1.573820e+001 -2.435793e+001  5.000000e+001
    endloop
  endfacet
  facet normal  0.000000e+000  0.000000e+000  9.999999e-001
    outer loop
      vertex -1.631772e+001 -2.635777e+001  5.000000e+001
      vertex -1.573820e+001 -2.435793e+001  5.000000e+001
      vertex -2.180640e+001 -2.203363e+001  5.000000e+001
    endloop
  endfacet
  facet normal  -0.000000e+000  0.000000e+000  1.000000e+000
    outer loop
      vertex -2.180640e+001 -2.203363e+001  5.000000e+001
      vertex -1.573820e+001 -2.435793e+001  5.000000e+001
      vertex -2.070679e+001 -2.030342e+001  5.000000e+001
    endloop
  endfacet
  facet normal  0.000000e+000  0.000000e+000  9.999999e-001
    outer loop
      vertex -2.180640e+001 -2.203363e+001  5.000000e+001
      vertex -2.070679e+001 -2.030342e+001  5.000000e+001
      vertex -2.618721e+001 -1.659006e+001  5.000000e+001
    endloop
  endfacet
  facet normal  -0.000000e+000  0.000000e+000  1.000000e+000
    outer loop
      vertex -2.618721e+001 -1.659006e+001  5.000000e+001
      vertex -2.070679e+001 -2.030342e+001  5.000000e+001
      vertex -2.466279e+001 -1.525604e+001  5.000000e+001
    endloop
  endfacet
  facet normal  0.000000e+000  0.000000e+000  1.000000e+000
    outer loop
      vertex -2.618721e+001 -1.659006e+001  5.000000e+001
      vertex -2.466279e+001 -1.525604e+001  5.000000e+001
      vertex -2.923757e+001 -1.030362e+001  5.000000e+001
    endloop
  endfacet
  facet normal  -0.000000e+000  0.000000e+000  1.000000e+000
    outer loop
      vertex -2.923757e+001 -1.030362e+001  5.000000e+001
      vertex -2.466279e+001 -1.525604e+001  5.000000e+001
      vertex -2.741275e+001 -9.462626e+000  5.000000e+001
    endloop
  endfacet
  facet normal  0.000000e+000  0.000000e+000  1.000000e+000
    outer loop
      vertex -2.923757e+001 -1.030362e+001  5.000000e+001
      vertex -2.741275e+001 -9.462626e+000  5.000000e+001
      vertex -3.080250e+001 -3.493706e+000  5.000000e+001
    endloop
  endfacet
  facet normal  -0.000000e+000  0.000000e+000  1.000000e+000
    outer loop
      vertex -3.080250e+001 -3.493706e+000  5.000000e+001
      vertex -2.741275e+001 -9.462626e+000  5.000000e+001
      vertex -2.882219e+001 -3.206475e+000  5.000000e+001
    endloop
  endfacet
  facet normal  0.000000e+000  0.000000e+000  1.000000e+000
    outer loop
      vertex -3.080250e+001 -3.493706e+000  5.000000e+001
      vertex -2.882219e+001 -3.206475e+000  5.000000e+001
      vertex -3.080250e+001  3.493706e+000  5.000000e+001
    endloop
  endfacet
  facet normal  0.000000e+000  0.000000e+000  1.000000e+000
    outer loop
      vertex -3.080250e+001  3.493706e+000  5.000000e+001
      vertex -2.882219e+001 -3.206475e+000  5.000000e+001
      vertex -2.882219e+001  3.206475e+000  5.000000e+001
    endloop
  endfacet
  facet normal  0.000000e+000  0.000000e+000  1.000000e+000
    outer loop
      vertex -3.080250e+001  3.493706e+000  5.000000e+001
      vertex -2.882219e+001  3.206475e+000  5.000000e+001
      vertex -2.923757e+001  1.030362e+001  5.000000e+001
    endloop
  endfacet
  facet normal  0.000000e+000  0.000000e+000  1.000000e+000
    outer loop
      vertex -2.923757e+001  1.030362e+001  5.000000e+001
      vertex -2.882219e+001  3.206475e+000  5.000000e+001
      vertex -2.741275e+001  9.462626e+000  5.000000e+001
    endloop
  endfacet
  facet normal  0.000000e+000  -0.000000e+000  9.999999e-001
    outer loop
      vertex -2.923757e+001  1.030362e+001  5.000000e+001
      vertex -2.741275e+001  9.462626e+000  5.000000e+001
      vertex -2.618721e+001  1.659006e+001  5.000000e+001
    endloop
  endfacet
  facet normal  0.000000e+000  0.000000e+000  1.000000e+000
    outer loop
      vertex -2.618721e+001  1.659006e+001  5.000000e+001
      vertex -2.741275e+001  9.462626e+000  5.000000e+001
      vertex -2.466279e+001  1.525604e+001  5.000000e+001
    endloop
  endfacet
  facet normal  0.000000e+000  -0.000000e+000  9.999999e-001
    outer loop
      vertex -2.618721e+001  1.659006e+001  5.000000e+001
      vertex -2.466279e+001  1.525604e+001  5.000000e+001
      vertex -2.180640e+001  2.203363e+001  5.000000e+001
    endloop
  endfacet
  facet normal  0.000000e+000  0.000000e+000  1.000000e+000
    outer loop
      vertex -2.180640e+001  2.203363e+001  5.000000e+001
      vertex -2.466279e+001  1.525604e+001  5.000000e+001
      vertex -2.070679e+001  2.030342e+001  5.000000e+001
    endloop
  endfacet
  facet normal  0.000000e+000  -0.000000e+000  1.000000e+000
    outer loop
      vertex -2.180640e+001  2.203363e+001  5.000000e+001
      vertex -2.070679e+001  2.030342e+001  5.000000e+001
      vertex -1.573820e+001  2.435793e+001  5.000000e+001
    endloop
  endfacet
  facet normal  0.000000e+000  0.000000e+000  9.999999e-001
    outer loop
      vertex -2.180640e+001  2.203363e+001  5.000000e+001
      vertex -1.573820e+001  2.435793e+001  5.000000e+001
      vertex -1.631772e+001  2.635777e+001  5.000000e+001
    endloop
  endfacet
  facet normal  -0.000000e+000  0.000000e+000  1.000000e+000
    outer loop
      vertex -1.631772e+001  2.635777e+001  5.000000e+001
      vertex -1.573820e+001  2.435793e+001  5.000000e+001
      vertex -1.000000e+001  2.722132e+001  5.000000e+001
    endloop
  endfacet
  facet normal  0.000000e+000  -0.000000e+000  1.000000e+000
    outer loop
      vertex -1.631772e+001  2.635777e+001  5.000000e+001
      vertex -1.000000e+001  2.722132e+001  5.000000e+001
      vertex -1.000000e+001  2.934280e+001  5.000000e+001
    endloop
  endfacet
  facet normal  1.000000e+000  -0.000000e+000  0.000000e+000
    outer loop
      vertex -1.000000e+001 -2.722132e+001  5.000000e+001
      vertex -1.000000e+001 -2.934280e+001  5.000000e+001
      vertex -1.000000e+001 -2.722132e+001  1.000000e+001
    endloop
  endfacet
  facet normal  1.000000e+000  0.000000e+000  0.000000e+000
    outer loop
      vertex -1.000000e+001 -2.722132e+001  1.000000e+001
      vertex -1.000000e+001 -2.934280e+001  5.000000e+001
      vertex -1.000000e+001 -2.934280e+001  1.000000e+001
    endloop
  endfacet
  facet normal -1.000000e+000  -0.000000e+000  0.000000e+000
    outer loop
      vertex  1.000000e+001 -2.934280e+001  5.000000e+001
      vertex  1.000000e+001 -2.722132e+001  5.000000e+001
      vertex  1.000000e+001 -2.934280e+001  1.000000e+001
    endloop
  endfacet
  facet normal -1.000000e+000  0.000000e+000  0.000000e+000
    outer loop
      vertex  1.000000e+001 -2.934280e+001  1.000000e+001
      vertex  1.000000e+001 -2.722132e+001  5.000000e+001
      vertex  1.000000e+001 -2.722132e+001  1.000000e+001
    endloop
  endfacet
  facet normal -1.000000e+000  -0.000000e+000  0.000000e+000
    outer loop
      vertex  1.000000e+001  2.722132e+001  5.000000e+001
      vertex  1.000000e+001  2.934280e+001  5.000000e+001
      vertex  1.000000e+001  2.722132e+001  1.000000e+001
    endloop
  endfacet
  facet normal -1.000000e+000  0.000000e+000  0.000000e+000
    outer loop
      vertex  1.000000e+001  2.722132e+001  1.000000e+001
      vertex  1.000000e+001  2.934280e+001  5.000000e+001
      vertex  1.000000e+001  2.934280e+001  1.000000e+001
    endloop
  endfacet
  facet normal  1.000000e+000  -0.000000e+000  0.000000e+000
    outer loop
      vertex -1.000000e+001  2.934280e+001  5.000000e+001
      vertex -1.000000e+001  2.722132e+001  5.000000e+001
      vertex -1.000000e+001  2.934280e+001  1.000000e+001
    endloop
  endfacet
  facet normal  1.000000e+000  0.000000e+000  0.000000e+000
    outer loop
      vertex -1.000000e+001  2.934280e+001  1.000000e+001
      vertex -1.000000e+001  2.722132e+001  5.000000e+001
      vertex -1.000000e+001  2.722132e+001  1.000000e+001
    endloop
  endfacet
  facet normal -9.755494e-001 -2.197804e-001  -0.000000e+000
    outer loop
      vertex  2.882219e+001  3.206475e+000  1.000000e+001
      vertex  2.741275e+001  9.462626e+000  5.000000e+001
      vertex  2.741275e+001  9.462626e+000  1.000000e+001
    endloop
  endfacet
  facet normal -9.033933e-001 -4.288129e-001  0.000000e+000
    outer loop
      vertex  2.741275e+001  9.462626e+000  1.000000e+001
      vertex  2.741275e+001  9.462626e+000  5.000000e+001
      vertex  2.466279e+001  1.525604e+001  5.000000e+001
    endloop
  endfacet
  facet normal -9.033933e-001 -4.288129e-001  -0.000000e+000
    outer loop
      vertex  2.741275e+001  9.462626e+000  1.000000e+001
      vertex  2.466279e+001  1.525604e+001  5.000000e+001
      vertex  2.466279e+001  1.525604e+001  1.000000e+001
    endloop
  endfacet
  facet normal -7.870600e-001 -6.168766e-001  0.000000e+000
    outer loop
      vertex  2.466279e+001  1.525604e+001  1.000000e+001
      vertex  2.466279e+001  1.525604e+001  5.000000e+001
      vertex  2.070679e+001  2.030342e+001  5.000000e+001
    endloop
  endfacet
  facet normal -7.870600e-001 -6.168766e-001  -0.000000e+000
    outer loop
      vertex  2.466279e+001  1.525604e+001  1.000000e+001
      vertex  2.070679e+001  2.030342e+001  5.000000e+001
      vertex  2.070679e+001  2.030342e+001  1.000000e+001
    endloop
  endfacet
  facet normal -6.322384e-001 -7.747739e-001  0.000000e+000
    outer loop
      vertex  2.070679e+001  2.030342e+001  1.000000e+001
      vertex  2.070679e+001  2.030342e+001  5.000000e+001
      vertex  1.573820e+001  2.435793e+001  5.000000e+001
    endloop
  endfacet
  facet normal -6.322384e-001 -7.747739e-001  -0.000000e+000
    outer loop
      vertex  2.070679e+001  2.030342e+001  1.000000e+001
      vertex  1.573820e+001  2.435793e+001  5.000000e+001
      vertex  1.573820e+001  2.435793e+001  1.000000e+001
    endloop
  endfacet
  facet normal -4.464999e-001 -8.947837e-001  0.000000e+000
    outer loop
      vertex  1.573820e+001  2.435793e+001  1.000000e+001
      vertex  1.573820e+001  2.435793e+001  5.000000e+001
      vertex  1.000000e+001  2.722132e+001  5.000000e+001
    endloop
  endfacet
  facet normal -4.464999e-001 -8.947837e-001  -0.000000e+000
    outer loop
      vertex  1.573820e+001  2.435793e+001  1.000000e+001
      vertex  1.000000e+001  2.722132e+001  5.000000e+001
      vertex  1.000000e+001  2.722132e+001  1.000000e+001
    endloop
  endfacet
  facet normal -9.755494e-001 -2.197804e-001  0.000000e+000
    outer loop
      vertex  2.741275e+001  9.462626e+000  5.000000e+001
      vertex  2.882219e+001  3.206475e+000  1.000000e+001
      vertex  2.882219e+001  3.206475e+000  5.000000e+001
    endloop
  endfacet
  facet normal -1.000000e+000  0.000000e+000  -0.000000e+000
    outer loop
      vertex  2.882219e+001  3.206475e+000  5.000000e+001
      vertex  2.882219e+001  3.206475e+000  1.000000e+001
      vertex  2.882219e+001 -3.206475e+000  1.000000e+001
    endloop
  endfacet
  facet normal -1.000000e+000  0.000000e+000  0.000000e+000
    outer loop
      vertex  2.882219e+001  3.206475e+000  5.000000e+001
      vertex  2.882219e+001 -3.206475e+000  1.000000e+001
      vertex  2.882219e+001 -3.206475e+000  5.000000e+001
    endloop
  endfacet
  facet normal -9.755494e-001  2.197804e-001  0.000000e+000
    outer loop
      vertex  2.882219e+001 -3.206475e+000  5.000000e+001
      vertex  2.882219e+001 -3.206475e+000  1.000000e+001
      vertex  2.741275e+001 -9.462626e+000  1.000000e+001
    endloop
  endfacet
  facet normal -9.755494e-001  2.197804e-001  0.000000e+000
    outer loop
      vertex  2.882219e+001 -3.206475e+000  5.000000e+001
      vertex  2.741275e+001 -9.462626e+000  1.000000e+001
      vertex  2.741275e+001 -9.462626e+000  5.000000e+001
    endloop
  endfacet
  facet normal -9.033933e-001  4.288129e-001  0.000000e+000
    outer loop
      vertex  2.741275e+001 -9.462626e+000  5.000000e+001
      vertex  2.741275e+001 -9.462626e+000  1.000000e+001
      vertex  2.466279e+001 -1.525604e+001  1.000000e+001
    endloop
  endfacet
  facet normal -9.033933e-001  4.288129e-001  0.000000e+000
    outer loop
      vertex  2.741275e+001 -9.462626e+000  5.000000e+001
      vertex  2.466279e+001 -1.525604e+001  1.000000e+001
      vertex  2.466279e+001 -1.525604e+001  5.000000e+001
    endloop
  endfacet
  facet normal -7.870600e-001  6.168766e-001  0.000000e+000
    outer loop
      vertex  2.466279e+001 -1.525604e+001  5.000000e+001
      vertex  2.466279e+001 -1.525604e+001  1.000000e+001
      vertex  2.070679e+001 -2.030342e+001  1.000000e+001
    endloop
  endfacet
  facet normal -7.870600e-001  6.168766e-001  0.000000e+000
    outer loop
      vertex  2.466279e+001 -1.525604e+001  5.000000e+001
      vertex  2.070679e+001 -2.030342e+001  1.000000e+001
      vertex  2.070679e+001 -2.030342e+001  5.000000e+001
    endloop
  endfacet
  facet normal -6.322384e-001  7.747739e-001  0.000000e+000
    outer loop
      vertex  2.070679e+001 -2.030342e+001  5.000000e+001
      vertex  2.070679e+001 -2.030342e+001  1.000000e+001
      vertex  1.573820e+001 -2.435793e+001  1.000000e+001
    endloop
  endfacet
  facet normal -6.322384e-001  7.747739e-001  0.000000e+000
    outer loop
      vertex  2.070679e+001 -2.030342e+001  5.000000e+001
      vertex  1.573820e+001 -2.435793e+001  1.000000e+001
      vertex  1.573820e+001 -2.435793e+001  5.000000e+001
    endloop
  endfacet
  facet normal -4.464999e-001  8.947837e-001  0.000000e+000
    outer loop
      vertex  1.573820e+001 -2.435793e+001  5.000000e+001
      vertex  1.573820e+001 -2.435793e+001  1.000000e+001
      vertex  1.000000e+001 -2.722132e+001  1.000000e+001
    endloop
  endfacet
  facet normal -4.464999e-001  8.947837e-001  0.000000e+000
    outer loop
      vertex  1.573820e+001 -2.435793e+001  5.000000e+001
      vertex  1.000000e+001 -2.722132e+001  1.000000e+001
      vertex  1.000000e+001 -2.722132e+001  5.000000e+001
    endloop
  endfacet
  facet normal  9.755494e-001  2.197804e-001  0.000000e+000
    outer loop
      vertex -2.882219e+001 -3.206475e+000  1.000000e+001
      vertex -2.741275e+001 -9.462626e+000  5.000000e+001
      vertex -2.741275e+001 -9.462626e+000  1.000000e+001
    endloop
  endfacet
  facet normal  9.033933e-001  4.288129e-001  -0.000000e+000
    outer loop
      vertex -2.741275e+001 -9.462626e+000  1.000000e+001
      vertex -2.741275e+001 -9.462626e+000  5.000000e+001
      vertex -2.466279e+001 -1.525604e+001  5.000000e+001
    endloop
  endfacet
  facet normal  9.033933e-001  4.288129e-001  0.000000e+000
    outer loop
      vertex -2.741275e+001 -9.462626e+000  1.000000e+001
      vertex -2.466279e+001 -1.525604e+001  5.000000e+001
      vertex -2.466279e+001 -1.525604e+001  1.000000e+001
    endloop
  endfacet
  facet normal  7.870600e-001  6.168766e-001  -0.000000e+000
    outer loop
      vertex -2.466279e+001 -1.525604e+001  1.000000e+001
      vertex -2.466279e+001 -1.525604e+001  5.000000e+001
      vertex -2.070679e+001 -2.030342e+001  5.000000e+001
    endloop
  endfacet
  facet normal  7.870600e-001  6.168766e-001  0.000000e+000
    outer loop
      vertex -2.466279e+001 -1.525604e+001  1.000000e+001
      vertex -2.070679e+001 -2.030342e+001  5.000000e+001
      vertex -2.070679e+001 -2.030342e+001  1.000000e+001
    endloop
  endfacet
  facet normal  6.322384e-001  7.747739e-001  -0.000000e+000
    outer loop
      vertex -2.070679e+001 -2.030342e+001  1.000000e+001
      vertex -2.070679e+001 -2.030342e+001  5.000000e+001
      vertex -1.573820e+001 -2.435793e+001  5.000000e+001
    endloop
  endfacet
  facet normal  6.322384e-001  7.747739e-001  0.000000e+000
    outer loop
      vertex -2.070679e+001 -2.030342e+001  1.000000e+001
      vertex -1.573820e+001 -2.435793e+001  5.000000e+001
      vertex -1.573820e+001 -2.435793e+001  1.000000e+001
    endloop
  endfacet
  facet normal  4.464999e-001  8.947837e-001  -0.000000e+000
    outer loop
      vertex -1.573820e+001 -2.435793e+001  1.000000e+001
      vertex -1.573820e+001 -2.435793e+001  5.000000e+001
      vertex -1.000000e+001 -2.722132e+001  5.000000e+001
    endloop
  endfacet
  facet normal  4.464999e-001  8.947837e-001  0.000000e+000
    outer loop
      vertex -1.573820e+001 -2.435793e+001  1.000000e+001
      vertex -1.000000e+001 -2.722132e+001  5.000000e+001
      vertex -1.000000e+001 -2.722132e+001  1.000000e+001
    endloop
  endfacet
  facet normal  9.755494e-001  2.197804e-001  -0.000000e+000
    outer loop
      vertex -2.741275e+001 -9.462626e+000  5.000000e+001
      vertex -2.882219e+001 -3.206475e+000  1.000000e+001
      vertex -2.882219e+001 -3.206475e+000  5.000000e+001
    endloop
  endfacet
  facet normal  1.000000e+000  0.000000e+000  0.000000e+000
    outer loop
      vertex -2.882219e+001 -3.206475e+000  5.000000e+001
      vertex -2.882219e+001 -3.206475e+000  1.000000e+001
      vertex -2.882219e+001  3.206475e+000  1.000000e+001
    endloop
  endfacet
  facet normal  1.000000e+000  0.000000e+000  -0.000000e+000
    outer loop
      vertex -2.882219e+001 -3.206475e+000  5.000000e+001
      vertex -2.882219e+001  3.206475e+000  1.000000e+001
      vertex -2.882219e+001  3.206475e+000  5.000000e+001
    endloop
  endfacet
  facet normal  9.755494e-001 -2.197804e-001  0.000000e+000
    outer loop
      vertex -2.882219e+001  3.206475e+000  5.000000e+001
      vertex -2.882219e+001  3.206475e+000  1.000000e+001
      vertex -2.741275e+001  9.462626e+000  1.000000e+001
    endloop
  endfacet
  facet normal  9.755494e-001 -2.197804e-001  0.000000e+000
    outer loop
      vertex -2.882219e+001  3.206475e+000  5.000000e+001
      vertex -2.741275e+001  9.462626e+000  1.000000e+001
      vertex -2.741275e+001  9.462626e+000  5.000000e+001
    endloop
  endfacet
  facet normal  9.033933e-001 -4.288129e-001  0.000000e+000
    outer loop
      vertex -2.741275e+001  9.462626e+000  5.000000e+001
      vertex -2.741275e+001  9.462626e+000  1.000000e+001
      vertex -2.466279e+001  1.525604e+001  1.000000e+001
    endloop
  endfacet
  facet normal  9.033933e-001 -4.288129e-001  0.000000e+000
    outer loop
      vertex -2.741275e+001  9.462626e+000  5.000000e+001
      vertex -2.466279e+001  1.525604e+001  1.000000e+001
      vertex -2.466279e+001  1.525604e+001  5.000000e+001
    endloop
  endfacet
  facet normal  7.870600e-001 -6.168766e-001  0.000000e+000
    outer loop
      vertex -2.466279e+001  1.525604e+001  5.000000e+001
      vertex -2.466279e+001  1.525604e+001  1.000000e+001
      vertex -2.070679e+001  2.030342e+001  1.000000e+001
    endloop
  endfacet
  facet normal  7.870600e-001 -6.168766e-001  0.000000e+000
    outer loop
      vertex -2.466279e+001  1.525604e+001  5.000000e+001
      vertex -2.070679e+001  2.030342e+001  1.000000e+001
      vertex -2.070679e+001  2.030342e+001  5.000000e+001
    endloop
  endfacet
  facet normal  6.322384e-001 -7.747739e-001  0.000000e+000
    outer loop
      vertex -2.070679e+001  2.030342e+001  5.000000e+001
      vertex -2.070679e+001  2.030342e+001  1.000000e+001
      vertex -1.573820e+001  2.435793e+001  1.000000e+001
    endloop
  endfacet
  facet normal  6.322384e-001 -7.747739e-001  0.000000e+000
    outer loop
      vertex -2.070679e+001  2.030342e+001  5.000000e+001
      vertex -1.573820e+001  2.435793e+001  1.000000e+001
      vertex -1.573820e+001  2.435793e+001  5.000000e+001
    endloop
  endfacet
  facet normal  4.464999e-001 -8.947837e-001  0.000000e+000
    outer loop
      vertex -1.573820e+001  2.435793e+001  5.000000e+001
      vertex -1.573820e+001  2.435793e+001  1.000000e+001
      vertex -1.000000e+001  2.722132e+001  1.000000e+001
    endloop
  endfacet
  facet normal  4.464999e-001 -8.947837e-001  0.000000e+000
    outer loop
      vertex -1.573820e+001  2.435793e+001  5.000000e+001
      vertex -1.000000e+001  2.722132e+001  1.000000e+001
      vertex -1.000000e+001  2.722132e+001  5.000000e+001
    endloop
  endfacet
  facet normal  4.272009e-001  9.041567e-001  0.000000e+000
    outer loop
      vertex  1.000000e+001  2.934280e+001  5.000000e+001
      vertex  1.631772e+001  2.635777e+001  5.000000e+001
      vertex  1.000000e+001  2.934280e+001  1.000000e+001
    endloop
  endfacet
  facet normal  4.272009e-001 -9.041567e-001  0.000000e+000
    outer loop
      vertex  1.000000e+001 -2.934280e+001  0.000000e+000
      vertex  1.631772e+001 -2.635777e+001  0.000000e+000
      vertex  1.000000e+001 -2.934280e+001  1.000000e+001
    endloop
  endfacet
  facet normal  4.272009e-001  9.041567e-001  0.000000e+000
    outer loop
      vertex  1.000000e+001  2.934280e+001  0.000000e+000
      vertex  1.000000e+001  2.934280e+001  1.000000e+001
      vertex  1.631772e+001  2.635777e+001  0.000000e+000
    endloop
  endfacet
  facet normal  4.272009e-001  9.041567e-001  -0.000000e+000
    outer loop
      vertex  1.631772e+001  2.635777e+001  0.000000e+000
      vertex  1.000000e+001  2.934280e+001  1.000000e+001
      vertex  1.631772e+001  2.635777e+001  5.000000e+001
    endloop
  endfacet
  facet normal  6.188480e-001  7.855108e-001  0.000000e+000
    outer loop
      vertex  1.631772e+001  2.635777e+001  0.000000e+000
      vertex  1.631772e+001  2.635777e+001  5.000000e+001
      vertex  2.180640e+001  2.203363e+001  0.000000e+000
    endloop
  endfacet
  facet normal  6.188480e-001  7.855108e-001  -0.000000e+000
    outer loop
      vertex  2.180640e+001  2.203363e+001  0.000000e+000
      vertex  1.631772e+001  2.635777e+001  5.000000e+001
      vertex  2.180640e+001  2.203363e+001  5.000000e+001
    endloop
  endfacet
  facet normal  7.790539e-001  6.269570e-001  0.000000e+000
    outer loop
      vertex  2.180640e+001  2.203363e+001  0.000000e+000
      vertex  2.180640e+001  2.203363e+001  5.000000e+001
      vertex  2.618721e+001  1.659006e+001  0.000000e+000
    endloop
  endfacet
  facet normal  7.790539e-001  6.269570e-001  -0.000000e+000
    outer loop
      vertex  2.618721e+001  1.659006e+001  0.000000e+000
      vertex  2.180640e+001  2.203363e+001  5.000000e+001
      vertex  2.618721e+001  1.659006e+001  5.000000e+001
    endloop
  endfacet
  facet normal  8.996799e-001  4.365501e-001  0.000000e+000
    outer loop
      vertex  2.618721e+001  1.659006e+001  0.000000e+000
      vertex  2.618721e+001  1.659006e+001  5.000000e+001
      vertex  2.923757e+001  1.030362e+001  0.000000e+000
    endloop
  endfacet
  facet normal  8.996799e-001  4.365501e-001  -0.000000e+000
    outer loop
      vertex  2.923757e+001  1.030362e+001  0.000000e+000
      vertex  2.618721e+001  1.659006e+001  5.000000e+001
      vertex  2.923757e+001  1.030362e+001  5.000000e+001
    endloop
  endfacet
  facet normal  9.745973e-001  2.239645e-001  0.000000e+000
    outer loop
      vertex  2.923757e+001  1.030362e+001  0.000000e+000
      vertex  2.923757e+001  1.030362e+001  5.000000e+001
      vertex  3.080250e+001  3.493706e+000  0.000000e+000
    endloop
  endfacet
  facet normal  9.745973e-001  2.239645e-001  -0.000000e+000
    outer loop
      vertex  3.080250e+001  3.493706e+000  0.000000e+000
      vertex  2.923757e+001  1.030362e+001  5.000000e+001
      vertex  3.080250e+001  3.493706e+000  5.000000e+001
    endloop
  endfacet
  facet normal  1.000000e+000  0.000000e+000  0.000000e+000
    outer loop
      vertex  3.080250e+001  3.493706e+000  0.000000e+000
      vertex  3.080250e+001  3.493706e+000  5.000000e+001
      vertex  3.080250e+001 -3.493706e+000  0.000000e+000
    endloop
  endfacet
  facet normal  1.000000e+000  0.000000e+000  0.000000e+000
    outer loop
      vertex  3.080250e+001 -3.493706e+000  0.000000e+000
      vertex  3.080250e+001  3.493706e+000  5.000000e+001
      vertex  3.080250e+001 -3.493706e+000  5.000000e+001
    endloop
  endfacet
  facet normal  9.745973e-001 -2.239645e-001  0.000000e+000
    outer loop
      vertex  3.080250e+001 -3.493706e+000  0.000000e+000
      vertex  3.080250e+001 -3.493706e+000  5.000000e+001
      vertex  2.923757e+001 -1.030362e+001  0.000000e+000
    endloop
  endfacet
  facet normal  9.745973e-001 -2.239645e-001  0.000000e+000
    outer loop
      vertex  2.923757e+001 -1.030362e+001  0.000000e+000
      vertex  3.080250e+001 -3.493706e+000  5.000000e+001
      vertex  2.923757e+001 -1.030362e+001  5.000000e+001
    endloop
  endfacet
  facet normal  8.996799e-001 -4.365501e-001  0.000000e+000
    outer loop
      vertex  2.923757e+001 -1.030362e+001  0.000000e+000
      vertex  2.923757e+001 -1.030362e+001  5.000000e+001
      vertex  2.618721e+001 -1.659006e+001  0.000000e+000
    endloop
  endfacet
  facet normal  8.996799e-001 -4.365501e-001  0.000000e+000
    outer loop
      vertex  2.618721e+001 -1.659006e+001  0.000000e+000
      vertex  2.923757e+001 -1.030362e+001  5.000000e+001
      vertex  2.618721e+001 -1.659006e+001  5.000000e+001
    endloop
  endfacet
  facet normal  7.790539e-001 -6.269570e-001  0.000000e+000
    outer loop
      vertex  2.618721e+001 -1.659006e+001  0.000000e+000
      vertex  2.618721e+001 -1.659006e+001  5.000000e+001
      vertex  2.180640e+001 -2.203363e+001  0.000000e+000
    endloop
  endfacet
  facet normal  7.790539e-001 -6.269570e-001  0.000000e+000
    outer loop
      vertex  2.180640e+001 -2.203363e+001  0.000000e+000
      vertex  2.618721e+001 -1.659006e+001  5.000000e+001
      vertex  2.180640e+001 -2.203363e+001  5.000000e+001
    endloop
  endfacet
  facet normal  6.188480e-001 -7.855108e-001  0.000000e+000
    outer loop
      vertex  2.180640e+001 -2.203363e+001  0.000000e+000
      vertex  2.180640e+001 -2.203363e+001  5.000000e+001
      vertex  1.631772e+001 -2.635777e+001  0.000000e+000
    endloop
  endfacet
  facet normal  6.188480e-001 -7.855108e-001  0.000000e+000
    outer loop
      vertex  1.631772e+001 -2.635777e+001  0.000000e+000
      vertex  2.180640e+001 -2.203363e+001  5.000000e+001
      vertex  1.631772e+001 -2.635777e+001  5.000000e+001
    endloop
  endfacet
  facet normal  4.272009e-001 -9.041567e-001  0.000000e+000
    outer loop
      vertex  1.631772e+001 -2.635777e+001  0.000000e+000
      vertex  1.631772e+001 -2.635777e+001  5.000000e+001
      vertex  1.000000e+001 -2.934280e+001  1.000000e+001
    endloop
  endfacet
  facet normal  4.272009e-001 -9.041567e-001  0.000000e+000
    outer loop
      vertex  1.000000e+001 -2.934280e+001  1.000000e+001
      vertex  1.631772e+001 -2.635777e+001  5.000000e+001
      vertex  1.000000e+001 -2.934280e+001  5.000000e+001
    endloop
  endfacet
  facet normal -4.272009e-001 -9.041567e-001  0.000000e+000
    outer loop
      vertex -1.000000e+001 -2.934280e+001  5.000000e+001
      vertex -1.631772e+001 -2.635777e+001  5.000000e+001
      vertex -1.000000e+001 -2.934280e+001  1.000000e+001
    endloop
  endfacet
  facet normal -4.272009e-001  9.041567e-001  0.000000e+000
    outer loop
      vertex -1.000000e+001  2.934280e+001  0.000000e+000
      vertex -1.631772e+001  2.635777e+001  0.000000e+000
      vertex -1.000000e+001  2.934280e+001  1.000000e+001
    endloop
  endfacet
  facet normal -4.272009e-001 -9.041567e-001  -0.000000e+000
    outer loop
      vertex -1.000000e+001 -2.934280e+001  0.000000e+000
      vertex -1.000000e+001 -2.934280e+001  1.000000e+001
      vertex -1.631772e+001 -2.635777e+001  0.000000e+000
    endloop
  endfacet
  facet normal -4.272009e-001 -9.041567e-001  0.000000e+000
    outer loop
      vertex -1.631772e+001 -2.635777e+001  0.000000e+000
      vertex -1.000000e+001 -2.934280e+001  1.000000e+001
      vertex -1.631772e+001 -2.635777e+001  5.000000e+001
    endloop
  endfacet
  facet normal -6.188480e-001 -7.855108e-001  -0.000000e+000
    outer loop
      vertex -1.631772e+001 -2.635777e+001  0.000000e+000
      vertex -1.631772e+001 -2.635777e+001  5.000000e+001
      vertex -2.180640e+001 -2.203363e+001  0.000000e+000
    endloop
  endfacet
  facet normal -6.188480e-001 -7.855108e-001  0.000000e+000
    outer loop
      vertex -2.180640e+001 -2.203363e+001  0.000000e+000
      vertex -1.631772e+001 -2.635777e+001  5.000000e+001
      vertex -2.180640e+001 -2.203363e+001  5.000000e+001
    endloop
  endfacet
  facet normal -7.790539e-001 -6.269570e-001  -0.000000e+000
    outer loop
      vertex -2.180640e+001 -2.203363e+001  0.000000e+000
      vertex -2.180640e+001 -2.203363e+001  5.000000e+001
      vertex -2.618721e+001 -1.659006e+001  0.000000e+000
    endloop
  endfacet
  facet normal -7.790539e-001 -6.269570e-001  0.000000e+000
    outer loop
      vertex -2.618721e+001 -1.659006e+001  0.000000e+000
      vertex -2.180640e+001 -2.203363e+001  5.000000e+001
      vertex -2.618721e+001 -1.659006e+001  5.000000e+001
    endloop
  endfacet
  facet normal -8.996799e-001 -4.365501e-001  -0.000000e+000
    outer loop
      vertex -2.618721e+001 -1.659006e+001  0.000000e+000
      vertex -2.618721e+001 -1.659006e+001  5.000000e+001
      vertex -2.923757e+001 -1.030362e+001  0.000000e+000
    endloop
  endfacet
  facet normal -8.996799e-001 -4.365501e-001  0.000000e+000
    outer loop
      vertex -2.923757e+001 -1.030362e+001  0.000000e+000
      vertex -2.618721e+001 -1.659006e+001  5.000000e+001
      vertex -2.923757e+001 -1.030362e+001  5.000000e+001
    endloop
  endfacet
  facet normal -9.745973e-001 -2.239645e-001  -0.000000e+000
    outer loop
      vertex -2.923757e+001 -1.030362e+001  0.000000e+000
      vertex -2.923757e+001 -1.030362e+001  5.000000e+001
      vertex -3.080250e+001 -3.493706e+000  0.000000e+000
    endloop
  endfacet
  facet normal -9.745973e-001 -2.239645e-001  0.000000e+000
    outer loop
      vertex -3.080250e+001 -3.493706e+000  0.000000e+000
      vertex -2.923757e+001 -1.030362e+001  5.000000e+001
      vertex -3.080250e+001 -3.493706e+000  5.000000e+001
    endloop
  endfacet
  facet normal -1.000000e+000  0.000000e+000  0.000000e+000
    outer loop
      vertex -3.080250e+001 -3.493706e+000  0.000000e+000
      vertex -3.080250e+001 -3.493706e+000  5.000000e+001
      vertex -3.080250e+001  3.493706e+000  0.000000e+000
    endloop
  endfacet
  facet normal -1.000000e+000  0.000000e+000  0.000000e+000
    outer loop
      vertex -3.080250e+001  3.493706e+000  0.000000e+000
      vertex -3.080250e+001 -3.493706e+000  5.000000e+001
      vertex -3.080250e+001  3.493706e+000  5.000000e+001
    endloop
  endfacet
  facet normal -9.745973e-001  2.239645e-001  0.000000e+000
    outer loop
      vertex -3.080250e+001  3.493706e+000  0.000000e+000
      vertex -3.080250e+001  3.493706e+000  5.000000e+001
      vertex -2.923757e+001  1.030362e+001  0.000000e+000
    endloop
  endfacet
  facet normal -9.745973e-001  2.239645e-001  0.000000e+000
    outer loop
      vertex -2.923757e+001  1.030362e+001  0.000000e+000
      vertex -3.080250e+001  3.493706e+000  5.000000e+001
      vertex -2.923757e+001  1.030362e+001  5.000000e+001
    endloop
  endfacet
  facet normal -8.996799e-001  4.365501e-001  0.000000e+000
    outer loop
      vertex -2.923757e+001  1.030362e+001  0.000000e+000
      vertex -2.923757e+001  1.030362e+001  5.000000e+001
      vertex -2.618721e+001  1.659006e+001  0.000000e+000
    endloop
  endfacet
  facet normal -8.996799e-001  4.365501e-001  0.000000e+000
    outer loop
      vertex -2.618721e+001  1.659006e+001  0.000000e+000
      vertex -2.923757e+001  1.030362e+001  5.000000e+001
      vertex -2.618721e+001  1.659006e+001  5.000000e+001
    endloop
  endfacet
  facet normal -7.790539e-001  6.269570e-001  0.000000e+000
    outer loop
      vertex -2.618721e+001  1.659006e+001  0.000000e+000
      vertex -2.618721e+001  1.659006e+001  5.000000e+001
      vertex -2.180640e+001  2.203363e+001  0.000000e+000
    endloop
  endfacet
  facet normal -7.790539e-001  6.269570e-001  0.000000e+000
    outer loop
      vertex -2.180640e+001  2.203363e+001  0.000000e+000
      vertex -2.618721e+001  1.659006e+001  5.000000e+001
      vertex -2.180640e+001  2.203363e+001  5.000000e+001
    endloop
  endfacet
  facet normal -6.188480e-001  7.855108e-001  0.000000e+000
    outer loop
      vertex -2.180640e+001  2.203363e+001  0.000000e+000
      vertex -2.180640e+001  2.203363e+001  5.000000e+001
      vertex -1.631772e+001  2.635777e+001  0.000000e+000
    endloop
  endfacet
  facet normal -6.188480e-001  7.855108e-001  0.000000e+000
    outer loop
      vertex -1.631772e+001  2.635777e+001  0.000000e+000
      vertex -2.180640e+001  2.203363e+001  5.000000e+001
      vertex -1.631772e+001  2.635777e+001  5.000000e+001
    endloop
  endfacet
  facet normal -4.272009e-001  9.041567e-001  0.000000e+000
    outer loop
      vertex -1.631772e+001  2.635777e+001  0.000000e+000
      vertex -1.631772e+001  2.635777e+001  5.000000e+001
      vertex -1.000000e+001  2.934280e+001  1.000000e+001
    endloop
  endfacet
  facet normal -4.272009e-001  9.041567e-001  0.000000e+000
    outer loop
      vertex -1.000000e+001  2.934280e+001  1.000000e+001
      vertex -1.631772e+001  2.635777e+001  5.000000e+001
      vertex -1.000000e+001  2.934280e+001  5.000000e+001
    endloop
  endfacet
endsolid CATIA STL
