solid CATIA STL
  facet normal  -0.000000e+000 -1.000000e+000  -0.000000e+000
    outer loop
      vertex  4.514431e+001 -2.000000e+000  1.000000e+001
      vertex  4.514431e+001 -2.000000e+000  1.500000e+001
      vertex  2.478641e+001 -2.000000e+000  1.500000e+001
    endloop
  endfacet
  facet normal  -0.000000e+000 -1.000000e+000  -0.000000e+000
    outer loop
      vertex  5.314431e+001 -2.000000e+000  0.000000e+000
      vertex  5.314431e+001 -2.000000e+000  1.000000e+001
      vertex  4.514431e+001 -2.000000e+000  1.000000e+001
    endloop
  endfacet
  facet normal  -0.000000e+000 -1.000000e+000  -0.000000e+000
    outer loop
      vertex  5.314431e+001 -2.000000e+000  0.000000e+000
      vertex  4.514431e+001 -2.000000e+000  1.000000e+001
      vertex  2.478641e+001 -2.000000e+000  1.500000e+001
    endloop
  endfacet
  facet normal  0.000000e+000 -1.000000e+000  0.000000e+000
    outer loop
      vertex  5.314431e+001 -2.000000e+000  0.000000e+000
      vertex  2.478641e+001 -2.000000e+000  1.500000e+001
      vertex  2.478641e+001 -2.000000e+000  4.000000e+000
    endloop
  endfacet
  facet normal  -0.000000e+000 -1.000000e+000  -0.000000e+000
    outer loop
      vertex  5.314431e+001 -2.000000e+000  0.000000e+000
      vertex  2.478641e+001 -2.000000e+000  4.000000e+000
      vertex  1.278641e+001 -2.000000e+000  4.000000e+000
    endloop
  endfacet
  facet normal  0.000000e+000 -1.000000e+000  -0.000000e+000
    outer loop
      vertex  5.314431e+001 -2.000000e+000  0.000000e+000
      vertex  1.278641e+001 -2.000000e+000  4.000000e+000
      vertex -5.571594e+000 -2.000000e+000  0.000000e+000
    endloop
  endfacet
  facet normal  0.000000e+000 -1.000000e+000  0.000000e+000
    outer loop
      vertex  1.278641e+001 -2.000000e+000  1.500000e+001
      vertex -5.571594e+000 -2.000000e+000  1.500000e+001
      vertex  1.278641e+001 -2.000000e+000  4.000000e+000
    endloop
  endfacet
  facet normal  -0.000000e+000 -1.000000e+000  0.000000e+000
    outer loop
      vertex  1.278641e+001 -2.000000e+000  4.000000e+000
      vertex -5.571594e+000 -2.000000e+000  1.500000e+001
      vertex -5.571594e+000 -2.000000e+000  0.000000e+000
    endloop
  endfacet
  facet normal  0.000000e+000  0.000000e+000  1.000000e+000
    outer loop
      vertex  3.521297e+001  8.019485e+001  1.500000e+001
      vertex  4.455853e+001  8.160907e+001  1.500000e+001
      vertex  1.902797e+000  8.019485e+001  1.500000e+001
    endloop
  endfacet
  facet normal  0.000000e+000  -0.000000e+000  1.000000e+000
    outer loop
      vertex -7.571594e+000  0.000000e+000  1.500000e+001
      vertex -6.985807e+000 -1.414214e+000  1.500000e+001
      vertex  1.902797e+000  0.000000e+000  1.500000e+001
    endloop
  endfacet
  facet normal  0.000000e+000  0.000000e+000  9.999999e-001
    outer loop
      vertex -7.571594e+000  0.000000e+000  1.500000e+001
      vertex  1.902797e+000  0.000000e+000  1.500000e+001
      vertex  3.821687e-001  5.156385e-001  1.500000e+001
    endloop
  endfacet
  facet normal  0.000000e+000  0.000000e+000  1.000000e+000
    outer loop
      vertex -7.571594e+000  0.000000e+000  1.500000e+001
      vertex  3.821687e-001  5.156385e-001  1.500000e+001
      vertex -5.111838e-001  1.849848e+000  1.500000e+001
    endloop
  endfacet
  facet normal  0.000000e+000  0.000000e+000  1.000000e+000
    outer loop
      vertex -7.571594e+000  0.000000e+000  1.500000e+001
      vertex -5.111838e-001  1.849848e+000  1.500000e+001
      vertex -3.315298e+000  1.443455e+001  1.500000e+001
    endloop
  endfacet
  facet normal  0.000000e+000  0.000000e+000  1.000000e+000
    outer loop
      vertex -7.571594e+000  0.000000e+000  1.500000e+001
      vertex -3.315298e+000  1.443455e+001  1.500000e+001
      vertex -5.006434e+000  2.721649e+001  1.500000e+001
    endloop
  endfacet
  facet normal  0.000000e+000  0.000000e+000  1.000000e+000
    outer loop
      vertex -7.571594e+000  0.000000e+000  1.500000e+001
      vertex -5.006434e+000  2.721649e+001  1.500000e+001
      vertex -5.571594e+000  4.009743e+001  1.500000e+001
    endloop
  endfacet
  facet normal  0.000000e+000  -0.000000e+000  1.000000e+000
    outer loop
      vertex -7.571594e+000  0.000000e+000  1.500000e+001
      vertex -5.571594e+000  4.009743e+001  1.500000e+001
      vertex -5.006434e+000  5.297836e+001  1.500000e+001
    endloop
  endfacet
  facet normal  0.000000e+000  0.000000e+000  1.000000e+000
    outer loop
      vertex -7.571594e+000  8.219485e+001  1.500000e+001
      vertex -7.571594e+000  0.000000e+000  1.500000e+001
      vertex -5.006434e+000  5.297836e+001  1.500000e+001
    endloop
  endfacet
  facet normal  0.000000e+000  -0.000000e+000  1.000000e+000
    outer loop
      vertex -7.571594e+000  8.219485e+001  1.500000e+001
      vertex -5.006434e+000  5.297836e+001  1.500000e+001
      vertex -3.315298e+000  6.576030e+001  1.500000e+001
    endloop
  endfacet
  facet normal  0.000000e+000  -0.000000e+000  1.000000e+000
    outer loop
      vertex -7.571594e+000  8.219485e+001  1.500000e+001
      vertex -3.315298e+000  6.576030e+001  1.500000e+001
      vertex -5.111838e-001  7.834501e+001  1.500000e+001
    endloop
  endfacet
  facet normal  0.000000e+000  -0.000000e+000  1.000000e+000
    outer loop
      vertex -7.571594e+000  8.219485e+001  1.500000e+001
      vertex -5.111838e-001  7.834501e+001  1.500000e+001
      vertex  3.821687e-001  7.967921e+001  1.500000e+001
    endloop
  endfacet
  facet normal  0.000000e+000  -0.000000e+000  1.000000e+000
    outer loop
      vertex -7.571594e+000  8.219485e+001  1.500000e+001
      vertex  3.821687e-001  7.967921e+001  1.500000e+001
      vertex  1.902797e+000  8.019485e+001  1.500000e+001
    endloop
  endfacet
  facet normal  0.000000e+000  -0.000000e+000  1.000000e+000
    outer loop
      vertex -7.571594e+000  8.219485e+001  1.500000e+001
      vertex  1.902797e+000  8.019485e+001  1.500000e+001
      vertex  4.455853e+001  8.160907e+001  1.500000e+001
    endloop
  endfacet
  facet normal  0.000000e+000  0.000000e+000  1.000000e+000
    outer loop
      vertex -7.571594e+000  8.219485e+001  1.500000e+001
      vertex  4.455853e+001  8.160907e+001  1.500000e+001
      vertex  4.314431e+001  8.219485e+001  1.500000e+001
    endloop
  endfacet
  facet normal  0.000000e+000  0.000000e+000  1.000000e+000
    outer loop
      vertex  4.514431e+001 -2.000000e+000  1.500000e+001
      vertex  4.313465e+001  4.018342e+001  1.500000e+001
      vertex  4.271555e+001  2.729448e+001  1.500000e+001
    endloop
  endfacet
  facet normal  0.000000e+000  0.000000e+000  1.000000e+000
    outer loop
      vertex  4.514431e+001 -2.000000e+000  1.500000e+001
      vertex  4.271555e+001  2.729448e+001  1.500000e+001
      vertex  4.116568e+001  1.449221e+001  1.500000e+001
    endloop
  endfacet
  facet normal  0.000000e+000  0.000000e+000  1.000000e+000
    outer loop
      vertex  4.514431e+001 -2.000000e+000  1.500000e+001
      vertex  4.116568e+001  1.449221e+001  1.500000e+001
      vertex  3.849704e+001  1.875603e+000  1.500000e+001
    endloop
  endfacet
  facet normal  0.000000e+000  0.000000e+000  9.999999e-001
    outer loop
      vertex  4.514431e+001 -2.000000e+000  1.500000e+001
      vertex  3.849704e+001  1.875603e+000  1.500000e+001
      vertex  3.760744e+001  5.237672e-001  1.500000e+001
    endloop
  endfacet
  facet normal  0.000000e+000  0.000000e+000  1.000000e+000
    outer loop
      vertex  4.514431e+001 -2.000000e+000  1.500000e+001
      vertex  3.760744e+001  5.237672e-001  1.500000e+001
      vertex  3.607627e+001  0.000000e+000  1.500000e+001
    endloop
  endfacet
  facet normal  0.000000e+000  0.000000e+000  1.000000e+000
    outer loop
      vertex  4.514431e+001 -2.000000e+000  1.500000e+001
      vertex  3.607627e+001  0.000000e+000  1.500000e+001
      vertex  2.478641e+001  0.000000e+000  1.500000e+001
    endloop
  endfacet
  facet normal  0.000000e+000  0.000000e+000  1.000000e+000
    outer loop
      vertex  4.514431e+001 -2.000000e+000  1.500000e+001
      vertex  2.478641e+001  0.000000e+000  1.500000e+001
      vertex  2.478641e+001 -2.000000e+000  1.500000e+001
    endloop
  endfacet
  facet normal  0.000000e+000  0.000000e+000  1.000000e+000
    outer loop
      vertex  4.514431e+001  8.019485e+001  1.500000e+001
      vertex  4.455853e+001  8.160907e+001  1.500000e+001
      vertex  3.521297e+001  8.019485e+001  1.500000e+001
    endloop
  endfacet
  facet normal  -0.000000e+000  0.000000e+000  1.000000e+000
    outer loop
      vertex  4.514431e+001  8.019485e+001  1.500000e+001
      vertex  3.521297e+001  8.019485e+001  1.500000e+001
      vertex  3.672136e+001  7.968854e+001  1.500000e+001
    endloop
  endfacet
  facet normal  -0.000000e+000  0.000000e+000  9.999999e-001
    outer loop
      vertex  4.514431e+001  8.019485e+001  1.500000e+001
      vertex  3.672136e+001  7.968854e+001  1.500000e+001
      vertex  3.761877e+001  7.837466e+001  1.500000e+001
    endloop
  endfacet
  facet normal  -0.000000e+000  0.000000e+000  1.000000e+000
    outer loop
      vertex  4.514431e+001  8.019485e+001  1.500000e+001
      vertex  3.761877e+001  7.837466e+001  1.500000e+001
      vertex  4.057637e+001  6.582265e+001  1.500000e+001
    endloop
  endfacet
  facet normal  -0.000000e+000  0.000000e+000  1.000000e+000
    outer loop
      vertex  4.514431e+001  8.019485e+001  1.500000e+001
      vertex  4.057637e+001  6.582265e+001  1.500000e+001
      vertex  4.241974e+001  5.305934e+001  1.500000e+001
    endloop
  endfacet
  facet normal  -0.000000e+000  0.000000e+000  9.999999e-001
    outer loop
      vertex  4.514431e+001  8.019485e+001  1.500000e+001
      vertex  4.241974e+001  5.305934e+001  1.500000e+001
      vertex  4.313465e+001  4.018342e+001  1.500000e+001
    endloop
  endfacet
  facet normal  -0.000000e+000  0.000000e+000  1.000000e+000
    outer loop
      vertex  4.514431e+001  8.019485e+001  1.500000e+001
      vertex  4.313465e+001  4.018342e+001  1.500000e+001
      vertex  4.514431e+001 -2.000000e+000  1.500000e+001
    endloop
  endfacet
  facet normal  -0.000000e+000  0.000000e+000  1.000000e+000
    outer loop
      vertex  1.278641e+001  0.000000e+000  1.500000e+001
      vertex  1.902797e+000  0.000000e+000  1.500000e+001
      vertex  1.278641e+001 -2.000000e+000  1.500000e+001
    endloop
  endfacet
  facet normal  0.000000e+000  0.000000e+000  1.000000e+000
    outer loop
      vertex  1.278641e+001 -2.000000e+000  1.500000e+001
      vertex  1.902797e+000  0.000000e+000  1.500000e+001
      vertex -6.985807e+000 -1.414214e+000  1.500000e+001
    endloop
  endfacet
  facet normal  0.000000e+000  0.000000e+000  1.000000e+000
    outer loop
      vertex  1.278641e+001 -2.000000e+000  1.500000e+001
      vertex -6.985807e+000 -1.414214e+000  1.500000e+001
      vertex -5.571594e+000 -2.000000e+000  1.500000e+001
    endloop
  endfacet
  facet normal  -0.000000e+000  1.000000e+000  0.000000e+000
    outer loop
      vertex  3.607627e+001  0.000000e+000  0.000000e+000
      vertex  2.478641e+001  0.000000e+000  1.500000e+001
      vertex  3.607627e+001  0.000000e+000  1.500000e+001
    endloop
  endfacet
  facet normal  5.363894e-017  9.999999e-001  4.037174e-017
    outer loop
      vertex  2.478641e+001  0.000000e+000  1.500000e+001
      vertex  3.607627e+001  0.000000e+000  0.000000e+000
      vertex  2.478641e+001  4.440892e-016  4.000000e+000
    endloop
  endfacet
  facet normal  0.000000e+000  1.000000e+000 -1.110223e-016
    outer loop
      vertex  2.478641e+001  4.440892e-016  4.000000e+000
      vertex  3.607627e+001  0.000000e+000  0.000000e+000
      vertex  1.902797e+000  0.000000e+000  0.000000e+000
    endloop
  endfacet
  facet normal  0.000000e+000  1.000000e+000 -1.110223e-016
    outer loop
      vertex  2.478641e+001  4.440892e-016  4.000000e+000
      vertex  1.902797e+000  0.000000e+000  0.000000e+000
      vertex  1.278641e+001  4.440892e-016  4.000000e+000
    endloop
  endfacet
  facet normal -4.080349e-017  1.000000e+000  0.000000e+000
    outer loop
      vertex  1.278641e+001  4.440892e-016  4.000000e+000
      vertex  1.902797e+000  0.000000e+000  0.000000e+000
      vertex  1.902797e+000  0.000000e+000  1.500000e+001
    endloop
  endfacet
  facet normal  -0.000000e+000  9.999999e-001  4.037174e-017
    outer loop
      vertex  1.278641e+001  4.440892e-016  4.000000e+000
      vertex  1.902797e+000  0.000000e+000  1.500000e+001
      vertex  1.278641e+001  0.000000e+000  1.500000e+001
    endloop
  endfacet
  facet normal  1.000000e+000  -0.000000e+000  0.000000e+000
    outer loop
      vertex  1.278641e+001  0.000000e+000  1.500000e+001
      vertex  1.278641e+001 -2.000000e+000  1.500000e+001
      vertex  1.278641e+001  4.440892e-016  4.000000e+000
    endloop
  endfacet
  facet normal  1.000000e+000  0.000000e+000  0.000000e+000
    outer loop
      vertex  1.278641e+001  4.440892e-016  4.000000e+000
      vertex  1.278641e+001 -2.000000e+000  1.500000e+001
      vertex  1.278641e+001 -2.000000e+000  4.000000e+000
    endloop
  endfacet
  facet normal  -0.000000e+000  0.000000e+000  1.000000e+000
    outer loop
      vertex  2.478641e+001  4.440892e-016  4.000000e+000
      vertex  1.278641e+001  4.440892e-016  4.000000e+000
      vertex  2.478641e+001 -2.000000e+000  4.000000e+000
    endloop
  endfacet
  facet normal  0.000000e+000  0.000000e+000  1.000000e+000
    outer loop
      vertex  2.478641e+001 -2.000000e+000  4.000000e+000
      vertex  1.278641e+001  4.440892e-016  4.000000e+000
      vertex  1.278641e+001 -2.000000e+000  4.000000e+000
    endloop
  endfacet
  facet normal -1.000000e+000  0.000000e+000  0.000000e+000
    outer loop
      vertex  2.478641e+001  4.440892e-016  4.000000e+000
      vertex  2.478641e+001 -2.000000e+000  4.000000e+000
      vertex  2.478641e+001  0.000000e+000  1.500000e+001
    endloop
  endfacet
  facet normal -1.000000e+000  -0.000000e+000  0.000000e+000
    outer loop
      vertex  2.478641e+001  0.000000e+000  1.500000e+001
      vertex  2.478641e+001 -2.000000e+000  4.000000e+000
      vertex  2.478641e+001 -2.000000e+000  1.500000e+001
    endloop
  endfacet
  facet normal -9.984621e-001 -5.543723e-002  -0.000000e+000
    outer loop
      vertex  4.313465e+001  4.018342e+001  0.000000e+000
      vertex  4.241974e+001  5.305934e+001  1.500000e+001
      vertex  4.241974e+001  5.305934e+001  0.000000e+000
    endloop
  endfacet
  facet normal -9.897307e-001 -1.429445e-001  0.000000e+000
    outer loop
      vertex  4.241974e+001  5.305934e+001  0.000000e+000
      vertex  4.241974e+001  5.305934e+001  1.500000e+001
      vertex  4.057637e+001  6.582265e+001  1.500000e+001
    endloop
  endfacet
  facet normal -9.897307e-001 -1.429445e-001  -0.000000e+000
    outer loop
      vertex  4.241974e+001  5.305934e+001  0.000000e+000
      vertex  4.057637e+001  6.582265e+001  1.500000e+001
      vertex  4.057637e+001  6.582265e+001  0.000000e+000
    endloop
  endfacet
  facet normal -9.733448e-001 -2.293466e-001  0.000000e+000
    outer loop
      vertex  4.057637e+001  6.582265e+001  0.000000e+000
      vertex  4.057637e+001  6.582265e+001  1.500000e+001
      vertex  3.761877e+001  7.837466e+001  1.500000e+001
    endloop
  endfacet
  facet normal -9.733448e-001 -2.293466e-001  -0.000000e+000
    outer loop
      vertex  4.057637e+001  6.582265e+001  0.000000e+000
      vertex  3.761877e+001  7.837466e+001  1.500000e+001
      vertex  3.761877e+001  7.837466e+001  0.000000e+000
    endloop
  endfacet
  facet normal -9.984621e-001 -5.543723e-002  0.000000e+000
    outer loop
      vertex  4.241974e+001  5.305934e+001  1.500000e+001
      vertex  4.313465e+001  4.018342e+001  0.000000e+000
      vertex  4.313465e+001  4.018342e+001  1.500000e+001
    endloop
  endfacet
  facet normal -9.994718e-001  3.249922e-002  0.000000e+000
    outer loop
      vertex  4.313465e+001  4.018342e+001  1.500000e+001
      vertex  4.313465e+001  4.018342e+001  0.000000e+000
      vertex  4.271555e+001  2.729448e+001  0.000000e+000
    endloop
  endfacet
  facet normal -9.994718e-001  3.249922e-002  0.000000e+000
    outer loop
      vertex  4.313465e+001  4.018342e+001  1.500000e+001
      vertex  4.271555e+001  2.729448e+001  0.000000e+000
      vertex  4.271555e+001  2.729448e+001  1.500000e+001
    endloop
  endfacet
  facet normal -9.927516e-001  1.201842e-001  0.000000e+000
    outer loop
      vertex  4.271555e+001  2.729448e+001  1.500000e+001
      vertex  4.271555e+001  2.729448e+001  0.000000e+000
      vertex  4.116568e+001  1.449221e+001  0.000000e+000
    endloop
  endfacet
  facet normal -9.927516e-001  1.201842e-001  0.000000e+000
    outer loop
      vertex  4.271555e+001  2.729448e+001  1.500000e+001
      vertex  4.116568e+001  1.449221e+001  0.000000e+000
      vertex  4.116568e+001  1.449221e+001  1.500000e+001
    endloop
  endfacet
  facet normal -9.783537e-001  2.069398e-001  0.000000e+000
    outer loop
      vertex  4.116568e+001  1.449221e+001  1.500000e+001
      vertex  4.116568e+001  1.449221e+001  0.000000e+000
      vertex  3.849704e+001  1.875603e+000  0.000000e+000
    endloop
  endfacet
  facet normal -9.783537e-001  2.069398e-001  0.000000e+000
    outer loop
      vertex  4.116568e+001  1.449221e+001  1.500000e+001
      vertex  3.849704e+001  1.875603e+000  0.000000e+000
      vertex  3.849704e+001  1.875603e+000  1.500000e+001
    endloop
  endfacet
  facet normal  2.187494e-016  3.010828e-016 -1.000000e+000
    outer loop
      vertex  5.236911e+001  7.116409e+000 -1.776357e-015
      vertex  5.099411e+001  8.115405e+000 -1.776357e-015
      vertex  5.514431e+001  1.100000e+001  0.000000e+000
    endloop
  endfacet
  facet normal  1.405923e-016  1.935078e-016 -1.000000e+000
    outer loop
      vertex -1.034680e+001  7.631126e+001 -1.776357e-015
      vertex -1.172180e+001  7.731026e+001 -1.776357e-015
      vertex -5.111838e-001  7.834501e+001  0.000000e+000
    endloop
  endfacet
  facet normal  0.000000e+000  -0.000000e+000 -1.000000e+000
    outer loop
      vertex -1.757159e+001  8.019485e+001  0.000000e+000
      vertex -1.698581e+001  8.160907e+001  0.000000e+000
      vertex -1.557159e+001  8.219485e+001  0.000000e+000
    endloop
  endfacet
  facet normal -2.525102e-016  2.525102e-016 -1.000000e+000
    outer loop
      vertex -1.757159e+001  8.019485e+001  0.000000e+000
      vertex -1.557159e+001  8.219485e+001  0.000000e+000
      vertex -1.342139e+001  7.731026e+001 -1.776357e-015
    endloop
  endfacet
  facet normal -2.187501e-016  3.010823e-016 -1.000000e+000
    outer loop
      vertex -1.757159e+001  8.019485e+001  0.000000e+000
      vertex -1.342139e+001  7.731026e+001 -1.776357e-015
      vertex -1.479639e+001  7.631126e+001 -1.776357e-015
    endloop
  endfacet
  facet normal -6.400816e-016  0.000000e+000 -1.000000e+000
    outer loop
      vertex -1.757159e+001  8.019485e+001  0.000000e+000
      vertex -1.479639e+001  7.631126e+001 -1.776357e-015
      vertex -1.757159e+001  6.919485e+001  0.000000e+000
    endloop
  endfacet
  facet normal  0.000000e+000  0.000000e+000 -1.000000e+000
    outer loop
      vertex -7.571594e+000  0.000000e+000  0.000000e+000
      vertex -5.006434e+000  5.297836e+001  0.000000e+000
      vertex -5.571594e+000  4.009743e+001  0.000000e+000
    endloop
  endfacet
  facet normal  0.000000e+000  -0.000000e+000 -1.000000e+000
    outer loop
      vertex -7.571594e+000  0.000000e+000  0.000000e+000
      vertex -5.571594e+000  4.009743e+001  0.000000e+000
      vertex -5.006434e+000  2.721649e+001  0.000000e+000
    endloop
  endfacet
  facet normal  0.000000e+000  -0.000000e+000 -1.000000e+000
    outer loop
      vertex -7.571594e+000  0.000000e+000  0.000000e+000
      vertex -5.006434e+000  2.721649e+001  0.000000e+000
      vertex -3.315298e+000  1.443455e+001  0.000000e+000
    endloop
  endfacet
  facet normal  0.000000e+000  -0.000000e+000 -1.000000e+000
    outer loop
      vertex -7.571594e+000  0.000000e+000  0.000000e+000
      vertex -3.315298e+000  1.443455e+001  0.000000e+000
      vertex -5.111838e-001  1.849848e+000  0.000000e+000
    endloop
  endfacet
  facet normal  0.000000e+000  -0.000000e+000 -1.000000e+000
    outer loop
      vertex -7.571594e+000  0.000000e+000  0.000000e+000
      vertex -5.111838e-001  1.849848e+000  0.000000e+000
      vertex  3.821687e-001  5.156385e-001  0.000000e+000
    endloop
  endfacet
  facet normal  0.000000e+000  -0.000000e+000 -9.999999e-001
    outer loop
      vertex -7.571594e+000  0.000000e+000  0.000000e+000
      vertex  3.821687e-001  5.156385e-001  0.000000e+000
      vertex  1.902797e+000  0.000000e+000  0.000000e+000
    endloop
  endfacet
  facet normal  -0.000000e+000  0.000000e+000 -1.000000e+000
    outer loop
      vertex -7.571594e+000  0.000000e+000  0.000000e+000
      vertex  1.902797e+000  0.000000e+000  0.000000e+000
      vertex -6.985807e+000 -1.414214e+000  0.000000e+000
    endloop
  endfacet
  facet normal -1.717565e-016 -5.095979e-016 -9.999999e-001
    outer loop
      vertex -7.571594e+000  6.719485e+001  0.000000e+000
      vertex -1.172180e+001  7.207945e+001 -1.776357e-015
      vertex -3.315298e+000  6.576030e+001  0.000000e+000
    endloop
  endfacet
  facet normal  -0.000000e+000  0.000000e+000 -1.000000e+000
    outer loop
      vertex -7.571594e+000  6.719485e+001  0.000000e+000
      vertex -3.315298e+000  6.576030e+001  0.000000e+000
      vertex -5.006434e+000  5.297836e+001  0.000000e+000
    endloop
  endfacet
  facet normal  -0.000000e+000  0.000000e+000 -1.000000e+000
    outer loop
      vertex -7.571594e+000  6.719485e+001  0.000000e+000
      vertex -5.006434e+000  5.297836e+001  0.000000e+000
      vertex -7.571594e+000  0.000000e+000  0.000000e+000
    endloop
  endfacet
  facet normal  -0.000000e+000  -0.000000e+000 -1.000000e+000
    outer loop
      vertex -1.557159e+001  8.219485e+001  0.000000e+000
      vertex  4.314431e+001  8.219485e+001  0.000000e+000
      vertex  4.455853e+001  8.160907e+001  0.000000e+000
    endloop
  endfacet
  facet normal  -0.000000e+000  0.000000e+000 -9.999999e-001
    outer loop
      vertex -1.557159e+001  8.219485e+001  0.000000e+000
      vertex  4.455853e+001  8.160907e+001  0.000000e+000
      vertex  3.521297e+001  8.019485e+001  0.000000e+000
    endloop
  endfacet
  facet normal  0.000000e+000  0.000000e+000 -1.000000e+000
    outer loop
      vertex -1.557159e+001  8.219485e+001  0.000000e+000
      vertex  3.521297e+001  8.019485e+001  0.000000e+000
      vertex  1.902797e+000  8.019485e+001  0.000000e+000
    endloop
  endfacet
  facet normal  -0.000000e+000  0.000000e+000 -1.000000e+000
    outer loop
      vertex -1.557159e+001  8.219485e+001  0.000000e+000
      vertex  1.902797e+000  8.019485e+001  0.000000e+000
      vertex  3.821687e-001  7.967921e+001  0.000000e+000
    endloop
  endfacet
  facet normal  -0.000000e+000  0.000000e+000 -1.000000e+000
    outer loop
      vertex -1.557159e+001  8.219485e+001  0.000000e+000
      vertex  3.821687e-001  7.967921e+001  0.000000e+000
      vertex -5.111838e-001  7.834501e+001  0.000000e+000
    endloop
  endfacet
  facet normal  1.164177e-016  4.554202e-016 -9.999999e-001
    outer loop
      vertex -1.557159e+001  8.219485e+001  0.000000e+000
      vertex -5.111838e-001  7.834501e+001  0.000000e+000
      vertex -1.172180e+001  7.731026e+001 -1.776357e-015
    endloop
  endfacet
  facet normal  0.000000e+000  3.636655e-016 -1.000000e+000
    outer loop
      vertex -1.557159e+001  8.219485e+001  0.000000e+000
      vertex -1.172180e+001  7.731026e+001 -1.776357e-015
      vertex -1.342139e+001  7.731026e+001 -1.776357e-015
    endloop
  endfacet
  facet normal -3.837121e-015  1.246757e-015 -1.000000e+000
    outer loop
      vertex -1.757159e+001  6.919485e+001  0.000000e+000
      vertex -1.479639e+001  7.631126e+001 -1.776357e-015
      vertex -1.532159e+001  7.469485e+001 -1.776357e-015
    endloop
  endfacet
  facet normal -4.400125e-016 -1.429689e-016 -1.000000e+000
    outer loop
      vertex -1.757159e+001  6.919485e+001  0.000000e+000
      vertex -1.532159e+001  7.469485e+001 -1.776357e-015
      vertex -1.479639e+001  7.307845e+001 -1.776357e-015
    endloop
  endfacet
  facet normal -2.187491e-016 -3.010832e-016 -1.000000e+000
    outer loop
      vertex -1.757159e+001  6.919485e+001  0.000000e+000
      vertex -1.479639e+001  7.307845e+001 -1.776357e-015
      vertex -1.342139e+001  7.207945e+001 -1.776357e-015
    endloop
  endfacet
  facet normal  1.038557e-016 -1.429455e-016 -1.000000e+000
    outer loop
      vertex -3.315298e+000  6.576030e+001  0.000000e+000
      vertex -1.172180e+001  7.207945e+001 -1.776357e-015
      vertex -1.034680e+001  7.307845e+001 -1.776357e-015
    endloop
  endfacet
  facet normal  1.887872e-016 -6.134063e-017 -1.000000e+000
    outer loop
      vertex -3.315298e+000  6.576030e+001  0.000000e+000
      vertex -1.034680e+001  7.307845e+001 -1.776357e-015
      vertex -9.821594e+000  7.469485e+001 -1.776357e-015
    endloop
  endfacet
  facet normal  4.929825e-016  1.601796e-016 -1.000000e+000
    outer loop
      vertex -3.315298e+000  6.576030e+001  0.000000e+000
      vertex -9.821594e+000  7.469485e+001 -1.776357e-015
      vertex -1.034680e+001  7.631126e+001 -1.776357e-015
    endloop
  endfacet
  facet normal  1.893275e-016 -4.218579e-017 -9.999999e-001
    outer loop
      vertex -3.315298e+000  6.576030e+001  0.000000e+000
      vertex -1.034680e+001  7.631126e+001 -1.776357e-015
      vertex -5.111838e-001  7.834501e+001  0.000000e+000
    endloop
  endfacet
  facet normal  0.000000e+000  0.000000e+000 -1.000000e+000
    outer loop
      vertex  4.514431e+001  1.300000e+001  0.000000e+000
      vertex  4.116568e+001  1.449221e+001  0.000000e+000
      vertex  4.271555e+001  2.729448e+001  0.000000e+000
    endloop
  endfacet
  facet normal  0.000000e+000  0.000000e+000 -1.000000e+000
    outer loop
      vertex  4.514431e+001  1.300000e+001  0.000000e+000
      vertex  4.271555e+001  2.729448e+001  0.000000e+000
      vertex  4.313465e+001  4.018342e+001  0.000000e+000
    endloop
  endfacet
  facet normal  0.000000e+000  0.000000e+000 -1.000000e+000
    outer loop
      vertex  4.514431e+001  1.300000e+001  0.000000e+000
      vertex  4.313465e+001  4.018342e+001  0.000000e+000
      vertex  4.241974e+001  5.305934e+001  0.000000e+000
    endloop
  endfacet
  facet normal  0.000000e+000  0.000000e+000 -1.000000e+000
    outer loop
      vertex  4.514431e+001  8.019485e+001  0.000000e+000
      vertex  4.514431e+001  1.300000e+001  0.000000e+000
      vertex  4.241974e+001  5.305934e+001  0.000000e+000
    endloop
  endfacet
  facet normal  0.000000e+000  0.000000e+000 -1.000000e+000
    outer loop
      vertex  4.514431e+001  8.019485e+001  0.000000e+000
      vertex  4.241974e+001  5.305934e+001  0.000000e+000
      vertex  4.057637e+001  6.582265e+001  0.000000e+000
    endloop
  endfacet
  facet normal  0.000000e+000  0.000000e+000 -1.000000e+000
    outer loop
      vertex  4.514431e+001  8.019485e+001  0.000000e+000
      vertex  4.057637e+001  6.582265e+001  0.000000e+000
      vertex  3.761877e+001  7.837466e+001  0.000000e+000
    endloop
  endfacet
  facet normal  0.000000e+000  0.000000e+000 -9.999999e-001
    outer loop
      vertex  4.514431e+001  8.019485e+001  0.000000e+000
      vertex  3.761877e+001  7.837466e+001  0.000000e+000
      vertex  3.672136e+001  7.968854e+001  0.000000e+000
    endloop
  endfacet
  facet normal  0.000000e+000  0.000000e+000 -1.000000e+000
    outer loop
      vertex  4.514431e+001  8.019485e+001  0.000000e+000
      vertex  3.672136e+001  7.968854e+001  0.000000e+000
      vertex  3.521297e+001  8.019485e+001  0.000000e+000
    endloop
  endfacet
  facet normal  0.000000e+000  0.000000e+000 -1.000000e+000
    outer loop
      vertex  4.514431e+001  8.019485e+001  0.000000e+000
      vertex  3.521297e+001  8.019485e+001  0.000000e+000
      vertex  4.455853e+001  8.160907e+001  0.000000e+000
    endloop
  endfacet
  facet normal  0.000000e+000  -0.000000e+000 -1.000000e+000
    outer loop
      vertex  3.849704e+001  1.875603e+000  0.000000e+000
      vertex  4.116568e+001  1.449221e+001  0.000000e+000
      vertex  4.514431e+001  1.300000e+001  0.000000e+000
    endloop
  endfacet
  facet normal -2.512902e-016  1.501560e-016 -9.999999e-001
    outer loop
      vertex  3.849704e+001  1.875603e+000  0.000000e+000
      vertex  4.514431e+001  1.300000e+001  0.000000e+000
      vertex  4.929451e+001  8.115405e+000 -1.776357e-015
    endloop
  endfacet
  facet normal -8.040996e-016  1.106748e-015 -1.000000e+000
    outer loop
      vertex  3.849704e+001  1.875603e+000  0.000000e+000
      vertex  4.929451e+001  8.115405e+000 -1.776357e-015
      vertex  4.791951e+001  7.116409e+000 -1.776357e-015
    endloop
  endfacet
  facet normal -2.301089e-016  7.476699e-017 -1.000000e+000
    outer loop
      vertex  3.849704e+001  1.875603e+000  0.000000e+000
      vertex  4.791951e+001  7.116409e+000 -1.776357e-015
      vertex  4.739431e+001  5.500000e+000 -1.776357e-015
    endloop
  endfacet
  facet normal -1.763149e-016 -5.728822e-017 -1.000000e+000
    outer loop
      vertex  3.849704e+001  1.875603e+000  0.000000e+000
      vertex  4.739431e+001  5.500000e+000 -1.776357e-015
      vertex  4.791951e+001  3.883590e+000 -1.776357e-015
    endloop
  endfacet
  facet normal -1.457675e-016 -2.006318e-016 -1.000000e+000
    outer loop
      vertex  3.849704e+001  1.875603e+000  0.000000e+000
      vertex  4.791951e+001  3.883590e+000 -1.776357e-015
      vertex  4.929451e+001  2.884595e+000 -1.776357e-015
    endloop
  endfacet
  facet normal -1.752955e-016  1.153552e-016 -1.000000e+000
    outer loop
      vertex  3.849704e+001  1.875603e+000  0.000000e+000
      vertex  4.929451e+001  2.884595e+000 -1.776357e-015
      vertex  3.760744e+001  5.237672e-001  0.000000e+000
    endloop
  endfacet
  facet normal  2.187495e-016 -3.010829e-016 -1.000000e+000
    outer loop
      vertex  5.514431e+001 -6.217249e-015  0.000000e+000
      vertex  5.099411e+001  2.884595e+000 -1.776357e-015
      vertex  5.236911e+001  3.883590e+000 -1.776357e-015
    endloop
  endfacet
  facet normal  4.400125e-016 -1.429688e-016 -9.999999e-001
    outer loop
      vertex  5.514431e+001 -6.217249e-015  0.000000e+000
      vertex  5.236911e+001  3.883590e+000 -1.776357e-015
      vertex  5.289431e+001  5.500000e+000 -1.776357e-015
    endloop
  endfacet
  facet normal  3.837121e-015  1.246757e-015 -1.000000e+000
    outer loop
      vertex  5.514431e+001 -6.217249e-015  0.000000e+000
      vertex  5.289431e+001  5.500000e+000 -1.776357e-015
      vertex  5.236911e+001  7.116409e+000 -1.776357e-015
    endloop
  endfacet
  facet normal  6.400816e-016  0.000000e+000 -1.000000e+000
    outer loop
      vertex  5.514431e+001 -6.217249e-015  0.000000e+000
      vertex  5.236911e+001  7.116409e+000 -1.776357e-015
      vertex  5.514431e+001  1.100000e+001  0.000000e+000
    endloop
  endfacet
  facet normal -1.110223e-015 -1.306967e-015 -1.000000e+000
    outer loop
      vertex -7.571594e+000  6.719485e+001  0.000000e+000
      vertex -1.557159e+001  6.719485e+001  8.881784e-015
      vertex -1.172180e+001  7.207945e+001 -1.776357e-015
    endloop
  endfacet
  facet normal  -0.000000e+000 -2.181989e-015 -1.000000e+000
    outer loop
      vertex -1.172180e+001  7.207945e+001 -1.776357e-015
      vertex -1.557159e+001  6.719485e+001  8.881784e-015
      vertex -1.342139e+001  7.207945e+001 -1.776357e-015
    endloop
  endfacet
  facet normal  4.547405e-015 -4.183761e-015 -1.000000e+000
    outer loop
      vertex -1.557159e+001  6.719485e+001  8.881784e-015
      vertex -1.698581e+001  6.778064e+001  0.000000e+000
      vertex -1.342139e+001  7.207945e+001 -1.776357e-015
    endloop
  endfacet
  facet normal -3.323372e-016 -1.376585e-016 -1.000000e+000
    outer loop
      vertex -1.342139e+001  7.207945e+001 -1.776357e-015
      vertex -1.698581e+001  6.778064e+001  0.000000e+000
      vertex -1.757159e+001  6.919485e+001  0.000000e+000
    endloop
  endfacet
  facet normal -3.712001e-016  1.085164e-015 -1.000000e+000
    outer loop
      vertex  3.760744e+001  5.237672e-001  0.000000e+000
      vertex  4.929451e+001  2.884595e+000 -1.776357e-015
      vertex  3.607627e+001  0.000000e+000  0.000000e+000
    endloop
  endfacet
  facet normal  0.000000e+000 -6.158081e-016 -1.000000e+000
    outer loop
      vertex  3.607627e+001  0.000000e+000  0.000000e+000
      vertex  4.929451e+001  2.884595e+000 -1.776357e-015
      vertex  5.099411e+001  2.884595e+000 -1.776357e-015
    endloop
  endfacet
  facet normal -4.493121e-017 -3.834439e-016 -1.000000e+000
    outer loop
      vertex  3.607627e+001  0.000000e+000  0.000000e+000
      vertex  5.099411e+001  2.884595e+000 -1.776357e-015
      vertex  5.314431e+001 -2.000000e+000  0.000000e+000
    endloop
  endfacet
  facet normal  2.525100e-016 -2.525100e-016 -1.000000e+000
    outer loop
      vertex  5.314431e+001 -2.000000e+000  0.000000e+000
      vertex  5.099411e+001  2.884595e+000 -1.776357e-015
      vertex  5.514431e+001 -6.217249e-015  0.000000e+000
    endloop
  endfacet
  facet normal  0.000000e+000  0.000000e+000 -1.000000e+000
    outer loop
      vertex  5.314431e+001 -2.000000e+000  0.000000e+000
      vertex  5.514431e+001 -6.217249e-015  0.000000e+000
      vertex  5.455853e+001 -1.414214e+000  0.000000e+000
    endloop
  endfacet
  facet normal  3.323375e-016  1.376584e-016 -1.000000e+000
    outer loop
      vertex  5.514431e+001  1.100000e+001  0.000000e+000
      vertex  5.099411e+001  8.115405e+000 -1.776357e-015
      vertex  5.455853e+001  1.241421e+001  0.000000e+000
    endloop
  endfacet
  facet normal  1.274044e-016  3.075816e-016 -1.000000e+000
    outer loop
      vertex  5.455853e+001  1.241421e+001  0.000000e+000
      vertex  5.099411e+001  8.115405e+000 -1.776357e-015
      vertex  5.314431e+001  1.300000e+001  0.000000e+000
    endloop
  endfacet
  facet normal  0.000000e+000  3.636651e-016 -1.000000e+000
    outer loop
      vertex  5.099411e+001  8.115405e+000 -1.776357e-015
      vertex  4.929451e+001  8.115405e+000 -1.776357e-015
      vertex  5.314431e+001  1.300000e+001  0.000000e+000
    endloop
  endfacet
  facet normal  0.000000e+000  3.636651e-016 -1.000000e+000
    outer loop
      vertex  5.314431e+001  1.300000e+001  0.000000e+000
      vertex  4.929451e+001  8.115405e+000 -1.776357e-015
      vertex  4.514431e+001  1.300000e+001  0.000000e+000
    endloop
  endfacet
  facet normal  0.000000e+000  0.000000e+000 -1.000000e+000
    outer loop
      vertex  5.314431e+001 -2.000000e+000  0.000000e+000
      vertex -5.571594e+000 -2.000000e+000  0.000000e+000
      vertex  3.607627e+001  0.000000e+000  0.000000e+000
    endloop
  endfacet
  facet normal  0.000000e+000  0.000000e+000 -1.000000e+000
    outer loop
      vertex  3.607627e+001  0.000000e+000  0.000000e+000
      vertex -5.571594e+000 -2.000000e+000  0.000000e+000
      vertex -6.985807e+000 -1.414214e+000  0.000000e+000
    endloop
  endfacet
  facet normal  0.000000e+000  0.000000e+000 -1.000000e+000
    outer loop
      vertex  3.607627e+001  0.000000e+000  0.000000e+000
      vertex -6.985807e+000 -1.414214e+000  0.000000e+000
      vertex  1.902797e+000  0.000000e+000  0.000000e+000
    endloop
  endfacet
  facet normal -8.353531e-001  5.497137e-001  0.000000e+000
    outer loop
      vertex  3.849704e+001  1.875603e+000  0.000000e+000
      vertex  3.760744e+001  5.237672e-001  0.000000e+000
      vertex  3.849704e+001  1.875603e+000  1.500000e+001
    endloop
  endfacet
  facet normal -8.353531e-001  5.497137e-001  0.000000e+000
    outer loop
      vertex  3.849704e+001  1.875603e+000  1.500000e+001
      vertex  3.760744e+001  5.237672e-001  0.000000e+000
      vertex  3.760744e+001  5.237672e-001  1.500000e+001
    endloop
  endfacet
  facet normal -3.236563e-001  9.461747e-001  0.000000e+000
    outer loop
      vertex  3.760744e+001  5.237672e-001  0.000000e+000
      vertex  3.607627e+001  0.000000e+000  0.000000e+000
      vertex  3.760744e+001  5.237672e-001  1.500000e+001
    endloop
  endfacet
  facet normal -3.236563e-001  9.461747e-001  0.000000e+000
    outer loop
      vertex  3.760744e+001  5.237672e-001  1.500000e+001
      vertex  3.607627e+001  0.000000e+000  0.000000e+000
      vertex  3.607627e+001  0.000000e+000  1.500000e+001
    endloop
  endfacet
  facet normal  0.000000e+000 -1.000000e+000  0.000000e+000
    outer loop
      vertex  3.521297e+001  8.019485e+001  1.500000e+001
      vertex  1.902797e+000  8.019485e+001  1.500000e+001
      vertex  3.521297e+001  8.019485e+001  0.000000e+000
    endloop
  endfacet
  facet normal  0.000000e+000 -1.000000e+000  0.000000e+000
    outer loop
      vertex  3.521297e+001  8.019485e+001  0.000000e+000
      vertex  1.902797e+000  8.019485e+001  1.500000e+001
      vertex  1.902797e+000  8.019485e+001  0.000000e+000
    endloop
  endfacet
  facet normal -3.182180e-001 -9.480175e-001  0.000000e+000
    outer loop
      vertex  3.521297e+001  8.019485e+001  0.000000e+000
      vertex  3.672136e+001  7.968854e+001  0.000000e+000
      vertex  3.521297e+001  8.019485e+001  1.500000e+001
    endloop
  endfacet
  facet normal -3.182180e-001 -9.480175e-001  0.000000e+000
    outer loop
      vertex  3.521297e+001  8.019485e+001  1.500000e+001
      vertex  3.672136e+001  7.968854e+001  0.000000e+000
      vertex  3.672136e+001  7.968854e+001  1.500000e+001
    endloop
  endfacet
  facet normal -8.257635e-001 -5.640166e-001  0.000000e+000
    outer loop
      vertex  3.672136e+001  7.968854e+001  0.000000e+000
      vertex  3.761877e+001  7.837466e+001  0.000000e+000
      vertex  3.672136e+001  7.968854e+001  1.500000e+001
    endloop
  endfacet
  facet normal -8.257635e-001 -5.640166e-001  0.000000e+000
    outer loop
      vertex  3.672136e+001  7.968854e+001  1.500000e+001
      vertex  3.761877e+001  7.837466e+001  0.000000e+000
      vertex  3.761877e+001  7.837466e+001  1.500000e+001
    endloop
  endfacet
  facet normal  9.990388e-001  4.383351e-002  0.000000e+000
    outer loop
      vertex -5.571594e+000  4.009743e+001  0.000000e+000
      vertex -5.006434e+000  2.721649e+001  1.500000e+001
      vertex -5.006434e+000  2.721649e+001  0.000000e+000
    endloop
  endfacet
  facet normal  9.913607e-001  1.311636e-001  -0.000000e+000
    outer loop
      vertex -5.006434e+000  2.721649e+001  0.000000e+000
      vertex -5.006434e+000  2.721649e+001  1.500000e+001
      vertex -3.315298e+000  1.443455e+001  1.500000e+001
    endloop
  endfacet
  facet normal  9.913607e-001  1.311636e-001  0.000000e+000
    outer loop
      vertex -5.006434e+000  2.721649e+001  0.000000e+000
      vertex -3.315298e+000  1.443455e+001  1.500000e+001
      vertex -3.315298e+000  1.443455e+001  0.000000e+000
    endloop
  endfacet
  facet normal  9.760635e-001  2.174857e-001  -0.000000e+000
    outer loop
      vertex -3.315298e+000  1.443455e+001  0.000000e+000
      vertex -3.315298e+000  1.443455e+001  1.500000e+001
      vertex -5.111838e-001  1.849848e+000  1.500000e+001
    endloop
  endfacet
  facet normal  9.760635e-001  2.174857e-001  0.000000e+000
    outer loop
      vertex -3.315298e+000  1.443455e+001  0.000000e+000
      vertex -5.111838e-001  1.849848e+000  1.500000e+001
      vertex -5.111838e-001  1.849848e+000  0.000000e+000
    endloop
  endfacet
  facet normal  9.990388e-001  4.383351e-002  -0.000000e+000
    outer loop
      vertex -5.006434e+000  2.721649e+001  1.500000e+001
      vertex -5.571594e+000  4.009743e+001  0.000000e+000
      vertex -5.571594e+000  4.009743e+001  1.500000e+001
    endloop
  endfacet
  facet normal  9.990388e-001 -4.383351e-002  0.000000e+000
    outer loop
      vertex -5.571594e+000  4.009743e+001  1.500000e+001
      vertex -5.571594e+000  4.009743e+001  0.000000e+000
      vertex -5.006434e+000  5.297836e+001  0.000000e+000
    endloop
  endfacet
  facet normal  9.990388e-001 -4.383351e-002  0.000000e+000
    outer loop
      vertex -5.571594e+000  4.009743e+001  1.500000e+001
      vertex -5.006434e+000  5.297836e+001  0.000000e+000
      vertex -5.006434e+000  5.297836e+001  1.500000e+001
    endloop
  endfacet
  facet normal  9.913607e-001 -1.311637e-001  0.000000e+000
    outer loop
      vertex -5.006434e+000  5.297836e+001  1.500000e+001
      vertex -5.006434e+000  5.297836e+001  0.000000e+000
      vertex -3.315298e+000  6.576030e+001  0.000000e+000
    endloop
  endfacet
  facet normal  9.913607e-001 -1.311637e-001  0.000000e+000
    outer loop
      vertex -5.006434e+000  5.297836e+001  1.500000e+001
      vertex -3.315298e+000  6.576030e+001  0.000000e+000
      vertex -3.315298e+000  6.576030e+001  1.500000e+001
    endloop
  endfacet
  facet normal  9.760635e-001 -2.174857e-001  0.000000e+000
    outer loop
      vertex -3.315298e+000  6.576030e+001  1.500000e+001
      vertex -3.315298e+000  6.576030e+001  0.000000e+000
      vertex -5.111838e-001  7.834501e+001  0.000000e+000
    endloop
  endfacet
  facet normal  9.760635e-001 -2.174857e-001  0.000000e+000
    outer loop
      vertex -3.315298e+000  6.576030e+001  1.500000e+001
      vertex -5.111838e-001  7.834501e+001  0.000000e+000
      vertex -5.111838e-001  7.834501e+001  1.500000e+001
    endloop
  endfacet
  facet normal  3.211350e-001  9.470334e-001  0.000000e+000
    outer loop
      vertex  1.902797e+000  0.000000e+000  0.000000e+000
      vertex  3.821687e-001  5.156385e-001  0.000000e+000
      vertex  1.902797e+000  0.000000e+000  1.500000e+001
    endloop
  endfacet
  facet normal  3.211350e-001  9.470334e-001  0.000000e+000
    outer loop
      vertex  1.902797e+000  0.000000e+000  1.500000e+001
      vertex  3.821687e-001  5.156385e-001  0.000000e+000
      vertex  3.821687e-001  5.156385e-001  1.500000e+001
    endloop
  endfacet
  facet normal  8.309334e-001  5.563719e-001  0.000000e+000
    outer loop
      vertex  3.821687e-001  5.156385e-001  0.000000e+000
      vertex -5.111838e-001  1.849848e+000  0.000000e+000
      vertex  3.821687e-001  5.156385e-001  1.500000e+001
    endloop
  endfacet
  facet normal  8.309334e-001  5.563719e-001  0.000000e+000
    outer loop
      vertex  3.821687e-001  5.156385e-001  1.500000e+001
      vertex -5.111838e-001  1.849848e+000  0.000000e+000
      vertex -5.111838e-001  1.849848e+000  1.500000e+001
    endloop
  endfacet
  facet normal  8.309327e-001 -5.563729e-001  0.000000e+000
    outer loop
      vertex -5.111838e-001  7.834501e+001  0.000000e+000
      vertex  3.821687e-001  7.967921e+001  0.000000e+000
      vertex -5.111838e-001  7.834501e+001  1.500000e+001
    endloop
  endfacet
  facet normal  8.309327e-001 -5.563729e-001  0.000000e+000
    outer loop
      vertex -5.111838e-001  7.834501e+001  1.500000e+001
      vertex  3.821687e-001  7.967921e+001  0.000000e+000
      vertex  3.821687e-001  7.967921e+001  1.500000e+001
    endloop
  endfacet
  facet normal  3.211360e-001 -9.470330e-001  0.000000e+000
    outer loop
      vertex  3.821687e-001  7.967921e+001  0.000000e+000
      vertex  1.902797e+000  8.019485e+001  0.000000e+000
      vertex  3.821687e-001  7.967921e+001  1.500000e+001
    endloop
  endfacet
  facet normal  3.211360e-001 -9.470330e-001  0.000000e+000
    outer loop
      vertex  3.821687e-001  7.967921e+001  1.500000e+001
      vertex  1.902797e+000  8.019485e+001  0.000000e+000
      vertex  1.902797e+000  8.019485e+001  1.500000e+001
    endloop
  endfacet
  facet normal  -0.000000e+000  0.000000e+000  1.000000e+000
    outer loop
      vertex -7.571594e+000  8.219485e+001  1.000000e+001
      vertex -1.034680e+001  7.631126e+001  1.000000e+001
      vertex -9.821594e+000  7.469485e+001  1.000000e+001
    endloop
  endfacet
  facet normal  -0.000000e+000  0.000000e+000  1.000000e+000
    outer loop
      vertex -7.571594e+000  8.219485e+001  1.000000e+001
      vertex -1.172180e+001  7.731026e+001  1.000000e+001
      vertex -1.034680e+001  7.631126e+001  1.000000e+001
    endloop
  endfacet
  facet normal  0.000000e+000  0.000000e+000  1.000000e+000
    outer loop
      vertex -1.557159e+001  6.719485e+001  1.000000e+001
      vertex -1.172180e+001  7.207945e+001  1.000000e+001
      vertex -1.342139e+001  7.207945e+001  1.000000e+001
    endloop
  endfacet
  facet normal  -0.000000e+000  -0.000000e+000  1.000000e+000
    outer loop
      vertex -1.757159e+001  6.919485e+001  1.000000e+001
      vertex -1.698581e+001  6.778064e+001  1.000000e+001
      vertex -1.557159e+001  6.719485e+001  1.000000e+001
    endloop
  endfacet
  facet normal  0.000000e+000  -0.000000e+000  9.999999e-001
    outer loop
      vertex -1.757159e+001  6.919485e+001  1.000000e+001
      vertex -1.557159e+001  6.719485e+001  1.000000e+001
      vertex -1.342139e+001  7.207945e+001  1.000000e+001
    endloop
  endfacet
  facet normal  0.000000e+000  0.000000e+000  1.000000e+000
    outer loop
      vertex -1.757159e+001  6.919485e+001  1.000000e+001
      vertex -1.342139e+001  7.207945e+001  1.000000e+001
      vertex -1.479639e+001  7.307845e+001  1.000000e+001
    endloop
  endfacet
  facet normal  0.000000e+000  0.000000e+000  1.000000e+000
    outer loop
      vertex -1.757159e+001  6.919485e+001  1.000000e+001
      vertex -1.479639e+001  7.307845e+001  1.000000e+001
      vertex -1.757159e+001  8.019485e+001  1.000000e+001
    endloop
  endfacet
  facet normal  -0.000000e+000  0.000000e+000  1.000000e+000
    outer loop
      vertex -1.557159e+001  8.219485e+001  1.000000e+001
      vertex -1.698581e+001  8.160907e+001  1.000000e+001
      vertex -1.757159e+001  8.019485e+001  1.000000e+001
    endloop
  endfacet
  facet normal  -0.000000e+000  0.000000e+000  1.000000e+000
    outer loop
      vertex -1.557159e+001  8.219485e+001  1.000000e+001
      vertex -1.757159e+001  8.019485e+001  1.000000e+001
      vertex -1.342139e+001  7.731026e+001  1.000000e+001
    endloop
  endfacet
  facet normal  0.000000e+000  -0.000000e+000  1.000000e+000
    outer loop
      vertex -1.557159e+001  8.219485e+001  1.000000e+001
      vertex -1.342139e+001  7.731026e+001  1.000000e+001
      vertex -1.172180e+001  7.731026e+001  1.000000e+001
    endloop
  endfacet
  facet normal  0.000000e+000  -0.000000e+000  1.000000e+000
    outer loop
      vertex -1.557159e+001  8.219485e+001  1.000000e+001
      vertex -1.172180e+001  7.731026e+001  1.000000e+001
      vertex -7.571594e+000  8.219485e+001  1.000000e+001
    endloop
  endfacet
  facet normal  0.000000e+000  0.000000e+000  1.000000e+000
    outer loop
      vertex -7.571594e+000  6.719485e+001  1.000000e+001
      vertex -7.571594e+000  8.219485e+001  1.000000e+001
      vertex -9.821594e+000  7.469485e+001  1.000000e+001
    endloop
  endfacet
  facet normal  0.000000e+000  0.000000e+000  1.000000e+000
    outer loop
      vertex -7.571594e+000  6.719485e+001  1.000000e+001
      vertex -9.821594e+000  7.469485e+001  1.000000e+001
      vertex -1.034680e+001  7.307845e+001  1.000000e+001
    endloop
  endfacet
  facet normal  0.000000e+000  0.000000e+000  1.000000e+000
    outer loop
      vertex -7.571594e+000  6.719485e+001  1.000000e+001
      vertex -1.034680e+001  7.307845e+001  1.000000e+001
      vertex -1.172180e+001  7.207945e+001  1.000000e+001
    endloop
  endfacet
  facet normal  0.000000e+000  0.000000e+000  1.000000e+000
    outer loop
      vertex -7.571594e+000  6.719485e+001  1.000000e+001
      vertex -1.172180e+001  7.207945e+001  1.000000e+001
      vertex -1.557159e+001  6.719485e+001  1.000000e+001
    endloop
  endfacet
  facet normal  0.000000e+000  0.000000e+000  1.000000e+000
    outer loop
      vertex -1.757159e+001  8.019485e+001  1.000000e+001
      vertex -1.479639e+001  7.307845e+001  1.000000e+001
      vertex -1.532159e+001  7.469485e+001  1.000000e+001
    endloop
  endfacet
  facet normal  0.000000e+000  -0.000000e+000  1.000000e+000
    outer loop
      vertex -1.757159e+001  8.019485e+001  1.000000e+001
      vertex -1.532159e+001  7.469485e+001  1.000000e+001
      vertex -1.479639e+001  7.631126e+001  1.000000e+001
    endloop
  endfacet
  facet normal  0.000000e+000  -0.000000e+000  1.000000e+000
    outer loop
      vertex -1.757159e+001  8.019485e+001  1.000000e+001
      vertex -1.479639e+001  7.631126e+001  1.000000e+001
      vertex -1.342139e+001  7.731026e+001  1.000000e+001
    endloop
  endfacet
  facet normal -9.999999e-001  0.000000e+000  0.000000e+000
    outer loop
      vertex -1.757159e+001  8.019485e+001  0.000000e+000
      vertex -1.757159e+001  6.919485e+001  0.000000e+000
      vertex -1.757159e+001  8.019485e+001  1.000000e+001
    endloop
  endfacet
  facet normal -9.999999e-001  -0.000000e+000  0.000000e+000
    outer loop
      vertex -1.757159e+001  8.019485e+001  1.000000e+001
      vertex -1.757159e+001  6.919485e+001  0.000000e+000
      vertex -1.757159e+001  6.919485e+001  1.000000e+001
    endloop
  endfacet
  facet normal  0.000000e+000 -1.000000e+000  0.000000e+000
    outer loop
      vertex -7.571594e+000  6.719485e+001  1.000000e+001
      vertex -1.557159e+001  6.719485e+001  1.000000e+001
      vertex -7.571594e+000  6.719485e+001  0.000000e+000
    endloop
  endfacet
  facet normal  0.000000e+000 -1.000000e+000  0.000000e+000
    outer loop
      vertex -7.571594e+000  6.719485e+001  0.000000e+000
      vertex -1.557159e+001  6.719485e+001  1.000000e+001
      vertex -1.557159e+001  6.719485e+001  8.881784e-015
    endloop
  endfacet
  facet normal -9.238796e-001 -3.826833e-001  0.000000e+000
    outer loop
      vertex -1.757159e+001  6.919485e+001  1.000000e+001
      vertex -1.757159e+001  6.919485e+001  0.000000e+000
      vertex -1.698581e+001  6.778064e+001  1.000000e+001
    endloop
  endfacet
  facet normal -9.238796e-001 -3.826833e-001  -0.000000e+000
    outer loop
      vertex -1.698581e+001  6.778064e+001  1.000000e+001
      vertex -1.757159e+001  6.919485e+001  0.000000e+000
      vertex -1.698581e+001  6.778064e+001  0.000000e+000
    endloop
  endfacet
  facet normal -3.826827e-001 -9.238799e-001  0.000000e+000
    outer loop
      vertex -1.698581e+001  6.778064e+001  1.000000e+001
      vertex -1.698581e+001  6.778064e+001  0.000000e+000
      vertex -1.557159e+001  6.719485e+001  1.000000e+001
    endloop
  endfacet
  facet normal -3.826827e-001 -9.238799e-001  -0.000000e+000
    outer loop
      vertex -1.557159e+001  6.719485e+001  1.000000e+001
      vertex -1.698581e+001  6.778064e+001  0.000000e+000
      vertex -1.557159e+001  6.719485e+001  8.881784e-015
    endloop
  endfacet
  facet normal -1.000000e+000  0.000000e+000  0.000000e+000
    outer loop
      vertex -7.571594e+000  8.219485e+001  1.500000e+001
      vertex -7.571594e+000  8.219485e+001  1.000000e+001
      vertex -7.571594e+000  0.000000e+000  1.500000e+001
    endloop
  endfacet
  facet normal -1.000000e+000  0.000000e+000  0.000000e+000
    outer loop
      vertex -7.571594e+000  0.000000e+000  1.500000e+001
      vertex -7.571594e+000  8.219485e+001  1.000000e+001
      vertex -7.571594e+000  6.719485e+001  1.000000e+001
    endloop
  endfacet
  facet normal -1.000000e+000  -0.000000e+000  0.000000e+000
    outer loop
      vertex -7.571594e+000  0.000000e+000  1.500000e+001
      vertex -7.571594e+000  6.719485e+001  1.000000e+001
      vertex -7.571594e+000  0.000000e+000  0.000000e+000
    endloop
  endfacet
  facet normal -1.000000e+000  0.000000e+000  0.000000e+000
    outer loop
      vertex -7.571594e+000  0.000000e+000  0.000000e+000
      vertex -7.571594e+000  6.719485e+001  1.000000e+001
      vertex -7.571594e+000  6.719485e+001  0.000000e+000
    endloop
  endfacet
  facet normal -3.826834e-001 -9.238795e-001  -0.000000e+000
    outer loop
      vertex -5.571594e+000 -2.000000e+000  0.000000e+000
      vertex -5.571594e+000 -2.000000e+000  1.500000e+001
      vertex -6.985807e+000 -1.414214e+000  0.000000e+000
    endloop
  endfacet
  facet normal -3.826834e-001 -9.238795e-001  0.000000e+000
    outer loop
      vertex -6.985807e+000 -1.414214e+000  0.000000e+000
      vertex -5.571594e+000 -2.000000e+000  1.500000e+001
      vertex -6.985807e+000 -1.414214e+000  1.500000e+001
    endloop
  endfacet
  facet normal -9.238795e-001 -3.826833e-001  -0.000000e+000
    outer loop
      vertex -6.985807e+000 -1.414214e+000  0.000000e+000
      vertex -6.985807e+000 -1.414214e+000  1.500000e+001
      vertex -7.571594e+000  0.000000e+000  0.000000e+000
    endloop
  endfacet
  facet normal -9.238795e-001 -3.826833e-001  0.000000e+000
    outer loop
      vertex -7.571594e+000  0.000000e+000  0.000000e+000
      vertex -6.985807e+000 -1.414214e+000  1.500000e+001
      vertex -7.571594e+000  0.000000e+000  1.500000e+001
    endloop
  endfacet
  facet normal  0.000000e+000  -0.000000e+000  1.000000e+000
    outer loop
      vertex  4.514431e+001  1.300000e+001  1.000000e+001
      vertex  4.739431e+001  5.500000e+000  1.000000e+001
      vertex  4.791951e+001  7.116409e+000  1.000000e+001
    endloop
  endfacet
  facet normal  0.000000e+000  0.000000e+000  1.000000e+000
    outer loop
      vertex  5.514431e+001 -6.217249e-015  1.000000e+001
      vertex  5.514431e+001  1.100000e+001  1.000000e+001
      vertex  5.236911e+001  3.883590e+000  1.000000e+001
    endloop
  endfacet
  facet normal  0.000000e+000  0.000000e+000  1.000000e+000
    outer loop
      vertex  5.514431e+001 -6.217249e-015  1.000000e+001
      vertex  5.236911e+001  3.883590e+000  1.000000e+001
      vertex  5.099411e+001  2.884595e+000  1.000000e+001
    endloop
  endfacet
  facet normal  0.000000e+000  0.000000e+000  1.000000e+000
    outer loop
      vertex  5.514431e+001 -6.217249e-015  1.000000e+001
      vertex  5.099411e+001  2.884595e+000  1.000000e+001
      vertex  5.455853e+001 -1.414214e+000  1.000000e+001
    endloop
  endfacet
  facet normal  0.000000e+000  -0.000000e+000  1.000000e+000
    outer loop
      vertex  4.514431e+001 -2.000000e+000  1.000000e+001
      vertex  5.314431e+001 -2.000000e+000  1.000000e+001
      vertex  5.455853e+001 -1.414214e+000  1.000000e+001
    endloop
  endfacet
  facet normal  0.000000e+000  0.000000e+000  1.000000e+000
    outer loop
      vertex  4.514431e+001 -2.000000e+000  1.000000e+001
      vertex  5.455853e+001 -1.414214e+000  1.000000e+001
      vertex  5.099411e+001  2.884595e+000  1.000000e+001
    endloop
  endfacet
  facet normal  0.000000e+000  0.000000e+000  1.000000e+000
    outer loop
      vertex  4.514431e+001 -2.000000e+000  1.000000e+001
      vertex  5.099411e+001  2.884595e+000  1.000000e+001
      vertex  4.929451e+001  2.884595e+000  1.000000e+001
    endloop
  endfacet
  facet normal  0.000000e+000  0.000000e+000  1.000000e+000
    outer loop
      vertex  4.514431e+001 -2.000000e+000  1.000000e+001
      vertex  4.929451e+001  2.884595e+000  1.000000e+001
      vertex  4.791951e+001  3.883590e+000  1.000000e+001
    endloop
  endfacet
  facet normal  0.000000e+000  0.000000e+000  1.000000e+000
    outer loop
      vertex  4.514431e+001 -2.000000e+000  1.000000e+001
      vertex  4.791951e+001  3.883590e+000  1.000000e+001
      vertex  4.739431e+001  5.500000e+000  1.000000e+001
    endloop
  endfacet
  facet normal  0.000000e+000  0.000000e+000  1.000000e+000
    outer loop
      vertex  4.514431e+001 -2.000000e+000  1.000000e+001
      vertex  4.739431e+001  5.500000e+000  1.000000e+001
      vertex  4.514431e+001  1.300000e+001  1.000000e+001
    endloop
  endfacet
  facet normal  -0.000000e+000  0.000000e+000  1.000000e+000
    outer loop
      vertex  5.514431e+001  1.100000e+001  1.000000e+001
      vertex  5.099411e+001  8.115405e+000  1.000000e+001
      vertex  5.236911e+001  7.116409e+000  1.000000e+001
    endloop
  endfacet
  facet normal  -0.000000e+000  0.000000e+000  1.000000e+000
    outer loop
      vertex  5.514431e+001  1.100000e+001  1.000000e+001
      vertex  5.236911e+001  7.116409e+000  1.000000e+001
      vertex  5.289431e+001  5.500000e+000  1.000000e+001
    endloop
  endfacet
  facet normal  -0.000000e+000  0.000000e+000  1.000000e+000
    outer loop
      vertex  5.514431e+001  1.100000e+001  1.000000e+001
      vertex  5.289431e+001  5.500000e+000  1.000000e+001
      vertex  5.236911e+001  3.883590e+000  1.000000e+001
    endloop
  endfacet
  facet normal  0.000000e+000  0.000000e+000  1.000000e+000
    outer loop
      vertex  5.514431e+001  1.100000e+001  1.000000e+001
      vertex  5.455853e+001  1.241421e+001  1.000000e+001
      vertex  5.099411e+001  8.115405e+000  1.000000e+001
    endloop
  endfacet
  facet normal  0.000000e+000  0.000000e+000  1.000000e+000
    outer loop
      vertex  5.099411e+001  8.115405e+000  1.000000e+001
      vertex  5.455853e+001  1.241421e+001  1.000000e+001
      vertex  5.314431e+001  1.300000e+001  1.000000e+001
    endloop
  endfacet
  facet normal  0.000000e+000  0.000000e+000  1.000000e+000
    outer loop
      vertex  5.099411e+001  8.115405e+000  1.000000e+001
      vertex  5.314431e+001  1.300000e+001  1.000000e+001
      vertex  4.929451e+001  8.115405e+000  1.000000e+001
    endloop
  endfacet
  facet normal  0.000000e+000  -0.000000e+000  1.000000e+000
    outer loop
      vertex  4.929451e+001  8.115405e+000  1.000000e+001
      vertex  5.314431e+001  1.300000e+001  1.000000e+001
      vertex  4.514431e+001  1.300000e+001  1.000000e+001
    endloop
  endfacet
  facet normal  0.000000e+000  0.000000e+000  1.000000e+000
    outer loop
      vertex  4.929451e+001  8.115405e+000  1.000000e+001
      vertex  4.514431e+001  1.300000e+001  1.000000e+001
      vertex  4.791951e+001  7.116409e+000  1.000000e+001
    endloop
  endfacet
  facet normal  9.999999e-001  0.000000e+000  0.000000e+000
    outer loop
      vertex  5.514431e+001 -6.217249e-015  0.000000e+000
      vertex  5.514431e+001  1.100000e+001  0.000000e+000
      vertex  5.514431e+001 -6.217249e-015  1.000000e+001
    endloop
  endfacet
  facet normal  9.999999e-001  -0.000000e+000  0.000000e+000
    outer loop
      vertex  5.514431e+001 -6.217249e-015  1.000000e+001
      vertex  5.514431e+001  1.100000e+001  0.000000e+000
      vertex  5.514431e+001  1.100000e+001  1.000000e+001
    endloop
  endfacet
  facet normal  3.826831e-001 -9.238797e-001  0.000000e+000
    outer loop
      vertex  5.314431e+001 -2.000000e+000  1.000000e+001
      vertex  5.314431e+001 -2.000000e+000  0.000000e+000
      vertex  5.455853e+001 -1.414214e+000  1.000000e+001
    endloop
  endfacet
  facet normal  3.826831e-001 -9.238797e-001  0.000000e+000
    outer loop
      vertex  5.455853e+001 -1.414214e+000  1.000000e+001
      vertex  5.314431e+001 -2.000000e+000  0.000000e+000
      vertex  5.455853e+001 -1.414214e+000  0.000000e+000
    endloop
  endfacet
  facet normal  9.238799e-001 -3.826826e-001  0.000000e+000
    outer loop
      vertex  5.455853e+001 -1.414214e+000  1.000000e+001
      vertex  5.455853e+001 -1.414214e+000  0.000000e+000
      vertex  5.514431e+001 -6.217249e-015  1.000000e+001
    endloop
  endfacet
  facet normal  9.238799e-001 -3.826826e-001  0.000000e+000
    outer loop
      vertex  5.514431e+001 -6.217249e-015  1.000000e+001
      vertex  5.455853e+001 -1.414214e+000  0.000000e+000
      vertex  5.514431e+001 -6.217249e-015  0.000000e+000
    endloop
  endfacet
  facet normal  0.000000e+000  1.000000e+000  0.000000e+000
    outer loop
      vertex  4.514431e+001  1.300000e+001  0.000000e+000
      vertex  4.514431e+001  1.300000e+001  1.000000e+001
      vertex  5.314431e+001  1.300000e+001  0.000000e+000
    endloop
  endfacet
  facet normal  0.000000e+000  1.000000e+000  -0.000000e+000
    outer loop
      vertex  5.314431e+001  1.300000e+001  0.000000e+000
      vertex  4.514431e+001  1.300000e+001  1.000000e+001
      vertex  5.314431e+001  1.300000e+001  1.000000e+001
    endloop
  endfacet
  facet normal  3.826833e-001  9.238796e-001  0.000000e+000
    outer loop
      vertex  5.314431e+001  1.300000e+001  0.000000e+000
      vertex  5.314431e+001  1.300000e+001  1.000000e+001
      vertex  5.455853e+001  1.241421e+001  0.000000e+000
    endloop
  endfacet
  facet normal  3.826833e-001  9.238796e-001  -0.000000e+000
    outer loop
      vertex  5.455853e+001  1.241421e+001  0.000000e+000
      vertex  5.314431e+001  1.300000e+001  1.000000e+001
      vertex  5.455853e+001  1.241421e+001  1.000000e+001
    endloop
  endfacet
  facet normal  9.238799e-001  3.826827e-001  0.000000e+000
    outer loop
      vertex  5.455853e+001  1.241421e+001  0.000000e+000
      vertex  5.455853e+001  1.241421e+001  1.000000e+001
      vertex  5.514431e+001  1.100000e+001  0.000000e+000
    endloop
  endfacet
  facet normal  9.238799e-001  3.826827e-001  -0.000000e+000
    outer loop
      vertex  5.514431e+001  1.100000e+001  0.000000e+000
      vertex  5.455853e+001  1.241421e+001  1.000000e+001
      vertex  5.514431e+001  1.100000e+001  1.000000e+001
    endloop
  endfacet
  facet normal  0.000000e+000  1.000000e+000  -0.000000e+000
    outer loop
      vertex  4.314431e+001  8.219485e+001  1.500000e+001
      vertex  4.314431e+001  8.219485e+001  0.000000e+000
      vertex -7.571594e+000  8.219485e+001  1.500000e+001
    endloop
  endfacet
  facet normal  0.000000e+000  1.000000e+000  0.000000e+000
    outer loop
      vertex -7.571594e+000  8.219485e+001  1.500000e+001
      vertex  4.314431e+001  8.219485e+001  0.000000e+000
      vertex -7.571594e+000  8.219485e+001  1.000000e+001
    endloop
  endfacet
  facet normal  0.000000e+000  1.000000e+000  0.000000e+000
    outer loop
      vertex  4.314431e+001  8.219485e+001  0.000000e+000
      vertex -1.557159e+001  8.219485e+001  0.000000e+000
      vertex -7.571594e+000  8.219485e+001  1.000000e+001
    endloop
  endfacet
  facet normal  0.000000e+000  1.000000e+000  0.000000e+000
    outer loop
      vertex -7.571594e+000  8.219485e+001  1.000000e+001
      vertex -1.557159e+001  8.219485e+001  0.000000e+000
      vertex -1.557159e+001  8.219485e+001  1.000000e+001
    endloop
  endfacet
  facet normal -9.238796e-001  3.826833e-001  0.000000e+000
    outer loop
      vertex -1.757159e+001  8.019485e+001  0.000000e+000
      vertex -1.757159e+001  8.019485e+001  1.000000e+001
      vertex -1.698581e+001  8.160907e+001  0.000000e+000
    endloop
  endfacet
  facet normal -9.238796e-001  3.826833e-001  0.000000e+000
    outer loop
      vertex -1.698581e+001  8.160907e+001  0.000000e+000
      vertex -1.757159e+001  8.019485e+001  1.000000e+001
      vertex -1.698581e+001  8.160907e+001  1.000000e+001
    endloop
  endfacet
  facet normal -3.826827e-001  9.238799e-001  0.000000e+000
    outer loop
      vertex -1.698581e+001  8.160907e+001  0.000000e+000
      vertex -1.698581e+001  8.160907e+001  1.000000e+001
      vertex -1.557159e+001  8.219485e+001  0.000000e+000
    endloop
  endfacet
  facet normal -3.826827e-001  9.238799e-001  0.000000e+000
    outer loop
      vertex -1.557159e+001  8.219485e+001  0.000000e+000
      vertex -1.698581e+001  8.160907e+001  1.000000e+001
      vertex -1.557159e+001  8.219485e+001  1.000000e+001
    endloop
  endfacet
  facet normal  1.000000e+000  0.000000e+000  0.000000e+000
    outer loop
      vertex  4.514431e+001 -2.000000e+000  1.500000e+001
      vertex  4.514431e+001 -2.000000e+000  1.000000e+001
      vertex  4.514431e+001  8.019485e+001  1.500000e+001
    endloop
  endfacet
  facet normal  1.000000e+000  0.000000e+000  0.000000e+000
    outer loop
      vertex  4.514431e+001  8.019485e+001  1.500000e+001
      vertex  4.514431e+001 -2.000000e+000  1.000000e+001
      vertex  4.514431e+001  1.300000e+001  1.000000e+001
    endloop
  endfacet
  facet normal  1.000000e+000  -0.000000e+000  0.000000e+000
    outer loop
      vertex  4.514431e+001  8.019485e+001  1.500000e+001
      vertex  4.514431e+001  1.300000e+001  1.000000e+001
      vertex  4.514431e+001  8.019485e+001  0.000000e+000
    endloop
  endfacet
  facet normal  1.000000e+000  0.000000e+000  0.000000e+000
    outer loop
      vertex  4.514431e+001  8.019485e+001  0.000000e+000
      vertex  4.514431e+001  1.300000e+001  1.000000e+001
      vertex  4.514431e+001  1.300000e+001  0.000000e+000
    endloop
  endfacet
  facet normal  3.826822e-001  9.238800e-001  0.000000e+000
    outer loop
      vertex  4.314431e+001  8.219485e+001  0.000000e+000
      vertex  4.314431e+001  8.219485e+001  1.500000e+001
      vertex  4.455853e+001  8.160907e+001  0.000000e+000
    endloop
  endfacet
  facet normal  3.826822e-001  9.238800e-001  -0.000000e+000
    outer loop
      vertex  4.455853e+001  8.160907e+001  0.000000e+000
      vertex  4.314431e+001  8.219485e+001  1.500000e+001
      vertex  4.455853e+001  8.160907e+001  1.500000e+001
    endloop
  endfacet
  facet normal  9.238800e-001  3.826822e-001  0.000000e+000
    outer loop
      vertex  4.455853e+001  8.160907e+001  0.000000e+000
      vertex  4.455853e+001  8.160907e+001  1.500000e+001
      vertex  4.514431e+001  8.019485e+001  0.000000e+000
    endloop
  endfacet
  facet normal  9.238800e-001  3.826822e-001  -0.000000e+000
    outer loop
      vertex  4.514431e+001  8.019485e+001  0.000000e+000
      vertex  4.455853e+001  8.160907e+001  1.500000e+001
      vertex  4.514431e+001  8.019485e+001  1.500000e+001
    endloop
  endfacet
  facet normal -5.877841e-001  8.090179e-001  0.000000e+000
    outer loop
      vertex -1.172180e+001  7.207945e+001 -1.776357e-015
      vertex -1.034680e+001  7.307845e+001  1.000000e+001
      vertex -1.034680e+001  7.307845e+001 -1.776357e-015
    endloop
  endfacet
  facet normal -9.510566e-001  3.090168e-001  0.000000e+000
    outer loop
      vertex -1.034680e+001  7.307845e+001 -1.776357e-015
      vertex -1.034680e+001  7.307845e+001  1.000000e+001
      vertex -9.821594e+000  7.469485e+001  1.000000e+001
    endloop
  endfacet
  facet normal -9.510566e-001  3.090168e-001  0.000000e+000
    outer loop
      vertex -1.034680e+001  7.307845e+001 -1.776357e-015
      vertex -9.821594e+000  7.469485e+001  1.000000e+001
      vertex -9.821594e+000  7.469485e+001 -1.776357e-015
    endloop
  endfacet
  facet normal -5.877841e-001  8.090179e-001  0.000000e+000
    outer loop
      vertex -1.034680e+001  7.307845e+001  1.000000e+001
      vertex -1.172180e+001  7.207945e+001 -1.776357e-015
      vertex -1.172180e+001  7.207945e+001  1.000000e+001
    endloop
  endfacet
  facet normal  0.000000e+000  1.000000e+000  0.000000e+000
    outer loop
      vertex -1.172180e+001  7.207945e+001  1.000000e+001
      vertex -1.172180e+001  7.207945e+001 -1.776357e-015
      vertex -1.342139e+001  7.207945e+001 -1.776357e-015
    endloop
  endfacet
  facet normal  0.000000e+000  1.000000e+000  0.000000e+000
    outer loop
      vertex -1.172180e+001  7.207945e+001  1.000000e+001
      vertex -1.342139e+001  7.207945e+001 -1.776357e-015
      vertex -1.342139e+001  7.207945e+001  1.000000e+001
    endloop
  endfacet
  facet normal  5.877841e-001  8.090179e-001  0.000000e+000
    outer loop
      vertex -1.342139e+001  7.207945e+001  1.000000e+001
      vertex -1.342139e+001  7.207945e+001 -1.776357e-015
      vertex -1.479639e+001  7.307845e+001 -1.776357e-015
    endloop
  endfacet
  facet normal  5.877841e-001  8.090179e-001  -0.000000e+000
    outer loop
      vertex -1.342139e+001  7.207945e+001  1.000000e+001
      vertex -1.479639e+001  7.307845e+001 -1.776357e-015
      vertex -1.479639e+001  7.307845e+001  1.000000e+001
    endloop
  endfacet
  facet normal  9.510565e-001  3.090173e-001  0.000000e+000
    outer loop
      vertex -1.479639e+001  7.307845e+001  1.000000e+001
      vertex -1.479639e+001  7.307845e+001 -1.776357e-015
      vertex -1.532159e+001  7.469485e+001 -1.776357e-015
    endloop
  endfacet
  facet normal  9.510565e-001  3.090173e-001  -0.000000e+000
    outer loop
      vertex -1.479639e+001  7.307845e+001  1.000000e+001
      vertex -1.532159e+001  7.469485e+001 -1.776357e-015
      vertex -1.532159e+001  7.469485e+001  1.000000e+001
    endloop
  endfacet
  facet normal  5.877870e-001 -8.090157e-001  0.000000e+000
    outer loop
      vertex -1.342139e+001  7.731026e+001 -1.776357e-015
      vertex -1.479639e+001  7.631126e+001  1.000000e+001
      vertex -1.479639e+001  7.631126e+001 -1.776357e-015
    endloop
  endfacet
  facet normal  9.510565e-001 -3.090173e-001  0.000000e+000
    outer loop
      vertex -1.479639e+001  7.631126e+001 -1.776357e-015
      vertex -1.479639e+001  7.631126e+001  1.000000e+001
      vertex -1.532159e+001  7.469485e+001  1.000000e+001
    endloop
  endfacet
  facet normal  9.510565e-001 -3.090173e-001  0.000000e+000
    outer loop
      vertex -1.479639e+001  7.631126e+001 -1.776357e-015
      vertex -1.532159e+001  7.469485e+001  1.000000e+001
      vertex -1.532159e+001  7.469485e+001 -1.776357e-015
    endloop
  endfacet
  facet normal  5.877870e-001 -8.090157e-001  0.000000e+000
    outer loop
      vertex -1.479639e+001  7.631126e+001  1.000000e+001
      vertex -1.342139e+001  7.731026e+001 -1.776357e-015
      vertex -1.342139e+001  7.731026e+001  1.000000e+001
    endloop
  endfacet
  facet normal  0.000000e+000 -1.000000e+000  0.000000e+000
    outer loop
      vertex -1.342139e+001  7.731026e+001  1.000000e+001
      vertex -1.342139e+001  7.731026e+001 -1.776357e-015
      vertex -1.172180e+001  7.731026e+001 -1.776357e-015
    endloop
  endfacet
  facet normal  0.000000e+000 -1.000000e+000  0.000000e+000
    outer loop
      vertex -1.342139e+001  7.731026e+001  1.000000e+001
      vertex -1.172180e+001  7.731026e+001 -1.776357e-015
      vertex -1.172180e+001  7.731026e+001  1.000000e+001
    endloop
  endfacet
  facet normal -5.877870e-001 -8.090157e-001  -0.000000e+000
    outer loop
      vertex -1.172180e+001  7.731026e+001  1.000000e+001
      vertex -1.172180e+001  7.731026e+001 -1.776357e-015
      vertex -1.034680e+001  7.631126e+001 -1.776357e-015
    endloop
  endfacet
  facet normal -5.877870e-001 -8.090157e-001  0.000000e+000
    outer loop
      vertex -1.172180e+001  7.731026e+001  1.000000e+001
      vertex -1.034680e+001  7.631126e+001 -1.776357e-015
      vertex -1.034680e+001  7.631126e+001  1.000000e+001
    endloop
  endfacet
  facet normal -9.510566e-001 -3.090168e-001  -0.000000e+000
    outer loop
      vertex -1.034680e+001  7.631126e+001  1.000000e+001
      vertex -1.034680e+001  7.631126e+001 -1.776357e-015
      vertex -9.821594e+000  7.469485e+001 -1.776357e-015
    endloop
  endfacet
  facet normal -9.510566e-001 -3.090168e-001  0.000000e+000
    outer loop
      vertex -1.034680e+001  7.631126e+001  1.000000e+001
      vertex -9.821594e+000  7.469485e+001 -1.776357e-015
      vertex -9.821594e+000  7.469485e+001  1.000000e+001
    endloop
  endfacet
  facet normal -5.877852e-001  8.090171e-001  0.000000e+000
    outer loop
      vertex  5.099411e+001  2.884595e+000 -1.776357e-015
      vertex  5.236911e+001  3.883590e+000  1.000000e+001
      vertex  5.236911e+001  3.883590e+000 -1.776357e-015
    endloop
  endfacet
  facet normal -9.510565e-001  3.090172e-001  0.000000e+000
    outer loop
      vertex  5.236911e+001  3.883590e+000 -1.776357e-015
      vertex  5.236911e+001  3.883590e+000  1.000000e+001
      vertex  5.289431e+001  5.500000e+000  1.000000e+001
    endloop
  endfacet
  facet normal -9.510565e-001  3.090172e-001  0.000000e+000
    outer loop
      vertex  5.236911e+001  3.883590e+000 -1.776357e-015
      vertex  5.289431e+001  5.500000e+000  1.000000e+001
      vertex  5.289431e+001  5.500000e+000 -1.776357e-015
    endloop
  endfacet
  facet normal -5.877852e-001  8.090171e-001  0.000000e+000
    outer loop
      vertex  5.236911e+001  3.883590e+000  1.000000e+001
      vertex  5.099411e+001  2.884595e+000 -1.776357e-015
      vertex  5.099411e+001  2.884595e+000  1.000000e+001
    endloop
  endfacet
  facet normal  0.000000e+000  1.000000e+000  0.000000e+000
    outer loop
      vertex  5.099411e+001  2.884595e+000  1.000000e+001
      vertex  5.099411e+001  2.884595e+000 -1.776357e-015
      vertex  4.929451e+001  2.884595e+000 -1.776357e-015
    endloop
  endfacet
  facet normal  0.000000e+000  1.000000e+000  0.000000e+000
    outer loop
      vertex  5.099411e+001  2.884595e+000  1.000000e+001
      vertex  4.929451e+001  2.884595e+000 -1.776357e-015
      vertex  4.929451e+001  2.884595e+000  1.000000e+001
    endloop
  endfacet
  facet normal  5.877852e-001  8.090171e-001  0.000000e+000
    outer loop
      vertex  4.929451e+001  2.884595e+000  1.000000e+001
      vertex  4.929451e+001  2.884595e+000 -1.776357e-015
      vertex  4.791951e+001  3.883590e+000 -1.776357e-015
    endloop
  endfacet
  facet normal  5.877852e-001  8.090171e-001  -0.000000e+000
    outer loop
      vertex  4.929451e+001  2.884595e+000  1.000000e+001
      vertex  4.791951e+001  3.883590e+000 -1.776357e-015
      vertex  4.791951e+001  3.883590e+000  1.000000e+001
    endloop
  endfacet
  facet normal  9.510565e-001  3.090172e-001  0.000000e+000
    outer loop
      vertex  4.791951e+001  3.883590e+000  1.000000e+001
      vertex  4.791951e+001  3.883590e+000 -1.776357e-015
      vertex  4.739431e+001  5.500000e+000 -1.776357e-015
    endloop
  endfacet
  facet normal  9.510565e-001  3.090172e-001  -0.000000e+000
    outer loop
      vertex  4.791951e+001  3.883590e+000  1.000000e+001
      vertex  4.739431e+001  5.500000e+000 -1.776357e-015
      vertex  4.739431e+001  5.500000e+000  1.000000e+001
    endloop
  endfacet
  facet normal  5.877852e-001 -8.090171e-001  0.000000e+000
    outer loop
      vertex  4.929451e+001  8.115405e+000 -1.776357e-015
      vertex  4.791951e+001  7.116409e+000  1.000000e+001
      vertex  4.791951e+001  7.116409e+000 -1.776357e-015
    endloop
  endfacet
  facet normal  9.510565e-001 -3.090173e-001  0.000000e+000
    outer loop
      vertex  4.791951e+001  7.116409e+000 -1.776357e-015
      vertex  4.791951e+001  7.116409e+000  1.000000e+001
      vertex  4.739431e+001  5.500000e+000  1.000000e+001
    endloop
  endfacet
  facet normal  9.510565e-001 -3.090173e-001  0.000000e+000
    outer loop
      vertex  4.791951e+001  7.116409e+000 -1.776357e-015
      vertex  4.739431e+001  5.500000e+000  1.000000e+001
      vertex  4.739431e+001  5.500000e+000 -1.776357e-015
    endloop
  endfacet
  facet normal  5.877852e-001 -8.090171e-001  0.000000e+000
    outer loop
      vertex  4.791951e+001  7.116409e+000  1.000000e+001
      vertex  4.929451e+001  8.115405e+000 -1.776357e-015
      vertex  4.929451e+001  8.115405e+000  1.000000e+001
    endloop
  endfacet
  facet normal  0.000000e+000 -1.000000e+000  0.000000e+000
    outer loop
      vertex  4.929451e+001  8.115405e+000  1.000000e+001
      vertex  4.929451e+001  8.115405e+000 -1.776357e-015
      vertex  5.099411e+001  8.115405e+000 -1.776357e-015
    endloop
  endfacet
  facet normal  0.000000e+000 -1.000000e+000  0.000000e+000
    outer loop
      vertex  4.929451e+001  8.115405e+000  1.000000e+001
      vertex  5.099411e+001  8.115405e+000 -1.776357e-015
      vertex  5.099411e+001  8.115405e+000  1.000000e+001
    endloop
  endfacet
  facet normal -5.877852e-001 -8.090171e-001  -0.000000e+000
    outer loop
      vertex  5.099411e+001  8.115405e+000  1.000000e+001
      vertex  5.099411e+001  8.115405e+000 -1.776357e-015
      vertex  5.236911e+001  7.116409e+000 -1.776357e-015
    endloop
  endfacet
  facet normal -5.877852e-001 -8.090171e-001  0.000000e+000
    outer loop
      vertex  5.099411e+001  8.115405e+000  1.000000e+001
      vertex  5.236911e+001  7.116409e+000 -1.776357e-015
      vertex  5.236911e+001  7.116409e+000  1.000000e+001
    endloop
  endfacet
  facet normal -9.510565e-001 -3.090173e-001  -0.000000e+000
    outer loop
      vertex  5.236911e+001  7.116409e+000  1.000000e+001
      vertex  5.236911e+001  7.116409e+000 -1.776357e-015
      vertex  5.289431e+001  5.500000e+000 -1.776357e-015
    endloop
  endfacet
  facet normal -9.510565e-001 -3.090173e-001  0.000000e+000
    outer loop
      vertex  5.236911e+001  7.116409e+000  1.000000e+001
      vertex  5.289431e+001  5.500000e+000 -1.776357e-015
      vertex  5.289431e+001  5.500000e+000  1.000000e+001
    endloop
  endfacet
endsolid CATIA STL
