solid CATIA STL
  facet normal  0.000000e+000  0.000000e+000  1.000000e+000
    outer loop
      vertex  2.308414e+001 -5.689730e+000  2.500000e+001
      vertex  3.550704e+000 -2.050000e+000  2.500000e+001
      vertex  2.050000e+000 -3.550704e+000  2.500000e+001
    endloop
  endfacet
  facet normal  -0.000000e+000  -0.000000e+000  1.000000e+000
    outer loop
      vertex -2.308414e+001 -5.689730e+000  2.500000e+001
      vertex -2.105172e+001 -1.104879e+001  2.500000e+001
      vertex -1.779584e+001 -1.576574e+001  2.500000e+001
    endloop
  endfacet
  facet normal  -0.000000e+000  -0.000000e+000  1.000000e+000
    outer loop
      vertex -2.308414e+001 -5.689730e+000  2.500000e+001
      vertex -1.779584e+001 -1.576574e+001  2.500000e+001
      vertex -1.350574e+001 -1.956644e+001  2.500000e+001
    endloop
  endfacet
  facet normal  -0.000000e+000  -0.000000e+000  1.000000e+000
    outer loop
      vertex -2.308414e+001 -5.689730e+000  2.500000e+001
      vertex -1.350574e+001 -1.956644e+001  2.500000e+001
      vertex -8.430731e+000 -2.223001e+001  2.500000e+001
    endloop
  endfacet
  facet normal  -0.000000e+000  -0.000000e+000  1.000000e+000
    outer loop
      vertex -2.308414e+001 -5.689730e+000  2.500000e+001
      vertex -8.430731e+000 -2.223001e+001  2.500000e+001
      vertex -2.865760e+000 -2.360165e+001  2.500000e+001
    endloop
  endfacet
  facet normal  0.000000e+000  -0.000000e+000  1.000000e+000
    outer loop
      vertex -2.308414e+001 -5.689730e+000  2.500000e+001
      vertex -2.865760e+000 -2.360165e+001  2.500000e+001
      vertex  2.865760e+000 -2.360165e+001  2.500000e+001
    endloop
  endfacet
  facet normal  0.000000e+000  0.000000e+000  1.000000e+000
    outer loop
      vertex -2.308414e+001 -5.689730e+000  2.500000e+001
      vertex  2.865760e+000 -2.360165e+001  2.500000e+001
      vertex -3.950575e-015 -4.100000e+000  2.500000e+001
    endloop
  endfacet
  facet normal  0.000000e+000  0.000000e+000  1.000000e+000
    outer loop
      vertex -2.308414e+001 -5.689730e+000  2.500000e+001
      vertex -3.950575e-015 -4.100000e+000  2.500000e+001
      vertex -2.050000e+000 -3.550704e+000  2.500000e+001
    endloop
  endfacet
  facet normal  0.000000e+000  0.000000e+000  1.000000e+000
    outer loop
      vertex -2.308414e+001 -5.689730e+000  2.500000e+001
      vertex -2.050000e+000 -3.550704e+000  2.500000e+001
      vertex -3.550704e+000 -2.050000e+000  2.500000e+001
    endloop
  endfacet
  facet normal  0.000000e+000  0.000000e+000  1.000000e+000
    outer loop
      vertex -2.308414e+001 -5.689730e+000  2.500000e+001
      vertex -3.550704e+000 -2.050000e+000  2.500000e+001
      vertex -4.100000e+000 -5.020886e-016  2.500000e+001
    endloop
  endfacet
  facet normal  0.000000e+000  0.000000e+000  1.000000e+000
    outer loop
      vertex -2.308414e+001 -5.689730e+000  2.500000e+001
      vertex -4.100000e+000 -5.020886e-016  2.500000e+001
      vertex -2.377500e+001  2.911502e-015  2.500000e+001
    endloop
  endfacet
  facet normal  0.000000e+000  -0.000000e+000  1.000000e+000
    outer loop
      vertex -3.950575e-015 -4.100000e+000  2.500000e+001
      vertex  2.865760e+000 -2.360165e+001  2.500000e+001
      vertex  8.430731e+000 -2.223001e+001  2.500000e+001
    endloop
  endfacet
  facet normal  0.000000e+000  -0.000000e+000  1.000000e+000
    outer loop
      vertex -3.950575e-015 -4.100000e+000  2.500000e+001
      vertex  8.430731e+000 -2.223001e+001  2.500000e+001
      vertex  1.350574e+001 -1.956644e+001  2.500000e+001
    endloop
  endfacet
  facet normal  0.000000e+000  -0.000000e+000  1.000000e+000
    outer loop
      vertex -3.950575e-015 -4.100000e+000  2.500000e+001
      vertex  1.350574e+001 -1.956644e+001  2.500000e+001
      vertex  1.779584e+001 -1.576574e+001  2.500000e+001
    endloop
  endfacet
  facet normal  0.000000e+000  -0.000000e+000  1.000000e+000
    outer loop
      vertex -3.950575e-015 -4.100000e+000  2.500000e+001
      vertex  1.779584e+001 -1.576574e+001  2.500000e+001
      vertex  2.105172e+001 -1.104879e+001  2.500000e+001
    endloop
  endfacet
  facet normal  0.000000e+000  -0.000000e+000  1.000000e+000
    outer loop
      vertex -3.950575e-015 -4.100000e+000  2.500000e+001
      vertex  2.105172e+001 -1.104879e+001  2.500000e+001
      vertex  2.308414e+001 -5.689730e+000  2.500000e+001
    endloop
  endfacet
  facet normal  0.000000e+000  0.000000e+000  1.000000e+000
    outer loop
      vertex -3.950575e-015 -4.100000e+000  2.500000e+001
      vertex  2.308414e+001 -5.689730e+000  2.500000e+001
      vertex  2.050000e+000 -3.550704e+000  2.500000e+001
    endloop
  endfacet
  facet normal  0.000000e+000  0.000000e+000  1.000000e+000
    outer loop
      vertex -2.374538e-016  4.100000e+000  2.500000e+001
      vertex  2.377500e+001  0.000000e+000  2.500000e+001
      vertex  2.308414e+001  5.689730e+000  2.500000e+001
    endloop
  endfacet
  facet normal  0.000000e+000  0.000000e+000  1.000000e+000
    outer loop
      vertex -2.374538e-016  4.100000e+000  2.500000e+001
      vertex  2.308414e+001  5.689730e+000  2.500000e+001
      vertex  2.105172e+001  1.104879e+001  2.500000e+001
    endloop
  endfacet
  facet normal  0.000000e+000  0.000000e+000  1.000000e+000
    outer loop
      vertex -2.374538e-016  4.100000e+000  2.500000e+001
      vertex  2.105172e+001  1.104879e+001  2.500000e+001
      vertex  1.779584e+001  1.576574e+001  2.500000e+001
    endloop
  endfacet
  facet normal  0.000000e+000  0.000000e+000  1.000000e+000
    outer loop
      vertex -2.374538e-016  4.100000e+000  2.500000e+001
      vertex  1.779584e+001  1.576574e+001  2.500000e+001
      vertex  1.350574e+001  1.956644e+001  2.500000e+001
    endloop
  endfacet
  facet normal  0.000000e+000  0.000000e+000  1.000000e+000
    outer loop
      vertex -2.374538e-016  4.100000e+000  2.500000e+001
      vertex  1.350574e+001  1.956644e+001  2.500000e+001
      vertex  8.430731e+000  2.223001e+001  2.500000e+001
    endloop
  endfacet
  facet normal  0.000000e+000  0.000000e+000  9.999999e-001
    outer loop
      vertex -2.374538e-016  4.100000e+000  2.500000e+001
      vertex  8.430731e+000  2.223001e+001  2.500000e+001
      vertex  2.865760e+000  2.360165e+001  2.500000e+001
    endloop
  endfacet
  facet normal  0.000000e+000  0.000000e+000  1.000000e+000
    outer loop
      vertex -2.374538e-016  4.100000e+000  2.500000e+001
      vertex  2.865760e+000  2.360165e+001  2.500000e+001
      vertex -2.865760e+000  2.360165e+001  2.500000e+001
    endloop
  endfacet
  facet normal  0.000000e+000  0.000000e+000  1.000000e+000
    outer loop
      vertex -2.374538e-016  4.100000e+000  2.500000e+001
      vertex -2.865760e+000  2.360165e+001  2.500000e+001
      vertex -8.430731e+000  2.223001e+001  2.500000e+001
    endloop
  endfacet
  facet normal  0.000000e+000  0.000000e+000  1.000000e+000
    outer loop
      vertex -2.374538e-016  4.100000e+000  2.500000e+001
      vertex -8.430731e+000  2.223001e+001  2.500000e+001
      vertex -1.350574e+001  1.956644e+001  2.500000e+001
    endloop
  endfacet
  facet normal  0.000000e+000  0.000000e+000  1.000000e+000
    outer loop
      vertex -2.374538e-016  4.100000e+000  2.500000e+001
      vertex -1.350574e+001  1.956644e+001  2.500000e+001
      vertex -1.779584e+001  1.576574e+001  2.500000e+001
    endloop
  endfacet
  facet normal  0.000000e+000  0.000000e+000  1.000000e+000
    outer loop
      vertex -2.374538e-016  4.100000e+000  2.500000e+001
      vertex -1.779584e+001  1.576574e+001  2.500000e+001
      vertex -2.105172e+001  1.104879e+001  2.500000e+001
    endloop
  endfacet
  facet normal  0.000000e+000  0.000000e+000  1.000000e+000
    outer loop
      vertex -2.374538e-016  4.100000e+000  2.500000e+001
      vertex -2.105172e+001  1.104879e+001  2.500000e+001
      vertex -2.308414e+001  5.689730e+000  2.500000e+001
    endloop
  endfacet
  facet normal  0.000000e+000  -0.000000e+000  1.000000e+000
    outer loop
      vertex -2.377500e+001  2.911502e-015  2.500000e+001
      vertex -4.100000e+000 -5.020886e-016  2.500000e+001
      vertex -3.550704e+000  2.050000e+000  2.500000e+001
    endloop
  endfacet
  facet normal  0.000000e+000  -0.000000e+000  1.000000e+000
    outer loop
      vertex -2.377500e+001  2.911502e-015  2.500000e+001
      vertex -3.550704e+000  2.050000e+000  2.500000e+001
      vertex -2.050000e+000  3.550704e+000  2.500000e+001
    endloop
  endfacet
  facet normal  0.000000e+000  -0.000000e+000  1.000000e+000
    outer loop
      vertex -2.377500e+001  2.911502e-015  2.500000e+001
      vertex -2.050000e+000  3.550704e+000  2.500000e+001
      vertex -2.374538e-016  4.100000e+000  2.500000e+001
    endloop
  endfacet
  facet normal  0.000000e+000  0.000000e+000  1.000000e+000
    outer loop
      vertex -2.377500e+001  2.911502e-015  2.500000e+001
      vertex -2.374538e-016  4.100000e+000  2.500000e+001
      vertex -2.308414e+001  5.689730e+000  2.500000e+001
    endloop
  endfacet
  facet normal  0.000000e+000  0.000000e+000  1.000000e+000
    outer loop
      vertex  2.377500e+001  0.000000e+000  2.500000e+001
      vertex -2.374538e-016  4.100000e+000  2.500000e+001
      vertex  2.050000e+000  3.550704e+000  2.500000e+001
    endloop
  endfacet
  facet normal  0.000000e+000  0.000000e+000  1.000000e+000
    outer loop
      vertex  2.377500e+001  0.000000e+000  2.500000e+001
      vertex  2.050000e+000  3.550704e+000  2.500000e+001
      vertex  3.550704e+000  2.050000e+000  2.500000e+001
    endloop
  endfacet
  facet normal  0.000000e+000  0.000000e+000  1.000000e+000
    outer loop
      vertex  2.377500e+001  0.000000e+000  2.500000e+001
      vertex  3.550704e+000  2.050000e+000  2.500000e+001
      vertex  4.100000e+000  0.000000e+000  2.500000e+001
    endloop
  endfacet
  facet normal  -0.000000e+000  0.000000e+000  1.000000e+000
    outer loop
      vertex  2.377500e+001  0.000000e+000  2.500000e+001
      vertex  4.100000e+000  0.000000e+000  2.500000e+001
      vertex  3.550704e+000 -2.050000e+000  2.500000e+001
    endloop
  endfacet
  facet normal  -0.000000e+000  0.000000e+000  9.999999e-001
    outer loop
      vertex  2.377500e+001  0.000000e+000  2.500000e+001
      vertex  3.550704e+000 -2.050000e+000  2.500000e+001
      vertex  2.308414e+001 -5.689730e+000  2.500000e+001
    endloop
  endfacet
  facet normal  0.000000e+000  0.000000e+000 -1.000000e+000
    outer loop
      vertex  2.510443e-016 -4.100000e+000  7.000000e+000
      vertex -5.525000e+000 -9.569581e+000  7.000000e+000
      vertex -8.464791e+000 -7.102803e+000  7.000000e+000
    endloop
  endfacet
  facet normal  0.000000e+000  0.000000e+000 -1.000000e+000
    outer loop
      vertex  5.525000e+000  9.569581e+000  7.000000e+000
      vertex  8.464791e+000  7.102803e+000  7.000000e+000
      vertex  1.918812e+000  1.088213e+001  7.000000e+000
    endloop
  endfacet
  facet normal  0.000000e+000  -0.000000e+000 -1.000000e+000
    outer loop
      vertex  1.918812e+000  1.088213e+001  7.000000e+000
      vertex  8.464791e+000  7.102803e+000  7.000000e+000
      vertex -4.394664e-015  4.100000e+000  7.000000e+000
    endloop
  endfacet
  facet normal  0.000000e+000  0.000000e+000 -1.000000e+000
    outer loop
      vertex  1.918812e+000  1.088213e+001  7.000000e+000
      vertex -4.394664e-015  4.100000e+000  7.000000e+000
      vertex -1.918812e+000  1.088213e+001  7.000000e+000
    endloop
  endfacet
  facet normal  0.000000e+000  -0.000000e+000 -1.000000e+000
    outer loop
      vertex -1.918812e+000  1.088213e+001  7.000000e+000
      vertex -4.394664e-015  4.100000e+000  7.000000e+000
      vertex -8.464791e+000  7.102803e+000  7.000000e+000
    endloop
  endfacet
  facet normal  0.000000e+000  0.000000e+000 -1.000000e+000
    outer loop
      vertex -1.918812e+000  1.088213e+001  7.000000e+000
      vertex -8.464791e+000  7.102803e+000  7.000000e+000
      vertex -5.525000e+000  9.569581e+000  7.000000e+000
    endloop
  endfacet
  facet normal  0.000000e+000  0.000000e+000 -1.000000e+000
    outer loop
      vertex  8.464791e+000 -7.102803e+000  7.000000e+000
      vertex  5.525000e+000 -9.569581e+000  7.000000e+000
      vertex  2.510443e-016 -4.100000e+000  7.000000e+000
    endloop
  endfacet
  facet normal  0.000000e+000  0.000000e+000 -1.000000e+000
    outer loop
      vertex  2.510443e-016 -4.100000e+000  7.000000e+000
      vertex  5.525000e+000 -9.569581e+000  7.000000e+000
      vertex  1.918812e+000 -1.088213e+001  7.000000e+000
    endloop
  endfacet
  facet normal  0.000000e+000  0.000000e+000 -1.000000e+000
    outer loop
      vertex  2.510443e-016 -4.100000e+000  7.000000e+000
      vertex  1.918812e+000 -1.088213e+001  7.000000e+000
      vertex -5.525000e+000 -9.569581e+000  7.000000e+000
    endloop
  endfacet
  facet normal  0.000000e+000  0.000000e+000 -1.000000e+000
    outer loop
      vertex -5.525000e+000 -9.569581e+000  7.000000e+000
      vertex  1.918812e+000 -1.088213e+001  7.000000e+000
      vertex -1.918812e+000 -1.088213e+001  7.000000e+000
    endloop
  endfacet
  facet normal  0.000000e+000  0.000000e+000 -1.000000e+000
    outer loop
      vertex  2.510443e-016 -4.100000e+000  7.000000e+000
      vertex -8.464791e+000 -7.102803e+000  7.000000e+000
      vertex -2.050000e+000 -3.550704e+000  7.000000e+000
    endloop
  endfacet
  facet normal  0.000000e+000  0.000000e+000 -1.000000e+000
    outer loop
      vertex -2.050000e+000 -3.550704e+000  7.000000e+000
      vertex -8.464791e+000 -7.102803e+000  7.000000e+000
      vertex -1.038360e+001 -3.779323e+000  7.000000e+000
    endloop
  endfacet
  facet normal  0.000000e+000  0.000000e+000 -1.000000e+000
    outer loop
      vertex -2.050000e+000 -3.550704e+000  7.000000e+000
      vertex -1.038360e+001 -3.779323e+000  7.000000e+000
      vertex -3.550704e+000 -2.050000e+000  7.000000e+000
    endloop
  endfacet
  facet normal  -0.000000e+000  0.000000e+000 -1.000000e+000
    outer loop
      vertex -3.550704e+000 -2.050000e+000  7.000000e+000
      vertex -1.038360e+001 -3.779323e+000  7.000000e+000
      vertex -1.105000e+001 -1.353190e-015  7.000000e+000
    endloop
  endfacet
  facet normal  0.000000e+000  0.000000e+000 -9.999999e-001
    outer loop
      vertex -3.550704e+000 -2.050000e+000  7.000000e+000
      vertex -1.105000e+001 -1.353190e-015  7.000000e+000
      vertex -4.100000e+000 -5.020886e-016  7.000000e+000
    endloop
  endfacet
  facet normal  0.000000e+000  0.000000e+000 -9.999999e-001
    outer loop
      vertex -4.100000e+000 -5.020886e-016  7.000000e+000
      vertex -1.105000e+001 -1.353190e-015  7.000000e+000
      vertex -3.550704e+000  2.050000e+000  7.000000e+000
    endloop
  endfacet
  facet normal  -0.000000e+000  0.000000e+000 -1.000000e+000
    outer loop
      vertex -3.550704e+000  2.050000e+000  7.000000e+000
      vertex -1.105000e+001 -1.353190e-015  7.000000e+000
      vertex -1.038360e+001  3.779323e+000  7.000000e+000
    endloop
  endfacet
  facet normal  0.000000e+000  0.000000e+000 -1.000000e+000
    outer loop
      vertex -3.550704e+000  2.050000e+000  7.000000e+000
      vertex -1.038360e+001  3.779323e+000  7.000000e+000
      vertex -2.050000e+000  3.550704e+000  7.000000e+000
    endloop
  endfacet
  facet normal  0.000000e+000  -0.000000e+000 -1.000000e+000
    outer loop
      vertex -1.038360e+001  3.779323e+000  7.000000e+000
      vertex -8.464791e+000  7.102803e+000  7.000000e+000
      vertex -2.050000e+000  3.550704e+000  7.000000e+000
    endloop
  endfacet
  facet normal  0.000000e+000  0.000000e+000 -1.000000e+000
    outer loop
      vertex -2.050000e+000  3.550704e+000  7.000000e+000
      vertex -8.464791e+000  7.102803e+000  7.000000e+000
      vertex -4.394664e-015  4.100000e+000  7.000000e+000
    endloop
  endfacet
  facet normal  0.000000e+000  0.000000e+000 -1.000000e+000
    outer loop
      vertex  8.464791e+000 -7.102803e+000  7.000000e+000
      vertex  2.510443e-016 -4.100000e+000  7.000000e+000
      vertex  1.038360e+001 -3.779323e+000  7.000000e+000
    endloop
  endfacet
  facet normal  -0.000000e+000  0.000000e+000 -9.999999e-001
    outer loop
      vertex  1.038360e+001 -3.779323e+000  7.000000e+000
      vertex  2.510443e-016 -4.100000e+000  7.000000e+000
      vertex  2.050000e+000 -3.550704e+000  7.000000e+000
    endloop
  endfacet
  facet normal  0.000000e+000  0.000000e+000 -1.000000e+000
    outer loop
      vertex  1.038360e+001 -3.779323e+000  7.000000e+000
      vertex  2.050000e+000 -3.550704e+000  7.000000e+000
      vertex  1.105000e+001  0.000000e+000  7.000000e+000
    endloop
  endfacet
  facet normal  0.000000e+000  0.000000e+000 -1.000000e+000
    outer loop
      vertex  1.105000e+001  0.000000e+000  7.000000e+000
      vertex  2.050000e+000 -3.550704e+000  7.000000e+000
      vertex  3.550704e+000 -2.050000e+000  7.000000e+000
    endloop
  endfacet
  facet normal  0.000000e+000  0.000000e+000 -9.999999e-001
    outer loop
      vertex  1.105000e+001  0.000000e+000  7.000000e+000
      vertex  3.550704e+000 -2.050000e+000  7.000000e+000
      vertex  4.100000e+000  0.000000e+000  7.000000e+000
    endloop
  endfacet
  facet normal  0.000000e+000  0.000000e+000 -1.000000e+000
    outer loop
      vertex  1.105000e+001  0.000000e+000  7.000000e+000
      vertex  4.100000e+000  0.000000e+000  7.000000e+000
      vertex  1.038360e+001  3.779323e+000  7.000000e+000
    endloop
  endfacet
  facet normal  0.000000e+000  0.000000e+000 -1.000000e+000
    outer loop
      vertex  1.038360e+001  3.779323e+000  7.000000e+000
      vertex  4.100000e+000  0.000000e+000  7.000000e+000
      vertex  3.550704e+000  2.050000e+000  7.000000e+000
    endloop
  endfacet
  facet normal  0.000000e+000  0.000000e+000 -1.000000e+000
    outer loop
      vertex  1.038360e+001  3.779323e+000  7.000000e+000
      vertex  3.550704e+000  2.050000e+000  7.000000e+000
      vertex  2.050000e+000  3.550704e+000  7.000000e+000
    endloop
  endfacet
  facet normal  0.000000e+000  0.000000e+000 -1.000000e+000
    outer loop
      vertex -4.394664e-015  4.100000e+000  7.000000e+000
      vertex  8.464791e+000  7.102803e+000  7.000000e+000
      vertex  2.050000e+000  3.550704e+000  7.000000e+000
    endloop
  endfacet
  facet normal  0.000000e+000  0.000000e+000 -1.000000e+000
    outer loop
      vertex  2.050000e+000  3.550704e+000  7.000000e+000
      vertex  8.464791e+000  7.102803e+000  7.000000e+000
      vertex  1.038360e+001  3.779323e+000  7.000000e+000
    endloop
  endfacet
  facet normal  2.588190e-001  9.659259e-001  -0.000000e+000
    outer loop
      vertex -3.950575e-015 -4.100000e+000  2.500000e+001
      vertex -2.050000e+000 -3.550704e+000  7.000000e+000
      vertex -2.050000e+000 -3.550704e+000  2.500000e+001
    endloop
  endfacet
  facet normal  7.071068e-001  7.071068e-001  0.000000e+000
    outer loop
      vertex -2.050000e+000 -3.550704e+000  2.500000e+001
      vertex -2.050000e+000 -3.550704e+000  7.000000e+000
      vertex -3.550704e+000 -2.050000e+000  7.000000e+000
    endloop
  endfacet
  facet normal  7.071068e-001  7.071068e-001  -0.000000e+000
    outer loop
      vertex -2.050000e+000 -3.550704e+000  2.500000e+001
      vertex -3.550704e+000 -2.050000e+000  7.000000e+000
      vertex -3.550704e+000 -2.050000e+000  2.500000e+001
    endloop
  endfacet
  facet normal  9.659259e-001  2.588190e-001  0.000000e+000
    outer loop
      vertex -3.550704e+000 -2.050000e+000  2.500000e+001
      vertex -3.550704e+000 -2.050000e+000  7.000000e+000
      vertex -4.100000e+000 -5.020886e-016  7.000000e+000
    endloop
  endfacet
  facet normal  9.659259e-001  2.588190e-001  -0.000000e+000
    outer loop
      vertex -3.550704e+000 -2.050000e+000  2.500000e+001
      vertex -4.100000e+000 -5.020886e-016  7.000000e+000
      vertex -4.100000e+000 -5.020886e-016  2.500000e+001
    endloop
  endfacet
  facet normal  2.588190e-001  9.659259e-001  6.041439e-017
    outer loop
      vertex -2.050000e+000 -3.550704e+000  7.000000e+000
      vertex -3.950575e-015 -4.100000e+000  2.500000e+001
      vertex  2.510443e-016 -4.100000e+000  7.000000e+000
    endloop
  endfacet
  facet normal -2.588190e-001  9.659259e-001 -6.041439e-017
    outer loop
      vertex  2.510443e-016 -4.100000e+000  7.000000e+000
      vertex -3.950575e-015 -4.100000e+000  2.500000e+001
      vertex  2.050000e+000 -3.550704e+000  2.500000e+001
    endloop
  endfacet
  facet normal -2.588190e-001  9.659259e-001  0.000000e+000
    outer loop
      vertex  2.510443e-016 -4.100000e+000  7.000000e+000
      vertex  2.050000e+000 -3.550704e+000  2.500000e+001
      vertex  2.050000e+000 -3.550704e+000  7.000000e+000
    endloop
  endfacet
  facet normal -7.071068e-001  7.071068e-001  0.000000e+000
    outer loop
      vertex  2.050000e+000 -3.550704e+000  7.000000e+000
      vertex  2.050000e+000 -3.550704e+000  2.500000e+001
      vertex  3.550704e+000 -2.050000e+000  2.500000e+001
    endloop
  endfacet
  facet normal -7.071068e-001  7.071068e-001  0.000000e+000
    outer loop
      vertex  2.050000e+000 -3.550704e+000  7.000000e+000
      vertex  3.550704e+000 -2.050000e+000  2.500000e+001
      vertex  3.550704e+000 -2.050000e+000  7.000000e+000
    endloop
  endfacet
  facet normal -9.659259e-001  2.588190e-001  0.000000e+000
    outer loop
      vertex  3.550704e+000 -2.050000e+000  7.000000e+000
      vertex  3.550704e+000 -2.050000e+000  2.500000e+001
      vertex  4.100000e+000  0.000000e+000  2.500000e+001
    endloop
  endfacet
  facet normal -9.659259e-001  2.588190e-001  0.000000e+000
    outer loop
      vertex  3.550704e+000 -2.050000e+000  7.000000e+000
      vertex  4.100000e+000  0.000000e+000  2.500000e+001
      vertex  4.100000e+000  0.000000e+000  7.000000e+000
    endloop
  endfacet
  facet normal -2.588190e-001 -9.659259e-001  0.000000e+000
    outer loop
      vertex -2.374538e-016  4.100000e+000  2.500000e+001
      vertex  2.050000e+000  3.550704e+000  7.000000e+000
      vertex  2.050000e+000  3.550704e+000  2.500000e+001
    endloop
  endfacet
  facet normal -7.071068e-001 -7.071068e-001  -0.000000e+000
    outer loop
      vertex  2.050000e+000  3.550704e+000  2.500000e+001
      vertex  2.050000e+000  3.550704e+000  7.000000e+000
      vertex  3.550704e+000  2.050000e+000  7.000000e+000
    endloop
  endfacet
  facet normal -7.071068e-001 -7.071068e-001  0.000000e+000
    outer loop
      vertex  2.050000e+000  3.550704e+000  2.500000e+001
      vertex  3.550704e+000  2.050000e+000  7.000000e+000
      vertex  3.550704e+000  2.050000e+000  2.500000e+001
    endloop
  endfacet
  facet normal -9.659259e-001 -2.588190e-001  -0.000000e+000
    outer loop
      vertex  3.550704e+000  2.050000e+000  2.500000e+001
      vertex  3.550704e+000  2.050000e+000  7.000000e+000
      vertex  4.100000e+000  0.000000e+000  7.000000e+000
    endloop
  endfacet
  facet normal -9.659259e-001 -2.588190e-001  0.000000e+000
    outer loop
      vertex  3.550704e+000  2.050000e+000  2.500000e+001
      vertex  4.100000e+000  0.000000e+000  7.000000e+000
      vertex  4.100000e+000  0.000000e+000  2.500000e+001
    endloop
  endfacet
  facet normal -2.588190e-001 -9.659259e-001  5.977584e-017
    outer loop
      vertex  2.050000e+000  3.550704e+000  7.000000e+000
      vertex -2.374538e-016  4.100000e+000  2.500000e+001
      vertex -4.394664e-015  4.100000e+000  7.000000e+000
    endloop
  endfacet
  facet normal  2.588190e-001 -9.659259e-001 -5.977584e-017
    outer loop
      vertex -4.394664e-015  4.100000e+000  7.000000e+000
      vertex -2.374538e-016  4.100000e+000  2.500000e+001
      vertex -2.050000e+000  3.550704e+000  2.500000e+001
    endloop
  endfacet
  facet normal  2.588190e-001 -9.659259e-001  0.000000e+000
    outer loop
      vertex -4.394664e-015  4.100000e+000  7.000000e+000
      vertex -2.050000e+000  3.550704e+000  2.500000e+001
      vertex -2.050000e+000  3.550704e+000  7.000000e+000
    endloop
  endfacet
  facet normal  7.071068e-001 -7.071068e-001  0.000000e+000
    outer loop
      vertex -2.050000e+000  3.550704e+000  7.000000e+000
      vertex -2.050000e+000  3.550704e+000  2.500000e+001
      vertex -3.550704e+000  2.050000e+000  2.500000e+001
    endloop
  endfacet
  facet normal  7.071068e-001 -7.071068e-001  0.000000e+000
    outer loop
      vertex -2.050000e+000  3.550704e+000  7.000000e+000
      vertex -3.550704e+000  2.050000e+000  2.500000e+001
      vertex -3.550704e+000  2.050000e+000  7.000000e+000
    endloop
  endfacet
  facet normal  9.659259e-001 -2.588190e-001  0.000000e+000
    outer loop
      vertex -3.550704e+000  2.050000e+000  7.000000e+000
      vertex -3.550704e+000  2.050000e+000  2.500000e+001
      vertex -4.100000e+000 -5.020886e-016  2.500000e+001
    endloop
  endfacet
  facet normal  9.659259e-001 -2.588190e-001  0.000000e+000
    outer loop
      vertex -3.550704e+000  2.050000e+000  7.000000e+000
      vertex -4.100000e+000 -5.020886e-016  2.500000e+001
      vertex -4.100000e+000 -5.020886e-016  7.000000e+000
    endloop
  endfacet
  facet normal  0.000000e+000  0.000000e+000 -9.999999e-001
    outer loop
      vertex  2.924784e+001 -6.675628e+000  0.000000e+000
      vertex  8.464791e+000 -7.102803e+000  0.000000e+000
      vertex  1.038360e+001 -3.779323e+000  0.000000e+000
    endloop
  endfacet
  facet normal  0.000000e+000  -0.000000e+000 -1.000000e+000
    outer loop
      vertex -2.702907e+001  1.301651e+001  0.000000e+000
      vertex -2.345494e+001  1.870469e+001  0.000000e+000
      vertex -1.870469e+001  2.345494e+001  0.000000e+000
    endloop
  endfacet
  facet normal  0.000000e+000  -0.000000e+000 -1.000000e+000
    outer loop
      vertex -2.702907e+001  1.301651e+001  0.000000e+000
      vertex -1.870469e+001  2.345494e+001  0.000000e+000
      vertex -1.301651e+001  2.702907e+001  0.000000e+000
    endloop
  endfacet
  facet normal  0.000000e+000  -0.000000e+000 -1.000000e+000
    outer loop
      vertex -2.702907e+001  1.301651e+001  0.000000e+000
      vertex -1.301651e+001  2.702907e+001  0.000000e+000
      vertex -6.675628e+000  2.924784e+001  0.000000e+000
    endloop
  endfacet
  facet normal  0.000000e+000  -0.000000e+000 -1.000000e+000
    outer loop
      vertex  1.918812e+000  1.088213e+001  0.000000e+000
      vertex  6.675628e+000  2.924784e+001  0.000000e+000
      vertex  1.301651e+001  2.702907e+001  0.000000e+000
    endloop
  endfacet
  facet normal  0.000000e+000  -0.000000e+000 -1.000000e+000
    outer loop
      vertex  1.918812e+000  1.088213e+001  0.000000e+000
      vertex  1.301651e+001  2.702907e+001  0.000000e+000
      vertex  1.870469e+001  2.345494e+001  0.000000e+000
    endloop
  endfacet
  facet normal  0.000000e+000  -0.000000e+000 -1.000000e+000
    outer loop
      vertex  1.918812e+000  1.088213e+001  0.000000e+000
      vertex  1.870469e+001  2.345494e+001  0.000000e+000
      vertex  2.345494e+001  1.870469e+001  0.000000e+000
    endloop
  endfacet
  facet normal  0.000000e+000  -0.000000e+000 -1.000000e+000
    outer loop
      vertex  1.918812e+000  1.088213e+001  0.000000e+000
      vertex  2.345494e+001  1.870469e+001  0.000000e+000
      vertex  2.702907e+001  1.301651e+001  0.000000e+000
    endloop
  endfacet
  facet normal  0.000000e+000  -0.000000e+000 -1.000000e+000
    outer loop
      vertex  1.918812e+000  1.088213e+001  0.000000e+000
      vertex  2.702907e+001  1.301651e+001  0.000000e+000
      vertex  2.924784e+001  6.675628e+000  0.000000e+000
    endloop
  endfacet
  facet normal  0.000000e+000  0.000000e+000 -9.999999e-001
    outer loop
      vertex  1.918812e+000  1.088213e+001  0.000000e+000
      vertex  2.924784e+001  6.675628e+000  0.000000e+000
      vertex  5.525000e+000  9.569581e+000  0.000000e+000
    endloop
  endfacet
  facet normal  0.000000e+000  0.000000e+000 -1.000000e+000
    outer loop
      vertex -3.215608e-014 -3.000000e+001  0.000000e+000
      vertex -6.675628e+000 -2.924784e+001  0.000000e+000
      vertex -1.301651e+001 -2.702907e+001  0.000000e+000
    endloop
  endfacet
  facet normal  0.000000e+000  0.000000e+000 -9.999999e-001
    outer loop
      vertex -3.215608e-014 -3.000000e+001  0.000000e+000
      vertex -1.301651e+001 -2.702907e+001  0.000000e+000
      vertex -1.870469e+001 -2.345494e+001  0.000000e+000
    endloop
  endfacet
  facet normal  0.000000e+000  0.000000e+000 -1.000000e+000
    outer loop
      vertex -3.215608e-014 -3.000000e+001  0.000000e+000
      vertex -1.870469e+001 -2.345494e+001  0.000000e+000
      vertex -2.345494e+001 -1.870469e+001  0.000000e+000
    endloop
  endfacet
  facet normal  0.000000e+000  0.000000e+000 -1.000000e+000
    outer loop
      vertex -3.215608e-014 -3.000000e+001  0.000000e+000
      vertex -2.345494e+001 -1.870469e+001  0.000000e+000
      vertex -2.702907e+001 -1.301651e+001  0.000000e+000
    endloop
  endfacet
  facet normal  0.000000e+000  0.000000e+000 -1.000000e+000
    outer loop
      vertex -3.215608e-014 -3.000000e+001  0.000000e+000
      vertex -2.702907e+001 -1.301651e+001  0.000000e+000
      vertex -1.918812e+000 -1.088213e+001  0.000000e+000
    endloop
  endfacet
  facet normal  0.000000e+000  0.000000e+000 -1.000000e+000
    outer loop
      vertex -3.215608e-014 -3.000000e+001  0.000000e+000
      vertex -1.918812e+000 -1.088213e+001  0.000000e+000
      vertex  1.918812e+000 -1.088213e+001  0.000000e+000
    endloop
  endfacet
  facet normal  0.000000e+000  -0.000000e+000 -1.000000e+000
    outer loop
      vertex -3.215608e-014 -3.000000e+001  0.000000e+000
      vertex  1.918812e+000 -1.088213e+001  0.000000e+000
      vertex  2.702907e+001 -1.301651e+001  0.000000e+000
    endloop
  endfacet
  facet normal  0.000000e+000  0.000000e+000 -1.000000e+000
    outer loop
      vertex -3.215608e-014 -3.000000e+001  0.000000e+000
      vertex  2.702907e+001 -1.301651e+001  0.000000e+000
      vertex  2.345494e+001 -1.870469e+001  0.000000e+000
    endloop
  endfacet
  facet normal  0.000000e+000  0.000000e+000 -1.000000e+000
    outer loop
      vertex -3.215608e-014 -3.000000e+001  0.000000e+000
      vertex  2.345494e+001 -1.870469e+001  0.000000e+000
      vertex  1.870469e+001 -2.345494e+001  0.000000e+000
    endloop
  endfacet
  facet normal  0.000000e+000  0.000000e+000 -9.999999e-001
    outer loop
      vertex -3.215608e-014 -3.000000e+001  0.000000e+000
      vertex  1.870469e+001 -2.345494e+001  0.000000e+000
      vertex  1.301651e+001 -2.702907e+001  0.000000e+000
    endloop
  endfacet
  facet normal  0.000000e+000  0.000000e+000 -1.000000e+000
    outer loop
      vertex -3.215608e-014 -3.000000e+001  0.000000e+000
      vertex  1.301651e+001 -2.702907e+001  0.000000e+000
      vertex  6.675628e+000 -2.924784e+001  0.000000e+000
    endloop
  endfacet
  facet normal  0.000000e+000  0.000000e+000 -1.000000e+000
    outer loop
      vertex -2.702907e+001 -1.301651e+001  0.000000e+000
      vertex -2.924784e+001 -6.675628e+000  0.000000e+000
      vertex -8.464791e+000 -7.102803e+000  0.000000e+000
    endloop
  endfacet
  facet normal  0.000000e+000  -0.000000e+000 -9.999999e-001
    outer loop
      vertex -2.702907e+001 -1.301651e+001  0.000000e+000
      vertex -8.464791e+000 -7.102803e+000  0.000000e+000
      vertex -5.525000e+000 -9.569581e+000  0.000000e+000
    endloop
  endfacet
  facet normal  0.000000e+000  -0.000000e+000 -1.000000e+000
    outer loop
      vertex -2.702907e+001 -1.301651e+001  0.000000e+000
      vertex -5.525000e+000 -9.569581e+000  0.000000e+000
      vertex -1.918812e+000 -1.088213e+001  0.000000e+000
    endloop
  endfacet
  facet normal  0.000000e+000  0.000000e+000 -1.000000e+000
    outer loop
      vertex  2.702907e+001 -1.301651e+001  0.000000e+000
      vertex  1.918812e+000 -1.088213e+001  0.000000e+000
      vertex  5.525000e+000 -9.569581e+000  0.000000e+000
    endloop
  endfacet
  facet normal  0.000000e+000  0.000000e+000 -1.000000e+000
    outer loop
      vertex  2.702907e+001 -1.301651e+001  0.000000e+000
      vertex  5.525000e+000 -9.569581e+000  0.000000e+000
      vertex  8.464791e+000 -7.102803e+000  0.000000e+000
    endloop
  endfacet
  facet normal  0.000000e+000  0.000000e+000 -1.000000e+000
    outer loop
      vertex  2.702907e+001 -1.301651e+001  0.000000e+000
      vertex  8.464791e+000 -7.102803e+000  0.000000e+000
      vertex  2.924784e+001 -6.675628e+000  0.000000e+000
    endloop
  endfacet
  facet normal  0.000000e+000  0.000000e+000 -1.000000e+000
    outer loop
      vertex  1.918812e+000  1.088213e+001  0.000000e+000
      vertex -1.918812e+000  1.088213e+001  0.000000e+000
      vertex  6.675628e+000  2.924784e+001  0.000000e+000
    endloop
  endfacet
  facet normal  -0.000000e+000  0.000000e+000 -1.000000e+000
    outer loop
      vertex  6.675628e+000  2.924784e+001  0.000000e+000
      vertex -1.918812e+000  1.088213e+001  0.000000e+000
      vertex  8.498248e-015  3.000000e+001  0.000000e+000
    endloop
  endfacet
  facet normal  0.000000e+000  0.000000e+000 -1.000000e+000
    outer loop
      vertex -1.918812e+000  1.088213e+001  0.000000e+000
      vertex -2.702907e+001  1.301651e+001  0.000000e+000
      vertex  8.498248e-015  3.000000e+001  0.000000e+000
    endloop
  endfacet
  facet normal  0.000000e+000  0.000000e+000 -1.000000e+000
    outer loop
      vertex  8.498248e-015  3.000000e+001  0.000000e+000
      vertex -2.702907e+001  1.301651e+001  0.000000e+000
      vertex -6.675628e+000  2.924784e+001  0.000000e+000
    endloop
  endfacet
  facet normal  0.000000e+000  0.000000e+000 -1.000000e+000
    outer loop
      vertex -8.464791e+000  7.102803e+000  0.000000e+000
      vertex -2.924784e+001  6.675628e+000  0.000000e+000
      vertex -5.525000e+000  9.569581e+000  0.000000e+000
    endloop
  endfacet
  facet normal  -0.000000e+000  0.000000e+000 -1.000000e+000
    outer loop
      vertex -5.525000e+000  9.569581e+000  0.000000e+000
      vertex -2.924784e+001  6.675628e+000  0.000000e+000
      vertex -2.702907e+001  1.301651e+001  0.000000e+000
    endloop
  endfacet
  facet normal  0.000000e+000  0.000000e+000 -1.000000e+000
    outer loop
      vertex -5.525000e+000  9.569581e+000  0.000000e+000
      vertex -2.702907e+001  1.301651e+001  0.000000e+000
      vertex -1.918812e+000  1.088213e+001  0.000000e+000
    endloop
  endfacet
  facet normal  0.000000e+000  0.000000e+000 -1.000000e+000
    outer loop
      vertex -1.105000e+001 -1.353190e-015  0.000000e+000
      vertex -3.000000e+001  1.699650e-014  0.000000e+000
      vertex -1.038360e+001  3.779323e+000  0.000000e+000
    endloop
  endfacet
  facet normal  -0.000000e+000  0.000000e+000 -1.000000e+000
    outer loop
      vertex -1.038360e+001  3.779323e+000  0.000000e+000
      vertex -3.000000e+001  1.699650e-014  0.000000e+000
      vertex -2.924784e+001  6.675628e+000  0.000000e+000
    endloop
  endfacet
  facet normal  0.000000e+000  0.000000e+000 -9.999999e-001
    outer loop
      vertex -1.038360e+001  3.779323e+000  0.000000e+000
      vertex -2.924784e+001  6.675628e+000  0.000000e+000
      vertex -8.464791e+000  7.102803e+000  0.000000e+000
    endloop
  endfacet
  facet normal  0.000000e+000  0.000000e+000 -9.999999e-001
    outer loop
      vertex -8.464791e+000 -7.102803e+000  0.000000e+000
      vertex -2.924784e+001 -6.675628e+000  0.000000e+000
      vertex -1.038360e+001 -3.779323e+000  0.000000e+000
    endloop
  endfacet
  facet normal  -0.000000e+000  0.000000e+000 -1.000000e+000
    outer loop
      vertex -1.038360e+001 -3.779323e+000  0.000000e+000
      vertex -2.924784e+001 -6.675628e+000  0.000000e+000
      vertex -3.000000e+001  1.699650e-014  0.000000e+000
    endloop
  endfacet
  facet normal  0.000000e+000  0.000000e+000 -1.000000e+000
    outer loop
      vertex -1.038360e+001 -3.779323e+000  0.000000e+000
      vertex -3.000000e+001  1.699650e-014  0.000000e+000
      vertex -1.105000e+001 -1.353190e-015  0.000000e+000
    endloop
  endfacet
  facet normal  0.000000e+000  0.000000e+000 -1.000000e+000
    outer loop
      vertex  5.525000e+000  9.569581e+000  0.000000e+000
      vertex  2.924784e+001  6.675628e+000  0.000000e+000
      vertex  8.464791e+000  7.102803e+000  0.000000e+000
    endloop
  endfacet
  facet normal  0.000000e+000  0.000000e+000 -1.000000e+000
    outer loop
      vertex  8.464791e+000  7.102803e+000  0.000000e+000
      vertex  2.924784e+001  6.675628e+000  0.000000e+000
      vertex  3.000000e+001  0.000000e+000  0.000000e+000
    endloop
  endfacet
  facet normal  0.000000e+000  0.000000e+000 -9.999999e-001
    outer loop
      vertex  8.464791e+000  7.102803e+000  0.000000e+000
      vertex  3.000000e+001  0.000000e+000  0.000000e+000
      vertex  1.038360e+001  3.779323e+000  0.000000e+000
    endloop
  endfacet
  facet normal  0.000000e+000  0.000000e+000 -1.000000e+000
    outer loop
      vertex  1.038360e+001  3.779323e+000  0.000000e+000
      vertex  3.000000e+001  0.000000e+000  0.000000e+000
      vertex  1.105000e+001  0.000000e+000  0.000000e+000
    endloop
  endfacet
  facet normal  0.000000e+000  0.000000e+000 -1.000000e+000
    outer loop
      vertex  1.105000e+001  0.000000e+000  0.000000e+000
      vertex  3.000000e+001  0.000000e+000  0.000000e+000
      vertex  2.924784e+001 -6.675628e+000  0.000000e+000
    endloop
  endfacet
  facet normal  0.000000e+000  0.000000e+000 -1.000000e+000
    outer loop
      vertex  1.105000e+001  0.000000e+000  0.000000e+000
      vertex  2.924784e+001 -6.675628e+000  0.000000e+000
      vertex  1.038360e+001 -3.779323e+000  0.000000e+000
    endloop
  endfacet
  facet normal -3.420201e-001 -9.396927e-001  0.000000e+000
    outer loop
      vertex  1.918812e+000  1.088213e+001  7.000000e+000
      vertex  5.525000e+000  9.569581e+000  0.000000e+000
      vertex  5.525000e+000  9.569581e+000  7.000000e+000
    endloop
  endfacet
  facet normal -6.427876e-001 -7.660445e-001  -0.000000e+000
    outer loop
      vertex  5.525000e+000  9.569581e+000  7.000000e+000
      vertex  5.525000e+000  9.569581e+000  0.000000e+000
      vertex  8.464791e+000  7.102803e+000  0.000000e+000
    endloop
  endfacet
  facet normal -6.427876e-001 -7.660445e-001  0.000000e+000
    outer loop
      vertex  5.525000e+000  9.569581e+000  7.000000e+000
      vertex  8.464791e+000  7.102803e+000  0.000000e+000
      vertex  8.464791e+000  7.102803e+000  7.000000e+000
    endloop
  endfacet
  facet normal -8.660255e-001 -4.999999e-001  -0.000000e+000
    outer loop
      vertex  8.464791e+000  7.102803e+000  7.000000e+000
      vertex  8.464791e+000  7.102803e+000  0.000000e+000
      vertex  1.038360e+001  3.779323e+000  0.000000e+000
    endloop
  endfacet
  facet normal -8.660255e-001 -4.999999e-001  0.000000e+000
    outer loop
      vertex  8.464791e+000  7.102803e+000  7.000000e+000
      vertex  1.038360e+001  3.779323e+000  0.000000e+000
      vertex  1.038360e+001  3.779323e+000  7.000000e+000
    endloop
  endfacet
  facet normal -9.848077e-001 -1.736483e-001  -0.000000e+000
    outer loop
      vertex  1.038360e+001  3.779323e+000  7.000000e+000
      vertex  1.038360e+001  3.779323e+000  0.000000e+000
      vertex  1.105000e+001  0.000000e+000  0.000000e+000
    endloop
  endfacet
  facet normal -9.848077e-001 -1.736483e-001  0.000000e+000
    outer loop
      vertex  1.038360e+001  3.779323e+000  7.000000e+000
      vertex  1.105000e+001  0.000000e+000  0.000000e+000
      vertex  1.105000e+001  0.000000e+000  7.000000e+000
    endloop
  endfacet
  facet normal -3.420201e-001 -9.396927e-001  -0.000000e+000
    outer loop
      vertex  5.525000e+000  9.569581e+000  0.000000e+000
      vertex  1.918812e+000  1.088213e+001  7.000000e+000
      vertex  1.918812e+000  1.088213e+001  0.000000e+000
    endloop
  endfacet
  facet normal  0.000000e+000 -1.000000e+000  0.000000e+000
    outer loop
      vertex  1.918812e+000  1.088213e+001  0.000000e+000
      vertex  1.918812e+000  1.088213e+001  7.000000e+000
      vertex -1.918812e+000  1.088213e+001  7.000000e+000
    endloop
  endfacet
  facet normal  0.000000e+000 -1.000000e+000  0.000000e+000
    outer loop
      vertex  1.918812e+000  1.088213e+001  0.000000e+000
      vertex -1.918812e+000  1.088213e+001  7.000000e+000
      vertex -1.918812e+000  1.088213e+001  0.000000e+000
    endloop
  endfacet
  facet normal  3.420201e-001 -9.396927e-001  0.000000e+000
    outer loop
      vertex -1.918812e+000  1.088213e+001  0.000000e+000
      vertex -1.918812e+000  1.088213e+001  7.000000e+000
      vertex -5.525000e+000  9.569581e+000  7.000000e+000
    endloop
  endfacet
  facet normal  3.420201e-001 -9.396927e-001  0.000000e+000
    outer loop
      vertex -1.918812e+000  1.088213e+001  0.000000e+000
      vertex -5.525000e+000  9.569581e+000  7.000000e+000
      vertex -5.525000e+000  9.569581e+000  0.000000e+000
    endloop
  endfacet
  facet normal  6.427876e-001 -7.660445e-001  0.000000e+000
    outer loop
      vertex -5.525000e+000  9.569581e+000  0.000000e+000
      vertex -5.525000e+000  9.569581e+000  7.000000e+000
      vertex -8.464791e+000  7.102803e+000  7.000000e+000
    endloop
  endfacet
  facet normal  6.427876e-001 -7.660445e-001  0.000000e+000
    outer loop
      vertex -5.525000e+000  9.569581e+000  0.000000e+000
      vertex -8.464791e+000  7.102803e+000  7.000000e+000
      vertex -8.464791e+000  7.102803e+000  0.000000e+000
    endloop
  endfacet
  facet normal  8.660255e-001 -4.999999e-001  0.000000e+000
    outer loop
      vertex -8.464791e+000  7.102803e+000  0.000000e+000
      vertex -8.464791e+000  7.102803e+000  7.000000e+000
      vertex -1.038360e+001  3.779323e+000  7.000000e+000
    endloop
  endfacet
  facet normal  8.660255e-001 -4.999999e-001  0.000000e+000
    outer loop
      vertex -8.464791e+000  7.102803e+000  0.000000e+000
      vertex -1.038360e+001  3.779323e+000  7.000000e+000
      vertex -1.038360e+001  3.779323e+000  0.000000e+000
    endloop
  endfacet
  facet normal  9.848077e-001 -1.736483e-001  0.000000e+000
    outer loop
      vertex -1.038360e+001  3.779323e+000  0.000000e+000
      vertex -1.038360e+001  3.779323e+000  7.000000e+000
      vertex -1.105000e+001 -1.353190e-015  7.000000e+000
    endloop
  endfacet
  facet normal  9.848077e-001 -1.736483e-001  0.000000e+000
    outer loop
      vertex -1.038360e+001  3.779323e+000  0.000000e+000
      vertex -1.105000e+001 -1.353190e-015  7.000000e+000
      vertex -1.105000e+001 -1.353190e-015  0.000000e+000
    endloop
  endfacet
  facet normal  3.420201e-001  9.396927e-001  -0.000000e+000
    outer loop
      vertex -1.918812e+000 -1.088213e+001  7.000000e+000
      vertex -5.525000e+000 -9.569581e+000  0.000000e+000
      vertex -5.525000e+000 -9.569581e+000  7.000000e+000
    endloop
  endfacet
  facet normal  6.427876e-001  7.660445e-001  0.000000e+000
    outer loop
      vertex -5.525000e+000 -9.569581e+000  7.000000e+000
      vertex -5.525000e+000 -9.569581e+000  0.000000e+000
      vertex -8.464791e+000 -7.102803e+000  0.000000e+000
    endloop
  endfacet
  facet normal  6.427876e-001  7.660445e-001  -0.000000e+000
    outer loop
      vertex -5.525000e+000 -9.569581e+000  7.000000e+000
      vertex -8.464791e+000 -7.102803e+000  0.000000e+000
      vertex -8.464791e+000 -7.102803e+000  7.000000e+000
    endloop
  endfacet
  facet normal  8.660255e-001  4.999999e-001  0.000000e+000
    outer loop
      vertex -8.464791e+000 -7.102803e+000  7.000000e+000
      vertex -8.464791e+000 -7.102803e+000  0.000000e+000
      vertex -1.038360e+001 -3.779323e+000  0.000000e+000
    endloop
  endfacet
  facet normal  8.660255e-001  4.999999e-001  -0.000000e+000
    outer loop
      vertex -8.464791e+000 -7.102803e+000  7.000000e+000
      vertex -1.038360e+001 -3.779323e+000  0.000000e+000
      vertex -1.038360e+001 -3.779323e+000  7.000000e+000
    endloop
  endfacet
  facet normal  9.848077e-001  1.736483e-001  0.000000e+000
    outer loop
      vertex -1.038360e+001 -3.779323e+000  7.000000e+000
      vertex -1.038360e+001 -3.779323e+000  0.000000e+000
      vertex -1.105000e+001 -1.353190e-015  0.000000e+000
    endloop
  endfacet
  facet normal  9.848077e-001  1.736483e-001  -0.000000e+000
    outer loop
      vertex -1.038360e+001 -3.779323e+000  7.000000e+000
      vertex -1.105000e+001 -1.353190e-015  0.000000e+000
      vertex -1.105000e+001 -1.353190e-015  7.000000e+000
    endloop
  endfacet
  facet normal  3.420201e-001  9.396927e-001  0.000000e+000
    outer loop
      vertex -5.525000e+000 -9.569581e+000  0.000000e+000
      vertex -1.918812e+000 -1.088213e+001  7.000000e+000
      vertex -1.918812e+000 -1.088213e+001  0.000000e+000
    endloop
  endfacet
  facet normal  0.000000e+000  1.000000e+000  0.000000e+000
    outer loop
      vertex -1.918812e+000 -1.088213e+001  0.000000e+000
      vertex -1.918812e+000 -1.088213e+001  7.000000e+000
      vertex  1.918812e+000 -1.088213e+001  7.000000e+000
    endloop
  endfacet
  facet normal  0.000000e+000  1.000000e+000  0.000000e+000
    outer loop
      vertex -1.918812e+000 -1.088213e+001  0.000000e+000
      vertex  1.918812e+000 -1.088213e+001  7.000000e+000
      vertex  1.918812e+000 -1.088213e+001  0.000000e+000
    endloop
  endfacet
  facet normal -3.420201e-001  9.396927e-001  0.000000e+000
    outer loop
      vertex  1.918812e+000 -1.088213e+001  0.000000e+000
      vertex  1.918812e+000 -1.088213e+001  7.000000e+000
      vertex  5.525000e+000 -9.569581e+000  7.000000e+000
    endloop
  endfacet
  facet normal -3.420201e-001  9.396927e-001  0.000000e+000
    outer loop
      vertex  1.918812e+000 -1.088213e+001  0.000000e+000
      vertex  5.525000e+000 -9.569581e+000  7.000000e+000
      vertex  5.525000e+000 -9.569581e+000  0.000000e+000
    endloop
  endfacet
  facet normal -6.427876e-001  7.660445e-001  0.000000e+000
    outer loop
      vertex  5.525000e+000 -9.569581e+000  0.000000e+000
      vertex  5.525000e+000 -9.569581e+000  7.000000e+000
      vertex  8.464791e+000 -7.102803e+000  7.000000e+000
    endloop
  endfacet
  facet normal -6.427876e-001  7.660445e-001  0.000000e+000
    outer loop
      vertex  5.525000e+000 -9.569581e+000  0.000000e+000
      vertex  8.464791e+000 -7.102803e+000  7.000000e+000
      vertex  8.464791e+000 -7.102803e+000  0.000000e+000
    endloop
  endfacet
  facet normal -8.660255e-001  4.999999e-001  0.000000e+000
    outer loop
      vertex  8.464791e+000 -7.102803e+000  0.000000e+000
      vertex  8.464791e+000 -7.102803e+000  7.000000e+000
      vertex  1.038360e+001 -3.779323e+000  7.000000e+000
    endloop
  endfacet
  facet normal -8.660255e-001  4.999999e-001  0.000000e+000
    outer loop
      vertex  8.464791e+000 -7.102803e+000  0.000000e+000
      vertex  1.038360e+001 -3.779323e+000  7.000000e+000
      vertex  1.038360e+001 -3.779323e+000  0.000000e+000
    endloop
  endfacet
  facet normal -9.848077e-001  1.736483e-001  0.000000e+000
    outer loop
      vertex  1.038360e+001 -3.779323e+000  0.000000e+000
      vertex  1.038360e+001 -3.779323e+000  7.000000e+000
      vertex  1.105000e+001  0.000000e+000  7.000000e+000
    endloop
  endfacet
  facet normal -9.848077e-001  1.736483e-001  0.000000e+000
    outer loop
      vertex  1.038360e+001 -3.779323e+000  0.000000e+000
      vertex  1.105000e+001  0.000000e+000  7.000000e+000
      vertex  1.105000e+001  0.000000e+000  0.000000e+000
    endloop
  endfacet
  facet normal  0.000000e+000  0.000000e+000  9.999999e-001
    outer loop
      vertex -1.301651e+001  2.702907e+001  1.000000e+001
      vertex -1.870469e+001  2.345494e+001  1.000000e+001
      vertex -2.865760e+000  2.360165e+001  1.000000e+001
    endloop
  endfacet
  facet normal  -0.000000e+000  0.000000e+000  1.000000e+000
    outer loop
      vertex -1.779584e+001  1.576574e+001  1.000000e+001
      vertex -2.702907e+001  1.301651e+001  1.000000e+001
      vertex -2.105172e+001  1.104879e+001  1.000000e+001
    endloop
  endfacet
  facet normal  0.000000e+000  0.000000e+000  1.000000e+000
    outer loop
      vertex -3.215608e-014 -3.000000e+001  1.000000e+001
      vertex -1.301651e+001 -2.702907e+001  1.000000e+001
      vertex -6.675628e+000 -2.924784e+001  1.000000e+001
    endloop
  endfacet
  facet normal  0.000000e+000  -0.000000e+000  1.000000e+000
    outer loop
      vertex -3.215608e-014 -3.000000e+001  1.000000e+001
      vertex  6.675628e+000 -2.924784e+001  1.000000e+001
      vertex  1.301651e+001 -2.702907e+001  1.000000e+001
    endloop
  endfacet
  facet normal  0.000000e+000  -0.000000e+000  9.999999e-001
    outer loop
      vertex -1.870469e+001 -2.345494e+001  1.000000e+001
      vertex -1.301651e+001 -2.702907e+001  1.000000e+001
      vertex -2.865760e+000 -2.360165e+001  1.000000e+001
    endloop
  endfacet
  facet normal  0.000000e+000  0.000000e+000  1.000000e+000
    outer loop
      vertex -2.865760e+000 -2.360165e+001  1.000000e+001
      vertex -1.301651e+001 -2.702907e+001  1.000000e+001
      vertex -3.215608e-014 -3.000000e+001  1.000000e+001
    endloop
  endfacet
  facet normal  0.000000e+000  -0.000000e+000  1.000000e+000
    outer loop
      vertex -2.865760e+000 -2.360165e+001  1.000000e+001
      vertex -3.215608e-014 -3.000000e+001  1.000000e+001
      vertex  2.865760e+000 -2.360165e+001  1.000000e+001
    endloop
  endfacet
  facet normal  0.000000e+000  0.000000e+000  1.000000e+000
    outer loop
      vertex  2.865760e+000 -2.360165e+001  1.000000e+001
      vertex -3.215608e-014 -3.000000e+001  1.000000e+001
      vertex  1.301651e+001 -2.702907e+001  1.000000e+001
    endloop
  endfacet
  facet normal  0.000000e+000  -0.000000e+000  9.999999e-001
    outer loop
      vertex  2.865760e+000 -2.360165e+001  1.000000e+001
      vertex  1.301651e+001 -2.702907e+001  1.000000e+001
      vertex  1.870469e+001 -2.345494e+001  1.000000e+001
    endloop
  endfacet
  facet normal  0.000000e+000  0.000000e+000  1.000000e+000
    outer loop
      vertex -6.675628e+000  2.924784e+001  1.000000e+001
      vertex -1.301651e+001  2.702907e+001  1.000000e+001
      vertex  8.498248e-015  3.000000e+001  1.000000e+001
    endloop
  endfacet
  facet normal  0.000000e+000  0.000000e+000  1.000000e+000
    outer loop
      vertex  8.498248e-015  3.000000e+001  1.000000e+001
      vertex -1.301651e+001  2.702907e+001  1.000000e+001
      vertex -2.865760e+000  2.360165e+001  1.000000e+001
    endloop
  endfacet
  facet normal  0.000000e+000  0.000000e+000  1.000000e+000
    outer loop
      vertex  8.498248e-015  3.000000e+001  1.000000e+001
      vertex -2.865760e+000  2.360165e+001  1.000000e+001
      vertex  2.865760e+000  2.360165e+001  1.000000e+001
    endloop
  endfacet
  facet normal  0.000000e+000  0.000000e+000  1.000000e+000
    outer loop
      vertex  6.675628e+000  2.924784e+001  1.000000e+001
      vertex  8.498248e-015  3.000000e+001  1.000000e+001
      vertex  1.301651e+001  2.702907e+001  1.000000e+001
    endloop
  endfacet
  facet normal  0.000000e+000  0.000000e+000  1.000000e+000
    outer loop
      vertex  1.301651e+001  2.702907e+001  1.000000e+001
      vertex  8.498248e-015  3.000000e+001  1.000000e+001
      vertex  2.865760e+000  2.360165e+001  1.000000e+001
    endloop
  endfacet
  facet normal  -0.000000e+000  0.000000e+000  9.999999e-001
    outer loop
      vertex  1.301651e+001  2.702907e+001  1.000000e+001
      vertex  2.865760e+000  2.360165e+001  1.000000e+001
      vertex  1.870469e+001  2.345494e+001  1.000000e+001
    endloop
  endfacet
  facet normal  0.000000e+000  0.000000e+000  1.000000e+000
    outer loop
      vertex  1.870469e+001  2.345494e+001  1.000000e+001
      vertex  2.865760e+000  2.360165e+001  1.000000e+001
      vertex  8.430731e+000  2.223001e+001  1.000000e+001
    endloop
  endfacet
  facet normal  0.000000e+000  0.000000e+000  1.000000e+000
    outer loop
      vertex -2.702907e+001  1.301651e+001  1.000000e+001
      vertex -1.779584e+001  1.576574e+001  1.000000e+001
      vertex -2.345494e+001  1.870469e+001  1.000000e+001
    endloop
  endfacet
  facet normal  -0.000000e+000  0.000000e+000  1.000000e+000
    outer loop
      vertex -2.345494e+001  1.870469e+001  1.000000e+001
      vertex -1.779584e+001  1.576574e+001  1.000000e+001
      vertex -1.350574e+001  1.956644e+001  1.000000e+001
    endloop
  endfacet
  facet normal  0.000000e+000  0.000000e+000  1.000000e+000
    outer loop
      vertex -2.345494e+001  1.870469e+001  1.000000e+001
      vertex -1.350574e+001  1.956644e+001  1.000000e+001
      vertex -1.870469e+001  2.345494e+001  1.000000e+001
    endloop
  endfacet
  facet normal  0.000000e+000  0.000000e+000  1.000000e+000
    outer loop
      vertex -1.870469e+001  2.345494e+001  1.000000e+001
      vertex -1.350574e+001  1.956644e+001  1.000000e+001
      vertex -8.430731e+000  2.223001e+001  1.000000e+001
    endloop
  endfacet
  facet normal  0.000000e+000  -0.000000e+000  1.000000e+000
    outer loop
      vertex -1.870469e+001  2.345494e+001  1.000000e+001
      vertex -8.430731e+000  2.223001e+001  1.000000e+001
      vertex -2.865760e+000  2.360165e+001  1.000000e+001
    endloop
  endfacet
  facet normal  0.000000e+000  0.000000e+000  1.000000e+000
    outer loop
      vertex -2.105172e+001  1.104879e+001  1.000000e+001
      vertex -2.702907e+001  1.301651e+001  1.000000e+001
      vertex -2.308414e+001  5.689730e+000  1.000000e+001
    endloop
  endfacet
  facet normal  0.000000e+000  0.000000e+000  1.000000e+000
    outer loop
      vertex -2.308414e+001  5.689730e+000  1.000000e+001
      vertex -2.702907e+001  1.301651e+001  1.000000e+001
      vertex -2.924784e+001  6.675628e+000  1.000000e+001
    endloop
  endfacet
  facet normal  0.000000e+000  0.000000e+000  1.000000e+000
    outer loop
      vertex -2.308414e+001  5.689730e+000  1.000000e+001
      vertex -2.924784e+001  6.675628e+000  1.000000e+001
      vertex -2.377500e+001  2.911502e-015  1.000000e+001
    endloop
  endfacet
  facet normal  0.000000e+000  0.000000e+000  1.000000e+000
    outer loop
      vertex -2.377500e+001  2.911502e-015  1.000000e+001
      vertex -2.924784e+001  6.675628e+000  1.000000e+001
      vertex -3.000000e+001  1.699650e-014  1.000000e+001
    endloop
  endfacet
  facet normal  0.000000e+000  0.000000e+000  1.000000e+000
    outer loop
      vertex -2.377500e+001  2.911502e-015  1.000000e+001
      vertex -3.000000e+001  1.699650e-014  1.000000e+001
      vertex -2.308414e+001 -5.689730e+000  1.000000e+001
    endloop
  endfacet
  facet normal  0.000000e+000  0.000000e+000  9.999999e-001
    outer loop
      vertex -2.308414e+001 -5.689730e+000  1.000000e+001
      vertex -3.000000e+001  1.699650e-014  1.000000e+001
      vertex -2.924784e+001 -6.675628e+000  1.000000e+001
    endloop
  endfacet
  facet normal  -0.000000e+000  0.000000e+000  1.000000e+000
    outer loop
      vertex -2.308414e+001 -5.689730e+000  1.000000e+001
      vertex -2.924784e+001 -6.675628e+000  1.000000e+001
      vertex -2.105172e+001 -1.104879e+001  1.000000e+001
    endloop
  endfacet
  facet normal  0.000000e+000  0.000000e+000  1.000000e+000
    outer loop
      vertex -2.105172e+001 -1.104879e+001  1.000000e+001
      vertex -2.924784e+001 -6.675628e+000  1.000000e+001
      vertex -2.702907e+001 -1.301651e+001  1.000000e+001
    endloop
  endfacet
  facet normal  -0.000000e+000  0.000000e+000  1.000000e+000
    outer loop
      vertex -2.105172e+001 -1.104879e+001  1.000000e+001
      vertex -2.702907e+001 -1.301651e+001  1.000000e+001
      vertex -1.779584e+001 -1.576574e+001  1.000000e+001
    endloop
  endfacet
  facet normal  0.000000e+000  0.000000e+000  1.000000e+000
    outer loop
      vertex -1.779584e+001 -1.576574e+001  1.000000e+001
      vertex -2.702907e+001 -1.301651e+001  1.000000e+001
      vertex -2.345494e+001 -1.870469e+001  1.000000e+001
    endloop
  endfacet
  facet normal  -0.000000e+000  0.000000e+000  1.000000e+000
    outer loop
      vertex -1.779584e+001 -1.576574e+001  1.000000e+001
      vertex -2.345494e+001 -1.870469e+001  1.000000e+001
      vertex -1.350574e+001 -1.956644e+001  1.000000e+001
    endloop
  endfacet
  facet normal  0.000000e+000  0.000000e+000  1.000000e+000
    outer loop
      vertex -1.350574e+001 -1.956644e+001  1.000000e+001
      vertex -2.345494e+001 -1.870469e+001  1.000000e+001
      vertex -8.430731e+000 -2.223001e+001  1.000000e+001
    endloop
  endfacet
  facet normal  0.000000e+000  0.000000e+000  1.000000e+000
    outer loop
      vertex -8.430731e+000 -2.223001e+001  1.000000e+001
      vertex -2.345494e+001 -1.870469e+001  1.000000e+001
      vertex -1.870469e+001 -2.345494e+001  1.000000e+001
    endloop
  endfacet
  facet normal  -0.000000e+000  0.000000e+000  1.000000e+000
    outer loop
      vertex -8.430731e+000 -2.223001e+001  1.000000e+001
      vertex -1.870469e+001 -2.345494e+001  1.000000e+001
      vertex -2.865760e+000 -2.360165e+001  1.000000e+001
    endloop
  endfacet
  facet normal  -0.000000e+000  0.000000e+000  1.000000e+000
    outer loop
      vertex  1.870469e+001  2.345494e+001  1.000000e+001
      vertex  8.430731e+000  2.223001e+001  1.000000e+001
      vertex  2.345494e+001  1.870469e+001  1.000000e+001
    endloop
  endfacet
  facet normal  0.000000e+000  0.000000e+000  1.000000e+000
    outer loop
      vertex  2.345494e+001  1.870469e+001  1.000000e+001
      vertex  8.430731e+000  2.223001e+001  1.000000e+001
      vertex  1.350574e+001  1.956644e+001  1.000000e+001
    endloop
  endfacet
  facet normal  0.000000e+000  0.000000e+000  1.000000e+000
    outer loop
      vertex  2.345494e+001  1.870469e+001  1.000000e+001
      vertex  1.350574e+001  1.956644e+001  1.000000e+001
      vertex  2.702907e+001  1.301651e+001  1.000000e+001
    endloop
  endfacet
  facet normal  0.000000e+000  0.000000e+000  9.999999e-001
    outer loop
      vertex  2.702907e+001  1.301651e+001  1.000000e+001
      vertex  1.350574e+001  1.956644e+001  1.000000e+001
      vertex  1.779584e+001  1.576574e+001  1.000000e+001
    endloop
  endfacet
  facet normal  0.000000e+000  0.000000e+000  1.000000e+000
    outer loop
      vertex  2.702907e+001  1.301651e+001  1.000000e+001
      vertex  1.779584e+001  1.576574e+001  1.000000e+001
      vertex  2.105172e+001  1.104879e+001  1.000000e+001
    endloop
  endfacet
  facet normal  -0.000000e+000  0.000000e+000  1.000000e+000
    outer loop
      vertex  2.702907e+001  1.301651e+001  1.000000e+001
      vertex  2.105172e+001  1.104879e+001  1.000000e+001
      vertex  2.924784e+001  6.675628e+000  1.000000e+001
    endloop
  endfacet
  facet normal  0.000000e+000  0.000000e+000  1.000000e+000
    outer loop
      vertex  2.924784e+001  6.675628e+000  1.000000e+001
      vertex  2.105172e+001  1.104879e+001  1.000000e+001
      vertex  2.308414e+001  5.689730e+000  1.000000e+001
    endloop
  endfacet
  facet normal  -0.000000e+000  0.000000e+000  9.999999e-001
    outer loop
      vertex  2.924784e+001  6.675628e+000  1.000000e+001
      vertex  2.308414e+001  5.689730e+000  1.000000e+001
      vertex  3.000000e+001  0.000000e+000  1.000000e+001
    endloop
  endfacet
  facet normal  0.000000e+000  0.000000e+000  1.000000e+000
    outer loop
      vertex  3.000000e+001  0.000000e+000  1.000000e+001
      vertex  2.308414e+001  5.689730e+000  1.000000e+001
      vertex  2.377500e+001  0.000000e+000  1.000000e+001
    endloop
  endfacet
  facet normal  -0.000000e+000  0.000000e+000  1.000000e+000
    outer loop
      vertex  3.000000e+001  0.000000e+000  1.000000e+001
      vertex  2.377500e+001  0.000000e+000  1.000000e+001
      vertex  2.924784e+001 -6.675628e+000  1.000000e+001
    endloop
  endfacet
  facet normal  0.000000e+000  0.000000e+000  1.000000e+000
    outer loop
      vertex  2.924784e+001 -6.675628e+000  1.000000e+001
      vertex  2.377500e+001  0.000000e+000  1.000000e+001
      vertex  2.308414e+001 -5.689730e+000  1.000000e+001
    endloop
  endfacet
  facet normal  0.000000e+000  0.000000e+000  1.000000e+000
    outer loop
      vertex  2.924784e+001 -6.675628e+000  1.000000e+001
      vertex  2.308414e+001 -5.689730e+000  1.000000e+001
      vertex  2.702907e+001 -1.301651e+001  1.000000e+001
    endloop
  endfacet
  facet normal  0.000000e+000  0.000000e+000  1.000000e+000
    outer loop
      vertex  2.702907e+001 -1.301651e+001  1.000000e+001
      vertex  2.308414e+001 -5.689730e+000  1.000000e+001
      vertex  2.105172e+001 -1.104879e+001  1.000000e+001
    endloop
  endfacet
  facet normal  0.000000e+000  0.000000e+000  1.000000e+000
    outer loop
      vertex  2.702907e+001 -1.301651e+001  1.000000e+001
      vertex  2.105172e+001 -1.104879e+001  1.000000e+001
      vertex  2.345494e+001 -1.870469e+001  1.000000e+001
    endloop
  endfacet
  facet normal  0.000000e+000  0.000000e+000  1.000000e+000
    outer loop
      vertex  2.345494e+001 -1.870469e+001  1.000000e+001
      vertex  2.105172e+001 -1.104879e+001  1.000000e+001
      vertex  1.779584e+001 -1.576574e+001  1.000000e+001
    endloop
  endfacet
  facet normal  0.000000e+000  0.000000e+000  1.000000e+000
    outer loop
      vertex  2.345494e+001 -1.870469e+001  1.000000e+001
      vertex  1.779584e+001 -1.576574e+001  1.000000e+001
      vertex  1.350574e+001 -1.956644e+001  1.000000e+001
    endloop
  endfacet
  facet normal  -0.000000e+000  0.000000e+000  1.000000e+000
    outer loop
      vertex  2.345494e+001 -1.870469e+001  1.000000e+001
      vertex  1.350574e+001 -1.956644e+001  1.000000e+001
      vertex  1.870469e+001 -2.345494e+001  1.000000e+001
    endloop
  endfacet
  facet normal  0.000000e+000  0.000000e+000  1.000000e+000
    outer loop
      vertex  1.870469e+001 -2.345494e+001  1.000000e+001
      vertex  1.350574e+001 -1.956644e+001  1.000000e+001
      vertex  8.430731e+000 -2.223001e+001  1.000000e+001
    endloop
  endfacet
  facet normal  0.000000e+000  0.000000e+000  1.000000e+000
    outer loop
      vertex  1.870469e+001 -2.345494e+001  1.000000e+001
      vertex  8.430731e+000 -2.223001e+001  1.000000e+001
      vertex  2.865760e+000 -2.360165e+001  1.000000e+001
    endloop
  endfacet
  facet normal  9.927089e-001 -1.205368e-001  0.000000e+000
    outer loop
      vertex  2.377500e+001  0.000000e+000  1.000000e+001
      vertex  2.377500e+001  0.000000e+000  2.500000e+001
      vertex  2.308414e+001 -5.689730e+000  1.000000e+001
    endloop
  endfacet
  facet normal  9.927089e-001 -1.205368e-001  0.000000e+000
    outer loop
      vertex  2.308414e+001 -5.689730e+000  1.000000e+001
      vertex  2.377500e+001  0.000000e+000  2.500000e+001
      vertex  2.308414e+001 -5.689730e+000  2.500000e+001
    endloop
  endfacet
  facet normal  9.350164e-001 -3.546046e-001  0.000000e+000
    outer loop
      vertex  2.308414e+001 -5.689730e+000  1.000000e+001
      vertex  2.308414e+001 -5.689730e+000  2.500000e+001
      vertex  2.105172e+001 -1.104879e+001  1.000000e+001
    endloop
  endfacet
  facet normal  9.350164e-001 -3.546046e-001  0.000000e+000
    outer loop
      vertex  2.105172e+001 -1.104879e+001  1.000000e+001
      vertex  2.308414e+001 -5.689730e+000  2.500000e+001
      vertex  2.105172e+001 -1.104879e+001  2.500000e+001
    endloop
  endfacet
  facet normal  8.229838e-001 -5.680649e-001  0.000000e+000
    outer loop
      vertex  2.105172e+001 -1.104879e+001  1.000000e+001
      vertex  2.105172e+001 -1.104879e+001  2.500000e+001
      vertex  1.779584e+001 -1.576574e+001  1.000000e+001
    endloop
  endfacet
  facet normal  8.229838e-001 -5.680649e-001  0.000000e+000
    outer loop
      vertex  1.779584e+001 -1.576574e+001  1.000000e+001
      vertex  2.105172e+001 -1.104879e+001  2.500000e+001
      vertex  1.779584e+001 -1.576574e+001  2.500000e+001
    endloop
  endfacet
  facet normal  6.631225e-001 -7.485108e-001  0.000000e+000
    outer loop
      vertex  1.779584e+001 -1.576574e+001  1.000000e+001
      vertex  1.779584e+001 -1.576574e+001  2.500000e+001
      vertex  1.350574e+001 -1.956644e+001  1.000000e+001
    endloop
  endfacet
  facet normal  6.631225e-001 -7.485108e-001  0.000000e+000
    outer loop
      vertex  1.350574e+001 -1.956644e+001  1.000000e+001
      vertex  1.779584e+001 -1.576574e+001  2.500000e+001
      vertex  1.350574e+001 -1.956644e+001  2.500000e+001
    endloop
  endfacet
  facet normal  4.647233e-001 -8.854560e-001  0.000000e+000
    outer loop
      vertex  1.350574e+001 -1.956644e+001  1.000000e+001
      vertex  1.350574e+001 -1.956644e+001  2.500000e+001
      vertex  8.430731e+000 -2.223001e+001  1.000000e+001
    endloop
  endfacet
  facet normal  4.647233e-001 -8.854560e-001  0.000000e+000
    outer loop
      vertex  8.430731e+000 -2.223001e+001  1.000000e+001
      vertex  1.350574e+001 -1.956644e+001  2.500000e+001
      vertex  8.430731e+000 -2.223001e+001  2.500000e+001
    endloop
  endfacet
  facet normal  2.393158e-001 -9.709418e-001  0.000000e+000
    outer loop
      vertex  8.430731e+000 -2.223001e+001  1.000000e+001
      vertex  8.430731e+000 -2.223001e+001  2.500000e+001
      vertex  2.865760e+000 -2.360165e+001  1.000000e+001
    endloop
  endfacet
  facet normal  2.393158e-001 -9.709418e-001  0.000000e+000
    outer loop
      vertex  2.865760e+000 -2.360165e+001  1.000000e+001
      vertex  8.430731e+000 -2.223001e+001  2.500000e+001
      vertex  2.865760e+000 -2.360165e+001  2.500000e+001
    endloop
  endfacet
  facet normal  0.000000e+000 -1.000000e+000  -0.000000e+000
    outer loop
      vertex  2.865760e+000 -2.360165e+001  1.000000e+001
      vertex  2.865760e+000 -2.360165e+001  2.500000e+001
      vertex -2.865760e+000 -2.360165e+001  1.000000e+001
    endloop
  endfacet
  facet normal  0.000000e+000 -1.000000e+000  0.000000e+000
    outer loop
      vertex -2.865760e+000 -2.360165e+001  1.000000e+001
      vertex  2.865760e+000 -2.360165e+001  2.500000e+001
      vertex -2.865760e+000 -2.360165e+001  2.500000e+001
    endloop
  endfacet
  facet normal -2.393158e-001 -9.709418e-001  -0.000000e+000
    outer loop
      vertex -2.865760e+000 -2.360165e+001  1.000000e+001
      vertex -2.865760e+000 -2.360165e+001  2.500000e+001
      vertex -8.430731e+000 -2.223001e+001  1.000000e+001
    endloop
  endfacet
  facet normal -2.393158e-001 -9.709418e-001  0.000000e+000
    outer loop
      vertex -8.430731e+000 -2.223001e+001  1.000000e+001
      vertex -2.865760e+000 -2.360165e+001  2.500000e+001
      vertex -8.430731e+000 -2.223001e+001  2.500000e+001
    endloop
  endfacet
  facet normal -4.647233e-001 -8.854560e-001  -0.000000e+000
    outer loop
      vertex -8.430731e+000 -2.223001e+001  1.000000e+001
      vertex -8.430731e+000 -2.223001e+001  2.500000e+001
      vertex -1.350574e+001 -1.956644e+001  1.000000e+001
    endloop
  endfacet
  facet normal -4.647233e-001 -8.854560e-001  0.000000e+000
    outer loop
      vertex -1.350574e+001 -1.956644e+001  1.000000e+001
      vertex -8.430731e+000 -2.223001e+001  2.500000e+001
      vertex -1.350574e+001 -1.956644e+001  2.500000e+001
    endloop
  endfacet
  facet normal -6.631225e-001 -7.485108e-001  -0.000000e+000
    outer loop
      vertex -1.350574e+001 -1.956644e+001  1.000000e+001
      vertex -1.350574e+001 -1.956644e+001  2.500000e+001
      vertex -1.779584e+001 -1.576574e+001  1.000000e+001
    endloop
  endfacet
  facet normal -6.631225e-001 -7.485108e-001  0.000000e+000
    outer loop
      vertex -1.779584e+001 -1.576574e+001  1.000000e+001
      vertex -1.350574e+001 -1.956644e+001  2.500000e+001
      vertex -1.779584e+001 -1.576574e+001  2.500000e+001
    endloop
  endfacet
  facet normal -8.229838e-001 -5.680649e-001  -0.000000e+000
    outer loop
      vertex -1.779584e+001 -1.576574e+001  1.000000e+001
      vertex -1.779584e+001 -1.576574e+001  2.500000e+001
      vertex -2.105172e+001 -1.104879e+001  1.000000e+001
    endloop
  endfacet
  facet normal -8.229838e-001 -5.680649e-001  0.000000e+000
    outer loop
      vertex -2.105172e+001 -1.104879e+001  1.000000e+001
      vertex -1.779584e+001 -1.576574e+001  2.500000e+001
      vertex -2.105172e+001 -1.104879e+001  2.500000e+001
    endloop
  endfacet
  facet normal -9.350164e-001 -3.546046e-001  -0.000000e+000
    outer loop
      vertex -2.105172e+001 -1.104879e+001  1.000000e+001
      vertex -2.105172e+001 -1.104879e+001  2.500000e+001
      vertex -2.308414e+001 -5.689730e+000  1.000000e+001
    endloop
  endfacet
  facet normal -9.350164e-001 -3.546046e-001  0.000000e+000
    outer loop
      vertex -2.308414e+001 -5.689730e+000  1.000000e+001
      vertex -2.105172e+001 -1.104879e+001  2.500000e+001
      vertex -2.308414e+001 -5.689730e+000  2.500000e+001
    endloop
  endfacet
  facet normal -9.927089e-001 -1.205368e-001  -0.000000e+000
    outer loop
      vertex -2.308414e+001 -5.689730e+000  1.000000e+001
      vertex -2.308414e+001 -5.689730e+000  2.500000e+001
      vertex -2.377500e+001  2.911502e-015  1.000000e+001
    endloop
  endfacet
  facet normal -9.927089e-001 -1.205368e-001  0.000000e+000
    outer loop
      vertex -2.377500e+001  2.911502e-015  1.000000e+001
      vertex -2.308414e+001 -5.689730e+000  2.500000e+001
      vertex -2.377500e+001  2.911502e-015  2.500000e+001
    endloop
  endfacet
  facet normal -9.927089e-001  1.205368e-001  0.000000e+000
    outer loop
      vertex -2.377500e+001  2.911502e-015  1.000000e+001
      vertex -2.377500e+001  2.911502e-015  2.500000e+001
      vertex -2.308414e+001  5.689730e+000  1.000000e+001
    endloop
  endfacet
  facet normal -9.927089e-001  1.205368e-001  0.000000e+000
    outer loop
      vertex -2.308414e+001  5.689730e+000  1.000000e+001
      vertex -2.377500e+001  2.911502e-015  2.500000e+001
      vertex -2.308414e+001  5.689730e+000  2.500000e+001
    endloop
  endfacet
  facet normal -9.350164e-001  3.546046e-001  0.000000e+000
    outer loop
      vertex -2.308414e+001  5.689730e+000  1.000000e+001
      vertex -2.308414e+001  5.689730e+000  2.500000e+001
      vertex -2.105172e+001  1.104879e+001  1.000000e+001
    endloop
  endfacet
  facet normal -9.350164e-001  3.546046e-001  0.000000e+000
    outer loop
      vertex -2.105172e+001  1.104879e+001  1.000000e+001
      vertex -2.308414e+001  5.689730e+000  2.500000e+001
      vertex -2.105172e+001  1.104879e+001  2.500000e+001
    endloop
  endfacet
  facet normal -8.229838e-001  5.680649e-001  0.000000e+000
    outer loop
      vertex -2.105172e+001  1.104879e+001  1.000000e+001
      vertex -2.105172e+001  1.104879e+001  2.500000e+001
      vertex -1.779584e+001  1.576574e+001  1.000000e+001
    endloop
  endfacet
  facet normal -8.229838e-001  5.680649e-001  0.000000e+000
    outer loop
      vertex -1.779584e+001  1.576574e+001  1.000000e+001
      vertex -2.105172e+001  1.104879e+001  2.500000e+001
      vertex -1.779584e+001  1.576574e+001  2.500000e+001
    endloop
  endfacet
  facet normal -6.631225e-001  7.485108e-001  0.000000e+000
    outer loop
      vertex -1.779584e+001  1.576574e+001  1.000000e+001
      vertex -1.779584e+001  1.576574e+001  2.500000e+001
      vertex -1.350574e+001  1.956644e+001  1.000000e+001
    endloop
  endfacet
  facet normal -6.631225e-001  7.485108e-001  0.000000e+000
    outer loop
      vertex -1.350574e+001  1.956644e+001  1.000000e+001
      vertex -1.779584e+001  1.576574e+001  2.500000e+001
      vertex -1.350574e+001  1.956644e+001  2.500000e+001
    endloop
  endfacet
  facet normal -4.647233e-001  8.854560e-001  0.000000e+000
    outer loop
      vertex -1.350574e+001  1.956644e+001  1.000000e+001
      vertex -1.350574e+001  1.956644e+001  2.500000e+001
      vertex -8.430731e+000  2.223001e+001  1.000000e+001
    endloop
  endfacet
  facet normal -4.647233e-001  8.854560e-001  0.000000e+000
    outer loop
      vertex -8.430731e+000  2.223001e+001  1.000000e+001
      vertex -1.350574e+001  1.956644e+001  2.500000e+001
      vertex -8.430731e+000  2.223001e+001  2.500000e+001
    endloop
  endfacet
  facet normal -2.393158e-001  9.709418e-001  0.000000e+000
    outer loop
      vertex -8.430731e+000  2.223001e+001  1.000000e+001
      vertex -8.430731e+000  2.223001e+001  2.500000e+001
      vertex -2.865760e+000  2.360165e+001  1.000000e+001
    endloop
  endfacet
  facet normal -2.393158e-001  9.709418e-001  0.000000e+000
    outer loop
      vertex -2.865760e+000  2.360165e+001  1.000000e+001
      vertex -8.430731e+000  2.223001e+001  2.500000e+001
      vertex -2.865760e+000  2.360165e+001  2.500000e+001
    endloop
  endfacet
  facet normal  0.000000e+000  1.000000e+000  0.000000e+000
    outer loop
      vertex -2.865760e+000  2.360165e+001  1.000000e+001
      vertex -2.865760e+000  2.360165e+001  2.500000e+001
      vertex  2.865760e+000  2.360165e+001  1.000000e+001
    endloop
  endfacet
  facet normal  0.000000e+000  1.000000e+000  -0.000000e+000
    outer loop
      vertex  2.865760e+000  2.360165e+001  1.000000e+001
      vertex -2.865760e+000  2.360165e+001  2.500000e+001
      vertex  2.865760e+000  2.360165e+001  2.500000e+001
    endloop
  endfacet
  facet normal  2.393158e-001  9.709418e-001  0.000000e+000
    outer loop
      vertex  2.865760e+000  2.360165e+001  1.000000e+001
      vertex  2.865760e+000  2.360165e+001  2.500000e+001
      vertex  8.430731e+000  2.223001e+001  1.000000e+001
    endloop
  endfacet
  facet normal  2.393158e-001  9.709418e-001  -0.000000e+000
    outer loop
      vertex  8.430731e+000  2.223001e+001  1.000000e+001
      vertex  2.865760e+000  2.360165e+001  2.500000e+001
      vertex  8.430731e+000  2.223001e+001  2.500000e+001
    endloop
  endfacet
  facet normal  4.647233e-001  8.854560e-001  0.000000e+000
    outer loop
      vertex  8.430731e+000  2.223001e+001  1.000000e+001
      vertex  8.430731e+000  2.223001e+001  2.500000e+001
      vertex  1.350574e+001  1.956644e+001  1.000000e+001
    endloop
  endfacet
  facet normal  4.647233e-001  8.854560e-001  -0.000000e+000
    outer loop
      vertex  1.350574e+001  1.956644e+001  1.000000e+001
      vertex  8.430731e+000  2.223001e+001  2.500000e+001
      vertex  1.350574e+001  1.956644e+001  2.500000e+001
    endloop
  endfacet
  facet normal  6.631225e-001  7.485108e-001  0.000000e+000
    outer loop
      vertex  1.350574e+001  1.956644e+001  1.000000e+001
      vertex  1.350574e+001  1.956644e+001  2.500000e+001
      vertex  1.779584e+001  1.576574e+001  1.000000e+001
    endloop
  endfacet
  facet normal  6.631225e-001  7.485108e-001  -0.000000e+000
    outer loop
      vertex  1.779584e+001  1.576574e+001  1.000000e+001
      vertex  1.350574e+001  1.956644e+001  2.500000e+001
      vertex  1.779584e+001  1.576574e+001  2.500000e+001
    endloop
  endfacet
  facet normal  8.229838e-001  5.680649e-001  0.000000e+000
    outer loop
      vertex  1.779584e+001  1.576574e+001  1.000000e+001
      vertex  1.779584e+001  1.576574e+001  2.500000e+001
      vertex  2.105172e+001  1.104879e+001  1.000000e+001
    endloop
  endfacet
  facet normal  8.229838e-001  5.680649e-001  -0.000000e+000
    outer loop
      vertex  2.105172e+001  1.104879e+001  1.000000e+001
      vertex  1.779584e+001  1.576574e+001  2.500000e+001
      vertex  2.105172e+001  1.104879e+001  2.500000e+001
    endloop
  endfacet
  facet normal  9.350164e-001  3.546046e-001  0.000000e+000
    outer loop
      vertex  2.105172e+001  1.104879e+001  1.000000e+001
      vertex  2.105172e+001  1.104879e+001  2.500000e+001
      vertex  2.308414e+001  5.689730e+000  1.000000e+001
    endloop
  endfacet
  facet normal  9.350164e-001  3.546046e-001  -0.000000e+000
    outer loop
      vertex  2.308414e+001  5.689730e+000  1.000000e+001
      vertex  2.105172e+001  1.104879e+001  2.500000e+001
      vertex  2.308414e+001  5.689730e+000  2.500000e+001
    endloop
  endfacet
  facet normal  9.927089e-001  1.205368e-001  0.000000e+000
    outer loop
      vertex  2.308414e+001  5.689730e+000  1.000000e+001
      vertex  2.308414e+001  5.689730e+000  2.500000e+001
      vertex  2.377500e+001  0.000000e+000  1.000000e+001
    endloop
  endfacet
  facet normal  9.927089e-001  1.205368e-001  -0.000000e+000
    outer loop
      vertex  2.377500e+001  0.000000e+000  1.000000e+001
      vertex  2.308414e+001  5.689730e+000  2.500000e+001
      vertex  2.377500e+001  0.000000e+000  2.500000e+001
    endloop
  endfacet
  facet normal  9.937123e-001 -1.119645e-001  0.000000e+000
    outer loop
      vertex  3.000000e+001  0.000000e+000  0.000000e+000
      vertex  3.000000e+001  0.000000e+000  1.000000e+001
      vertex  2.924784e+001 -6.675628e+000  0.000000e+000
    endloop
  endfacet
  facet normal  9.937123e-001 -1.119645e-001  0.000000e+000
    outer loop
      vertex  2.924784e+001 -6.675628e+000  0.000000e+000
      vertex  3.000000e+001  0.000000e+000  1.000000e+001
      vertex  2.924784e+001 -6.675628e+000  1.000000e+001
    endloop
  endfacet
  facet normal  9.438834e-001 -3.302791e-001  0.000000e+000
    outer loop
      vertex  2.924784e+001 -6.675628e+000  0.000000e+000
      vertex  2.924784e+001 -6.675628e+000  1.000000e+001
      vertex  2.702907e+001 -1.301651e+001  0.000000e+000
    endloop
  endfacet
  facet normal  9.438834e-001 -3.302791e-001  0.000000e+000
    outer loop
      vertex  2.702907e+001 -1.301651e+001  0.000000e+000
      vertex  2.924784e+001 -6.675628e+000  1.000000e+001
      vertex  2.702907e+001 -1.301651e+001  1.000000e+001
    endloop
  endfacet
  facet normal  8.467242e-001 -5.320320e-001  0.000000e+000
    outer loop
      vertex  2.702907e+001 -1.301651e+001  0.000000e+000
      vertex  2.702907e+001 -1.301651e+001  1.000000e+001
      vertex  2.345494e+001 -1.870469e+001  0.000000e+000
    endloop
  endfacet
  facet normal  8.467242e-001 -5.320320e-001  0.000000e+000
    outer loop
      vertex  2.345494e+001 -1.870469e+001  0.000000e+000
      vertex  2.702907e+001 -1.301651e+001  1.000000e+001
      vertex  2.345494e+001 -1.870469e+001  1.000000e+001
    endloop
  endfacet
  facet normal  7.071068e-001 -7.071068e-001  0.000000e+000
    outer loop
      vertex  2.345494e+001 -1.870469e+001  0.000000e+000
      vertex  2.345494e+001 -1.870469e+001  1.000000e+001
      vertex  1.870469e+001 -2.345494e+001  0.000000e+000
    endloop
  endfacet
  facet normal  7.071068e-001 -7.071068e-001  0.000000e+000
    outer loop
      vertex  1.870469e+001 -2.345494e+001  0.000000e+000
      vertex  2.345494e+001 -1.870469e+001  1.000000e+001
      vertex  1.870469e+001 -2.345494e+001  1.000000e+001
    endloop
  endfacet
  facet normal  5.320320e-001 -8.467242e-001  0.000000e+000
    outer loop
      vertex  1.870469e+001 -2.345494e+001  0.000000e+000
      vertex  1.870469e+001 -2.345494e+001  1.000000e+001
      vertex  1.301651e+001 -2.702907e+001  0.000000e+000
    endloop
  endfacet
  facet normal  5.320320e-001 -8.467242e-001  0.000000e+000
    outer loop
      vertex  1.301651e+001 -2.702907e+001  0.000000e+000
      vertex  1.870469e+001 -2.345494e+001  1.000000e+001
      vertex  1.301651e+001 -2.702907e+001  1.000000e+001
    endloop
  endfacet
  facet normal  3.302791e-001 -9.438834e-001  0.000000e+000
    outer loop
      vertex  1.301651e+001 -2.702907e+001  0.000000e+000
      vertex  1.301651e+001 -2.702907e+001  1.000000e+001
      vertex  6.675628e+000 -2.924784e+001  0.000000e+000
    endloop
  endfacet
  facet normal  3.302791e-001 -9.438834e-001  0.000000e+000
    outer loop
      vertex  6.675628e+000 -2.924784e+001  0.000000e+000
      vertex  1.301651e+001 -2.702907e+001  1.000000e+001
      vertex  6.675628e+000 -2.924784e+001  1.000000e+001
    endloop
  endfacet
  facet normal  1.119645e-001 -9.937123e-001  0.000000e+000
    outer loop
      vertex  6.675628e+000 -2.924784e+001  0.000000e+000
      vertex  6.675628e+000 -2.924784e+001  1.000000e+001
      vertex -3.215608e-014 -3.000000e+001  0.000000e+000
    endloop
  endfacet
  facet normal  1.119645e-001 -9.937123e-001  0.000000e+000
    outer loop
      vertex -3.215608e-014 -3.000000e+001  0.000000e+000
      vertex  6.675628e+000 -2.924784e+001  1.000000e+001
      vertex -3.215608e-014 -3.000000e+001  1.000000e+001
    endloop
  endfacet
  facet normal -1.119645e-001 -9.937123e-001  -0.000000e+000
    outer loop
      vertex -3.215608e-014 -3.000000e+001  0.000000e+000
      vertex -3.215608e-014 -3.000000e+001  1.000000e+001
      vertex -6.675628e+000 -2.924784e+001  0.000000e+000
    endloop
  endfacet
  facet normal -1.119645e-001 -9.937123e-001  0.000000e+000
    outer loop
      vertex -6.675628e+000 -2.924784e+001  0.000000e+000
      vertex -3.215608e-014 -3.000000e+001  1.000000e+001
      vertex -6.675628e+000 -2.924784e+001  1.000000e+001
    endloop
  endfacet
  facet normal -3.302791e-001 -9.438834e-001  -0.000000e+000
    outer loop
      vertex -6.675628e+000 -2.924784e+001  0.000000e+000
      vertex -6.675628e+000 -2.924784e+001  1.000000e+001
      vertex -1.301651e+001 -2.702907e+001  0.000000e+000
    endloop
  endfacet
  facet normal -3.302791e-001 -9.438834e-001  0.000000e+000
    outer loop
      vertex -1.301651e+001 -2.702907e+001  0.000000e+000
      vertex -6.675628e+000 -2.924784e+001  1.000000e+001
      vertex -1.301651e+001 -2.702907e+001  1.000000e+001
    endloop
  endfacet
  facet normal -5.320320e-001 -8.467242e-001  -0.000000e+000
    outer loop
      vertex -1.301651e+001 -2.702907e+001  0.000000e+000
      vertex -1.301651e+001 -2.702907e+001  1.000000e+001
      vertex -1.870469e+001 -2.345494e+001  0.000000e+000
    endloop
  endfacet
  facet normal -5.320320e-001 -8.467242e-001  0.000000e+000
    outer loop
      vertex -1.870469e+001 -2.345494e+001  0.000000e+000
      vertex -1.301651e+001 -2.702907e+001  1.000000e+001
      vertex -1.870469e+001 -2.345494e+001  1.000000e+001
    endloop
  endfacet
  facet normal -7.071068e-001 -7.071068e-001  -0.000000e+000
    outer loop
      vertex -1.870469e+001 -2.345494e+001  0.000000e+000
      vertex -1.870469e+001 -2.345494e+001  1.000000e+001
      vertex -2.345494e+001 -1.870469e+001  0.000000e+000
    endloop
  endfacet
  facet normal -7.071068e-001 -7.071068e-001  0.000000e+000
    outer loop
      vertex -2.345494e+001 -1.870469e+001  0.000000e+000
      vertex -1.870469e+001 -2.345494e+001  1.000000e+001
      vertex -2.345494e+001 -1.870469e+001  1.000000e+001
    endloop
  endfacet
  facet normal -8.467242e-001 -5.320320e-001  -0.000000e+000
    outer loop
      vertex -2.345494e+001 -1.870469e+001  0.000000e+000
      vertex -2.345494e+001 -1.870469e+001  1.000000e+001
      vertex -2.702907e+001 -1.301651e+001  0.000000e+000
    endloop
  endfacet
  facet normal -8.467242e-001 -5.320320e-001  0.000000e+000
    outer loop
      vertex -2.702907e+001 -1.301651e+001  0.000000e+000
      vertex -2.345494e+001 -1.870469e+001  1.000000e+001
      vertex -2.702907e+001 -1.301651e+001  1.000000e+001
    endloop
  endfacet
  facet normal -9.438834e-001 -3.302791e-001  -0.000000e+000
    outer loop
      vertex -2.702907e+001 -1.301651e+001  0.000000e+000
      vertex -2.702907e+001 -1.301651e+001  1.000000e+001
      vertex -2.924784e+001 -6.675628e+000  0.000000e+000
    endloop
  endfacet
  facet normal -9.438834e-001 -3.302791e-001  0.000000e+000
    outer loop
      vertex -2.924784e+001 -6.675628e+000  0.000000e+000
      vertex -2.702907e+001 -1.301651e+001  1.000000e+001
      vertex -2.924784e+001 -6.675628e+000  1.000000e+001
    endloop
  endfacet
  facet normal -9.937123e-001 -1.119645e-001  -0.000000e+000
    outer loop
      vertex -2.924784e+001 -6.675628e+000  0.000000e+000
      vertex -2.924784e+001 -6.675628e+000  1.000000e+001
      vertex -3.000000e+001  1.699650e-014  0.000000e+000
    endloop
  endfacet
  facet normal -9.937123e-001 -1.119645e-001  0.000000e+000
    outer loop
      vertex -3.000000e+001  1.699650e-014  0.000000e+000
      vertex -2.924784e+001 -6.675628e+000  1.000000e+001
      vertex -3.000000e+001  1.699650e-014  1.000000e+001
    endloop
  endfacet
  facet normal -9.937123e-001  1.119645e-001  0.000000e+000
    outer loop
      vertex -3.000000e+001  1.699650e-014  0.000000e+000
      vertex -3.000000e+001  1.699650e-014  1.000000e+001
      vertex -2.924784e+001  6.675628e+000  0.000000e+000
    endloop
  endfacet
  facet normal -9.937123e-001  1.119645e-001  0.000000e+000
    outer loop
      vertex -2.924784e+001  6.675628e+000  0.000000e+000
      vertex -3.000000e+001  1.699650e-014  1.000000e+001
      vertex -2.924784e+001  6.675628e+000  1.000000e+001
    endloop
  endfacet
  facet normal -9.438834e-001  3.302791e-001  0.000000e+000
    outer loop
      vertex -2.924784e+001  6.675628e+000  0.000000e+000
      vertex -2.924784e+001  6.675628e+000  1.000000e+001
      vertex -2.702907e+001  1.301651e+001  0.000000e+000
    endloop
  endfacet
  facet normal -9.438834e-001  3.302791e-001  0.000000e+000
    outer loop
      vertex -2.702907e+001  1.301651e+001  0.000000e+000
      vertex -2.924784e+001  6.675628e+000  1.000000e+001
      vertex -2.702907e+001  1.301651e+001  1.000000e+001
    endloop
  endfacet
  facet normal -8.467242e-001  5.320320e-001  0.000000e+000
    outer loop
      vertex -2.702907e+001  1.301651e+001  0.000000e+000
      vertex -2.702907e+001  1.301651e+001  1.000000e+001
      vertex -2.345494e+001  1.870469e+001  0.000000e+000
    endloop
  endfacet
  facet normal -8.467242e-001  5.320320e-001  0.000000e+000
    outer loop
      vertex -2.345494e+001  1.870469e+001  0.000000e+000
      vertex -2.702907e+001  1.301651e+001  1.000000e+001
      vertex -2.345494e+001  1.870469e+001  1.000000e+001
    endloop
  endfacet
  facet normal -7.071068e-001  7.071068e-001  0.000000e+000
    outer loop
      vertex -2.345494e+001  1.870469e+001  0.000000e+000
      vertex -2.345494e+001  1.870469e+001  1.000000e+001
      vertex -1.870469e+001  2.345494e+001  0.000000e+000
    endloop
  endfacet
  facet normal -7.071068e-001  7.071068e-001  0.000000e+000
    outer loop
      vertex -1.870469e+001  2.345494e+001  0.000000e+000
      vertex -2.345494e+001  1.870469e+001  1.000000e+001
      vertex -1.870469e+001  2.345494e+001  1.000000e+001
    endloop
  endfacet
  facet normal -5.320320e-001  8.467242e-001  0.000000e+000
    outer loop
      vertex -1.870469e+001  2.345494e+001  0.000000e+000
      vertex -1.870469e+001  2.345494e+001  1.000000e+001
      vertex -1.301651e+001  2.702907e+001  0.000000e+000
    endloop
  endfacet
  facet normal -5.320320e-001  8.467242e-001  0.000000e+000
    outer loop
      vertex -1.301651e+001  2.702907e+001  0.000000e+000
      vertex -1.870469e+001  2.345494e+001  1.000000e+001
      vertex -1.301651e+001  2.702907e+001  1.000000e+001
    endloop
  endfacet
  facet normal -3.302791e-001  9.438834e-001  0.000000e+000
    outer loop
      vertex -1.301651e+001  2.702907e+001  0.000000e+000
      vertex -1.301651e+001  2.702907e+001  1.000000e+001
      vertex -6.675628e+000  2.924784e+001  0.000000e+000
    endloop
  endfacet
  facet normal -3.302791e-001  9.438834e-001  0.000000e+000
    outer loop
      vertex -6.675628e+000  2.924784e+001  0.000000e+000
      vertex -1.301651e+001  2.702907e+001  1.000000e+001
      vertex -6.675628e+000  2.924784e+001  1.000000e+001
    endloop
  endfacet
  facet normal -1.119645e-001  9.937123e-001  0.000000e+000
    outer loop
      vertex -6.675628e+000  2.924784e+001  0.000000e+000
      vertex -6.675628e+000  2.924784e+001  1.000000e+001
      vertex  8.498248e-015  3.000000e+001  0.000000e+000
    endloop
  endfacet
  facet normal -1.119645e-001  9.937123e-001  0.000000e+000
    outer loop
      vertex  8.498248e-015  3.000000e+001  0.000000e+000
      vertex -6.675628e+000  2.924784e+001  1.000000e+001
      vertex  8.498248e-015  3.000000e+001  1.000000e+001
    endloop
  endfacet
  facet normal  1.119645e-001  9.937123e-001  0.000000e+000
    outer loop
      vertex  8.498248e-015  3.000000e+001  0.000000e+000
      vertex  8.498248e-015  3.000000e+001  1.000000e+001
      vertex  6.675628e+000  2.924784e+001  0.000000e+000
    endloop
  endfacet
  facet normal  1.119645e-001  9.937123e-001  -0.000000e+000
    outer loop
      vertex  6.675628e+000  2.924784e+001  0.000000e+000
      vertex  8.498248e-015  3.000000e+001  1.000000e+001
      vertex  6.675628e+000  2.924784e+001  1.000000e+001
    endloop
  endfacet
  facet normal  3.302791e-001  9.438834e-001  0.000000e+000
    outer loop
      vertex  6.675628e+000  2.924784e+001  0.000000e+000
      vertex  6.675628e+000  2.924784e+001  1.000000e+001
      vertex  1.301651e+001  2.702907e+001  0.000000e+000
    endloop
  endfacet
  facet normal  3.302791e-001  9.438834e-001  -0.000000e+000
    outer loop
      vertex  1.301651e+001  2.702907e+001  0.000000e+000
      vertex  6.675628e+000  2.924784e+001  1.000000e+001
      vertex  1.301651e+001  2.702907e+001  1.000000e+001
    endloop
  endfacet
  facet normal  5.320320e-001  8.467242e-001  0.000000e+000
    outer loop
      vertex  1.301651e+001  2.702907e+001  0.000000e+000
      vertex  1.301651e+001  2.702907e+001  1.000000e+001
      vertex  1.870469e+001  2.345494e+001  0.000000e+000
    endloop
  endfacet
  facet normal  5.320320e-001  8.467242e-001  -0.000000e+000
    outer loop
      vertex  1.870469e+001  2.345494e+001  0.000000e+000
      vertex  1.301651e+001  2.702907e+001  1.000000e+001
      vertex  1.870469e+001  2.345494e+001  1.000000e+001
    endloop
  endfacet
  facet normal  7.071068e-001  7.071068e-001  0.000000e+000
    outer loop
      vertex  1.870469e+001  2.345494e+001  0.000000e+000
      vertex  1.870469e+001  2.345494e+001  1.000000e+001
      vertex  2.345494e+001  1.870469e+001  0.000000e+000
    endloop
  endfacet
  facet normal  7.071068e-001  7.071068e-001  -0.000000e+000
    outer loop
      vertex  2.345494e+001  1.870469e+001  0.000000e+000
      vertex  1.870469e+001  2.345494e+001  1.000000e+001
      vertex  2.345494e+001  1.870469e+001  1.000000e+001
    endloop
  endfacet
  facet normal  8.467242e-001  5.320320e-001  0.000000e+000
    outer loop
      vertex  2.345494e+001  1.870469e+001  0.000000e+000
      vertex  2.345494e+001  1.870469e+001  1.000000e+001
      vertex  2.702907e+001  1.301651e+001  0.000000e+000
    endloop
  endfacet
  facet normal  8.467242e-001  5.320320e-001  -0.000000e+000
    outer loop
      vertex  2.702907e+001  1.301651e+001  0.000000e+000
      vertex  2.345494e+001  1.870469e+001  1.000000e+001
      vertex  2.702907e+001  1.301651e+001  1.000000e+001
    endloop
  endfacet
  facet normal  9.438834e-001  3.302791e-001  0.000000e+000
    outer loop
      vertex  2.702907e+001  1.301651e+001  0.000000e+000
      vertex  2.702907e+001  1.301651e+001  1.000000e+001
      vertex  2.924784e+001  6.675628e+000  0.000000e+000
    endloop
  endfacet
  facet normal  9.438834e-001  3.302791e-001  -0.000000e+000
    outer loop
      vertex  2.924784e+001  6.675628e+000  0.000000e+000
      vertex  2.702907e+001  1.301651e+001  1.000000e+001
      vertex  2.924784e+001  6.675628e+000  1.000000e+001
    endloop
  endfacet
  facet normal  9.937123e-001  1.119645e-001  0.000000e+000
    outer loop
      vertex  2.924784e+001  6.675628e+000  0.000000e+000
      vertex  2.924784e+001  6.675628e+000  1.000000e+001
      vertex  3.000000e+001  0.000000e+000  0.000000e+000
    endloop
  endfacet
  facet normal  9.937123e-001  1.119645e-001  -0.000000e+000
    outer loop
      vertex  3.000000e+001  0.000000e+000  0.000000e+000
      vertex  2.924784e+001  6.675628e+000  1.000000e+001
      vertex  3.000000e+001  0.000000e+000  1.000000e+001
    endloop
  endfacet
endsolid CATIA STL
