solid CATIA STL
  facet normal -9.238794e-001 -3.826837e-001  0.000000e+000
    outer loop
      vertex -1.500000e+001  2.000000e+000  8.000000e+000
      vertex -1.500000e+001  2.000000e+000  0.000000e+000
      vertex -1.441421e+001  5.857865e-001  8.000000e+000
    endloop
  endfacet
  facet normal -9.238794e-001 -3.826837e-001  -0.000000e+000
    outer loop
      vertex -1.441421e+001  5.857865e-001  8.000000e+000
      vertex -1.500000e+001  2.000000e+000  0.000000e+000
      vertex -1.441421e+001  5.857865e-001  0.000000e+000
    endloop
  endfacet
  facet normal -3.826835e-001 -9.238795e-001  0.000000e+000
    outer loop
      vertex -1.441421e+001  5.857865e-001  8.000000e+000
      vertex -1.441421e+001  5.857865e-001  0.000000e+000
      vertex -1.300000e+001  0.000000e+000  8.000000e+000
    endloop
  endfacet
  facet normal -3.826835e-001 -9.238795e-001  -0.000000e+000
    outer loop
      vertex -1.300000e+001  0.000000e+000  8.000000e+000
      vertex -1.441421e+001  5.857865e-001  0.000000e+000
      vertex -1.300000e+001  0.000000e+000  0.000000e+000
    endloop
  endfacet
  facet normal  0.000000e+000  0.000000e+000  1.000000e+000
    outer loop
      vertex -3.000000e+000  2.000000e+000  1.000000e+001
      vertex -4.750000e+000  1.250000e+001  1.000000e+001
      vertex -5.275203e+000  1.088359e+001  1.000000e+001
    endloop
  endfacet
  facet normal  0.000000e+000  0.000000e+000  1.000000e+000
    outer loop
      vertex -3.000000e+000  2.000000e+000  1.000000e+001
      vertex -5.275203e+000  1.088359e+001  1.000000e+001
      vertex -6.650203e+000  9.884595e+000  1.000000e+001
    endloop
  endfacet
  facet normal  0.000000e+000  0.000000e+000  9.999999e-001
    outer loop
      vertex -3.000000e+000  2.000000e+000  1.000000e+001
      vertex -6.650203e+000  9.884595e+000  1.000000e+001
      vertex -8.349796e+000  9.884595e+000  1.000000e+001
    endloop
  endfacet
  facet normal  0.000000e+000  0.000000e+000  1.000000e+000
    outer loop
      vertex -3.000000e+000  2.000000e+000  1.000000e+001
      vertex -8.349796e+000  9.884595e+000  1.000000e+001
      vertex -1.300000e+001  2.000000e+000  1.000000e+001
    endloop
  endfacet
  facet normal  0.000000e+000  -0.000000e+000  1.000000e+000
    outer loop
      vertex -1.300000e+001  2.300000e+001  1.000000e+001
      vertex -1.025000e+001  1.250000e+001  1.000000e+001
      vertex -9.724796e+000  1.411641e+001  1.000000e+001
    endloop
  endfacet
  facet normal  0.000000e+000  -0.000000e+000  1.000000e+000
    outer loop
      vertex -1.300000e+001  2.300000e+001  1.000000e+001
      vertex -9.724796e+000  1.411641e+001  1.000000e+001
      vertex -8.349796e+000  1.511541e+001  1.000000e+001
    endloop
  endfacet
  facet normal  0.000000e+000  -0.000000e+000  9.999999e-001
    outer loop
      vertex -1.300000e+001  2.300000e+001  1.000000e+001
      vertex -8.349796e+000  1.511541e+001  1.000000e+001
      vertex -6.650203e+000  1.511541e+001  1.000000e+001
    endloop
  endfacet
  facet normal  0.000000e+000  -0.000000e+000  1.000000e+000
    outer loop
      vertex -1.300000e+001  2.300000e+001  1.000000e+001
      vertex -6.650203e+000  1.511541e+001  1.000000e+001
      vertex -3.000000e+000  2.300000e+001  1.000000e+001
    endloop
  endfacet
  facet normal  -0.000000e+000  0.000000e+000  1.000000e+000
    outer loop
      vertex -3.000000e+000  2.300000e+001  1.000000e+001
      vertex -6.650203e+000  1.511541e+001  1.000000e+001
      vertex -5.275203e+000  1.411641e+001  1.000000e+001
    endloop
  endfacet
  facet normal  -0.000000e+000  0.000000e+000  1.000000e+000
    outer loop
      vertex -3.000000e+000  2.300000e+001  1.000000e+001
      vertex -5.275203e+000  1.411641e+001  1.000000e+001
      vertex -4.750000e+000  1.250000e+001  1.000000e+001
    endloop
  endfacet
  facet normal  -0.000000e+000  0.000000e+000  1.000000e+000
    outer loop
      vertex -3.000000e+000  2.300000e+001  1.000000e+001
      vertex -4.750000e+000  1.250000e+001  1.000000e+001
      vertex -3.000000e+000  2.000000e+000  1.000000e+001
    endloop
  endfacet
  facet normal  0.000000e+000  0.000000e+000  1.000000e+000
    outer loop
      vertex -1.300000e+001  2.000000e+000  1.000000e+001
      vertex -8.349796e+000  9.884595e+000  1.000000e+001
      vertex -9.724796e+000  1.088359e+001  1.000000e+001
    endloop
  endfacet
  facet normal  0.000000e+000  0.000000e+000  1.000000e+000
    outer loop
      vertex -1.300000e+001  2.000000e+000  1.000000e+001
      vertex -9.724796e+000  1.088359e+001  1.000000e+001
      vertex -1.025000e+001  1.250000e+001  1.000000e+001
    endloop
  endfacet
  facet normal  0.000000e+000  0.000000e+000  1.000000e+000
    outer loop
      vertex -1.300000e+001  2.000000e+000  1.000000e+001
      vertex -1.025000e+001  1.250000e+001  1.000000e+001
      vertex -1.300000e+001  2.300000e+001  1.000000e+001
    endloop
  endfacet
  facet normal -1.000000e+000  0.000000e+000  0.000000e+000
    outer loop
      vertex -1.500000e+001  2.300000e+001  0.000000e+000
      vertex -1.500000e+001  2.000000e+000  0.000000e+000
      vertex -1.500000e+001  2.300000e+001  8.000000e+000
    endloop
  endfacet
  facet normal -1.000000e+000  -0.000000e+000  0.000000e+000
    outer loop
      vertex -1.500000e+001  2.300000e+001  8.000000e+000
      vertex -1.500000e+001  2.000000e+000  0.000000e+000
      vertex -1.500000e+001  2.000000e+000  8.000000e+000
    endloop
  endfacet
  facet normal  -0.000000e+000 -1.000000e+000  -0.000000e+000
    outer loop
      vertex  1.000000e+001  0.000000e+000  0.000000e+000
      vertex  1.000000e+001  0.000000e+000  7.100000e+001
      vertex  2.000000e+000  0.000000e+000  7.900000e+001
    endloop
  endfacet
  facet normal  0.000000e+000 -1.000000e+000  0.000000e+000
    outer loop
      vertex  1.000000e+001  0.000000e+000  0.000000e+000
      vertex  2.000000e+000  0.000000e+000  7.900000e+001
      vertex  2.000000e+000  0.000000e+000  1.300000e+001
    endloop
  endfacet
  facet normal  0.000000e+000 -1.000000e+000  -0.000000e+000
    outer loop
      vertex  1.000000e+001  0.000000e+000  0.000000e+000
      vertex  2.000000e+000  0.000000e+000  1.300000e+001
      vertex  1.330127e+000  0.000000e+000  1.050000e+001
    endloop
  endfacet
  facet normal  0.000000e+000 -1.000000e+000  -0.000000e+000
    outer loop
      vertex  1.000000e+001  0.000000e+000  0.000000e+000
      vertex  1.330127e+000  0.000000e+000  1.050000e+001
      vertex  0.000000e+000  0.000000e+000  0.000000e+000
    endloop
  endfacet
  facet normal  0.000000e+000 -1.000000e+000  0.000000e+000
    outer loop
      vertex  0.000000e+000  0.000000e+000  0.000000e+000
      vertex  1.330127e+000  0.000000e+000  1.050000e+001
      vertex -5.000000e-001  0.000000e+000  8.669873e+000
    endloop
  endfacet
  facet normal  0.000000e+000 -1.000000e+000  -0.000000e+000
    outer loop
      vertex  0.000000e+000  0.000000e+000  0.000000e+000
      vertex -5.000000e-001  0.000000e+000  8.669873e+000
      vertex -3.000000e+000  0.000000e+000  8.000000e+000
    endloop
  endfacet
  facet normal  -0.000000e+000 -1.000000e+000  -0.000000e+000
    outer loop
      vertex  0.000000e+000  0.000000e+000  0.000000e+000
      vertex -3.000000e+000  0.000000e+000  8.000000e+000
      vertex -1.300000e+001  0.000000e+000  8.000000e+000
    endloop
  endfacet
  facet normal  0.000000e+000 -1.000000e+000  0.000000e+000
    outer loop
      vertex  0.000000e+000  0.000000e+000  0.000000e+000
      vertex -1.300000e+001  0.000000e+000  8.000000e+000
      vertex -1.300000e+001  0.000000e+000  0.000000e+000
    endloop
  endfacet
  facet normal  0.000000e+000 -1.000000e+000  -0.000000e+000
    outer loop
      vertex  8.900000e+001  0.000000e+000  0.000000e+000
      vertex  8.900000e+001  0.000000e+000  8.000000e+000
      vertex  7.600000e+001  0.000000e+000 -1.776357e-015
    endloop
  endfacet
  facet normal  0.000000e+000 -1.000000e+000  0.000000e+000
    outer loop
      vertex  7.600000e+001  0.000000e+000 -1.776357e-015
      vertex  8.900000e+001  0.000000e+000  8.000000e+000
      vertex  7.900000e+001  0.000000e+000  8.000000e+000
    endloop
  endfacet
  facet normal  -0.000000e+000 -1.000000e+000  0.000000e+000
    outer loop
      vertex  7.600000e+001  0.000000e+000 -1.776357e-015
      vertex  7.900000e+001  0.000000e+000  8.000000e+000
      vertex  7.650000e+001  0.000000e+000  8.669873e+000
    endloop
  endfacet
  facet normal  0.000000e+000 -1.000000e+000  0.000000e+000
    outer loop
      vertex  2.000000e+000  0.000000e+000  7.900000e+001
      vertex  1.000000e+001  0.000000e+000  7.100000e+001
      vertex  7.400000e+001  0.000000e+000  7.900000e+001
    endloop
  endfacet
  facet normal  0.000000e+000 -1.000000e+000  0.000000e+000
    outer loop
      vertex  7.400000e+001  0.000000e+000  7.900000e+001
      vertex  1.000000e+001  0.000000e+000  7.100000e+001
      vertex  6.600000e+001  0.000000e+000  7.100000e+001
    endloop
  endfacet
  facet normal  0.000000e+000 -1.000000e+000  0.000000e+000
    outer loop
      vertex  7.400000e+001  0.000000e+000  7.900000e+001
      vertex  6.600000e+001  0.000000e+000  7.100000e+001
      vertex  7.400000e+001  0.000000e+000  1.300000e+001
    endloop
  endfacet
  facet normal  -0.000000e+000 -1.000000e+000  0.000000e+000
    outer loop
      vertex  7.400000e+001  0.000000e+000  1.300000e+001
      vertex  6.600000e+001  0.000000e+000  7.100000e+001
      vertex  6.600000e+001  0.000000e+000  0.000000e+000
    endloop
  endfacet
  facet normal  0.000000e+000 -1.000000e+000  0.000000e+000
    outer loop
      vertex  7.400000e+001  0.000000e+000  1.300000e+001
      vertex  6.600000e+001  0.000000e+000  0.000000e+000
      vertex  7.466988e+001  0.000000e+000  1.050000e+001
    endloop
  endfacet
  facet normal  0.000000e+000 -1.000000e+000  0.000000e+000
    outer loop
      vertex  7.466988e+001  0.000000e+000  1.050000e+001
      vertex  6.600000e+001  0.000000e+000  0.000000e+000
      vertex  7.650000e+001  0.000000e+000  8.669873e+000
    endloop
  endfacet
  facet normal  0.000000e+000 -1.000000e+000  0.000000e+000
    outer loop
      vertex  7.650000e+001  0.000000e+000  8.669873e+000
      vertex  6.600000e+001  0.000000e+000  0.000000e+000
      vertex  7.600000e+001  0.000000e+000 -1.776357e-015
    endloop
  endfacet
  facet normal  0.000000e+000  0.000000e+000 -1.000000e+000
    outer loop
      vertex -8.349796e+000  1.511541e+001  0.000000e+000
      vertex -9.724796e+000  1.411641e+001  0.000000e+000
      vertex -1.500000e+001  2.300000e+001  0.000000e+000
    endloop
  endfacet
  facet normal  -0.000000e+000  0.000000e+000 -1.000000e+000
    outer loop
      vertex -1.300000e+001  2.500000e+001  0.000000e+000
      vertex  0.000000e+000  2.500000e+001  0.000000e+000
      vertex -6.650203e+000  1.511541e+001  0.000000e+000
    endloop
  endfacet
  facet normal  0.000000e+000  0.000000e+000 -1.000000e+000
    outer loop
      vertex -1.300000e+001  2.500000e+001  0.000000e+000
      vertex -6.650203e+000  1.511541e+001  0.000000e+000
      vertex -8.349796e+000  1.511541e+001  0.000000e+000
    endloop
  endfacet
  facet normal  0.000000e+000  0.000000e+000 -1.000000e+000
    outer loop
      vertex -1.300000e+001  2.500000e+001  0.000000e+000
      vertex -8.349796e+000  1.511541e+001  0.000000e+000
      vertex -1.500000e+001  2.300000e+001  0.000000e+000
    endloop
  endfacet
  facet normal  0.000000e+000  0.000000e+000 -1.000000e+000
    outer loop
      vertex -1.300000e+001  2.500000e+001  0.000000e+000
      vertex -1.500000e+001  2.300000e+001  0.000000e+000
      vertex -1.441421e+001  2.441421e+001  0.000000e+000
    endloop
  endfacet
  facet normal  0.000000e+000  0.000000e+000 -1.000000e+000
    outer loop
      vertex  1.000000e+001  2.500000e+001  0.000000e+000
      vertex  1.000000e+001  0.000000e+000  0.000000e+000
      vertex -5.275203e+000  1.411641e+001  0.000000e+000
    endloop
  endfacet
  facet normal  0.000000e+000  0.000000e+000 -9.999999e-001
    outer loop
      vertex  1.000000e+001  2.500000e+001  0.000000e+000
      vertex -5.275203e+000  1.411641e+001  0.000000e+000
      vertex -6.650203e+000  1.511541e+001  0.000000e+000
    endloop
  endfacet
  facet normal  0.000000e+000  0.000000e+000 -1.000000e+000
    outer loop
      vertex  1.000000e+001  2.500000e+001  0.000000e+000
      vertex -6.650203e+000  1.511541e+001  0.000000e+000
      vertex  0.000000e+000  2.500000e+001  0.000000e+000
    endloop
  endfacet
  facet normal  0.000000e+000  0.000000e+000 -1.000000e+000
    outer loop
      vertex -1.500000e+001  2.000000e+000  0.000000e+000
      vertex -1.500000e+001  2.300000e+001  0.000000e+000
      vertex -9.724796e+000  1.411641e+001  0.000000e+000
    endloop
  endfacet
  facet normal  0.000000e+000  0.000000e+000 -1.000000e+000
    outer loop
      vertex -1.500000e+001  2.000000e+000  0.000000e+000
      vertex -9.724796e+000  1.411641e+001  0.000000e+000
      vertex -1.025000e+001  1.250000e+001  0.000000e+000
    endloop
  endfacet
  facet normal  0.000000e+000  -0.000000e+000 -1.000000e+000
    outer loop
      vertex -1.500000e+001  2.000000e+000  0.000000e+000
      vertex -1.025000e+001  1.250000e+001  0.000000e+000
      vertex -9.724796e+000  1.088359e+001  0.000000e+000
    endloop
  endfacet
  facet normal  0.000000e+000  -0.000000e+000 -1.000000e+000
    outer loop
      vertex -1.500000e+001  2.000000e+000  0.000000e+000
      vertex -9.724796e+000  1.088359e+001  0.000000e+000
      vertex -8.349796e+000  9.884595e+000  0.000000e+000
    endloop
  endfacet
  facet normal  0.000000e+000  0.000000e+000 -9.999999e-001
    outer loop
      vertex  1.000000e+001  0.000000e+000  0.000000e+000
      vertex  0.000000e+000  0.000000e+000  0.000000e+000
      vertex -6.650203e+000  9.884595e+000  0.000000e+000
    endloop
  endfacet
  facet normal  0.000000e+000  0.000000e+000 -9.999999e-001
    outer loop
      vertex  1.000000e+001  0.000000e+000  0.000000e+000
      vertex -6.650203e+000  9.884595e+000  0.000000e+000
      vertex -5.275203e+000  1.088359e+001  0.000000e+000
    endloop
  endfacet
  facet normal  0.000000e+000  0.000000e+000 -9.999999e-001
    outer loop
      vertex  1.000000e+001  0.000000e+000  0.000000e+000
      vertex -5.275203e+000  1.088359e+001  0.000000e+000
      vertex -4.750000e+000  1.250000e+001  0.000000e+000
    endloop
  endfacet
  facet normal  0.000000e+000  0.000000e+000 -1.000000e+000
    outer loop
      vertex  1.000000e+001  0.000000e+000  0.000000e+000
      vertex -4.750000e+000  1.250000e+001  0.000000e+000
      vertex -5.275203e+000  1.411641e+001  0.000000e+000
    endloop
  endfacet
  facet normal  0.000000e+000  0.000000e+000 -1.000000e+000
    outer loop
      vertex  0.000000e+000  0.000000e+000  0.000000e+000
      vertex -1.300000e+001  0.000000e+000  0.000000e+000
      vertex -6.650203e+000  9.884595e+000  0.000000e+000
    endloop
  endfacet
  facet normal  -0.000000e+000  0.000000e+000 -1.000000e+000
    outer loop
      vertex -6.650203e+000  9.884595e+000  0.000000e+000
      vertex -1.300000e+001  0.000000e+000  0.000000e+000
      vertex -8.349796e+000  9.884595e+000  0.000000e+000
    endloop
  endfacet
  facet normal  0.000000e+000  0.000000e+000 -1.000000e+000
    outer loop
      vertex -1.300000e+001  0.000000e+000  0.000000e+000
      vertex -1.441421e+001  5.857865e-001  0.000000e+000
      vertex -8.349796e+000  9.884595e+000  0.000000e+000
    endloop
  endfacet
  facet normal  0.000000e+000  0.000000e+000 -1.000000e+000
    outer loop
      vertex -8.349796e+000  9.884595e+000  0.000000e+000
      vertex -1.441421e+001  5.857865e-001  0.000000e+000
      vertex -1.500000e+001  2.000000e+000  0.000000e+000
    endloop
  endfacet
  facet normal  -0.000000e+000  9.238794e-001  3.826838e-001
    outer loop
      vertex -3.000000e+000  2.500000e+001  8.000000e+000
      vertex -1.300000e+001  2.500000e+001  8.000000e+000
      vertex -3.000000e+000  2.441421e+001  9.414213e+000
    endloop
  endfacet
  facet normal  0.000000e+000  9.238794e-001  3.826838e-001
    outer loop
      vertex -3.000000e+000  2.441421e+001  9.414213e+000
      vertex -1.300000e+001  2.500000e+001  8.000000e+000
      vertex -1.300000e+001  2.441421e+001  9.414213e+000
    endloop
  endfacet
  facet normal  -0.000000e+000  3.826838e-001  9.238794e-001
    outer loop
      vertex -3.000000e+000  2.441421e+001  9.414213e+000
      vertex -1.300000e+001  2.441421e+001  9.414213e+000
      vertex -3.000000e+000  2.300000e+001  1.000000e+001
    endloop
  endfacet
  facet normal  0.000000e+000  3.826838e-001  9.238794e-001
    outer loop
      vertex -3.000000e+000  2.300000e+001  1.000000e+001
      vertex -1.300000e+001  2.441421e+001  9.414213e+000
      vertex -1.300000e+001  2.300000e+001  1.000000e+001
    endloop
  endfacet
  facet normal  3.826833e-001  -0.000000e+000  9.238796e-001
    outer loop
      vertex  8.900000e+001  2.300000e+001  1.000000e+001
      vertex  8.900000e+001  2.000000e+000  1.000000e+001
      vertex  9.041422e+001  2.300000e+001  9.414213e+000
    endloop
  endfacet
  facet normal  3.826833e-001  0.000000e+000  9.238796e-001
    outer loop
      vertex  9.041422e+001  2.300000e+001  9.414213e+000
      vertex  8.900000e+001  2.000000e+000  1.000000e+001
      vertex  9.041422e+001  2.000000e+000  9.414213e+000
    endloop
  endfacet
  facet normal  9.238799e-001  -0.000000e+000  3.826827e-001
    outer loop
      vertex  9.041422e+001  2.300000e+001  9.414213e+000
      vertex  9.041422e+001  2.000000e+000  9.414213e+000
      vertex  9.100000e+001  2.300000e+001  8.000000e+000
    endloop
  endfacet
  facet normal  9.238799e-001  0.000000e+000  3.826827e-001
    outer loop
      vertex  9.100000e+001  2.300000e+001  8.000000e+000
      vertex  9.041422e+001  2.000000e+000  9.414213e+000
      vertex  9.100000e+001  2.000000e+000  8.000000e+000
    endloop
  endfacet
  facet normal  0.000000e+000  1.000000e+000  0.000000e+000
    outer loop
      vertex  7.600000e+001  2.500000e+001  0.000000e+000
      vertex  6.600000e+001  2.500000e+001  0.000000e+000
      vertex  7.400000e+001  2.500000e+001  1.300000e+001
    endloop
  endfacet
  facet normal  0.000000e+000  1.000000e+000  0.000000e+000
    outer loop
      vertex  7.600000e+001  2.500000e+001  0.000000e+000
      vertex  7.400000e+001  2.500000e+001  1.300000e+001
      vertex  7.466988e+001  2.500000e+001  1.050000e+001
    endloop
  endfacet
  facet normal  0.000000e+000  1.000000e+000  0.000000e+000
    outer loop
      vertex  7.600000e+001  2.500000e+001  0.000000e+000
      vertex  7.466988e+001  2.500000e+001  1.050000e+001
      vertex  7.650000e+001  2.500000e+001  8.669873e+000
    endloop
  endfacet
  facet normal  0.000000e+000  1.000000e+000  0.000000e+000
    outer loop
      vertex  7.600000e+001  2.500000e+001  0.000000e+000
      vertex  7.650000e+001  2.500000e+001  8.669873e+000
      vertex  7.900000e+001  2.500000e+001  8.000000e+000
    endloop
  endfacet
  facet normal  -0.000000e+000  1.000000e+000  0.000000e+000
    outer loop
      vertex  7.600000e+001  2.500000e+001  0.000000e+000
      vertex  7.900000e+001  2.500000e+001  8.000000e+000
      vertex  8.900000e+001  2.500000e+001  8.000000e+000
    endloop
  endfacet
  facet normal  0.000000e+000  1.000000e+000  0.000000e+000
    outer loop
      vertex  7.600000e+001  2.500000e+001  0.000000e+000
      vertex  8.900000e+001  2.500000e+001  8.000000e+000
      vertex  8.900000e+001  2.500000e+001  0.000000e+000
    endloop
  endfacet
  facet normal  0.000000e+000  1.000000e+000  0.000000e+000
    outer loop
      vertex  7.400000e+001  2.500000e+001  1.300000e+001
      vertex  6.600000e+001  2.500000e+001  0.000000e+000
      vertex  7.400000e+001  2.500000e+001  7.900000e+001
    endloop
  endfacet
  facet normal  0.000000e+000  1.000000e+000  0.000000e+000
    outer loop
      vertex  7.400000e+001  2.500000e+001  7.900000e+001
      vertex  6.600000e+001  2.500000e+001  0.000000e+000
      vertex  6.600000e+001  2.500000e+001  7.100000e+001
    endloop
  endfacet
  facet normal  0.000000e+000  1.000000e+000  -0.000000e+000
    outer loop
      vertex  7.400000e+001  2.500000e+001  7.900000e+001
      vertex  6.600000e+001  2.500000e+001  7.100000e+001
      vertex  2.000000e+000  2.500000e+001  7.900000e+001
    endloop
  endfacet
  facet normal  0.000000e+000  1.000000e+000  0.000000e+000
    outer loop
      vertex  2.000000e+000  2.500000e+001  7.900000e+001
      vertex  6.600000e+001  2.500000e+001  7.100000e+001
      vertex  1.000000e+001  2.500000e+001  7.100000e+001
    endloop
  endfacet
  facet normal  0.000000e+000  1.000000e+000  0.000000e+000
    outer loop
      vertex  2.000000e+000  2.500000e+001  7.900000e+001
      vertex  1.000000e+001  2.500000e+001  7.100000e+001
      vertex  2.000000e+000  2.500000e+001  1.300000e+001
    endloop
  endfacet
  facet normal  -0.000000e+000  1.000000e+000  0.000000e+000
    outer loop
      vertex  2.000000e+000  2.500000e+001  1.300000e+001
      vertex  1.000000e+001  2.500000e+001  7.100000e+001
      vertex  1.000000e+001  2.500000e+001  0.000000e+000
    endloop
  endfacet
  facet normal  0.000000e+000  1.000000e+000  0.000000e+000
    outer loop
      vertex  2.000000e+000  2.500000e+001  1.300000e+001
      vertex  1.000000e+001  2.500000e+001  0.000000e+000
      vertex  1.330127e+000  2.500000e+001  1.050000e+001
    endloop
  endfacet
  facet normal  0.000000e+000  1.000000e+000  0.000000e+000
    outer loop
      vertex -1.300000e+001  2.500000e+001  0.000000e+000
      vertex -1.300000e+001  2.500000e+001  8.000000e+000
      vertex  0.000000e+000  2.500000e+001  0.000000e+000
    endloop
  endfacet
  facet normal  0.000000e+000  1.000000e+000  0.000000e+000
    outer loop
      vertex  0.000000e+000  2.500000e+001  0.000000e+000
      vertex -1.300000e+001  2.500000e+001  8.000000e+000
      vertex -3.000000e+000  2.500000e+001  8.000000e+000
    endloop
  endfacet
  facet normal  -0.000000e+000  1.000000e+000  0.000000e+000
    outer loop
      vertex  0.000000e+000  2.500000e+001  0.000000e+000
      vertex -3.000000e+000  2.500000e+001  8.000000e+000
      vertex -5.000000e-001  2.500000e+001  8.669873e+000
    endloop
  endfacet
  facet normal  0.000000e+000  1.000000e+000  0.000000e+000
    outer loop
      vertex  1.330127e+000  2.500000e+001  1.050000e+001
      vertex  1.000000e+001  2.500000e+001  0.000000e+000
      vertex -5.000000e-001  2.500000e+001  8.669873e+000
    endloop
  endfacet
  facet normal  0.000000e+000  1.000000e+000  0.000000e+000
    outer loop
      vertex -5.000000e-001  2.500000e+001  8.669873e+000
      vertex  1.000000e+001  2.500000e+001  0.000000e+000
      vertex  0.000000e+000  2.500000e+001  0.000000e+000
    endloop
  endfacet
  facet normal  0.000000e+000  0.000000e+000  1.000000e+000
    outer loop
      vertex  8.900000e+001  2.000000e+000  1.000000e+001
      vertex  8.625000e+001  1.250000e+001  1.000000e+001
      vertex  8.572480e+001  1.088359e+001  1.000000e+001
    endloop
  endfacet
  facet normal  0.000000e+000  0.000000e+000  1.000000e+000
    outer loop
      vertex  8.900000e+001  2.000000e+000  1.000000e+001
      vertex  8.572480e+001  1.088359e+001  1.000000e+001
      vertex  8.434980e+001  9.884595e+000  1.000000e+001
    endloop
  endfacet
  facet normal  0.000000e+000  0.000000e+000  9.999999e-001
    outer loop
      vertex  8.900000e+001  2.000000e+000  1.000000e+001
      vertex  8.434980e+001  9.884595e+000  1.000000e+001
      vertex  8.265020e+001  9.884595e+000  1.000000e+001
    endloop
  endfacet
  facet normal  0.000000e+000  0.000000e+000  1.000000e+000
    outer loop
      vertex  8.900000e+001  2.000000e+000  1.000000e+001
      vertex  8.265020e+001  9.884595e+000  1.000000e+001
      vertex  7.900000e+001  2.000000e+000  1.000000e+001
    endloop
  endfacet
  facet normal  0.000000e+000  -0.000000e+000  1.000000e+000
    outer loop
      vertex  7.900000e+001  2.300000e+001  1.000000e+001
      vertex  8.075000e+001  1.250000e+001  1.000000e+001
      vertex  8.127520e+001  1.411641e+001  1.000000e+001
    endloop
  endfacet
  facet normal  0.000000e+000  -0.000000e+000  9.999999e-001
    outer loop
      vertex  7.900000e+001  2.300000e+001  1.000000e+001
      vertex  8.127520e+001  1.411641e+001  1.000000e+001
      vertex  8.265020e+001  1.511541e+001  1.000000e+001
    endloop
  endfacet
  facet normal  0.000000e+000  -0.000000e+000  9.999999e-001
    outer loop
      vertex  7.900000e+001  2.300000e+001  1.000000e+001
      vertex  8.265020e+001  1.511541e+001  1.000000e+001
      vertex  8.434980e+001  1.511541e+001  1.000000e+001
    endloop
  endfacet
  facet normal  0.000000e+000  -0.000000e+000  1.000000e+000
    outer loop
      vertex  7.900000e+001  2.300000e+001  1.000000e+001
      vertex  8.434980e+001  1.511541e+001  1.000000e+001
      vertex  8.900000e+001  2.300000e+001  1.000000e+001
    endloop
  endfacet
  facet normal  -0.000000e+000  0.000000e+000  1.000000e+000
    outer loop
      vertex  8.900000e+001  2.300000e+001  1.000000e+001
      vertex  8.434980e+001  1.511541e+001  1.000000e+001
      vertex  8.572480e+001  1.411641e+001  1.000000e+001
    endloop
  endfacet
  facet normal  -0.000000e+000  0.000000e+000  1.000000e+000
    outer loop
      vertex  8.900000e+001  2.300000e+001  1.000000e+001
      vertex  8.572480e+001  1.411641e+001  1.000000e+001
      vertex  8.625000e+001  1.250000e+001  1.000000e+001
    endloop
  endfacet
  facet normal  -0.000000e+000  0.000000e+000  1.000000e+000
    outer loop
      vertex  8.900000e+001  2.300000e+001  1.000000e+001
      vertex  8.625000e+001  1.250000e+001  1.000000e+001
      vertex  8.900000e+001  2.000000e+000  1.000000e+001
    endloop
  endfacet
  facet normal  0.000000e+000  0.000000e+000  9.999999e-001
    outer loop
      vertex  7.900000e+001  2.000000e+000  1.000000e+001
      vertex  8.265020e+001  9.884595e+000  1.000000e+001
      vertex  8.127520e+001  1.088359e+001  1.000000e+001
    endloop
  endfacet
  facet normal  0.000000e+000  0.000000e+000  1.000000e+000
    outer loop
      vertex  7.900000e+001  2.000000e+000  1.000000e+001
      vertex  8.127520e+001  1.088359e+001  1.000000e+001
      vertex  8.075000e+001  1.250000e+001  1.000000e+001
    endloop
  endfacet
  facet normal  0.000000e+000  0.000000e+000  1.000000e+000
    outer loop
      vertex  7.900000e+001  2.000000e+000  1.000000e+001
      vertex  8.075000e+001  1.250000e+001  1.000000e+001
      vertex  7.900000e+001  2.300000e+001  1.000000e+001
    endloop
  endfacet
  facet normal  1.000000e+000  0.000000e+000  0.000000e+000
    outer loop
      vertex  9.100000e+001  2.000000e+000  0.000000e+000
      vertex  9.100000e+001  2.300000e+001  0.000000e+000
      vertex  9.100000e+001  2.000000e+000  8.000000e+000
    endloop
  endfacet
  facet normal  1.000000e+000  -0.000000e+000  0.000000e+000
    outer loop
      vertex  9.100000e+001  2.000000e+000  8.000000e+000
      vertex  9.100000e+001  2.300000e+001  0.000000e+000
      vertex  9.100000e+001  2.300000e+001  8.000000e+000
    endloop
  endfacet
  facet normal  9.238801e-001  0.000000e+000  3.826823e-001
    outer loop
      vertex  7.600000e+001  2.000000e+000  7.900000e+001
      vertex  7.600000e+001  2.300000e+001  7.900000e+001
      vertex  7.541422e+001  2.000000e+000  8.041422e+001
    endloop
  endfacet
  facet normal  9.238801e-001  -0.000000e+000  3.826823e-001
    outer loop
      vertex  7.541422e+001  2.000000e+000  8.041422e+001
      vertex  7.600000e+001  2.300000e+001  7.900000e+001
      vertex  7.541422e+001  2.300000e+001  8.041422e+001
    endloop
  endfacet
  facet normal  3.826823e-001  0.000000e+000  9.238801e-001
    outer loop
      vertex  7.541422e+001  2.000000e+000  8.041422e+001
      vertex  7.541422e+001  2.300000e+001  8.041422e+001
      vertex  7.400000e+001  2.000000e+000  8.100000e+001
    endloop
  endfacet
  facet normal  3.826823e-001  -0.000000e+000  9.238801e-001
    outer loop
      vertex  7.400000e+001  2.000000e+000  8.100000e+001
      vertex  7.541422e+001  2.300000e+001  8.041422e+001
      vertex  7.400000e+001  2.300000e+001  8.100000e+001
    endloop
  endfacet
  facet normal  0.000000e+000  0.000000e+000  9.999999e-001
    outer loop
      vertex  2.000000e+000  2.000000e+000  8.100000e+001
      vertex  7.400000e+001  2.000000e+000  8.100000e+001
      vertex  2.000000e+000  2.300000e+001  8.100000e+001
    endloop
  endfacet
  facet normal  -0.000000e+000  0.000000e+000  9.999999e-001
    outer loop
      vertex  2.000000e+000  2.300000e+001  8.100000e+001
      vertex  7.400000e+001  2.000000e+000  8.100000e+001
      vertex  7.400000e+001  2.300000e+001  8.100000e+001
    endloop
  endfacet
  facet normal  1.000000e+000  0.000000e+000  0.000000e+000
    outer loop
      vertex  7.600000e+001  2.000000e+000  1.300000e+001
      vertex  7.600000e+001  2.300000e+001  1.300000e+001
      vertex  7.600000e+001  2.000000e+000  7.900000e+001
    endloop
  endfacet
  facet normal  1.000000e+000  -0.000000e+000  0.000000e+000
    outer loop
      vertex  7.600000e+001  2.000000e+000  7.900000e+001
      vertex  7.600000e+001  2.300000e+001  1.300000e+001
      vertex  7.600000e+001  2.300000e+001  7.900000e+001
    endloop
  endfacet
  facet normal -9.238796e-001  0.000000e+000  3.826831e-001
    outer loop
      vertex  0.000000e+000  2.300000e+001  7.900000e+001
      vertex  0.000000e+000  2.000000e+000  7.900000e+001
      vertex  5.857865e-001  2.300000e+001  8.041422e+001
    endloop
  endfacet
  facet normal -9.238796e-001  0.000000e+000  3.826831e-001
    outer loop
      vertex  5.857865e-001  2.300000e+001  8.041422e+001
      vertex  0.000000e+000  2.000000e+000  7.900000e+001
      vertex  5.857865e-001  2.000000e+000  8.041422e+001
    endloop
  endfacet
  facet normal -3.826826e-001  0.000000e+000  9.238800e-001
    outer loop
      vertex  5.857865e-001  2.300000e+001  8.041422e+001
      vertex  5.857865e-001  2.000000e+000  8.041422e+001
      vertex  2.000000e+000  2.300000e+001  8.100000e+001
    endloop
  endfacet
  facet normal -3.826826e-001  0.000000e+000  9.238800e-001
    outer loop
      vertex  2.000000e+000  2.300000e+001  8.100000e+001
      vertex  5.857865e-001  2.000000e+000  8.041422e+001
      vertex  2.000000e+000  2.000000e+000  8.100000e+001
    endloop
  endfacet
  facet normal -1.000000e+000  0.000000e+000  0.000000e+000
    outer loop
      vertex  0.000000e+000  2.300000e+001  1.300000e+001
      vertex  0.000000e+000  2.000000e+000  1.300000e+001
      vertex  0.000000e+000  2.300000e+001  7.900000e+001
    endloop
  endfacet
  facet normal -1.000000e+000  -0.000000e+000  0.000000e+000
    outer loop
      vertex  0.000000e+000  2.300000e+001  7.900000e+001
      vertex  0.000000e+000  2.000000e+000  1.300000e+001
      vertex  0.000000e+000  2.000000e+000  7.900000e+001
    endloop
  endfacet
  facet normal -2.588193e-001  0.000000e+000  9.659258e-001
    outer loop
      vertex -1.500000e+000  2.000000e+000  1.040192e+001
      vertex -3.000000e+000  2.300000e+001  1.000000e+001
      vertex -3.000000e+000  2.000000e+000  1.000000e+001
    endloop
  endfacet
  facet normal -2.588193e-001  0.000000e+000  9.659258e-001
    outer loop
      vertex -3.000000e+000  2.300000e+001  1.000000e+001
      vertex -1.500000e+000  2.000000e+000  1.040192e+001
      vertex -1.500000e+000  2.300000e+001  1.040192e+001
    endloop
  endfacet
  facet normal -7.071067e-001  0.000000e+000  7.071069e-001
    outer loop
      vertex -1.500000e+000  2.300000e+001  1.040192e+001
      vertex -1.500000e+000  2.000000e+000  1.040192e+001
      vertex -4.019238e-001  2.000000e+000  1.150000e+001
    endloop
  endfacet
  facet normal -7.071067e-001  0.000000e+000  7.071069e-001
    outer loop
      vertex -1.500000e+000  2.300000e+001  1.040192e+001
      vertex -4.019238e-001  2.000000e+000  1.150000e+001
      vertex -4.019238e-001  2.300000e+001  1.150000e+001
    endloop
  endfacet
  facet normal -9.659259e-001  0.000000e+000  2.588190e-001
    outer loop
      vertex -4.019238e-001  2.300000e+001  1.150000e+001
      vertex -4.019238e-001  2.000000e+000  1.150000e+001
      vertex  0.000000e+000  2.000000e+000  1.300000e+001
    endloop
  endfacet
  facet normal -9.659259e-001  0.000000e+000  2.588190e-001
    outer loop
      vertex -4.019238e-001  2.300000e+001  1.150000e+001
      vertex  0.000000e+000  2.000000e+000  1.300000e+001
      vertex  0.000000e+000  2.300000e+001  1.300000e+001
    endloop
  endfacet
  facet normal  2.588193e-001  -0.000000e+000  9.659258e-001
    outer loop
      vertex  7.750000e+001  2.300000e+001  1.040192e+001
      vertex  7.900000e+001  2.000000e+000  1.000000e+001
      vertex  7.900000e+001  2.300000e+001  1.000000e+001
    endloop
  endfacet
  facet normal  2.588193e-001  0.000000e+000  9.659258e-001
    outer loop
      vertex  7.900000e+001  2.000000e+000  1.000000e+001
      vertex  7.750000e+001  2.300000e+001  1.040192e+001
      vertex  7.750000e+001  2.000000e+000  1.040192e+001
    endloop
  endfacet
  facet normal  7.071068e-001  -0.000000e+000  7.071068e-001
    outer loop
      vertex  7.750000e+001  2.000000e+000  1.040192e+001
      vertex  7.750000e+001  2.300000e+001  1.040192e+001
      vertex  7.640192e+001  2.300000e+001  1.150000e+001
    endloop
  endfacet
  facet normal  7.071068e-001  0.000000e+000  7.071068e-001
    outer loop
      vertex  7.750000e+001  2.000000e+000  1.040192e+001
      vertex  7.640192e+001  2.300000e+001  1.150000e+001
      vertex  7.640192e+001  2.000000e+000  1.150000e+001
    endloop
  endfacet
  facet normal  9.659258e-001  -0.000000e+000  2.588193e-001
    outer loop
      vertex  7.640192e+001  2.000000e+000  1.150000e+001
      vertex  7.640192e+001  2.300000e+001  1.150000e+001
      vertex  7.600000e+001  2.300000e+001  1.300000e+001
    endloop
  endfacet
  facet normal  9.659258e-001  0.000000e+000  2.588193e-001
    outer loop
      vertex  7.640192e+001  2.000000e+000  1.150000e+001
      vertex  7.600000e+001  2.300000e+001  1.300000e+001
      vertex  7.600000e+001  2.000000e+000  1.300000e+001
    endloop
  endfacet
  facet normal  0.000000e+000  0.000000e+000 -1.000000e+000
    outer loop
      vertex  8.572480e+001  1.411641e+001  0.000000e+000
      vertex  8.434980e+001  1.511541e+001  0.000000e+000
      vertex  9.100000e+001  2.300000e+001  0.000000e+000
    endloop
  endfacet
  facet normal  -0.000000e+000  -0.000000e+000 -9.999999e-001
    outer loop
      vertex  6.600000e+001  2.500000e+001  0.000000e+000
      vertex  7.600000e+001  2.500000e+001  0.000000e+000
      vertex  8.265020e+001  1.511541e+001  0.000000e+000
    endloop
  endfacet
  facet normal  -0.000000e+000  0.000000e+000 -1.000000e+000
    outer loop
      vertex  6.600000e+001  2.500000e+001  0.000000e+000
      vertex  8.265020e+001  1.511541e+001  0.000000e+000
      vertex  8.127520e+001  1.411641e+001  0.000000e+000
    endloop
  endfacet
  facet normal  -0.000000e+000  0.000000e+000 -1.000000e+000
    outer loop
      vertex  6.600000e+001  2.500000e+001  0.000000e+000
      vertex  8.127520e+001  1.411641e+001  0.000000e+000
      vertex  6.600000e+001  0.000000e+000  0.000000e+000
    endloop
  endfacet
  facet normal  0.000000e+000  0.000000e+000 -1.000000e+000
    outer loop
      vertex  6.600000e+001  0.000000e+000  0.000000e+000
      vertex  8.127520e+001  1.411641e+001  0.000000e+000
      vertex  8.075000e+001  1.250000e+001  0.000000e+000
    endloop
  endfacet
  facet normal  0.000000e+000  -0.000000e+000 -1.000000e+000
    outer loop
      vertex  6.600000e+001  0.000000e+000  0.000000e+000
      vertex  8.075000e+001  1.250000e+001  0.000000e+000
      vertex  8.127520e+001  1.088359e+001  0.000000e+000
    endloop
  endfacet
  facet normal  0.000000e+000  -0.000000e+000 -1.000000e+000
    outer loop
      vertex  6.600000e+001  0.000000e+000  0.000000e+000
      vertex  8.127520e+001  1.088359e+001  0.000000e+000
      vertex  8.265020e+001  9.884595e+000  0.000000e+000
    endloop
  endfacet
  facet normal -1.776357e-016  2.992201e-016 -9.999999e-001
    outer loop
      vertex  6.600000e+001  0.000000e+000  0.000000e+000
      vertex  8.265020e+001  9.884595e+000  0.000000e+000
      vertex  7.600000e+001  0.000000e+000 -1.776357e-015
    endloop
  endfacet
  facet normal  0.000000e+000  0.000000e+000 -1.000000e+000
    outer loop
      vertex  9.100000e+001  2.000000e+000  0.000000e+000
      vertex  8.434980e+001  9.884595e+000  0.000000e+000
      vertex  8.572480e+001  1.088359e+001  0.000000e+000
    endloop
  endfacet
  facet normal  0.000000e+000  0.000000e+000 -1.000000e+000
    outer loop
      vertex  9.100000e+001  2.000000e+000  0.000000e+000
      vertex  8.572480e+001  1.088359e+001  0.000000e+000
      vertex  8.625000e+001  1.250000e+001  0.000000e+000
    endloop
  endfacet
  facet normal  0.000000e+000  0.000000e+000 -1.000000e+000
    outer loop
      vertex  9.100000e+001  2.000000e+000  0.000000e+000
      vertex  8.625000e+001  1.250000e+001  0.000000e+000
      vertex  8.572480e+001  1.411641e+001  0.000000e+000
    endloop
  endfacet
  facet normal  0.000000e+000  0.000000e+000 -9.999999e-001
    outer loop
      vertex  9.100000e+001  2.000000e+000  0.000000e+000
      vertex  8.572480e+001  1.411641e+001  0.000000e+000
      vertex  9.100000e+001  2.300000e+001  0.000000e+000
    endloop
  endfacet
  facet normal  0.000000e+000  0.000000e+000 -1.000000e+000
    outer loop
      vertex  9.041422e+001  5.857865e-001  0.000000e+000
      vertex  8.900000e+001  0.000000e+000  0.000000e+000
      vertex  9.100000e+001  2.000000e+000  0.000000e+000
    endloop
  endfacet
  facet normal  -0.000000e+000  0.000000e+000 -1.000000e+000
    outer loop
      vertex  9.100000e+001  2.000000e+000  0.000000e+000
      vertex  8.900000e+001  0.000000e+000  0.000000e+000
      vertex  8.434980e+001  9.884595e+000  0.000000e+000
    endloop
  endfacet
  facet normal  1.366428e-016  6.428351e-017 -1.000000e+000
    outer loop
      vertex  8.900000e+001  0.000000e+000  0.000000e+000
      vertex  7.600000e+001  0.000000e+000 -1.776357e-015
      vertex  8.434980e+001  9.884595e+000  0.000000e+000
    endloop
  endfacet
  facet normal  0.000000e+000  1.797096e-016 -1.000000e+000
    outer loop
      vertex  8.434980e+001  9.884595e+000  0.000000e+000
      vertex  7.600000e+001  0.000000e+000 -1.776357e-015
      vertex  8.265020e+001  9.884595e+000  0.000000e+000
    endloop
  endfacet
  facet normal  0.000000e+000  0.000000e+000 -9.999999e-001
    outer loop
      vertex  9.100000e+001  2.300000e+001  0.000000e+000
      vertex  8.434980e+001  1.511541e+001  0.000000e+000
      vertex  9.041422e+001  2.441421e+001  0.000000e+000
    endloop
  endfacet
  facet normal  -0.000000e+000  0.000000e+000 -1.000000e+000
    outer loop
      vertex  9.041422e+001  2.441421e+001  0.000000e+000
      vertex  8.434980e+001  1.511541e+001  0.000000e+000
      vertex  8.900000e+001  2.500000e+001  0.000000e+000
    endloop
  endfacet
  facet normal  0.000000e+000  0.000000e+000 -1.000000e+000
    outer loop
      vertex  8.434980e+001  1.511541e+001  0.000000e+000
      vertex  8.265020e+001  1.511541e+001  0.000000e+000
      vertex  8.900000e+001  2.500000e+001  0.000000e+000
    endloop
  endfacet
  facet normal  -0.000000e+000  0.000000e+000 -1.000000e+000
    outer loop
      vertex  8.900000e+001  2.500000e+001  0.000000e+000
      vertex  8.265020e+001  1.511541e+001  0.000000e+000
      vertex  7.600000e+001  2.500000e+001  0.000000e+000
    endloop
  endfacet
  facet normal -9.238794e-001  3.826837e-001  0.000000e+000
    outer loop
      vertex -1.500000e+001  2.300000e+001  0.000000e+000
      vertex -1.500000e+001  2.300000e+001  8.000000e+000
      vertex -1.441421e+001  2.441421e+001  0.000000e+000
    endloop
  endfacet
  facet normal -9.238794e-001  3.826837e-001  0.000000e+000
    outer loop
      vertex -1.441421e+001  2.441421e+001  0.000000e+000
      vertex -1.500000e+001  2.300000e+001  8.000000e+000
      vertex -1.441421e+001  2.441421e+001  8.000000e+000
    endloop
  endfacet
  facet normal -3.826837e-001  9.238794e-001  0.000000e+000
    outer loop
      vertex -1.441421e+001  2.441421e+001  0.000000e+000
      vertex -1.441421e+001  2.441421e+001  8.000000e+000
      vertex -1.300000e+001  2.500000e+001  0.000000e+000
    endloop
  endfacet
  facet normal -3.826837e-001  9.238794e-001  0.000000e+000
    outer loop
      vertex -1.300000e+001  2.500000e+001  0.000000e+000
      vertex -1.441421e+001  2.441421e+001  8.000000e+000
      vertex -1.300000e+001  2.500000e+001  8.000000e+000
    endloop
  endfacet
  facet normal  3.826831e-001 -9.238796e-001  0.000000e+000
    outer loop
      vertex  8.900000e+001  0.000000e+000  8.000000e+000
      vertex  8.900000e+001  0.000000e+000  0.000000e+000
      vertex  9.041422e+001  5.857865e-001  8.000000e+000
    endloop
  endfacet
  facet normal  3.826831e-001 -9.238796e-001  0.000000e+000
    outer loop
      vertex  9.041422e+001  5.857865e-001  8.000000e+000
      vertex  8.900000e+001  0.000000e+000  0.000000e+000
      vertex  9.041422e+001  5.857865e-001  0.000000e+000
    endloop
  endfacet
  facet normal  9.238799e-001 -3.826826e-001  0.000000e+000
    outer loop
      vertex  9.041422e+001  5.857865e-001  8.000000e+000
      vertex  9.041422e+001  5.857865e-001  0.000000e+000
      vertex  9.100000e+001  2.000000e+000  8.000000e+000
    endloop
  endfacet
  facet normal  9.238799e-001 -3.826826e-001  0.000000e+000
    outer loop
      vertex  9.100000e+001  2.000000e+000  8.000000e+000
      vertex  9.041422e+001  5.857865e-001  0.000000e+000
      vertex  9.100000e+001  2.000000e+000  0.000000e+000
    endloop
  endfacet
  facet normal  1.565579e-001 -9.124870e-001  3.779646e-001
    outer loop
      vertex  8.900000e+001  0.000000e+000  8.000000e+000
      vertex  9.000000e+001  5.857865e-001  9.000000e+000
      vertex  8.900000e+001  5.857865e-001  9.414213e+000
    endloop
  endfacet
  facet normal  3.779641e-001 -9.124870e-001  1.565584e-001
    outer loop
      vertex  8.900000e+001  0.000000e+000  8.000000e+000
      vertex  9.041422e+001  5.857865e-001  8.000000e+000
      vertex  9.000000e+001  5.857865e-001  9.000000e+000
    endloop
  endfacet
  facet normal  8.628561e-001 -3.574058e-001  3.574080e-001
    outer loop
      vertex  9.041422e+001  5.857865e-001  8.000000e+000
      vertex  9.100000e+001  2.000000e+000  8.000000e+000
      vertex  9.000000e+001  5.857865e-001  9.000000e+000
    endloop
  endfacet
  facet normal  8.628563e-001 -3.574074e-001  3.574059e-001
    outer loop
      vertex  9.000000e+001  5.857865e-001  9.000000e+000
      vertex  9.100000e+001  2.000000e+000  8.000000e+000
      vertex  9.041422e+001  2.000000e+000  9.414213e+000
    endloop
  endfacet
  facet normal  3.574064e-001 -3.574068e-001  8.628562e-001
    outer loop
      vertex  9.000000e+001  5.857865e-001  9.000000e+000
      vertex  9.041422e+001  2.000000e+000  9.414213e+000
      vertex  8.900000e+001  5.857865e-001  9.414213e+000
    endloop
  endfacet
  facet normal  3.574066e-001 -3.574070e-001  8.628562e-001
    outer loop
      vertex  8.900000e+001  5.857865e-001  9.414213e+000
      vertex  9.041422e+001  2.000000e+000  9.414213e+000
      vertex  8.900000e+001  2.000000e+000  1.000000e+001
    endloop
  endfacet
  facet normal  0.000000e+000 -9.238795e-001  3.826835e-001
    outer loop
      vertex  7.900000e+001  0.000000e+000  8.000000e+000
      vertex  8.900000e+001  0.000000e+000  8.000000e+000
      vertex  7.900000e+001  5.857865e-001  9.414213e+000
    endloop
  endfacet
  facet normal  0.000000e+000 -9.238795e-001  3.826835e-001
    outer loop
      vertex  7.900000e+001  5.857865e-001  9.414213e+000
      vertex  8.900000e+001  0.000000e+000  8.000000e+000
      vertex  8.900000e+001  5.857865e-001  9.414213e+000
    endloop
  endfacet
  facet normal  0.000000e+000 -3.826837e-001  9.238794e-001
    outer loop
      vertex  7.900000e+001  5.857865e-001  9.414213e+000
      vertex  8.900000e+001  5.857865e-001  9.414213e+000
      vertex  7.900000e+001  2.000000e+000  1.000000e+001
    endloop
  endfacet
  facet normal  0.000000e+000 -3.826837e-001  9.238794e-001
    outer loop
      vertex  7.900000e+001  2.000000e+000  1.000000e+001
      vertex  8.900000e+001  5.857865e-001  9.414213e+000
      vertex  8.900000e+001  2.000000e+000  1.000000e+001
    endloop
  endfacet
  facet normal  3.815792e-001 -9.212146e-001  7.590012e-002
    outer loop
      vertex  7.400000e+001  0.000000e+000  1.300000e+001
      vertex  7.568716e+001  5.857865e-001  1.162778e+001
      vertex  7.541422e+001  5.857865e-001  1.300000e+001
    endloop
  endfacet
  facet normal  4.033865e-001 -9.086234e-001  1.080876e-001
    outer loop
      vertex  7.400000e+001  0.000000e+000  1.300000e+001
      vertex  7.466988e+001  0.000000e+000  1.050000e+001
      vertex  7.568716e+001  5.857865e-001  1.162778e+001
    endloop
  endfacet
  facet normal  1.080870e-001 -9.086236e-001  4.033860e-001
    outer loop
      vertex  7.900000e+001  0.000000e+000  8.000000e+000
      vertex  7.762778e+001  5.857865e-001  9.687165e+000
      vertex  7.650000e+001  0.000000e+000  8.669873e+000
    endloop
  endfacet
  facet normal  7.590090e-002 -9.212144e-001  3.815796e-001
    outer loop
      vertex  7.900000e+001  0.000000e+000  8.000000e+000
      vertex  7.900000e+001  5.857865e-001  9.414213e+000
      vertex  7.762778e+001  5.857865e-001  9.687165e+000
    endloop
  endfacet
  facet normal  1.807443e-001 -3.763809e-001  9.086633e-001
    outer loop
      vertex  7.900000e+001  2.000000e+000  1.000000e+001
      vertex  7.762778e+001  5.857865e-001  9.687165e+000
      vertex  7.900000e+001  5.857865e-001  9.414213e+000
    endloop
  endfacet
  facet normal  2.347048e-001 -4.214983e-001  8.759296e-001
    outer loop
      vertex  7.900000e+001  2.000000e+000  1.000000e+001
      vertex  7.750000e+001  2.000000e+000  1.040192e+001
      vertex  7.762778e+001  5.857865e-001  9.687165e+000
    endloop
  endfacet
  facet normal  8.759296e-001 -4.214985e-001  2.347048e-001
    outer loop
      vertex  7.600000e+001  2.000000e+000  1.300000e+001
      vertex  7.568716e+001  5.857865e-001  1.162778e+001
      vertex  7.640192e+001  2.000000e+000  1.150000e+001
    endloop
  endfacet
  facet normal  9.086640e-001 -3.763800e-001  1.807428e-001
    outer loop
      vertex  7.600000e+001  2.000000e+000  1.300000e+001
      vertex  7.541422e+001  5.857865e-001  1.300000e+001
      vertex  7.568716e+001  5.857865e-001  1.162778e+001
    endloop
  endfacet
  facet normal  3.073637e-001 -9.291660e-001  2.053731e-001
    outer loop
      vertex  7.466988e+001  0.000000e+000  1.050000e+001
      vertex  7.646446e+001  5.857865e-001  1.046447e+001
      vertex  7.568716e+001  5.857865e-001  1.162778e+001
    endloop
  endfacet
  facet normal  2.053731e-001 -9.291663e-001  3.073630e-001
    outer loop
      vertex  7.650000e+001  0.000000e+000  8.669873e+000
      vertex  7.762778e+001  5.857865e-001  9.687165e+000
      vertex  7.646446e+001  5.857865e-001  1.046447e+001
    endloop
  endfacet
  facet normal  3.012739e-001 -9.046924e-001  3.012734e-001
    outer loop
      vertex  7.650000e+001  0.000000e+000  8.669873e+000
      vertex  7.646446e+001  5.857865e-001  1.046447e+001
      vertex  7.466988e+001  0.000000e+000  1.050000e+001
    endloop
  endfacet
  facet normal  6.358524e-001 -4.374740e-001  6.358524e-001
    outer loop
      vertex  7.646446e+001  5.857865e-001  1.046447e+001
      vertex  7.750000e+001  2.000000e+000  1.040192e+001
      vertex  7.640192e+001  2.000000e+000  1.150000e+001
    endloop
  endfacet
  facet normal  7.797951e-001 -3.470396e-001  5.210405e-001
    outer loop
      vertex  7.646446e+001  5.857865e-001  1.046447e+001
      vertex  7.640192e+001  2.000000e+000  1.150000e+001
      vertex  7.568716e+001  5.857865e-001  1.162778e+001
    endloop
  endfacet
  facet normal  5.210413e-001 -3.470395e-001  7.797946e-001
    outer loop
      vertex  7.762778e+001  5.857865e-001  9.687165e+000
      vertex  7.750000e+001  2.000000e+000  1.040192e+001
      vertex  7.646446e+001  5.857865e-001  1.046447e+001
    endloop
  endfacet
  facet normal  9.238799e-001 -3.826826e-001  0.000000e+000
    outer loop
      vertex  7.600000e+001  2.000000e+000  1.300000e+001
      vertex  7.600000e+001  2.000000e+000  7.900000e+001
      vertex  7.541422e+001  5.857865e-001  1.300000e+001
    endloop
  endfacet
  facet normal  9.238799e-001 -3.826826e-001  0.000000e+000
    outer loop
      vertex  7.541422e+001  5.857865e-001  1.300000e+001
      vertex  7.600000e+001  2.000000e+000  7.900000e+001
      vertex  7.541422e+001  5.857865e-001  7.900000e+001
    endloop
  endfacet
  facet normal  3.826831e-001 -9.238797e-001  0.000000e+000
    outer loop
      vertex  7.541422e+001  5.857865e-001  1.300000e+001
      vertex  7.541422e+001  5.857865e-001  7.900000e+001
      vertex  7.400000e+001  0.000000e+000  1.300000e+001
    endloop
  endfacet
  facet normal  3.826831e-001 -9.238797e-001  0.000000e+000
    outer loop
      vertex  7.400000e+001  0.000000e+000  1.300000e+001
      vertex  7.541422e+001  5.857865e-001  7.900000e+001
      vertex  7.400000e+001  0.000000e+000  7.900000e+001
    endloop
  endfacet
  facet normal  1.565584e-001 -9.124870e-001  3.779641e-001
    outer loop
      vertex  7.400000e+001  0.000000e+000  7.900000e+001
      vertex  7.500000e+001  5.857865e-001  8.000000e+001
      vertex  7.400000e+001  5.857865e-001  8.041422e+001
    endloop
  endfacet
  facet normal  3.779641e-001 -9.124870e-001  1.565584e-001
    outer loop
      vertex  7.400000e+001  0.000000e+000  7.900000e+001
      vertex  7.541422e+001  5.857865e-001  7.900000e+001
      vertex  7.500000e+001  5.857865e-001  8.000000e+001
    endloop
  endfacet
  facet normal  8.628561e-001 -3.574058e-001  3.574080e-001
    outer loop
      vertex  7.541422e+001  5.857865e-001  7.900000e+001
      vertex  7.600000e+001  2.000000e+000  7.900000e+001
      vertex  7.500000e+001  5.857865e-001  8.000000e+001
    endloop
  endfacet
  facet normal  8.628564e-001 -3.574077e-001  3.574055e-001
    outer loop
      vertex  7.500000e+001  5.857865e-001  8.000000e+001
      vertex  7.600000e+001  2.000000e+000  7.900000e+001
      vertex  7.541422e+001  2.000000e+000  8.041422e+001
    endloop
  endfacet
  facet normal  3.574077e-001 -3.574080e-001  8.628552e-001
    outer loop
      vertex  7.500000e+001  5.857865e-001  8.000000e+001
      vertex  7.541422e+001  2.000000e+000  8.041422e+001
      vertex  7.400000e+001  5.857865e-001  8.041422e+001
    endloop
  endfacet
  facet normal  3.574057e-001 -3.574061e-001  8.628569e-001
    outer loop
      vertex  7.400000e+001  5.857865e-001  8.041422e+001
      vertex  7.541422e+001  2.000000e+000  8.041422e+001
      vertex  7.400000e+001  2.000000e+000  8.100000e+001
    endloop
  endfacet
  facet normal  0.000000e+000 -9.238797e-001  3.826831e-001
    outer loop
      vertex  2.000000e+000  0.000000e+000  7.900000e+001
      vertex  7.400000e+001  0.000000e+000  7.900000e+001
      vertex  2.000000e+000  5.857865e-001  8.041422e+001
    endloop
  endfacet
  facet normal  0.000000e+000 -9.238797e-001  3.826831e-001
    outer loop
      vertex  2.000000e+000  5.857865e-001  8.041422e+001
      vertex  7.400000e+001  0.000000e+000  7.900000e+001
      vertex  7.400000e+001  5.857865e-001  8.041422e+001
    endloop
  endfacet
  facet normal  0.000000e+000 -3.826826e-001  9.238799e-001
    outer loop
      vertex  2.000000e+000  5.857865e-001  8.041422e+001
      vertex  7.400000e+001  5.857865e-001  8.041422e+001
      vertex  2.000000e+000  2.000000e+000  8.100000e+001
    endloop
  endfacet
  facet normal  0.000000e+000 -3.826826e-001  9.238799e-001
    outer loop
      vertex  2.000000e+000  2.000000e+000  8.100000e+001
      vertex  7.400000e+001  5.857865e-001  8.041422e+001
      vertex  7.400000e+001  2.000000e+000  8.100000e+001
    endloop
  endfacet
  facet normal -3.779645e-001 -9.124869e-001  1.565580e-001
    outer loop
      vertex  2.000000e+000  0.000000e+000  7.900000e+001
      vertex  1.000000e+000  5.857865e-001  8.000000e+001
      vertex  5.857865e-001  5.857865e-001  7.900000e+001
    endloop
  endfacet
  facet normal -1.565584e-001 -9.124870e-001  3.779641e-001
    outer loop
      vertex  2.000000e+000  0.000000e+000  7.900000e+001
      vertex  2.000000e+000  5.857865e-001  8.041422e+001
      vertex  1.000000e+000  5.857865e-001  8.000000e+001
    endloop
  endfacet
  facet normal -3.574080e-001 -3.574058e-001  8.628561e-001
    outer loop
      vertex  2.000000e+000  5.857865e-001  8.041422e+001
      vertex  2.000000e+000  2.000000e+000  8.100000e+001
      vertex  1.000000e+000  5.857865e-001  8.000000e+001
    endloop
  endfacet
  facet normal -3.574058e-001 -3.574075e-001  8.628563e-001
    outer loop
      vertex  1.000000e+000  5.857865e-001  8.000000e+001
      vertex  2.000000e+000  2.000000e+000  8.100000e+001
      vertex  5.857865e-001  2.000000e+000  8.041422e+001
    endloop
  endfacet
  facet normal -8.628561e-001 -3.574071e-001  3.574067e-001
    outer loop
      vertex  1.000000e+000  5.857865e-001  8.000000e+001
      vertex  5.857865e-001  2.000000e+000  8.041422e+001
      vertex  5.857865e-001  5.857865e-001  7.900000e+001
    endloop
  endfacet
  facet normal -8.628564e-001 -3.574068e-001  3.574064e-001
    outer loop
      vertex  5.857865e-001  5.857865e-001  7.900000e+001
      vertex  5.857865e-001  2.000000e+000  8.041422e+001
      vertex  0.000000e+000  2.000000e+000  7.900000e+001
    endloop
  endfacet
  facet normal -3.826835e-001 -9.238796e-001  -0.000000e+000
    outer loop
      vertex  2.000000e+000  0.000000e+000  1.300000e+001
      vertex  2.000000e+000  0.000000e+000  7.900000e+001
      vertex  5.857865e-001  5.857865e-001  1.300000e+001
    endloop
  endfacet
  facet normal -3.826835e-001 -9.238796e-001  0.000000e+000
    outer loop
      vertex  5.857865e-001  5.857865e-001  1.300000e+001
      vertex  2.000000e+000  0.000000e+000  7.900000e+001
      vertex  5.857865e-001  5.857865e-001  7.900000e+001
    endloop
  endfacet
  facet normal -9.238796e-001 -3.826835e-001  -0.000000e+000
    outer loop
      vertex  5.857865e-001  5.857865e-001  1.300000e+001
      vertex  5.857865e-001  5.857865e-001  7.900000e+001
      vertex  0.000000e+000  2.000000e+000  1.300000e+001
    endloop
  endfacet
  facet normal -9.238796e-001 -3.826835e-001  0.000000e+000
    outer loop
      vertex  0.000000e+000  2.000000e+000  1.300000e+001
      vertex  5.857865e-001  5.857865e-001  7.900000e+001
      vertex  0.000000e+000  2.000000e+000  7.900000e+001
    endloop
  endfacet
  facet normal -7.590100e-002 -9.212144e-001  3.815796e-001
    outer loop
      vertex -3.000000e+000  0.000000e+000  8.000000e+000
      vertex -1.627779e+000  5.857865e-001  9.687165e+000
      vertex -3.000000e+000  5.857865e-001  9.414213e+000
    endloop
  endfacet
  facet normal -1.080870e-001 -9.086238e-001  4.033859e-001
    outer loop
      vertex -3.000000e+000  0.000000e+000  8.000000e+000
      vertex -5.000000e-001  0.000000e+000  8.669873e+000
      vertex -1.627779e+000  5.857865e-001  9.687165e+000
    endloop
  endfacet
  facet normal -4.033859e-001 -9.086238e-001  1.080869e-001
    outer loop
      vertex  2.000000e+000  0.000000e+000  1.300000e+001
      vertex  3.128347e-001  5.857865e-001  1.162778e+001
      vertex  1.330127e+000  0.000000e+000  1.050000e+001
    endloop
  endfacet
  facet normal -3.815795e-001 -9.212145e-001  7.590090e-002
    outer loop
      vertex  2.000000e+000  0.000000e+000  1.300000e+001
      vertex  5.857865e-001  5.857865e-001  1.300000e+001
      vertex  3.128347e-001  5.857865e-001  1.162778e+001
    endloop
  endfacet
  facet normal -9.086634e-001 -3.763807e-001  1.807444e-001
    outer loop
      vertex  0.000000e+000  2.000000e+000  1.300000e+001
      vertex  3.128347e-001  5.857865e-001  1.162778e+001
      vertex  5.857865e-001  5.857865e-001  1.300000e+001
    endloop
  endfacet
  facet normal -8.759300e-001 -4.214979e-001  2.347047e-001
    outer loop
      vertex  0.000000e+000  2.000000e+000  1.300000e+001
      vertex -4.019238e-001  2.000000e+000  1.150000e+001
      vertex  3.128347e-001  5.857865e-001  1.162778e+001
    endloop
  endfacet
  facet normal -2.347049e-001 -4.214981e-001  8.759298e-001
    outer loop
      vertex -3.000000e+000  2.000000e+000  1.000000e+001
      vertex -1.627779e+000  5.857865e-001  9.687165e+000
      vertex -1.500000e+000  2.000000e+000  1.040192e+001
    endloop
  endfacet
  facet normal -1.807446e-001 -3.763809e-001  9.086633e-001
    outer loop
      vertex -3.000000e+000  2.000000e+000  1.000000e+001
      vertex -3.000000e+000  5.857865e-001  9.414213e+000
      vertex -1.627779e+000  5.857865e-001  9.687165e+000
    endloop
  endfacet
  facet normal -2.053732e-001 -9.291663e-001  3.073626e-001
    outer loop
      vertex -5.000000e-001  0.000000e+000  8.669873e+000
      vertex -4.644661e-001  5.857865e-001  1.046447e+001
      vertex -1.627779e+000  5.857865e-001  9.687165e+000
    endloop
  endfacet
  facet normal -3.073626e-001 -9.291664e-001  2.053731e-001
    outer loop
      vertex  1.330127e+000  0.000000e+000  1.050000e+001
      vertex  3.128347e-001  5.857865e-001  1.162778e+001
      vertex -4.644661e-001  5.857865e-001  1.046447e+001
    endloop
  endfacet
  facet normal -3.012729e-001 -9.046929e-001  3.012729e-001
    outer loop
      vertex  1.330127e+000  0.000000e+000  1.050000e+001
      vertex -4.644661e-001  5.857865e-001  1.046447e+001
      vertex -5.000000e-001  0.000000e+000  8.669873e+000
    endloop
  endfacet
  facet normal -6.358528e-001 -4.374726e-001  6.358530e-001
    outer loop
      vertex -4.644661e-001  5.857865e-001  1.046447e+001
      vertex -4.019238e-001  2.000000e+000  1.150000e+001
      vertex -1.500000e+000  2.000000e+000  1.040192e+001
    endloop
  endfacet
  facet normal -5.210420e-001 -3.470387e-001  7.797945e-001
    outer loop
      vertex -4.644661e-001  5.857865e-001  1.046447e+001
      vertex -1.500000e+000  2.000000e+000  1.040192e+001
      vertex -1.627779e+000  5.857865e-001  9.687165e+000
    endloop
  endfacet
  facet normal -7.797945e-001 -3.470385e-001  5.210420e-001
    outer loop
      vertex  3.128347e-001  5.857865e-001  1.162778e+001
      vertex -4.019238e-001  2.000000e+000  1.150000e+001
      vertex -4.644661e-001  5.857865e-001  1.046447e+001
    endloop
  endfacet
  facet normal  0.000000e+000 -3.826837e-001  9.238794e-001
    outer loop
      vertex -3.000000e+000  2.000000e+000  1.000000e+001
      vertex -1.300000e+001  2.000000e+000  1.000000e+001
      vertex -3.000000e+000  5.857865e-001  9.414213e+000
    endloop
  endfacet
  facet normal  0.000000e+000 -3.826837e-001  9.238794e-001
    outer loop
      vertex -3.000000e+000  5.857865e-001  9.414213e+000
      vertex -1.300000e+001  2.000000e+000  1.000000e+001
      vertex -1.300000e+001  5.857865e-001  9.414213e+000
    endloop
  endfacet
  facet normal  0.000000e+000 -9.238795e-001  3.826835e-001
    outer loop
      vertex -3.000000e+000  5.857865e-001  9.414213e+000
      vertex -1.300000e+001  5.857865e-001  9.414213e+000
      vertex -3.000000e+000  0.000000e+000  8.000000e+000
    endloop
  endfacet
  facet normal  0.000000e+000 -9.238795e-001  3.826835e-001
    outer loop
      vertex -3.000000e+000  0.000000e+000  8.000000e+000
      vertex -1.300000e+001  5.857865e-001  9.414213e+000
      vertex -1.300000e+001  0.000000e+000  8.000000e+000
    endloop
  endfacet
  facet normal -1.565581e-001 -3.779647e-001  9.124869e-001
    outer loop
      vertex -1.300000e+001  2.000000e+000  1.000000e+001
      vertex -1.400000e+001  1.000000e+000  9.414213e+000
      vertex -1.300000e+001  5.857865e-001  9.414213e+000
    endloop
  endfacet
  facet normal -3.779648e-001 -1.565580e-001  9.124869e-001
    outer loop
      vertex -1.300000e+001  2.000000e+000  1.000000e+001
      vertex -1.441421e+001  2.000000e+000  9.414213e+000
      vertex -1.400000e+001  1.000000e+000  9.414213e+000
    endloop
  endfacet
  facet normal -8.628563e-001 -3.574064e-001  3.574071e-001
    outer loop
      vertex -1.441421e+001  2.000000e+000  9.414213e+000
      vertex -1.500000e+001  2.000000e+000  8.000000e+000
      vertex -1.400000e+001  1.000000e+000  9.414213e+000
    endloop
  endfacet
  facet normal -8.628561e-001 -3.574069e-001  3.574066e-001
    outer loop
      vertex -1.400000e+001  1.000000e+000  9.414213e+000
      vertex -1.500000e+001  2.000000e+000  8.000000e+000
      vertex -1.441421e+001  5.857865e-001  8.000000e+000
    endloop
  endfacet
  facet normal -3.574067e-001 -8.628563e-001  3.574067e-001
    outer loop
      vertex -1.400000e+001  1.000000e+000  9.414213e+000
      vertex -1.441421e+001  5.857865e-001  8.000000e+000
      vertex -1.300000e+001  5.857865e-001  9.414213e+000
    endloop
  endfacet
  facet normal -3.574068e-001 -8.628561e-001  3.574068e-001
    outer loop
      vertex -1.300000e+001  5.857865e-001  9.414213e+000
      vertex -1.441421e+001  5.857865e-001  8.000000e+000
      vertex -1.300000e+001  0.000000e+000  8.000000e+000
    endloop
  endfacet
  facet normal -3.826837e-001  0.000000e+000  9.238794e-001
    outer loop
      vertex -1.300000e+001  2.000000e+000  1.000000e+001
      vertex -1.300000e+001  2.300000e+001  1.000000e+001
      vertex -1.441421e+001  2.000000e+000  9.414213e+000
    endloop
  endfacet
  facet normal -3.826837e-001  0.000000e+000  9.238794e-001
    outer loop
      vertex -1.441421e+001  2.000000e+000  9.414213e+000
      vertex -1.300000e+001  2.300000e+001  1.000000e+001
      vertex -1.441421e+001  2.300000e+001  9.414213e+000
    endloop
  endfacet
  facet normal -9.238794e-001  0.000000e+000  3.826837e-001
    outer loop
      vertex -1.441421e+001  2.000000e+000  9.414213e+000
      vertex -1.441421e+001  2.300000e+001  9.414213e+000
      vertex -1.500000e+001  2.000000e+000  8.000000e+000
    endloop
  endfacet
  facet normal -9.238794e-001  0.000000e+000  3.826837e-001
    outer loop
      vertex -1.500000e+001  2.000000e+000  8.000000e+000
      vertex -1.441421e+001  2.300000e+001  9.414213e+000
      vertex -1.500000e+001  2.300000e+001  8.000000e+000
    endloop
  endfacet
  facet normal -9.124869e-001  3.779648e-001  1.565580e-001
    outer loop
      vertex -1.500000e+001  2.300000e+001  8.000000e+000
      vertex -1.441421e+001  2.400000e+001  9.000000e+000
      vertex -1.441421e+001  2.441421e+001  8.000000e+000
    endloop
  endfacet
  facet normal -9.124869e-001  1.565580e-001  3.779648e-001
    outer loop
      vertex -1.500000e+001  2.300000e+001  8.000000e+000
      vertex -1.441421e+001  2.300000e+001  9.414213e+000
      vertex -1.441421e+001  2.400000e+001  9.000000e+000
    endloop
  endfacet
  facet normal -3.574071e-001  3.574064e-001  8.628563e-001
    outer loop
      vertex -1.441421e+001  2.300000e+001  9.414213e+000
      vertex -1.300000e+001  2.300000e+001  1.000000e+001
      vertex -1.441421e+001  2.400000e+001  9.000000e+000
    endloop
  endfacet
  facet normal -3.574066e-001  3.574070e-001  8.628561e-001
    outer loop
      vertex -1.441421e+001  2.400000e+001  9.000000e+000
      vertex -1.300000e+001  2.300000e+001  1.000000e+001
      vertex -1.300000e+001  2.441421e+001  9.414213e+000
    endloop
  endfacet
  facet normal -3.574065e-001  8.628564e-001  3.574065e-001
    outer loop
      vertex -1.441421e+001  2.400000e+001  9.000000e+000
      vertex -1.300000e+001  2.441421e+001  9.414213e+000
      vertex -1.441421e+001  2.441421e+001  8.000000e+000
    endloop
  endfacet
  facet normal -3.574070e-001  8.628560e-001  3.574070e-001
    outer loop
      vertex -1.441421e+001  2.441421e+001  8.000000e+000
      vertex -1.300000e+001  2.441421e+001  9.414213e+000
      vertex -1.300000e+001  2.500000e+001  8.000000e+000
    endloop
  endfacet
  facet normal  3.826833e-001  9.238796e-001  0.000000e+000
    outer loop
      vertex  8.900000e+001  2.500000e+001  0.000000e+000
      vertex  8.900000e+001  2.500000e+001  8.000000e+000
      vertex  9.041422e+001  2.441421e+001  0.000000e+000
    endloop
  endfacet
  facet normal  3.826833e-001  9.238796e-001  -0.000000e+000
    outer loop
      vertex  9.041422e+001  2.441421e+001  0.000000e+000
      vertex  8.900000e+001  2.500000e+001  8.000000e+000
      vertex  9.041422e+001  2.441421e+001  8.000000e+000
    endloop
  endfacet
  facet normal  9.238798e-001  3.826827e-001  0.000000e+000
    outer loop
      vertex  9.041422e+001  2.441421e+001  0.000000e+000
      vertex  9.041422e+001  2.441421e+001  8.000000e+000
      vertex  9.100000e+001  2.300000e+001  0.000000e+000
    endloop
  endfacet
  facet normal  9.238798e-001  3.826827e-001  -0.000000e+000
    outer loop
      vertex  9.100000e+001  2.300000e+001  0.000000e+000
      vertex  9.041422e+001  2.441421e+001  8.000000e+000
      vertex  9.100000e+001  2.300000e+001  8.000000e+000
    endloop
  endfacet
  facet normal -3.815797e-001  9.212143e-001  7.590093e-002
    outer loop
      vertex  2.000000e+000  2.500000e+001  1.300000e+001
      vertex  3.128347e-001  2.441421e+001  1.162778e+001
      vertex  5.857865e-001  2.441421e+001  1.300000e+001
    endloop
  endfacet
  facet normal -4.033860e-001  9.086236e-001  1.080870e-001
    outer loop
      vertex  2.000000e+000  2.500000e+001  1.300000e+001
      vertex  1.330127e+000  2.500000e+001  1.050000e+001
      vertex  3.128347e-001  2.441421e+001  1.162778e+001
    endloop
  endfacet
  facet normal -1.080870e-001  9.086236e-001  4.033861e-001
    outer loop
      vertex -3.000000e+000  2.500000e+001  8.000000e+000
      vertex -1.627779e+000  2.441421e+001  9.687165e+000
      vertex -5.000000e-001  2.500000e+001  8.669873e+000
    endloop
  endfacet
  facet normal -7.590103e-002  9.212143e-001  3.815798e-001
    outer loop
      vertex -3.000000e+000  2.500000e+001  8.000000e+000
      vertex -3.000000e+000  2.441421e+001  9.414213e+000
      vertex -1.627779e+000  2.441421e+001  9.687165e+000
    endloop
  endfacet
  facet normal -1.807446e-001  3.763810e-001  9.086632e-001
    outer loop
      vertex -3.000000e+000  2.300000e+001  1.000000e+001
      vertex -1.627779e+000  2.441421e+001  9.687165e+000
      vertex -3.000000e+000  2.441421e+001  9.414213e+000
    endloop
  endfacet
  facet normal -2.347049e-001  4.214982e-001  8.759298e-001
    outer loop
      vertex -3.000000e+000  2.300000e+001  1.000000e+001
      vertex -1.500000e+000  2.300000e+001  1.040192e+001
      vertex -1.627779e+000  2.441421e+001  9.687165e+000
    endloop
  endfacet
  facet normal -8.759298e-001  4.214980e-001  2.347047e-001
    outer loop
      vertex  0.000000e+000  2.300000e+001  1.300000e+001
      vertex  3.128347e-001  2.441421e+001  1.162778e+001
      vertex -4.019238e-001  2.300000e+001  1.150000e+001
    endloop
  endfacet
  facet normal -9.086633e-001  3.763808e-001  1.807444e-001
    outer loop
      vertex  0.000000e+000  2.300000e+001  1.300000e+001
      vertex  5.857865e-001  2.441421e+001  1.300000e+001
      vertex  3.128347e-001  2.441421e+001  1.162778e+001
    endloop
  endfacet
  facet normal -3.073627e-001  9.291663e-001  2.053732e-001
    outer loop
      vertex  1.330127e+000  2.500000e+001  1.050000e+001
      vertex -4.644661e-001  2.441421e+001  1.046447e+001
      vertex  3.128347e-001  2.441421e+001  1.162778e+001
    endloop
  endfacet
  facet normal -2.053732e-001  9.291662e-001  3.073628e-001
    outer loop
      vertex -5.000000e-001  2.500000e+001  8.669873e+000
      vertex -1.627779e+000  2.441421e+001  9.687165e+000
      vertex -4.644661e-001  2.441421e+001  1.046447e+001
    endloop
  endfacet
  facet normal -3.012731e-001  9.046929e-001  3.012731e-001
    outer loop
      vertex -5.000000e-001  2.500000e+001  8.669873e+000
      vertex -4.644661e-001  2.441421e+001  1.046447e+001
      vertex  1.330127e+000  2.500000e+001  1.050000e+001
    endloop
  endfacet
  facet normal -6.358528e-001  4.374727e-001  6.358530e-001
    outer loop
      vertex -4.644661e-001  2.441421e+001  1.046447e+001
      vertex -1.500000e+000  2.300000e+001  1.040192e+001
      vertex -4.019238e-001  2.300000e+001  1.150000e+001
    endloop
  endfacet
  facet normal -7.797945e-001  3.470386e-001  5.210420e-001
    outer loop
      vertex -4.644661e-001  2.441421e+001  1.046447e+001
      vertex -4.019238e-001  2.300000e+001  1.150000e+001
      vertex  3.128347e-001  2.441421e+001  1.162778e+001
    endloop
  endfacet
  facet normal -5.210420e-001  3.470388e-001  7.797945e-001
    outer loop
      vertex -1.627779e+000  2.441421e+001  9.687165e+000
      vertex -1.500000e+000  2.300000e+001  1.040192e+001
      vertex -4.644661e-001  2.441421e+001  1.046447e+001
    endloop
  endfacet
  facet normal -9.238794e-001  3.826835e-001  0.000000e+000
    outer loop
      vertex  0.000000e+000  2.300000e+001  1.300000e+001
      vertex  0.000000e+000  2.300000e+001  7.900000e+001
      vertex  5.857865e-001  2.441421e+001  1.300000e+001
    endloop
  endfacet
  facet normal -9.238794e-001  3.826835e-001  0.000000e+000
    outer loop
      vertex  5.857865e-001  2.441421e+001  1.300000e+001
      vertex  0.000000e+000  2.300000e+001  7.900000e+001
      vertex  5.857865e-001  2.441421e+001  7.900000e+001
    endloop
  endfacet
  facet normal -3.826836e-001  9.238794e-001  0.000000e+000
    outer loop
      vertex  5.857865e-001  2.441421e+001  1.300000e+001
      vertex  5.857865e-001  2.441421e+001  7.900000e+001
      vertex  2.000000e+000  2.500000e+001  1.300000e+001
    endloop
  endfacet
  facet normal -3.826836e-001  9.238794e-001  0.000000e+000
    outer loop
      vertex  2.000000e+000  2.500000e+001  1.300000e+001
      vertex  5.857865e-001  2.441421e+001  7.900000e+001
      vertex  2.000000e+000  2.500000e+001  7.900000e+001
    endloop
  endfacet
  facet normal -1.565585e-001  9.124870e-001  3.779643e-001
    outer loop
      vertex  2.000000e+000  2.500000e+001  7.900000e+001
      vertex  1.000000e+000  2.441421e+001  8.000000e+001
      vertex  2.000000e+000  2.441421e+001  8.041422e+001
    endloop
  endfacet
  facet normal -3.779647e-001  9.124869e-001  1.565581e-001
    outer loop
      vertex  2.000000e+000  2.500000e+001  7.900000e+001
      vertex  5.857865e-001  2.441421e+001  7.900000e+001
      vertex  1.000000e+000  2.441421e+001  8.000000e+001
    endloop
  endfacet
  facet normal -8.628562e-001  3.574069e-001  3.574067e-001
    outer loop
      vertex  5.857865e-001  2.441421e+001  7.900000e+001
      vertex  0.000000e+000  2.300000e+001  7.900000e+001
      vertex  1.000000e+000  2.441421e+001  8.000000e+001
    endloop
  endfacet
  facet normal -8.628562e-001  3.574071e-001  3.574064e-001
    outer loop
      vertex  1.000000e+000  2.441421e+001  8.000000e+001
      vertex  0.000000e+000  2.300000e+001  7.900000e+001
      vertex  5.857865e-001  2.300000e+001  8.041422e+001
    endloop
  endfacet
  facet normal -3.574077e-001  3.574078e-001  8.628553e-001
    outer loop
      vertex  1.000000e+000  2.441421e+001  8.000000e+001
      vertex  5.857865e-001  2.300000e+001  8.041422e+001
      vertex  2.000000e+000  2.441421e+001  8.041422e+001
    endloop
  endfacet
  facet normal -3.574061e-001  3.574061e-001  8.628568e-001
    outer loop
      vertex  2.000000e+000  2.441421e+001  8.041422e+001
      vertex  5.857865e-001  2.300000e+001  8.041422e+001
      vertex  2.000000e+000  2.300000e+001  8.100000e+001
    endloop
  endfacet
  facet normal  -0.000000e+000  9.238795e-001  3.826833e-001
    outer loop
      vertex  7.400000e+001  2.500000e+001  7.900000e+001
      vertex  2.000000e+000  2.500000e+001  7.900000e+001
      vertex  7.400000e+001  2.441421e+001  8.041422e+001
    endloop
  endfacet
  facet normal  0.000000e+000  9.238795e-001  3.826833e-001
    outer loop
      vertex  7.400000e+001  2.441421e+001  8.041422e+001
      vertex  2.000000e+000  2.500000e+001  7.900000e+001
      vertex  2.000000e+000  2.441421e+001  8.041422e+001
    endloop
  endfacet
  facet normal  -0.000000e+000  3.826827e-001  9.238799e-001
    outer loop
      vertex  7.400000e+001  2.441421e+001  8.041422e+001
      vertex  2.000000e+000  2.441421e+001  8.041422e+001
      vertex  7.400000e+001  2.300000e+001  8.100000e+001
    endloop
  endfacet
  facet normal  0.000000e+000  3.826827e-001  9.238799e-001
    outer loop
      vertex  7.400000e+001  2.300000e+001  8.100000e+001
      vertex  2.000000e+000  2.441421e+001  8.041422e+001
      vertex  2.000000e+000  2.300000e+001  8.100000e+001
    endloop
  endfacet
  facet normal  3.779643e-001  9.124870e-001  1.565585e-001
    outer loop
      vertex  7.400000e+001  2.500000e+001  7.900000e+001
      vertex  7.500000e+001  2.441421e+001  8.000000e+001
      vertex  7.541422e+001  2.441421e+001  7.900000e+001
    endloop
  endfacet
  facet normal  1.565585e-001  9.124870e-001  3.779643e-001
    outer loop
      vertex  7.400000e+001  2.500000e+001  7.900000e+001
      vertex  7.400000e+001  2.441421e+001  8.041422e+001
      vertex  7.500000e+001  2.441421e+001  8.000000e+001
    endloop
  endfacet
  facet normal  3.574080e-001  3.574058e-001  8.628560e-001
    outer loop
      vertex  7.400000e+001  2.441421e+001  8.041422e+001
      vertex  7.400000e+001  2.300000e+001  8.100000e+001
      vertex  7.500000e+001  2.441421e+001  8.000000e+001
    endloop
  endfacet
  facet normal  3.574055e-001  3.574078e-001  8.628563e-001
    outer loop
      vertex  7.500000e+001  2.441421e+001  8.000000e+001
      vertex  7.400000e+001  2.300000e+001  8.100000e+001
      vertex  7.541422e+001  2.300000e+001  8.041422e+001
    endloop
  endfacet
  facet normal  8.628553e-001  3.574081e-001  3.574077e-001
    outer loop
      vertex  7.500000e+001  2.441421e+001  8.000000e+001
      vertex  7.541422e+001  2.300000e+001  8.041422e+001
      vertex  7.541422e+001  2.441421e+001  7.900000e+001
    endloop
  endfacet
  facet normal  8.628569e-001  3.574062e-001  3.574057e-001
    outer loop
      vertex  7.541422e+001  2.441421e+001  7.900000e+001
      vertex  7.541422e+001  2.300000e+001  8.041422e+001
      vertex  7.600000e+001  2.300000e+001  7.900000e+001
    endloop
  endfacet
  facet normal  3.826833e-001  9.238796e-001  0.000000e+000
    outer loop
      vertex  7.400000e+001  2.500000e+001  1.300000e+001
      vertex  7.400000e+001  2.500000e+001  7.900000e+001
      vertex  7.541422e+001  2.441421e+001  1.300000e+001
    endloop
  endfacet
  facet normal  3.826833e-001  9.238796e-001  -0.000000e+000
    outer loop
      vertex  7.541422e+001  2.441421e+001  1.300000e+001
      vertex  7.400000e+001  2.500000e+001  7.900000e+001
      vertex  7.541422e+001  2.441421e+001  7.900000e+001
    endloop
  endfacet
  facet normal  9.238799e-001  3.826827e-001  0.000000e+000
    outer loop
      vertex  7.541422e+001  2.441421e+001  1.300000e+001
      vertex  7.541422e+001  2.441421e+001  7.900000e+001
      vertex  7.600000e+001  2.300000e+001  1.300000e+001
    endloop
  endfacet
  facet normal  9.238799e-001  3.826827e-001  -0.000000e+000
    outer loop
      vertex  7.600000e+001  2.300000e+001  1.300000e+001
      vertex  7.541422e+001  2.441421e+001  7.900000e+001
      vertex  7.600000e+001  2.300000e+001  7.900000e+001
    endloop
  endfacet
  facet normal  7.590093e-002  9.212143e-001  3.815798e-001
    outer loop
      vertex  7.900000e+001  2.500000e+001  8.000000e+000
      vertex  7.762778e+001  2.441421e+001  9.687165e+000
      vertex  7.900000e+001  2.441421e+001  9.414213e+000
    endloop
  endfacet
  facet normal  1.080871e-001  9.086236e-001  4.033863e-001
    outer loop
      vertex  7.900000e+001  2.500000e+001  8.000000e+000
      vertex  7.650000e+001  2.500000e+001  8.669873e+000
      vertex  7.762778e+001  2.441421e+001  9.687165e+000
    endloop
  endfacet
  facet normal  4.033867e-001  9.086233e-001  1.080877e-001
    outer loop
      vertex  7.400000e+001  2.500000e+001  1.300000e+001
      vertex  7.568716e+001  2.441421e+001  1.162778e+001
      vertex  7.466988e+001  2.500000e+001  1.050000e+001
    endloop
  endfacet
  facet normal  3.815794e-001  9.212145e-001  7.590016e-002
    outer loop
      vertex  7.400000e+001  2.500000e+001  1.300000e+001
      vertex  7.541422e+001  2.441421e+001  1.300000e+001
      vertex  7.568716e+001  2.441421e+001  1.162778e+001
    endloop
  endfacet
  facet normal  9.086639e-001  3.763801e-001  1.807428e-001
    outer loop
      vertex  7.600000e+001  2.300000e+001  1.300000e+001
      vertex  7.568716e+001  2.441421e+001  1.162778e+001
      vertex  7.541422e+001  2.441421e+001  1.300000e+001
    endloop
  endfacet
  facet normal  8.759295e-001  4.214986e-001  2.347048e-001
    outer loop
      vertex  7.600000e+001  2.300000e+001  1.300000e+001
      vertex  7.640192e+001  2.300000e+001  1.150000e+001
      vertex  7.568716e+001  2.441421e+001  1.162778e+001
    endloop
  endfacet
  facet normal  2.347048e-001  4.214984e-001  8.759296e-001
    outer loop
      vertex  7.900000e+001  2.300000e+001  1.000000e+001
      vertex  7.762778e+001  2.441421e+001  9.687165e+000
      vertex  7.750000e+001  2.300000e+001  1.040192e+001
    endloop
  endfacet
  facet normal  1.807443e-001  3.763810e-001  9.086632e-001
    outer loop
      vertex  7.900000e+001  2.300000e+001  1.000000e+001
      vertex  7.900000e+001  2.441421e+001  9.414213e+000
      vertex  7.762778e+001  2.441421e+001  9.687165e+000
    endloop
  endfacet
  facet normal  2.053732e-001  9.291662e-001  3.073632e-001
    outer loop
      vertex  7.650000e+001  2.500000e+001  8.669873e+000
      vertex  7.646446e+001  2.441421e+001  1.046447e+001
      vertex  7.762778e+001  2.441421e+001  9.687165e+000
    endloop
  endfacet
  facet normal  3.073638e-001  9.291659e-001  2.053732e-001
    outer loop
      vertex  7.466988e+001  2.500000e+001  1.050000e+001
      vertex  7.568716e+001  2.441421e+001  1.162778e+001
      vertex  7.646446e+001  2.441421e+001  1.046447e+001
    endloop
  endfacet
  facet normal  3.012740e-001  9.046923e-001  3.012736e-001
    outer loop
      vertex  7.466988e+001  2.500000e+001  1.050000e+001
      vertex  7.646446e+001  2.441421e+001  1.046447e+001
      vertex  7.650000e+001  2.500000e+001  8.669873e+000
    endloop
  endfacet
  facet normal  6.358524e-001  4.374741e-001  6.358524e-001
    outer loop
      vertex  7.646446e+001  2.441421e+001  1.046447e+001
      vertex  7.640192e+001  2.300000e+001  1.150000e+001
      vertex  7.750000e+001  2.300000e+001  1.040192e+001
    endloop
  endfacet
  facet normal  5.210412e-001  3.470396e-001  7.797945e-001
    outer loop
      vertex  7.646446e+001  2.441421e+001  1.046447e+001
      vertex  7.750000e+001  2.300000e+001  1.040192e+001
      vertex  7.762778e+001  2.441421e+001  9.687165e+000
    endloop
  endfacet
  facet normal  7.797951e-001  3.470397e-001  5.210405e-001
    outer loop
      vertex  7.568716e+001  2.441421e+001  1.162778e+001
      vertex  7.640192e+001  2.300000e+001  1.150000e+001
      vertex  7.646446e+001  2.441421e+001  1.046447e+001
    endloop
  endfacet
  facet normal  0.000000e+000  3.826838e-001  9.238794e-001
    outer loop
      vertex  7.900000e+001  2.300000e+001  1.000000e+001
      vertex  8.900000e+001  2.300000e+001  1.000000e+001
      vertex  7.900000e+001  2.441421e+001  9.414213e+000
    endloop
  endfacet
  facet normal  -0.000000e+000  3.826838e-001  9.238794e-001
    outer loop
      vertex  7.900000e+001  2.441421e+001  9.414213e+000
      vertex  8.900000e+001  2.300000e+001  1.000000e+001
      vertex  8.900000e+001  2.441421e+001  9.414213e+000
    endloop
  endfacet
  facet normal  0.000000e+000  9.238794e-001  3.826838e-001
    outer loop
      vertex  7.900000e+001  2.441421e+001  9.414213e+000
      vertex  8.900000e+001  2.441421e+001  9.414213e+000
      vertex  7.900000e+001  2.500000e+001  8.000000e+000
    endloop
  endfacet
  facet normal  -0.000000e+000  9.238794e-001  3.826838e-001
    outer loop
      vertex  7.900000e+001  2.500000e+001  8.000000e+000
      vertex  8.900000e+001  2.441421e+001  9.414213e+000
      vertex  8.900000e+001  2.500000e+001  8.000000e+000
    endloop
  endfacet
  facet normal  3.779643e-001  9.124870e-001  1.565585e-001
    outer loop
      vertex  8.900000e+001  2.500000e+001  8.000000e+000
      vertex  9.000000e+001  2.441421e+001  9.000000e+000
      vertex  9.041422e+001  2.441421e+001  8.000000e+000
    endloop
  endfacet
  facet normal  1.565580e-001  9.124869e-001  3.779648e-001
    outer loop
      vertex  8.900000e+001  2.500000e+001  8.000000e+000
      vertex  8.900000e+001  2.441421e+001  9.414213e+000
      vertex  9.000000e+001  2.441421e+001  9.000000e+000
    endloop
  endfacet
  facet normal  3.574064e-001  3.574071e-001  8.628563e-001
    outer loop
      vertex  8.900000e+001  2.441421e+001  9.414213e+000
      vertex  8.900000e+001  2.300000e+001  1.000000e+001
      vertex  9.000000e+001  2.441421e+001  9.000000e+000
    endloop
  endfacet
  facet normal  3.574066e-001  3.574069e-001  8.628562e-001
    outer loop
      vertex  9.000000e+001  2.441421e+001  9.000000e+000
      vertex  8.900000e+001  2.300000e+001  1.000000e+001
      vertex  9.041422e+001  2.300000e+001  9.414213e+000
    endloop
  endfacet
  facet normal  8.628554e-001  3.574077e-001  3.574077e-001
    outer loop
      vertex  9.000000e+001  2.441421e+001  9.000000e+000
      vertex  9.041422e+001  2.300000e+001  9.414213e+000
      vertex  9.041422e+001  2.441421e+001  8.000000e+000
    endloop
  endfacet
  facet normal  8.628567e-001  3.574061e-001  3.574061e-001
    outer loop
      vertex  9.041422e+001  2.441421e+001  8.000000e+000
      vertex  9.041422e+001  2.300000e+001  9.414213e+000
      vertex  9.100000e+001  2.300000e+001  8.000000e+000
    endloop
  endfacet
  facet normal -5.877852e-001  8.090171e-001  0.000000e+000
    outer loop
      vertex -6.650203e+000  9.884595e+000  0.000000e+000
      vertex -5.275203e+000  1.088359e+001  1.000000e+001
      vertex -5.275203e+000  1.088359e+001  0.000000e+000
    endloop
  endfacet
  facet normal -9.510565e-001  3.090170e-001  0.000000e+000
    outer loop
      vertex -5.275203e+000  1.088359e+001  0.000000e+000
      vertex -5.275203e+000  1.088359e+001  1.000000e+001
      vertex -4.750000e+000  1.250000e+001  1.000000e+001
    endloop
  endfacet
  facet normal -9.510565e-001  3.090170e-001  0.000000e+000
    outer loop
      vertex -5.275203e+000  1.088359e+001  0.000000e+000
      vertex -4.750000e+000  1.250000e+001  1.000000e+001
      vertex -4.750000e+000  1.250000e+001  0.000000e+000
    endloop
  endfacet
  facet normal -5.877852e-001  8.090171e-001  0.000000e+000
    outer loop
      vertex -5.275203e+000  1.088359e+001  1.000000e+001
      vertex -6.650203e+000  9.884595e+000  0.000000e+000
      vertex -6.650203e+000  9.884595e+000  1.000000e+001
    endloop
  endfacet
  facet normal  0.000000e+000  9.999999e-001  0.000000e+000
    outer loop
      vertex -6.650203e+000  9.884595e+000  1.000000e+001
      vertex -6.650203e+000  9.884595e+000  0.000000e+000
      vertex -8.349796e+000  9.884595e+000  0.000000e+000
    endloop
  endfacet
  facet normal  0.000000e+000  9.999999e-001  0.000000e+000
    outer loop
      vertex -6.650203e+000  9.884595e+000  1.000000e+001
      vertex -8.349796e+000  9.884595e+000  0.000000e+000
      vertex -8.349796e+000  9.884595e+000  1.000000e+001
    endloop
  endfacet
  facet normal  5.877852e-001  8.090171e-001  0.000000e+000
    outer loop
      vertex -8.349796e+000  9.884595e+000  1.000000e+001
      vertex -8.349796e+000  9.884595e+000  0.000000e+000
      vertex -9.724796e+000  1.088359e+001  0.000000e+000
    endloop
  endfacet
  facet normal  5.877852e-001  8.090171e-001  -0.000000e+000
    outer loop
      vertex -8.349796e+000  9.884595e+000  1.000000e+001
      vertex -9.724796e+000  1.088359e+001  0.000000e+000
      vertex -9.724796e+000  1.088359e+001  1.000000e+001
    endloop
  endfacet
  facet normal  9.510565e-001  3.090173e-001  0.000000e+000
    outer loop
      vertex -9.724796e+000  1.088359e+001  1.000000e+001
      vertex -9.724796e+000  1.088359e+001  0.000000e+000
      vertex -1.025000e+001  1.250000e+001  0.000000e+000
    endloop
  endfacet
  facet normal  9.510565e-001  3.090173e-001  -0.000000e+000
    outer loop
      vertex -9.724796e+000  1.088359e+001  1.000000e+001
      vertex -1.025000e+001  1.250000e+001  0.000000e+000
      vertex -1.025000e+001  1.250000e+001  1.000000e+001
    endloop
  endfacet
  facet normal  5.877852e-001 -8.090171e-001  0.000000e+000
    outer loop
      vertex -8.349796e+000  1.511541e+001  0.000000e+000
      vertex -9.724796e+000  1.411641e+001  1.000000e+001
      vertex -9.724796e+000  1.411641e+001  0.000000e+000
    endloop
  endfacet
  facet normal  9.510565e-001 -3.090173e-001  0.000000e+000
    outer loop
      vertex -9.724796e+000  1.411641e+001  0.000000e+000
      vertex -9.724796e+000  1.411641e+001  1.000000e+001
      vertex -1.025000e+001  1.250000e+001  1.000000e+001
    endloop
  endfacet
  facet normal  9.510565e-001 -3.090173e-001  0.000000e+000
    outer loop
      vertex -9.724796e+000  1.411641e+001  0.000000e+000
      vertex -1.025000e+001  1.250000e+001  1.000000e+001
      vertex -1.025000e+001  1.250000e+001  0.000000e+000
    endloop
  endfacet
  facet normal  5.877852e-001 -8.090171e-001  0.000000e+000
    outer loop
      vertex -9.724796e+000  1.411641e+001  1.000000e+001
      vertex -8.349796e+000  1.511541e+001  0.000000e+000
      vertex -8.349796e+000  1.511541e+001  1.000000e+001
    endloop
  endfacet
  facet normal  0.000000e+000 -9.999999e-001  0.000000e+000
    outer loop
      vertex -8.349796e+000  1.511541e+001  1.000000e+001
      vertex -8.349796e+000  1.511541e+001  0.000000e+000
      vertex -6.650203e+000  1.511541e+001  0.000000e+000
    endloop
  endfacet
  facet normal  0.000000e+000 -9.999999e-001  0.000000e+000
    outer loop
      vertex -8.349796e+000  1.511541e+001  1.000000e+001
      vertex -6.650203e+000  1.511541e+001  0.000000e+000
      vertex -6.650203e+000  1.511541e+001  1.000000e+001
    endloop
  endfacet
  facet normal -5.877852e-001 -8.090171e-001  -0.000000e+000
    outer loop
      vertex -6.650203e+000  1.511541e+001  1.000000e+001
      vertex -6.650203e+000  1.511541e+001  0.000000e+000
      vertex -5.275203e+000  1.411641e+001  0.000000e+000
    endloop
  endfacet
  facet normal -5.877852e-001 -8.090171e-001  0.000000e+000
    outer loop
      vertex -6.650203e+000  1.511541e+001  1.000000e+001
      vertex -5.275203e+000  1.411641e+001  0.000000e+000
      vertex -5.275203e+000  1.411641e+001  1.000000e+001
    endloop
  endfacet
  facet normal -9.510565e-001 -3.090170e-001  -0.000000e+000
    outer loop
      vertex -5.275203e+000  1.411641e+001  1.000000e+001
      vertex -5.275203e+000  1.411641e+001  0.000000e+000
      vertex -4.750000e+000  1.250000e+001  0.000000e+000
    endloop
  endfacet
  facet normal -9.510565e-001 -3.090170e-001  0.000000e+000
    outer loop
      vertex -5.275203e+000  1.411641e+001  1.000000e+001
      vertex -4.750000e+000  1.250000e+001  0.000000e+000
      vertex -4.750000e+000  1.250000e+001  1.000000e+001
    endloop
  endfacet
  facet normal  5.877852e-001 -8.090171e-001  0.000000e+000
    outer loop
      vertex  8.265020e+001  1.511541e+001  0.000000e+000
      vertex  8.127520e+001  1.411641e+001  1.000000e+001
      vertex  8.127520e+001  1.411641e+001  0.000000e+000
    endloop
  endfacet
  facet normal  9.510571e-001 -3.090152e-001  0.000000e+000
    outer loop
      vertex  8.127520e+001  1.411641e+001  0.000000e+000
      vertex  8.127520e+001  1.411641e+001  1.000000e+001
      vertex  8.075000e+001  1.250000e+001  1.000000e+001
    endloop
  endfacet
  facet normal  9.510571e-001 -3.090152e-001  0.000000e+000
    outer loop
      vertex  8.127520e+001  1.411641e+001  0.000000e+000
      vertex  8.075000e+001  1.250000e+001  1.000000e+001
      vertex  8.075000e+001  1.250000e+001  0.000000e+000
    endloop
  endfacet
  facet normal  5.877852e-001 -8.090171e-001  0.000000e+000
    outer loop
      vertex  8.127520e+001  1.411641e+001  1.000000e+001
      vertex  8.265020e+001  1.511541e+001  0.000000e+000
      vertex  8.265020e+001  1.511541e+001  1.000000e+001
    endloop
  endfacet
  facet normal  0.000000e+000 -1.000000e+000  0.000000e+000
    outer loop
      vertex  8.265020e+001  1.511541e+001  1.000000e+001
      vertex  8.265020e+001  1.511541e+001  0.000000e+000
      vertex  8.434980e+001  1.511541e+001  0.000000e+000
    endloop
  endfacet
  facet normal  0.000000e+000 -1.000000e+000  0.000000e+000
    outer loop
      vertex  8.265020e+001  1.511541e+001  1.000000e+001
      vertex  8.434980e+001  1.511541e+001  0.000000e+000
      vertex  8.434980e+001  1.511541e+001  1.000000e+001
    endloop
  endfacet
  facet normal -5.877852e-001 -8.090171e-001  -0.000000e+000
    outer loop
      vertex  8.434980e+001  1.511541e+001  1.000000e+001
      vertex  8.434980e+001  1.511541e+001  0.000000e+000
      vertex  8.572480e+001  1.411641e+001  0.000000e+000
    endloop
  endfacet
  facet normal -5.877852e-001 -8.090171e-001  0.000000e+000
    outer loop
      vertex  8.434980e+001  1.511541e+001  1.000000e+001
      vertex  8.572480e+001  1.411641e+001  0.000000e+000
      vertex  8.572480e+001  1.411641e+001  1.000000e+001
    endloop
  endfacet
  facet normal -9.510571e-001 -3.090152e-001  -0.000000e+000
    outer loop
      vertex  8.572480e+001  1.411641e+001  1.000000e+001
      vertex  8.572480e+001  1.411641e+001  0.000000e+000
      vertex  8.625000e+001  1.250000e+001  0.000000e+000
    endloop
  endfacet
  facet normal -9.510571e-001 -3.090152e-001  0.000000e+000
    outer loop
      vertex  8.572480e+001  1.411641e+001  1.000000e+001
      vertex  8.625000e+001  1.250000e+001  0.000000e+000
      vertex  8.625000e+001  1.250000e+001  1.000000e+001
    endloop
  endfacet
  facet normal -5.877852e-001  8.090171e-001  0.000000e+000
    outer loop
      vertex  8.434980e+001  9.884595e+000  0.000000e+000
      vertex  8.572480e+001  1.088359e+001  1.000000e+001
      vertex  8.572480e+001  1.088359e+001  0.000000e+000
    endloop
  endfacet
  facet normal -9.510571e-001  3.090152e-001  0.000000e+000
    outer loop
      vertex  8.572480e+001  1.088359e+001  0.000000e+000
      vertex  8.572480e+001  1.088359e+001  1.000000e+001
      vertex  8.625000e+001  1.250000e+001  1.000000e+001
    endloop
  endfacet
  facet normal -9.510571e-001  3.090152e-001  0.000000e+000
    outer loop
      vertex  8.572480e+001  1.088359e+001  0.000000e+000
      vertex  8.625000e+001  1.250000e+001  1.000000e+001
      vertex  8.625000e+001  1.250000e+001  0.000000e+000
    endloop
  endfacet
  facet normal -5.877852e-001  8.090171e-001  0.000000e+000
    outer loop
      vertex  8.572480e+001  1.088359e+001  1.000000e+001
      vertex  8.434980e+001  9.884595e+000  0.000000e+000
      vertex  8.434980e+001  9.884595e+000  1.000000e+001
    endloop
  endfacet
  facet normal  0.000000e+000  1.000000e+000  0.000000e+000
    outer loop
      vertex  8.434980e+001  9.884595e+000  1.000000e+001
      vertex  8.434980e+001  9.884595e+000  0.000000e+000
      vertex  8.265020e+001  9.884595e+000  0.000000e+000
    endloop
  endfacet
  facet normal  0.000000e+000  1.000000e+000  0.000000e+000
    outer loop
      vertex  8.434980e+001  9.884595e+000  1.000000e+001
      vertex  8.265020e+001  9.884595e+000  0.000000e+000
      vertex  8.265020e+001  9.884595e+000  1.000000e+001
    endloop
  endfacet
  facet normal  5.877852e-001  8.090171e-001  0.000000e+000
    outer loop
      vertex  8.265020e+001  9.884595e+000  1.000000e+001
      vertex  8.265020e+001  9.884595e+000  0.000000e+000
      vertex  8.127520e+001  1.088359e+001  0.000000e+000
    endloop
  endfacet
  facet normal  5.877852e-001  8.090171e-001  -0.000000e+000
    outer loop
      vertex  8.265020e+001  9.884595e+000  1.000000e+001
      vertex  8.127520e+001  1.088359e+001  0.000000e+000
      vertex  8.127520e+001  1.088359e+001  1.000000e+001
    endloop
  endfacet
  facet normal  9.510571e-001  3.090152e-001  0.000000e+000
    outer loop
      vertex  8.127520e+001  1.088359e+001  1.000000e+001
      vertex  8.127520e+001  1.088359e+001  0.000000e+000
      vertex  8.075000e+001  1.250000e+001  0.000000e+000
    endloop
  endfacet
  facet normal  9.510571e-001  3.090152e-001  -0.000000e+000
    outer loop
      vertex  8.127520e+001  1.088359e+001  1.000000e+001
      vertex  8.075000e+001  1.250000e+001  0.000000e+000
      vertex  8.075000e+001  1.250000e+001  1.000000e+001
    endloop
  endfacet
  facet normal  -0.000000e+000  0.000000e+000 -1.000000e+000
    outer loop
      vertex  1.000000e+001  2.500000e+001  7.100000e+001
      vertex  6.600000e+001  2.500000e+001  7.100000e+001
      vertex  1.000000e+001  0.000000e+000  7.100000e+001
    endloop
  endfacet
  facet normal  0.000000e+000  0.000000e+000 -1.000000e+000
    outer loop
      vertex  1.000000e+001  0.000000e+000  7.100000e+001
      vertex  6.600000e+001  2.500000e+001  7.100000e+001
      vertex  6.600000e+001  0.000000e+000  7.100000e+001
    endloop
  endfacet
  facet normal -1.000000e+000  0.000000e+000  0.000000e+000
    outer loop
      vertex  6.600000e+001  2.500000e+001  0.000000e+000
      vertex  6.600000e+001  0.000000e+000  0.000000e+000
      vertex  6.600000e+001  2.500000e+001  7.100000e+001
    endloop
  endfacet
  facet normal -1.000000e+000  -0.000000e+000  0.000000e+000
    outer loop
      vertex  6.600000e+001  2.500000e+001  7.100000e+001
      vertex  6.600000e+001  0.000000e+000  0.000000e+000
      vertex  6.600000e+001  0.000000e+000  7.100000e+001
    endloop
  endfacet
  facet normal  1.000000e+000  0.000000e+000  0.000000e+000
    outer loop
      vertex  1.000000e+001  0.000000e+000  0.000000e+000
      vertex  1.000000e+001  2.500000e+001  0.000000e+000
      vertex  1.000000e+001  0.000000e+000  7.100000e+001
    endloop
  endfacet
  facet normal  1.000000e+000  -0.000000e+000  0.000000e+000
    outer loop
      vertex  1.000000e+001  0.000000e+000  7.100000e+001
      vertex  1.000000e+001  2.500000e+001  0.000000e+000
      vertex  1.000000e+001  2.500000e+001  7.100000e+001
    endloop
  endfacet
endsolid CATIA STL
