solid CATIA STL
  facet normal  0.000000e+000  0.000000e+000  1.000000e+000
    outer loop
      vertex  6.650203e+000  1.011541e+001  5.000000e+000
      vertex  6.650203e+000  1.988459e+001  5.000000e+000
      vertex  5.275203e+000  9.116409e+000  5.000000e+000
    endloop
  endfacet
  facet normal  0.000000e+000  0.000000e+000  1.000000e+000
    outer loop
      vertex  5.329071e-015  3.000000e+001  5.000000e+000
      vertex  0.000000e+000  0.000000e+000  5.000000e+000
      vertex  4.750000e+000  2.250000e+001  5.000000e+000
    endloop
  endfacet
  facet normal  0.000000e+000  -0.000000e+000  1.000000e+000
    outer loop
      vertex  5.329071e-015  3.000000e+001  5.000000e+000
      vertex  4.750000e+000  2.250000e+001  5.000000e+000
      vertex  5.275203e+000  2.411641e+001  5.000000e+000
    endloop
  endfacet
  facet normal  0.000000e+000  -0.000000e+000  9.999999e-001
    outer loop
      vertex  5.329071e-015  3.000000e+001  5.000000e+000
      vertex  5.275203e+000  2.411641e+001  5.000000e+000
      vertex  6.650203e+000  2.511541e+001  5.000000e+000
    endloop
  endfacet
  facet normal  0.000000e+000  -0.000000e+000  1.000000e+000
    outer loop
      vertex  5.329071e-015  3.000000e+001  5.000000e+000
      vertex  6.650203e+000  2.511541e+001  5.000000e+000
      vertex  8.349796e+000  2.511541e+001  5.000000e+000
    endloop
  endfacet
  facet normal  0.000000e+000  -0.000000e+000  1.000000e+000
    outer loop
      vertex  5.329071e-015  3.000000e+001  5.000000e+000
      vertex  8.349796e+000  2.511541e+001  5.000000e+000
      vertex  1.500000e+001  3.000000e+001  5.000000e+000
    endloop
  endfacet
  facet normal  0.000000e+000  0.000000e+000  1.000000e+000
    outer loop
      vertex  0.000000e+000  0.000000e+000  5.000000e+000
      vertex  1.500000e+001  0.000000e+000  5.000000e+000
      vertex  8.349796e+000  4.884594e+000  5.000000e+000
    endloop
  endfacet
  facet normal  0.000000e+000  0.000000e+000  1.000000e+000
    outer loop
      vertex  0.000000e+000  0.000000e+000  5.000000e+000
      vertex  8.349796e+000  4.884594e+000  5.000000e+000
      vertex  6.650203e+000  4.884594e+000  5.000000e+000
    endloop
  endfacet
  facet normal  0.000000e+000  0.000000e+000  1.000000e+000
    outer loop
      vertex  0.000000e+000  0.000000e+000  5.000000e+000
      vertex  6.650203e+000  4.884594e+000  5.000000e+000
      vertex  5.275203e+000  5.883591e+000  5.000000e+000
    endloop
  endfacet
  facet normal  0.000000e+000  0.000000e+000  1.000000e+000
    outer loop
      vertex  0.000000e+000  0.000000e+000  5.000000e+000
      vertex  5.275203e+000  5.883591e+000  5.000000e+000
      vertex  4.750000e+000  7.500000e+000  5.000000e+000
    endloop
  endfacet
  facet normal  0.000000e+000  -0.000000e+000  1.000000e+000
    outer loop
      vertex  0.000000e+000  0.000000e+000  5.000000e+000
      vertex  4.750000e+000  7.500000e+000  5.000000e+000
      vertex  5.275203e+000  9.116409e+000  5.000000e+000
    endloop
  endfacet
  facet normal  0.000000e+000  -0.000000e+000  1.000000e+000
    outer loop
      vertex  0.000000e+000  0.000000e+000  5.000000e+000
      vertex  5.275203e+000  9.116409e+000  5.000000e+000
      vertex  6.650203e+000  1.988459e+001  5.000000e+000
    endloop
  endfacet
  facet normal  0.000000e+000  0.000000e+000  1.000000e+000
    outer loop
      vertex  0.000000e+000  0.000000e+000  5.000000e+000
      vertex  6.650203e+000  1.988459e+001  5.000000e+000
      vertex  5.275203e+000  2.088359e+001  5.000000e+000
    endloop
  endfacet
  facet normal  0.000000e+000  0.000000e+000  1.000000e+000
    outer loop
      vertex  0.000000e+000  0.000000e+000  5.000000e+000
      vertex  5.275203e+000  2.088359e+001  5.000000e+000
      vertex  4.750000e+000  2.250000e+001  5.000000e+000
    endloop
  endfacet
  facet normal  0.000000e+000  0.000000e+000  1.000000e+000
    outer loop
      vertex  1.500000e+001  0.000000e+000  5.000000e+000
      vertex  1.025000e+001  2.250000e+001  5.000000e+000
      vertex  9.724796e+000  2.088359e+001  5.000000e+000
    endloop
  endfacet
  facet normal  0.000000e+000  0.000000e+000  1.000000e+000
    outer loop
      vertex  1.500000e+001  0.000000e+000  5.000000e+000
      vertex  9.724796e+000  2.088359e+001  5.000000e+000
      vertex  8.349796e+000  1.988459e+001  5.000000e+000
    endloop
  endfacet
  facet normal  0.000000e+000  0.000000e+000  1.000000e+000
    outer loop
      vertex  1.500000e+001  0.000000e+000  5.000000e+000
      vertex  8.349796e+000  1.988459e+001  5.000000e+000
      vertex  9.724796e+000  9.116409e+000  5.000000e+000
    endloop
  endfacet
  facet normal  0.000000e+000  0.000000e+000  9.999999e-001
    outer loop
      vertex  1.500000e+001  0.000000e+000  5.000000e+000
      vertex  9.724796e+000  9.116409e+000  5.000000e+000
      vertex  1.025000e+001  7.500000e+000  5.000000e+000
    endloop
  endfacet
  facet normal  0.000000e+000  0.000000e+000  1.000000e+000
    outer loop
      vertex  1.500000e+001  0.000000e+000  5.000000e+000
      vertex  1.025000e+001  7.500000e+000  5.000000e+000
      vertex  9.724796e+000  5.883591e+000  5.000000e+000
    endloop
  endfacet
  facet normal  0.000000e+000  0.000000e+000  1.000000e+000
    outer loop
      vertex  1.500000e+001  0.000000e+000  5.000000e+000
      vertex  9.724796e+000  5.883591e+000  5.000000e+000
      vertex  8.349796e+000  4.884594e+000  5.000000e+000
    endloop
  endfacet
  facet normal  -0.000000e+000  0.000000e+000  9.999999e-001
    outer loop
      vertex  1.500000e+001  3.000000e+001  5.000000e+000
      vertex  8.349796e+000  2.511541e+001  5.000000e+000
      vertex  9.724796e+000  2.411641e+001  5.000000e+000
    endloop
  endfacet
  facet normal  -0.000000e+000  0.000000e+000  1.000000e+000
    outer loop
      vertex  1.500000e+001  3.000000e+001  5.000000e+000
      vertex  9.724796e+000  2.411641e+001  5.000000e+000
      vertex  1.025000e+001  2.250000e+001  5.000000e+000
    endloop
  endfacet
  facet normal  -0.000000e+000  0.000000e+000  1.000000e+000
    outer loop
      vertex  1.500000e+001  3.000000e+001  5.000000e+000
      vertex  1.025000e+001  2.250000e+001  5.000000e+000
      vertex  1.500000e+001  0.000000e+000  5.000000e+000
    endloop
  endfacet
  facet normal  0.000000e+000  0.000000e+000  1.000000e+000
    outer loop
      vertex  6.650203e+000  1.988459e+001  5.000000e+000
      vertex  6.650203e+000  1.011541e+001  5.000000e+000
      vertex  8.349796e+000  1.988459e+001  5.000000e+000
    endloop
  endfacet
  facet normal  0.000000e+000  0.000000e+000  1.000000e+000
    outer loop
      vertex  8.349796e+000  1.988459e+001  5.000000e+000
      vertex  6.650203e+000  1.011541e+001  5.000000e+000
      vertex  8.349796e+000  1.011541e+001  5.000000e+000
    endloop
  endfacet
  facet normal  -0.000000e+000  0.000000e+000  1.000000e+000
    outer loop
      vertex  8.349796e+000  1.988459e+001  5.000000e+000
      vertex  8.349796e+000  1.011541e+001  5.000000e+000
      vertex  9.724796e+000  9.116409e+000  5.000000e+000
    endloop
  endfacet
  facet normal  0.000000e+000  -0.000000e+000 -1.000000e+000
    outer loop
      vertex  5.275203e+000  9.116409e+000  0.000000e+000
      vertex  6.650203e+000  1.988459e+001  0.000000e+000
      vertex  6.650203e+000  1.011541e+001  0.000000e+000
    endloop
  endfacet
  facet normal  -0.000000e+000  0.000000e+000 -1.000000e+000
    outer loop
      vertex  5.329071e-015  3.000000e+001  0.000000e+000
      vertex  1.500000e+001  3.000000e+001  0.000000e+000
      vertex  8.349796e+000  2.511541e+001  0.000000e+000
    endloop
  endfacet
  facet normal  0.000000e+000  0.000000e+000 -1.000000e+000
    outer loop
      vertex  5.329071e-015  3.000000e+001  0.000000e+000
      vertex  8.349796e+000  2.511541e+001  0.000000e+000
      vertex  6.650203e+000  2.511541e+001  0.000000e+000
    endloop
  endfacet
  facet normal  -0.000000e+000  0.000000e+000 -9.999999e-001
    outer loop
      vertex  5.329071e-015  3.000000e+001  0.000000e+000
      vertex  6.650203e+000  2.511541e+001  0.000000e+000
      vertex  5.275203e+000  2.411641e+001  0.000000e+000
    endloop
  endfacet
  facet normal  -0.000000e+000  0.000000e+000 -1.000000e+000
    outer loop
      vertex  5.329071e-015  3.000000e+001  0.000000e+000
      vertex  5.275203e+000  2.411641e+001  0.000000e+000
      vertex  4.750000e+000  2.250000e+001  0.000000e+000
    endloop
  endfacet
  facet normal  -0.000000e+000  0.000000e+000 -1.000000e+000
    outer loop
      vertex  5.329071e-015  3.000000e+001  0.000000e+000
      vertex  4.750000e+000  2.250000e+001  0.000000e+000
      vertex  0.000000e+000  0.000000e+000  0.000000e+000
    endloop
  endfacet
  facet normal  0.000000e+000  -0.000000e+000 -1.000000e+000
    outer loop
      vertex  0.000000e+000  0.000000e+000  0.000000e+000
      vertex  4.750000e+000  2.250000e+001  0.000000e+000
      vertex  5.275203e+000  2.088359e+001  0.000000e+000
    endloop
  endfacet
  facet normal  0.000000e+000  -0.000000e+000 -1.000000e+000
    outer loop
      vertex  0.000000e+000  0.000000e+000  0.000000e+000
      vertex  5.275203e+000  2.088359e+001  0.000000e+000
      vertex  6.650203e+000  1.988459e+001  0.000000e+000
    endloop
  endfacet
  facet normal  0.000000e+000  0.000000e+000 -1.000000e+000
    outer loop
      vertex  0.000000e+000  0.000000e+000  0.000000e+000
      vertex  6.650203e+000  1.988459e+001  0.000000e+000
      vertex  5.275203e+000  9.116409e+000  0.000000e+000
    endloop
  endfacet
  facet normal  0.000000e+000  0.000000e+000 -1.000000e+000
    outer loop
      vertex  0.000000e+000  0.000000e+000  0.000000e+000
      vertex  5.275203e+000  9.116409e+000  0.000000e+000
      vertex  4.750000e+000  7.500000e+000  0.000000e+000
    endloop
  endfacet
  facet normal  0.000000e+000  -0.000000e+000 -1.000000e+000
    outer loop
      vertex  0.000000e+000  0.000000e+000  0.000000e+000
      vertex  4.750000e+000  7.500000e+000  0.000000e+000
      vertex  5.275203e+000  5.883591e+000  0.000000e+000
    endloop
  endfacet
  facet normal  0.000000e+000  -0.000000e+000 -1.000000e+000
    outer loop
      vertex  0.000000e+000  0.000000e+000  0.000000e+000
      vertex  5.275203e+000  5.883591e+000  0.000000e+000
      vertex  6.650203e+000  4.884594e+000  0.000000e+000
    endloop
  endfacet
  facet normal  0.000000e+000  -0.000000e+000 -1.000000e+000
    outer loop
      vertex  0.000000e+000  0.000000e+000  0.000000e+000
      vertex  6.650203e+000  4.884594e+000  0.000000e+000
      vertex  8.349796e+000  4.884594e+000  0.000000e+000
    endloop
  endfacet
  facet normal  0.000000e+000  -0.000000e+000 -1.000000e+000
    outer loop
      vertex  0.000000e+000  0.000000e+000  0.000000e+000
      vertex  8.349796e+000  4.884594e+000  0.000000e+000
      vertex  1.500000e+001  0.000000e+000  0.000000e+000
    endloop
  endfacet
  facet normal  0.000000e+000  0.000000e+000 -1.000000e+000
    outer loop
      vertex  1.500000e+001  0.000000e+000  0.000000e+000
      vertex  8.349796e+000  4.884594e+000  0.000000e+000
      vertex  9.724796e+000  5.883591e+000  0.000000e+000
    endloop
  endfacet
  facet normal  0.000000e+000  0.000000e+000 -1.000000e+000
    outer loop
      vertex  1.500000e+001  0.000000e+000  0.000000e+000
      vertex  9.724796e+000  5.883591e+000  0.000000e+000
      vertex  1.025000e+001  7.500000e+000  0.000000e+000
    endloop
  endfacet
  facet normal  0.000000e+000  0.000000e+000 -9.999999e-001
    outer loop
      vertex  1.500000e+001  0.000000e+000  0.000000e+000
      vertex  1.025000e+001  7.500000e+000  0.000000e+000
      vertex  9.724796e+000  9.116409e+000  0.000000e+000
    endloop
  endfacet
  facet normal  0.000000e+000  0.000000e+000 -1.000000e+000
    outer loop
      vertex  1.500000e+001  0.000000e+000  0.000000e+000
      vertex  9.724796e+000  9.116409e+000  0.000000e+000
      vertex  8.349796e+000  1.988459e+001  0.000000e+000
    endloop
  endfacet
  facet normal  0.000000e+000  0.000000e+000 -1.000000e+000
    outer loop
      vertex  1.500000e+001  0.000000e+000  0.000000e+000
      vertex  8.349796e+000  1.988459e+001  0.000000e+000
      vertex  9.724796e+000  2.088359e+001  0.000000e+000
    endloop
  endfacet
  facet normal  0.000000e+000  0.000000e+000 -1.000000e+000
    outer loop
      vertex  1.500000e+001  0.000000e+000  0.000000e+000
      vertex  9.724796e+000  2.088359e+001  0.000000e+000
      vertex  1.025000e+001  2.250000e+001  0.000000e+000
    endloop
  endfacet
  facet normal  0.000000e+000  0.000000e+000 -1.000000e+000
    outer loop
      vertex  1.500000e+001  3.000000e+001  0.000000e+000
      vertex  1.500000e+001  0.000000e+000  0.000000e+000
      vertex  1.025000e+001  2.250000e+001  0.000000e+000
    endloop
  endfacet
  facet normal  0.000000e+000  0.000000e+000 -1.000000e+000
    outer loop
      vertex  1.500000e+001  3.000000e+001  0.000000e+000
      vertex  1.025000e+001  2.250000e+001  0.000000e+000
      vertex  9.724796e+000  2.411641e+001  0.000000e+000
    endloop
  endfacet
  facet normal  0.000000e+000  0.000000e+000 -9.999999e-001
    outer loop
      vertex  1.500000e+001  3.000000e+001  0.000000e+000
      vertex  9.724796e+000  2.411641e+001  0.000000e+000
      vertex  8.349796e+000  2.511541e+001  0.000000e+000
    endloop
  endfacet
  facet normal  0.000000e+000  0.000000e+000 -1.000000e+000
    outer loop
      vertex  9.724796e+000  9.116409e+000  0.000000e+000
      vertex  8.349796e+000  1.011541e+001  0.000000e+000
      vertex  8.349796e+000  1.988459e+001  0.000000e+000
    endloop
  endfacet
  facet normal  0.000000e+000  -0.000000e+000 -1.000000e+000
    outer loop
      vertex  8.349796e+000  1.988459e+001  0.000000e+000
      vertex  8.349796e+000  1.011541e+001  0.000000e+000
      vertex  6.650203e+000  1.011541e+001  0.000000e+000
    endloop
  endfacet
  facet normal  0.000000e+000  0.000000e+000 -1.000000e+000
    outer loop
      vertex  8.349796e+000  1.988459e+001  0.000000e+000
      vertex  6.650203e+000  1.011541e+001  0.000000e+000
      vertex  6.650203e+000  1.988459e+001  0.000000e+000
    endloop
  endfacet
  facet normal  5.877855e-001 -8.090168e-001  0.000000e+000
    outer loop
      vertex  6.650203e+000  2.511541e+001  0.000000e+000
      vertex  5.275203e+000  2.411641e+001  5.000000e+000
      vertex  5.275203e+000  2.411641e+001  0.000000e+000
    endloop
  endfacet
  facet normal  9.510565e-001 -3.090170e-001  0.000000e+000
    outer loop
      vertex  5.275203e+000  2.411641e+001  0.000000e+000
      vertex  5.275203e+000  2.411641e+001  5.000000e+000
      vertex  4.750000e+000  2.250000e+001  5.000000e+000
    endloop
  endfacet
  facet normal  9.510565e-001 -3.090170e-001  0.000000e+000
    outer loop
      vertex  5.275203e+000  2.411641e+001  0.000000e+000
      vertex  4.750000e+000  2.250000e+001  5.000000e+000
      vertex  4.750000e+000  2.250000e+001  0.000000e+000
    endloop
  endfacet
  facet normal  5.877855e-001 -8.090168e-001  0.000000e+000
    outer loop
      vertex  5.275203e+000  2.411641e+001  5.000000e+000
      vertex  6.650203e+000  2.511541e+001  0.000000e+000
      vertex  6.650203e+000  2.511541e+001  5.000000e+000
    endloop
  endfacet
  facet normal  0.000000e+000 -9.999999e-001  0.000000e+000
    outer loop
      vertex  6.650203e+000  2.511541e+001  5.000000e+000
      vertex  6.650203e+000  2.511541e+001  0.000000e+000
      vertex  8.349796e+000  2.511541e+001  0.000000e+000
    endloop
  endfacet
  facet normal  0.000000e+000 -9.999999e-001  0.000000e+000
    outer loop
      vertex  6.650203e+000  2.511541e+001  5.000000e+000
      vertex  8.349796e+000  2.511541e+001  0.000000e+000
      vertex  8.349796e+000  2.511541e+001  5.000000e+000
    endloop
  endfacet
  facet normal -5.877855e-001 -8.090168e-001  -0.000000e+000
    outer loop
      vertex  8.349796e+000  2.511541e+001  5.000000e+000
      vertex  8.349796e+000  2.511541e+001  0.000000e+000
      vertex  9.724796e+000  2.411641e+001  0.000000e+000
    endloop
  endfacet
  facet normal -5.877855e-001 -8.090168e-001  0.000000e+000
    outer loop
      vertex  8.349796e+000  2.511541e+001  5.000000e+000
      vertex  9.724796e+000  2.411641e+001  0.000000e+000
      vertex  9.724796e+000  2.411641e+001  5.000000e+000
    endloop
  endfacet
  facet normal -9.510565e-001 -3.090173e-001  -0.000000e+000
    outer loop
      vertex  9.724796e+000  2.411641e+001  5.000000e+000
      vertex  9.724796e+000  2.411641e+001  0.000000e+000
      vertex  1.025000e+001  2.250000e+001  0.000000e+000
    endloop
  endfacet
  facet normal -9.510565e-001 -3.090173e-001  0.000000e+000
    outer loop
      vertex  9.724796e+000  2.411641e+001  5.000000e+000
      vertex  1.025000e+001  2.250000e+001  0.000000e+000
      vertex  1.025000e+001  2.250000e+001  5.000000e+000
    endloop
  endfacet
  facet normal -5.877855e-001  8.090168e-001  0.000000e+000
    outer loop
      vertex  8.349796e+000  1.988459e+001  0.000000e+000
      vertex  9.724796e+000  2.088359e+001  5.000000e+000
      vertex  9.724796e+000  2.088359e+001  0.000000e+000
    endloop
  endfacet
  facet normal -9.510565e-001  3.090173e-001  0.000000e+000
    outer loop
      vertex  9.724796e+000  2.088359e+001  0.000000e+000
      vertex  9.724796e+000  2.088359e+001  5.000000e+000
      vertex  1.025000e+001  2.250000e+001  5.000000e+000
    endloop
  endfacet
  facet normal -9.510565e-001  3.090173e-001  0.000000e+000
    outer loop
      vertex  9.724796e+000  2.088359e+001  0.000000e+000
      vertex  1.025000e+001  2.250000e+001  5.000000e+000
      vertex  1.025000e+001  2.250000e+001  0.000000e+000
    endloop
  endfacet
  facet normal -5.877855e-001  8.090168e-001  0.000000e+000
    outer loop
      vertex  9.724796e+000  2.088359e+001  5.000000e+000
      vertex  8.349796e+000  1.988459e+001  0.000000e+000
      vertex  8.349796e+000  1.988459e+001  5.000000e+000
    endloop
  endfacet
  facet normal  0.000000e+000  9.999999e-001  0.000000e+000
    outer loop
      vertex  8.349796e+000  1.988459e+001  5.000000e+000
      vertex  8.349796e+000  1.988459e+001  0.000000e+000
      vertex  6.650203e+000  1.988459e+001  0.000000e+000
    endloop
  endfacet
  facet normal  0.000000e+000  9.999999e-001  0.000000e+000
    outer loop
      vertex  8.349796e+000  1.988459e+001  5.000000e+000
      vertex  6.650203e+000  1.988459e+001  0.000000e+000
      vertex  6.650203e+000  1.988459e+001  5.000000e+000
    endloop
  endfacet
  facet normal  5.877855e-001  8.090168e-001  0.000000e+000
    outer loop
      vertex  6.650203e+000  1.988459e+001  5.000000e+000
      vertex  6.650203e+000  1.988459e+001  0.000000e+000
      vertex  5.275203e+000  2.088359e+001  0.000000e+000
    endloop
  endfacet
  facet normal  5.877855e-001  8.090168e-001  -0.000000e+000
    outer loop
      vertex  6.650203e+000  1.988459e+001  5.000000e+000
      vertex  5.275203e+000  2.088359e+001  0.000000e+000
      vertex  5.275203e+000  2.088359e+001  5.000000e+000
    endloop
  endfacet
  facet normal  9.510565e-001  3.090170e-001  0.000000e+000
    outer loop
      vertex  5.275203e+000  2.088359e+001  5.000000e+000
      vertex  5.275203e+000  2.088359e+001  0.000000e+000
      vertex  4.750000e+000  2.250000e+001  0.000000e+000
    endloop
  endfacet
  facet normal  9.510565e-001  3.090170e-001  -0.000000e+000
    outer loop
      vertex  5.275203e+000  2.088359e+001  5.000000e+000
      vertex  4.750000e+000  2.250000e+001  0.000000e+000
      vertex  4.750000e+000  2.250000e+001  5.000000e+000
    endloop
  endfacet
  facet normal  5.877852e-001 -8.090171e-001  0.000000e+000
    outer loop
      vertex  6.650203e+000  1.011541e+001  0.000000e+000
      vertex  5.275203e+000  9.116409e+000  5.000000e+000
      vertex  5.275203e+000  9.116409e+000  0.000000e+000
    endloop
  endfacet
  facet normal  9.510565e-001 -3.090170e-001  0.000000e+000
    outer loop
      vertex  5.275203e+000  9.116409e+000  0.000000e+000
      vertex  5.275203e+000  9.116409e+000  5.000000e+000
      vertex  4.750000e+000  7.500000e+000  5.000000e+000
    endloop
  endfacet
  facet normal  9.510565e-001 -3.090170e-001  0.000000e+000
    outer loop
      vertex  5.275203e+000  9.116409e+000  0.000000e+000
      vertex  4.750000e+000  7.500000e+000  5.000000e+000
      vertex  4.750000e+000  7.500000e+000  0.000000e+000
    endloop
  endfacet
  facet normal  5.877852e-001 -8.090171e-001  0.000000e+000
    outer loop
      vertex  5.275203e+000  9.116409e+000  5.000000e+000
      vertex  6.650203e+000  1.011541e+001  0.000000e+000
      vertex  6.650203e+000  1.011541e+001  5.000000e+000
    endloop
  endfacet
  facet normal  0.000000e+000 -9.999999e-001  0.000000e+000
    outer loop
      vertex  6.650203e+000  1.011541e+001  5.000000e+000
      vertex  6.650203e+000  1.011541e+001  0.000000e+000
      vertex  8.349796e+000  1.011541e+001  0.000000e+000
    endloop
  endfacet
  facet normal  0.000000e+000 -9.999999e-001  0.000000e+000
    outer loop
      vertex  6.650203e+000  1.011541e+001  5.000000e+000
      vertex  8.349796e+000  1.011541e+001  0.000000e+000
      vertex  8.349796e+000  1.011541e+001  5.000000e+000
    endloop
  endfacet
  facet normal -5.877852e-001 -8.090171e-001  -0.000000e+000
    outer loop
      vertex  8.349796e+000  1.011541e+001  5.000000e+000
      vertex  8.349796e+000  1.011541e+001  0.000000e+000
      vertex  9.724796e+000  9.116409e+000  0.000000e+000
    endloop
  endfacet
  facet normal -5.877852e-001 -8.090171e-001  0.000000e+000
    outer loop
      vertex  8.349796e+000  1.011541e+001  5.000000e+000
      vertex  9.724796e+000  9.116409e+000  0.000000e+000
      vertex  9.724796e+000  9.116409e+000  5.000000e+000
    endloop
  endfacet
  facet normal -9.510565e-001 -3.090173e-001  -0.000000e+000
    outer loop
      vertex  9.724796e+000  9.116409e+000  5.000000e+000
      vertex  9.724796e+000  9.116409e+000  0.000000e+000
      vertex  1.025000e+001  7.500000e+000  0.000000e+000
    endloop
  endfacet
  facet normal -9.510565e-001 -3.090173e-001  0.000000e+000
    outer loop
      vertex  9.724796e+000  9.116409e+000  5.000000e+000
      vertex  1.025000e+001  7.500000e+000  0.000000e+000
      vertex  1.025000e+001  7.500000e+000  5.000000e+000
    endloop
  endfacet
  facet normal -5.877854e-001  8.090169e-001  0.000000e+000
    outer loop
      vertex  8.349796e+000  4.884594e+000  0.000000e+000
      vertex  9.724796e+000  5.883591e+000  5.000000e+000
      vertex  9.724796e+000  5.883591e+000  0.000000e+000
    endloop
  endfacet
  facet normal -9.510565e-001  3.090173e-001  0.000000e+000
    outer loop
      vertex  9.724796e+000  5.883591e+000  0.000000e+000
      vertex  9.724796e+000  5.883591e+000  5.000000e+000
      vertex  1.025000e+001  7.500000e+000  5.000000e+000
    endloop
  endfacet
  facet normal -9.510565e-001  3.090173e-001  0.000000e+000
    outer loop
      vertex  9.724796e+000  5.883591e+000  0.000000e+000
      vertex  1.025000e+001  7.500000e+000  5.000000e+000
      vertex  1.025000e+001  7.500000e+000  0.000000e+000
    endloop
  endfacet
  facet normal -5.877854e-001  8.090169e-001  0.000000e+000
    outer loop
      vertex  9.724796e+000  5.883591e+000  5.000000e+000
      vertex  8.349796e+000  4.884594e+000  0.000000e+000
      vertex  8.349796e+000  4.884594e+000  5.000000e+000
    endloop
  endfacet
  facet normal  0.000000e+000  9.999999e-001  0.000000e+000
    outer loop
      vertex  8.349796e+000  4.884594e+000  5.000000e+000
      vertex  8.349796e+000  4.884594e+000  0.000000e+000
      vertex  6.650203e+000  4.884594e+000  0.000000e+000
    endloop
  endfacet
  facet normal  0.000000e+000  9.999999e-001  0.000000e+000
    outer loop
      vertex  8.349796e+000  4.884594e+000  5.000000e+000
      vertex  6.650203e+000  4.884594e+000  0.000000e+000
      vertex  6.650203e+000  4.884594e+000  5.000000e+000
    endloop
  endfacet
  facet normal  5.877854e-001  8.090169e-001  0.000000e+000
    outer loop
      vertex  6.650203e+000  4.884594e+000  5.000000e+000
      vertex  6.650203e+000  4.884594e+000  0.000000e+000
      vertex  5.275203e+000  5.883591e+000  0.000000e+000
    endloop
  endfacet
  facet normal  5.877854e-001  8.090169e-001  -0.000000e+000
    outer loop
      vertex  6.650203e+000  4.884594e+000  5.000000e+000
      vertex  5.275203e+000  5.883591e+000  0.000000e+000
      vertex  5.275203e+000  5.883591e+000  5.000000e+000
    endloop
  endfacet
  facet normal  9.510565e-001  3.090170e-001  0.000000e+000
    outer loop
      vertex  5.275203e+000  5.883591e+000  5.000000e+000
      vertex  5.275203e+000  5.883591e+000  0.000000e+000
      vertex  4.750000e+000  7.500000e+000  0.000000e+000
    endloop
  endfacet
  facet normal  9.510565e-001  3.090170e-001  -0.000000e+000
    outer loop
      vertex  5.275203e+000  5.883591e+000  5.000000e+000
      vertex  4.750000e+000  7.500000e+000  0.000000e+000
      vertex  4.750000e+000  7.500000e+000  5.000000e+000
    endloop
  endfacet
  facet normal -1.000000e+000  1.776357e-016  0.000000e+000
    outer loop
      vertex  5.329071e-015  3.000000e+001  5.000000e+000
      vertex  5.329071e-015  3.000000e+001  0.000000e+000
      vertex  0.000000e+000  0.000000e+000  5.000000e+000
    endloop
  endfacet
  facet normal -1.000000e+000  1.776357e-016  0.000000e+000
    outer loop
      vertex  0.000000e+000  0.000000e+000  5.000000e+000
      vertex  5.329071e-015  3.000000e+001  0.000000e+000
      vertex  0.000000e+000  0.000000e+000  0.000000e+000
    endloop
  endfacet
  facet normal  0.000000e+000  1.000000e+000  -0.000000e+000
    outer loop
      vertex  1.500000e+001  3.000000e+001  5.000000e+000
      vertex  1.500000e+001  3.000000e+001  0.000000e+000
      vertex  5.329071e-015  3.000000e+001  5.000000e+000
    endloop
  endfacet
  facet normal  0.000000e+000  1.000000e+000  0.000000e+000
    outer loop
      vertex  5.329071e-015  3.000000e+001  5.000000e+000
      vertex  1.500000e+001  3.000000e+001  0.000000e+000
      vertex  5.329071e-015  3.000000e+001  0.000000e+000
    endloop
  endfacet
  facet normal  1.000000e+000  0.000000e+000  0.000000e+000
    outer loop
      vertex  1.500000e+001  0.000000e+000  5.000000e+000
      vertex  1.500000e+001  0.000000e+000  0.000000e+000
      vertex  1.500000e+001  3.000000e+001  5.000000e+000
    endloop
  endfacet
  facet normal  1.000000e+000  0.000000e+000  0.000000e+000
    outer loop
      vertex  1.500000e+001  3.000000e+001  5.000000e+000
      vertex  1.500000e+001  0.000000e+000  0.000000e+000
      vertex  1.500000e+001  3.000000e+001  0.000000e+000
    endloop
  endfacet
  facet normal  0.000000e+000 -1.000000e+000  0.000000e+000
    outer loop
      vertex  0.000000e+000  0.000000e+000  5.000000e+000
      vertex  0.000000e+000  0.000000e+000  0.000000e+000
      vertex  1.500000e+001  0.000000e+000  5.000000e+000
    endloop
  endfacet
  facet normal  0.000000e+000 -1.000000e+000  -0.000000e+000
    outer loop
      vertex  1.500000e+001  0.000000e+000  5.000000e+000
      vertex  0.000000e+000  0.000000e+000  0.000000e+000
      vertex  1.500000e+001  0.000000e+000  0.000000e+000
    endloop
  endfacet
endsolid CATIA STL
